<svg width="566" height="278" viewBox="0 0 566 278" fill="none" xmlns="http://www.w3.org/2000/svg">
<path fill-rule="evenodd" clip-rule="evenodd" d="M31.7196 195.01C22.108 206.241 12.4869 217.473 2.84733 228.688C2.29356 229.338 1.64616 229.922 0.99937 230.506C0.668132 230.805 0.337077 231.103 0.0187786 231.411L0.0187783 234.796C0.333537 234.506 0.661295 234.225 0.989237 233.945C1.65995 233.37 2.33152 232.796 2.8939 232.14C22.7886 208.915 42.6733 185.681 62.558 162.446C75.7996 146.974 89.0412 131.502 102.286 116.032C123.12 91.6814 143.973 67.3423 164.825 43.0053C169.405 37.6593 173.985 32.3135 178.565 26.9677C179.078 26.3668 179.631 25.7974 180.251 25.1576C180.542 24.858 180.847 24.543 181.17 24.2022C182.647 24.4303 184.125 24.6554 185.603 24.8806C189.129 25.4177 192.659 25.9553 196.179 26.535C208.157 28.4989 220.133 30.4717 232.107 32.4442C243.564 34.3315 255.019 36.2186 266.475 38.0975C293.859 42.5936 321.251 47.0812 348.644 51.5602C357.203 52.9592 361.552 53.6027 369.733 54.8134L370.966 54.9959C372.073 55.1571 378.726 56.1327 378.726 56.1327C378.726 56.1327 380.782 58.1177 381.797 59.1526C389.14 66.6346 396.55 74.0558 403.958 81.4748C406.134 83.6536 408.309 85.8323 410.483 88.0122C411.197 88.7271 411.929 89.432 412.756 90.2281C413.244 90.6978 413.765 91.1992 414.335 91.7533C431.003 76.7576 447.724 61.838 464.462 46.9038C480.997 32.1507 497.548 17.3833 514.079 2.51454C521.739 2.5555 530.251 2.5555 539.082 2.5555C547.913 2.5555 557.063 2.5555 566 2.59646L566 0.186515L557.488 0.186492L525.995 0.186503L512.936 0.186496C480.184 29.6059 447.468 58.9915 414.381 88.7078C408.248 82.5838 402.204 76.5461 396.171 70.5195C390.855 65.2092 385.548 59.9077 380.196 54.5633C350.221 49.6636 320.215 44.7605 290.175 39.8516C253.588 33.8731 216.95 27.8861 180.249 21.8863C179.626 22.5813 179.014 23.2558 178.414 23.9181C177.081 25.3899 175.803 26.8009 174.564 28.2401C147.981 59.2459 121.398 90.2517 94.8329 121.274C81.5894 136.733 68.3532 152.201 55.1175 167.669C47.3185 176.784 39.5198 185.898 31.7196 195.01ZM2.94023 244.992C8.15232 238.74 13.3321 232.467 18.5119 226.193C20.6836 223.563 22.8553 220.933 25.0294 218.304L25.1091 218.208C49.2931 188.939 73.4772 159.671 97.6706 130.411C112.228 112.804 126.793 95.2007 141.358 77.5965L141.362 77.5916L141.481 77.4474C150.735 66.2628 159.989 55.0778 169.242 43.8916C171.708 40.908 174.181 37.9313 176.719 34.8776L176.73 34.8642L176.753 34.8365C178.216 33.0759 179.7 31.2897 181.217 29.4618L248.225 39.4291L249.205 39.5748C290.8 45.7621 332.34 51.941 373.813 58.1093C377.54 61.6053 381.253 65.0879 384.96 68.5654C395.708 78.6482 406.411 88.6882 417.294 98.8877C433.202 83.724 448.967 68.6008 464.667 53.5407C480.042 38.7926 495.353 24.1049 510.674 9.49877C512.671 9.49877 514.666 9.49208 516.647 9.48543L516.648 9.48543L516.648 9.48543C520.566 9.47228 524.427 9.45933 528.123 9.49877C536.232 9.58873 543.874 9.55945 551.698 9.52947L551.698 9.52947C555.68 9.51422 559.71 9.49878 563.872 9.49878C564.17 9.50481 564.884 9.50227 565.439 9.50029L565.44 9.50029C565.666 9.49949 565.865 9.49878 566 9.49878L566 11.4388C565.706 11.4567 565.189 11.4495 564.765 11.4436C564.584 11.4411 564.42 11.4388 564.298 11.4388C553.455 11.3766 542.694 11.3973 531.933 11.4181C526.552 11.4284 521.172 11.4388 515.781 11.4388C514.181 11.4134 511.951 11.4388 511.951 11.4388C511.951 11.4388 509.93 13.4033 509.065 14.277C505.825 17.561 502.466 20.746 499.108 23.9302C498.068 24.9164 497.028 25.9025 495.992 26.8914C470.646 51.0768 446.501 74.1085 421.136 98.2769C420.741 98.6533 420.262 99.16 419.711 99.7427L419.711 99.7428C419.119 100.368 418.445 101.081 417.703 101.814C416.274 100.619 414.134 98.5827 412.836 97.3477L412.725 97.2419C407.254 92.0545 401.813 87.0473 396.372 82.0402C390.931 77.033 385.49 72.0259 380.019 66.8384C376.009 63.038 372.027 59.8399 372.027 59.8399C372.027 59.8399 367.021 59.1443 362.294 58.4656C349.691 56.6728 337.1 54.7858 324.512 52.8991L324.511 52.899C321.077 52.3842 317.642 51.8695 314.208 51.3567C306.191 50.1606 298.18 48.9517 290.168 47.7428L290.16 47.7416C282.152 46.5332 274.144 45.3248 266.131 44.1291C245.986 41.1261 225.842 38.14 205.688 35.154C200.623 34.4064 195.553 33.6698 190.478 32.9321L190.461 32.9297C187.766 32.5381 185.07 32.1462 182.371 31.7522C182.053 32.1053 181.748 32.435 181.457 32.7512L181.456 32.7518C180.886 33.3701 180.363 33.937 179.877 34.5262C177.899 36.9151 175.921 39.3039 173.943 41.6929L173.864 41.7886L173.836 41.822C166.338 50.8766 158.84 59.9322 151.358 68.9931C143.57 78.4214 135.784 87.8523 127.998 97.2838C115.776 112.088 103.553 126.894 91.3155 141.693C68.026 169.866 44.7366 198.03 21.4192 226.177C16.7206 231.851 11.9687 237.492 7.21794 243.131L7.20677 243.144C4.80186 245.999 2.39726 248.853 -2.1989e-05 251.711L-2.16189e-05 247.478C0.296121 247.236 0.605386 247.002 0.914834 246.769C1.64591 246.218 2.37803 245.666 2.94023 244.992ZM141.202 88.6199C128.326 104.769 115.45 120.919 102.565 137.062C82.4411 162.278 62.2974 187.481 42.1485 212.691L42.1225 212.723L42.0144 212.858L41.8185 213.103L41.2549 213.808C34.3581 222.437 27.4606 231.067 20.563 239.699C15.9515 245.467 11.3188 251.223 6.68491 256.981L6.66422 257.007C4.4423 259.768 2.22007 262.529 -0.000206282 265.292L-0.000206578 268.677C0.941444 267.571 1.89365 266.472 2.84562 265.374L2.84653 265.373L2.84745 265.371C4.85801 263.052 6.86747 260.733 8.77409 258.345C27.6882 234.639 46.5824 210.923 65.4785 187.206C72.406 178.511 79.3338 169.815 86.2629 161.12C108.352 133.388 130.451 105.657 152.558 77.9343C162.375 65.62 172.21 53.3226 182.045 41.0253L182.073 40.9903C182.293 40.7174 182.537 40.4633 182.864 40.1236C183.075 39.9036 183.321 39.6477 183.617 39.3276C244.255 47.3781 305.117 55.4625 366.202 63.5808C384.122 79.6309 402.09 95.7319 420.271 112.028C421.848 110.446 423.395 108.903 424.921 107.381L424.924 107.378L424.926 107.375L424.932 107.37C427.55 104.757 430.105 102.208 432.637 99.6426C438.135 94.074 443.638 88.5093 449.14 82.9447L449.141 82.9439L449.144 82.9413C467.992 63.8812 486.84 44.822 505.492 25.6104C507.055 24.0071 510.507 20.775 510.507 20.775C510.507 20.775 515.206 20.4696 518.248 20.4018C529.474 19.824 540.857 19.3906 552.152 18.9605L552.152 18.9605L552.152 18.9605L552.153 18.9605L552.153 18.9605C556.789 18.784 561.41 18.608 566 18.4229L565.981 16.4828C562.948 16.6962 560.296 16.7923 557.319 16.9001L557.319 16.9001L557.319 16.9001L557.319 16.9001C554.884 16.9882 552.232 17.0843 548.977 17.2588C545.518 17.4443 542.741 17.5411 539.862 17.6415L539.862 17.6415L539.862 17.6415C536.718 17.751 533.454 17.8648 529.051 18.1029C523.428 18.4069 519.406 18.5544 515.383 18.7018L515.383 18.7019L515.383 18.7019C513.371 18.7756 511.36 18.8494 509.149 18.9427C484.916 43.4845 460.795 67.9185 436.502 92.5277L436.487 92.5423L436.409 92.6213L420.224 109.016C403.39 93.9325 386.878 79.1344 370.393 64.3601L370.307 64.2829L370.031 64.0357L367.337 61.6212C309.323 53.9238 251.44 46.2413 193.511 38.5527L182.668 37.1135C182.292 37.5199 181.934 37.8925 181.593 38.247L181.593 38.2476L181.592 38.2478L181.591 38.2492C180.937 38.9298 180.347 39.5436 179.821 40.2014C166.942 56.3366 154.072 72.4783 141.202 88.6199ZM75.9258 184.55C85.8351 171.666 95.7444 158.781 105.654 145.896C129.679 114.657 153.706 83.416 177.737 52.1794C179.036 50.4906 180.364 48.8209 181.685 47.1599L181.686 47.1594L181.686 47.159L181.687 47.1582C182.343 46.3333 182.997 45.5106 183.645 44.6888C185.239 44.8763 186.824 45.063 188.401 45.2489C195.6 46.097 202.644 46.927 209.689 47.7342C214.867 48.3263 220.048 48.9075 225.228 49.4888C231.255 50.165 237.282 50.8412 243.307 51.5346C248.474 52.1301 253.638 52.7428 258.801 53.3554L258.802 53.3555L258.803 53.3557L258.805 53.3558C264.526 54.0347 270.248 54.7136 275.975 55.369C282.228 56.0841 288.48 56.7821 294.733 57.4801L294.737 57.4805L294.74 57.4809C301.689 58.2565 308.637 59.0321 315.585 59.8312C320.96 60.4482 326.332 61.0841 331.705 61.72C340.291 62.7364 348.877 63.7527 357.474 64.692C358.702 64.8277 360.991 65.0568 360.991 65.0568C360.991 65.0568 362.387 66.4565 363.159 67.1266C381.857 83.3813 400.582 99.5941 419.316 115.815L419.319 115.817L419.322 115.82L419.324 115.822L419.694 116.142C420.409 116.761 421.177 117.324 422.007 117.934L422.007 117.934L422.01 117.936C422.442 118.254 422.892 118.584 423.36 118.942C451.469 88.5974 479.309 58.5417 507.306 28.3079C526.79 26.3907 546.311 24.5584 565.991 22.8193L565.991 24.745C563.374 24.9927 560.757 25.2407 558.14 25.4888L558.125 25.4902L558.124 25.4903L558.124 25.4903C542.911 26.9323 527.702 28.374 512.48 29.7415C510.814 29.8942 508.032 30.1742 508.032 30.1742C508.032 30.1742 506.376 31.9896 505.725 32.6937C504.357 34.1491 503.107 35.6534 501.85 37.1656L501.849 37.1657C500.652 38.6063 499.449 40.0542 498.132 41.4737L436.47 108.126C433.645 111.177 430.8 114.214 427.886 117.324L427.878 117.333L427.859 117.353L427.847 117.365C426.359 118.954 424.853 120.561 423.323 122.199C401.885 103.621 380.708 85.272 359.763 67.1266C301.172 60.3571 243.046 53.6385 184.948 46.9198C184.649 47.2497 184.367 47.5491 184.102 47.831C183.575 48.3902 183.114 48.8809 182.706 49.4054C154.094 86.6039 125.501 123.802 96.9077 161.009C92.0094 167.383 87.1107 173.757 82.212 180.131C60.6462 208.19 39.0788 236.252 17.5299 264.325C15.2021 267.357 12.9547 270.439 10.7049 273.524L10.704 273.526L10.7018 273.529L10.6999 273.531C9.61509 275.019 8.5297 276.507 7.43448 277.991L4.6431 277.991C4.95328 277.508 5.25004 277.016 5.54679 276.524C6.14017 275.54 6.73356 274.556 7.43449 273.64C26.7063 248.548 45.9847 223.481 65.2641 198.413L65.2905 198.379L65.3168 198.344L75.9258 184.55ZM157.536 89.0064C144.856 106.161 132.177 123.316 119.49 140.463C104.845 160.259 90.1972 180.052 75.5512 199.843C63.975 215.485 52.4001 231.126 40.8287 246.765C36.057 253.212 31.2747 259.652 26.4927 266.092C23.5537 270.05 20.6149 274.007 17.6788 277.966L21.4007 277.966C21.5644 277.643 21.7123 277.309 21.8602 276.976L21.8604 276.976C22.1663 276.286 22.4721 275.597 22.9173 274.997C37.6248 255.077 52.3485 235.164 67.0732 215.249L67.0963 215.218L67.1557 215.137C77.2294 201.513 87.3034 187.888 97.3729 174.26C108.84 158.736 120.301 143.209 131.763 127.68L131.775 127.663L131.788 127.647L131.8 127.63L131.813 127.613C140.377 116.011 148.941 104.408 157.509 92.8051C166.236 80.9797 174.973 69.1712 183.72 57.3627C184.201 56.7141 184.737 56.0953 185.314 55.4311C185.551 55.157 185.796 54.8751 186.046 54.5802C187.066 54.66 188.078 54.7336 189.083 54.8067C191.176 54.959 193.242 55.1092 195.304 55.3098C202.85 56.0509 210.395 56.8028 217.94 57.5548L217.941 57.5549L217.942 57.555L217.943 57.555L217.943 57.5551C229.311 58.688 240.678 59.821 252.053 60.9171C262.372 61.913 272.696 62.8766 283.02 63.8401L283.024 63.8405L283.028 63.8408L283.032 63.8412L283.036 63.8416C291.79 64.6586 300.545 65.4757 309.295 66.3124C315.321 66.8847 320.206 67.3622 324.943 67.8254L324.948 67.8258L324.95 67.8261L324.951 67.8262L324.959 67.8269C331.099 68.4272 336.993 69.0036 344.811 69.7311C345.695 69.8159 352.422 70.274 352.422 70.274C352.422 70.274 355.111 72.1064 356.004 72.8614C367.337 82.4643 378.679 92.0671 390.031 101.662C401.476 111.334 412.94 120.99 424.404 130.645L424.412 130.652L424.437 130.673L424.458 130.691C424.803 130.984 425.179 131.249 425.642 131.576L425.642 131.576L425.646 131.579L425.648 131.58C425.906 131.763 426.192 131.964 426.514 132.201C442.452 113.804 458.347 95.4514 474.224 77.1191L474.286 77.0479C485.14 64.5159 495.986 51.9932 506.832 39.4718C509.589 39.0779 512.33 38.6855 515.06 38.2947L515.082 38.2915L515.165 38.2797L515.252 38.2673L515.261 38.266C521.398 37.3875 527.479 36.5169 533.564 35.6544C536.396 35.2534 539.228 34.8567 542.06 34.4599L542.066 34.4591C549.776 33.379 557.486 32.2991 565.181 31.1329C565.353 31.1089 565.548 31.0933 565.749 31.0772C565.832 31.0706 565.916 31.064 566 31.0566L566 28.9443C557.028 30.2228 548.096 31.4964 539.204 32.7643L539.144 32.7728C527.879 34.3792 516.677 35.9764 505.539 37.5631C478.993 68.1957 452.726 98.5143 426.217 129.113C425.709 128.72 425.228 128.354 424.767 128.005L424.766 128.004L424.766 128.004L424.765 128.003L424.765 128.003C423.815 127.282 422.952 126.628 422.132 125.932C417.094 121.669 412.051 117.41 407.008 113.151L406.997 113.141L406.994 113.139L406.992 113.137C391.83 100.332 376.667 87.526 361.624 74.6004C359.056 72.4033 354.032 68.3823 354.032 68.3823C354.032 68.3823 348.495 67.8987 345.443 67.7206C335.329 67.1339 325.248 66.0718 315.17 65.01L315.169 65.0099L315.168 65.0098L315.166 65.0096L315.166 65.0095L315.164 65.0094C311.254 64.5974 307.344 64.1855 303.433 63.8014C297.276 63.1981 291.121 62.5798 284.967 61.9614L284.964 61.9611L284.961 61.9608L284.958 61.9606L284.955 61.9603C278.045 61.2661 271.135 60.5719 264.223 59.8991C258.911 59.3841 253.593 58.8947 248.275 58.4052C243.432 57.9595 238.589 57.5138 233.751 57.0488C228.675 56.561 223.599 56.0563 218.523 55.5515C213.448 55.0468 208.372 54.542 203.297 54.0543C199.184 53.6565 195.071 53.2893 190.899 52.9168L190.897 52.9166L190.895 52.9164C188.84 52.7329 186.769 52.548 184.678 52.3576C183.609 53.7966 182.546 55.2225 181.487 56.6416C179.838 58.8534 178.201 61.0486 176.574 63.25C170.227 71.8348 163.881 80.4206 157.536 89.0064ZM76.7116 213.443L76.7886 213.335L76.8772 213.21C88.9263 196.242 100.976 179.273 113.033 162.307L113.109 162.2L113.147 162.147C134.9 131.542 156.653 100.938 178.416 70.3334C180.021 68.0754 181.657 65.8349 183.282 63.6096C184.191 62.3654 185.096 61.1258 185.99 59.8907C204.246 61.2774 222.454 62.6604 240.616 64.0399L240.883 64.0602L240.966 64.0665C276.791 66.7875 312.436 69.4949 347.918 72.1912C366.27 87.3765 384.439 102.415 402.658 117.494L402.732 117.555C411.48 124.796 420.239 132.046 429.036 139.327L430.576 137.421L430.684 137.286L430.877 137.047C455.271 106.85 479.426 76.9502 503.678 46.937C507.534 46.1954 511.39 45.4523 515.247 44.7089L515.25 44.7084L515.252 44.708C532.045 41.4717 548.875 38.2283 565.981 35.0691L565.981 37.1559C565.857 37.1793 565.734 37.1991 565.612 37.2186L565.611 37.2186L565.611 37.2186L565.611 37.2187L565.611 37.2187L565.611 37.2187L565.611 37.2187L565.61 37.2187L565.61 37.2188C565.467 37.2417 565.326 37.2642 565.19 37.2917C558.305 38.5981 551.417 39.8981 544.529 41.1982L544.528 41.1984C537.641 42.4983 530.754 43.7983 523.869 45.1046C519.645 45.9065 515.429 46.7421 511.257 47.5691C509.161 47.9845 507.077 48.3977 505.008 48.8033L501.165 53.5659L501.097 53.6496C477.164 83.3095 453.36 112.808 429.464 142.406C429.147 142.17 428.871 141.967 428.624 141.786C428.081 141.387 427.68 141.092 427.296 140.777C424.871 138.772 422.446 136.767 420.021 134.762C409.836 126.341 399.648 117.917 389.473 109.483C376.186 98.4719 362.899 87.4608 349.677 76.3903C348.523 75.4233 346.504 73.9302 346.504 73.9302C346.504 73.9302 332.119 73.0734 326.881 72.6832C321.081 72.2482 315.285 71.8022 309.488 71.3562C305.11 71.0193 300.732 70.6825 296.352 70.3503C293.021 70.0993 289.69 69.8536 286.359 69.6079C281.363 69.2394 276.366 68.8709 271.369 68.4841C263.725 67.8945 256.084 67.2938 248.443 66.6932C242.672 66.2395 236.9 65.7858 231.127 65.3368C229.455 65.2071 227.783 65.0772 226.111 64.9473L226.105 64.9468L226.103 64.9466L226.1 64.9464L226.097 64.9462L226.094 64.946C217.602 64.286 209.108 63.6259 200.608 62.9955C197.572 62.7697 194.537 62.5834 191.443 62.3935L191.442 62.3935L191.441 62.3934C190.002 62.3051 188.55 62.216 187.079 62.1217C186.315 63.1918 185.56 64.2464 184.811 65.2916L184.8 65.3074C183.411 67.2478 182.045 69.156 180.686 71.0714C175.024 79.0349 169.361 86.9976 163.699 94.9601C149.329 115.167 134.961 135.371 120.597 155.58C92.3391 195.366 64.0903 235.152 35.8601 274.955C35.4153 275.584 35.1043 276.298 34.7943 277.011L34.794 277.012L34.7936 277.012C34.6565 277.327 34.5196 277.642 34.3713 277.949L31.5799 277.949C31.8615 277.446 32.1295 276.936 32.3975 276.426L32.3979 276.425C32.9887 275.3 33.5794 274.175 34.3155 273.131C38.2883 267.525 42.2745 261.919 46.2621 256.311L46.2992 256.259C48.9488 252.532 51.5989 248.805 54.246 245.077C61.7354 234.533 69.2234 223.988 76.7116 213.443ZM143.586 131.265C134.607 144.455 125.628 157.645 116.643 170.833C107.262 184.602 97.8779 198.371 88.4934 212.141L87.8104 213.143L86.8916 214.491L86.7174 214.747C73.6652 233.898 60.6122 253.051 47.5652 272.206C46.5631 273.67 45.5829 275.145 44.6036 276.617L44.5995 276.623L44.5591 276.684L44.1568 277.289L43.8647 277.728L43.6945 277.983L46.4859 277.983C56.5069 263.239 66.528 248.496 76.5584 233.752C95.2328 206.301 113.916 178.849 132.609 151.407C141.876 137.803 151.149 124.202 160.423 110.601L160.427 110.595L160.431 110.589L160.435 110.583L160.455 110.554L160.475 110.525L160.558 110.403L160.601 110.339L160.644 110.276L160.687 110.214C166.355 101.9 172.023 93.5868 177.69 85.2721C179.039 83.2955 180.377 81.3147 181.715 79.3339C183.052 77.3531 184.39 75.3723 185.739 73.3957C186.285 72.5848 186.871 71.7975 187.463 71.0016L187.465 70.9989L187.468 70.9951C187.741 70.6276 188.015 70.2582 188.288 69.8837C188.621 69.86 188.939 69.829 189.246 69.7989C189.929 69.7322 190.56 69.6705 191.182 69.7056C198.203 70.1057 205.22 70.5169 212.237 70.9281L212.246 70.9287L212.262 70.9296L212.278 70.9306L212.295 70.9315L212.311 70.9324L212.327 70.9334L212.343 70.9343C217.491 71.2361 222.639 71.5378 227.786 71.8349C233.806 72.1827 239.836 72.4881 245.865 72.785C250.645 73.0198 255.426 73.2502 260.205 73.4806L260.223 73.4815L260.24 73.4823L260.282 73.4843L260.299 73.4852L260.302 73.4853C268.785 73.8942 277.267 74.3031 285.745 74.7361C302.437 75.5929 340.158 77.561 340.158 77.561C340.158 77.561 342.522 79.3679 343.694 80.3265C359.735 93.5023 375.836 106.624 391.934 119.743L391.975 119.776C395.939 123.007 399.904 126.238 403.867 129.469C408.506 133.248 412.997 136.859 417.503 140.481L417.505 140.482L417.506 140.483C421.404 143.617 425.312 146.758 429.334 150.024C429.943 150.524 430.585 150.992 431.232 151.465C431.682 151.793 432.135 152.123 432.581 152.467C445.481 135.252 458.339 118.085 471.203 100.912L471.238 100.864L471.34 100.728L471.404 100.643L471.488 100.531L471.61 100.368C482.141 86.3083 492.676 72.2436 503.24 58.1431C505.201 57.6701 507.166 57.1948 509.135 56.7186L509.136 56.7183L509.14 56.7173L509.143 56.7168L509.147 56.7156C513.708 55.6127 518.288 54.5049 522.873 53.4096C528.74 52.0112 534.61 50.6159 540.481 49.2204C548.679 47.2718 556.877 45.323 565.069 43.3656C565.288 43.3158 565.511 43.2751 565.74 43.2336C565.823 43.2185 565.906 43.2032 565.991 43.1874L565.991 41.0497C565.684 41.0836 565.386 41.1345 565.097 41.2024C555.813 43.402 546.531 45.6125 537.248 47.823C526.484 50.3866 515.719 52.95 504.952 55.4964C503.91 55.7424 502.263 56.0393 502.263 56.0393C502.263 56.0393 500.57 57.8886 499.872 58.8303C480.365 84.9801 460.8 111.085 441.232 137.194L441.227 137.2L437.606 142.033C436.437 143.59 435.24 145.132 433.946 146.797L433.945 146.799L433.942 146.803L433.941 146.804L433.94 146.804L433.938 146.807L433.934 146.813C433.315 147.61 432.674 148.434 432.004 149.303C421.849 141.291 411.956 133.195 402.1 125.128L402.095 125.125L402.09 125.121L402.089 125.12L402.088 125.119C397.003 120.957 391.927 116.803 386.83 112.673C376.299 104.134 365.794 95.5752 355.161 86.9107L355.155 86.906C350.609 83.2016 346.039 79.4781 341.433 75.7286L329.1 75.0716L328.823 75.0568C281.866 72.555 234.641 70.0389 187.125 67.5085C185.684 69.6061 184.23 71.7128 182.77 73.8273L182.715 73.9057L182.711 73.9124L182.707 73.9174C180.19 77.5625 177.657 81.2307 175.15 84.9158C164.623 100.362 154.105 115.813 143.586 131.265ZM187.83 75.8679L187.83 75.8677C188.016 75.629 188.204 75.3864 188.391 75.1349C214.65 75.8711 240.873 76.6049 267.055 77.3376L267.286 77.344C289.898 77.9768 312.481 78.6088 335.032 79.2407C345.244 87.4575 355.437 95.6586 365.617 103.849L366.38 104.463C388.534 122.288 410.625 140.063 432.721 157.837C433.177 158.21 434.144 158.88 434.144 158.88L434.954 159.516C434.954 159.516 435.242 159.075 435.549 158.694C447.505 141.442 459.516 124.113 471.555 106.744L471.638 106.626L471.658 106.596C481.115 92.9523 490.59 79.2836 500.067 65.6084C514.752 61.4658 529.38 57.3383 544.007 53.2108C551.335 51.1428 558.664 49.0748 566 47.0049L566 49.1681C565.991 49.1723 565.984 49.1744 565.977 49.1766C565.97 49.1787 565.963 49.1808 565.953 49.185C562.422 50.1907 558.887 51.1826 555.35 52.1748L555.35 52.175L555.349 52.1751L555.349 52.1754L555.348 52.1757L555.347 52.1759L555.346 52.1762L555.345 52.1764L555.343 52.1768C552.677 52.9249 550.011 53.6731 547.344 54.4276C532.131 58.7285 516.927 63.038 501.547 67.3983C488.694 85.9593 475.835 104.526 462.925 123.167C453.796 136.347 444.642 149.564 435.447 162.842C412.286 144.224 389.276 125.725 366.25 107.212C355.503 98.5716 344.752 89.9281 333.98 81.2682C285.95 79.9194 237.854 78.5705 189.712 77.2217C189.387 77.6889 189.079 78.1231 188.785 78.5377L188.784 78.5395L188.782 78.5414C188.26 79.2774 187.782 79.952 187.33 80.6404L185.439 83.5268L185.422 83.554C179.078 93.239 172.73 102.93 166.413 112.622C155.621 129.179 144.832 145.74 134.042 162.302L133.979 162.398L133.916 162.495L133.853 162.592L133.79 162.688C122.933 179.354 112.075 196.019 101.216 212.68C96.7914 219.47 92.3639 226.258 87.9365 233.046L87.9131 233.082L87.8974 233.106L87.8892 233.118L87.8811 233.131L87.8729 233.143L87.8648 233.156C79.0292 246.702 70.1935 260.248 61.3827 273.81C60.8152 274.687 60.4268 275.665 60.0379 276.644C59.8594 277.093 59.6807 277.543 59.4845 277.983L55.7627 277.983C59.9967 271.501 64.2321 265.019 68.4678 258.536L68.596 258.34L68.6917 258.193L68.7513 258.102L68.8107 258.011L68.87 257.92L68.929 257.83L68.9879 257.739C75.665 247.52 82.343 237.3 89.0174 227.076C98.3428 212.789 107.667 198.504 116.992 184.218C140.267 148.559 163.54 112.903 186.818 77.2472C187.125 76.7775 187.472 76.3299 187.83 75.8679ZM141.069 160.164C135.864 168.514 130.659 176.863 125.454 185.212L125.035 185.884C106.444 215.699 87.854 245.513 69.2729 275.319C68.9036 275.91 68.5884 276.534 68.274 277.156C68.1369 277.427 67.9999 277.698 67.8586 277.966L70.65 277.966C71.9879 275.775 73.3226 273.581 74.6577 271.387L74.6599 271.383L74.6619 271.38L74.6638 271.377L74.6657 271.373L74.6676 271.37L74.6696 271.367L74.6715 271.364L74.6734 271.361L74.6753 271.358C77.9862 265.916 81.2985 260.472 84.6628 255.062C106.478 219.998 128.32 184.942 150.163 149.887L150.204 149.82C163.119 129.096 176.043 108.38 188.968 87.6642C189.347 87.0577 189.764 86.4685 190.226 85.816L190.227 85.8147C190.411 85.555 190.602 85.2853 190.801 85.0005L327.811 85.0005C364.304 114.03 401.141 143.33 438.387 172.954C438.906 172.161 439.411 171.398 439.904 170.653L439.912 170.641L439.912 170.641L439.913 170.64L439.914 170.639C440.804 169.293 441.656 168.007 442.481 166.71C447.043 159.547 451.604 152.385 456.164 145.222C467.937 126.733 479.708 108.246 491.498 89.7681L499.37 76.8228C503.667 75.4165 507.886 74.0342 512.056 72.6675L512.078 72.6604L512.084 72.6583L512.092 72.656L512.098 72.654L512.135 72.6418L512.135 72.6416C518.756 70.4723 525.256 68.3424 531.759 66.2189C535.159 65.1077 538.56 63.9988 541.96 62.8898C549.775 60.3417 557.589 57.7934 565.395 55.2163C565.581 55.1569 565.786 55.106 565.991 55.0551L565.991 53.3585C553.839 56.633 504.273 72.5728 497.965 75.3722C484.18 96.9923 470.322 118.736 456.343 140.672L456.126 141.012C450.107 150.456 444.065 159.937 437.996 169.458C432.693 165.748 427.887 161.843 423.145 157.989L423.144 157.988C420.732 156.028 418.335 154.08 415.898 152.178C411.024 148.377 406.198 144.52 401.374 140.664L401.368 140.66L401.363 140.656C398.86 138.655 396.356 136.654 393.846 134.661C390.489 131.997 387.126 129.339 383.763 126.682L383.754 126.675C379.869 123.604 375.984 120.534 372.11 117.457C368.138 114.303 364.175 111.14 360.21 107.976L360.209 107.975L360.208 107.974L360.206 107.973L360.205 107.972L360.204 107.971L360.203 107.97L360.201 107.968L360.2 107.967C356.831 105.279 353.462 102.589 350.086 99.9054C344.658 95.5931 339.224 91.2903 333.82 87.0115L333.799 86.9946L333.723 86.9345C331.963 85.5406 330.206 84.1493 328.453 82.761L189.47 82.761C188.972 83.5357 188.468 84.3134 187.962 85.0943C186.767 86.9386 185.56 88.801 184.39 90.6842C170.186 113.456 155.987 136.233 141.79 159.008L141.453 159.548L141.191 159.969L141.069 160.164ZM197.464 90.0647L197.473 90.0643L197.491 90.0637L197.493 90.0636C204.456 89.8181 211.419 89.5724 218.389 89.378C225.211 89.1871 232.034 89.0116 238.858 88.8362L238.862 88.8361C247.199 88.6218 255.536 88.4075 263.87 88.1649C281.809 87.6474 299.758 87.1215 317.697 86.4428C319.279 86.3835 322.033 86.3326 322.033 86.3326C322.033 86.3326 324.424 88.0631 325.624 89.0047C347.833 106.549 370.08 124.049 392.327 141.55L392.328 141.551L392.328 141.551L392.329 141.552L392.329 141.552L392.33 141.553L392.331 141.553L392.331 141.554L392.332 141.554L392.339 141.56L392.353 141.57L392.366 141.581L392.379 141.591L392.392 141.602L392.406 141.612L392.419 141.622L392.432 141.633L392.445 141.643C401.085 148.44 409.725 155.237 418.363 162.036C421.713 164.672 425.048 167.328 428.383 169.985L428.385 169.986C430.876 171.971 433.367 173.955 435.865 175.931C436.824 176.688 437.808 177.42 438.949 178.267L438.949 178.267L438.949 178.268C439.459 178.646 440 179.048 440.583 179.486C440.884 179.058 441.174 178.658 441.451 178.277L441.452 178.276C442.075 177.418 442.634 176.648 443.104 175.838C450.679 162.839 458.237 149.835 465.795 136.83C467.939 133.141 470.083 129.451 472.228 125.762C473.678 123.271 475.129 120.78 476.58 118.289L476.582 118.286L476.583 118.282L476.597 118.26L476.6 118.254L476.601 118.252L476.603 118.25L476.604 118.248L476.605 118.245L476.606 118.243C481.894 109.164 487.182 100.084 492.447 90.9898L496.206 84.5426L496.46 84.4314L496.7 84.326C497.643 83.912 498.589 83.4968 499.556 83.1429C521.691 74.9822 543.827 66.8384 565.972 58.7031L565.972 60.9426C565.898 60.9681 565.822 60.9935 565.747 61.019L565.746 61.019C565.596 61.0699 565.445 61.1208 565.302 61.1716C557.287 64.1234 549.27 67.071 541.252 70.0185C533.233 72.9667 525.214 75.915 517.197 78.8674C513.093 80.3781 508.994 81.9025 504.803 83.4606C502.428 84.3437 500.024 85.2376 497.574 86.1459L487.99 103.299L487.99 103.307C479.585 117.711 471.204 132.123 462.823 146.535L462.821 146.538L462.813 146.552L462.806 146.564L462.799 146.577C459.302 152.59 455.805 158.603 452.307 164.615C449.115 170.095 445.896 175.566 442.676 181.03C442.445 181.424 442.158 181.795 441.805 182.252C441.634 182.473 441.447 182.715 441.244 182.989C406.028 155.249 370.99 127.645 336.025 100.098L336.023 100.096L336.022 100.095L321.084 88.3261C295.373 89.1302 269.765 89.9343 244.157 90.7384L244.107 90.74C226.777 91.2842 209.446 91.8284 192.085 92.3725C191.734 92.9261 191.383 93.4672 191.037 94.0023L191.036 94.0036C190.352 95.0588 189.684 96.0906 189.061 97.1485C180.245 111.999 171.435 126.853 162.625 141.707L162.622 141.712C151.645 160.22 140.667 178.729 129.678 197.232C119.722 214.003 109.748 230.767 99.7731 247.531L99.7668 247.542L99.7215 247.618L99.6762 247.694L99.6311 247.77C93.8712 257.45 88.1113 267.131 82.3551 276.812C82.1318 277.186 81.9643 277.576 81.7689 277.966L78.9775 277.966C98.4102 245.268 117.845 212.571 137.278 179.88L137.758 179.072L137.843 178.928C155.347 149.481 172.849 120.037 190.345 90.5996C190.743 90.544 191.098 90.4796 191.427 90.42C191.951 90.3249 192.409 90.2419 192.866 90.2263C194.399 90.1728 195.931 90.1187 197.464 90.0647ZM189.97 101.159L189.97 101.159L189.969 101.16L189.969 101.16L189.969 101.161C188.277 104.083 186.616 106.952 184.985 109.831L184.912 109.961C158.204 157.16 131.496 204.359 104.798 251.592C101.282 257.804 97.8369 264.054 94.392 270.304L94.3898 270.308L94.3847 270.317C92.9724 272.879 91.5601 275.441 90.1432 278L92.9345 278C93.2277 277.43 93.5158 276.858 93.8038 276.285L93.8042 276.284C94.4762 274.949 95.1483 273.614 95.8841 272.308C105.208 255.771 114.542 239.242 123.877 222.712L123.937 222.606C129.738 212.333 135.539 202.06 141.337 191.786C148.252 179.53 155.162 167.274 162.072 155.017L162.082 155L162.091 154.983L162.101 154.965L162.111 154.948C171.31 138.631 180.51 122.314 189.721 105.996C190.459 104.695 191.257 103.424 192.086 102.102C192.522 101.407 192.966 100.699 193.415 99.9648C233.807 97.2926 274.068 94.6289 314.692 91.9398C343.464 114.415 372.285 136.936 401.185 159.518C415.556 170.747 429.947 181.992 444.361 193.254C444.606 192.858 444.831 192.505 445.039 192.179L445.04 192.177C445.479 191.488 445.841 190.919 446.156 190.327C450.208 182.636 454.255 174.944 458.303 167.253L458.309 167.241C465.238 154.074 472.166 140.907 479.113 127.747L479.765 126.517C479.874 126.31 479.981 126.103 480.089 125.898C480.294 125.506 480.497 125.116 480.705 124.727C480.723 124.689 480.744 124.651 480.765 124.613L480.765 124.612C480.786 124.574 480.807 124.536 480.825 124.498L493.61 100.381C494.12 99.211 494.703 98.1829 495.279 97.1696L495.279 97.1695C495.638 96.5364 495.994 95.9091 496.327 95.2567C499.667 93.89 503.022 92.5161 506.387 91.1382L506.479 91.1006L506.515 91.0859C512.09 88.8035 517.691 86.5102 523.292 84.2202C527.378 82.5486 531.464 80.8791 535.551 79.2097C545.442 75.1691 555.333 71.1288 565.209 67.0588C565.451 66.9571 565.72 66.8723 565.99 66.7876L565.99 66.7876L565.99 66.7876L565.99 66.7876L565.99 66.7876L565.99 66.7876L565.99 66.7875L565.99 66.7875L565.99 66.7875L565.99 66.7874L565.991 66.7874L565.991 64.5733C565.293 64.8108 564.632 65.0483 563.99 65.3113C552.916 69.8341 541.843 74.3611 530.771 78.8881L530.766 78.8901L530.761 78.8922L530.759 78.8932L530.754 78.8952L530.744 78.8993C519.666 83.4285 508.589 87.9577 497.509 92.4827C496.894 92.7309 496.246 92.896 495.588 93.0636L495.471 93.0935L488.576 105.004C474.312 132.031 460.048 159.05 445.756 186.068C445.376 186.784 444.899 187.459 444.336 188.256C444.044 188.669 443.729 189.114 443.393 189.614C422.009 172.918 400.937 156.288 379.909 139.693L379.909 139.693L379.908 139.693L379.902 139.688C358.817 123.047 337.777 106.443 316.515 89.8445C311.885 90.128 307.163 90.4031 302.437 90.6784L302.435 90.6784L302.435 90.6785C294.72 91.1278 286.994 91.5778 279.632 92.067C271.877 92.5819 264.127 93.1246 256.379 93.6672C249.317 94.1617 242.256 94.6562 235.193 95.1294C229.502 95.5116 223.805 95.8612 218.107 96.2109L218.103 96.2112L218.1 96.2114L218.096 96.2116L218.094 96.2118L218.092 96.2119L218.091 96.212L218.09 96.212L218.089 96.212L218.088 96.2121L218.087 96.2121C213.293 96.5064 208.499 96.8007 203.706 97.1145C201.015 97.2922 198.325 97.528 195.628 97.7643L195.628 97.7643L195.627 97.7643L195.627 97.7643L195.627 97.7643L195.627 97.7644L195.626 97.7644L195.626 97.7644L195.626 97.7644L195.626 97.7645L195.625 97.7645C194.332 97.8778 193.037 97.9913 191.74 98.0985C191.146 99.1268 190.556 100.146 189.97 101.159ZM325.938 106.376L325.942 106.379C335.554 113.813 345.139 121.226 354.72 128.646C360.889 133.427 367.052 138.216 373.216 143.006C382.363 150.115 391.512 157.224 400.685 164.309C405.807 168.269 410.913 172.246 416.033 176.233C426.083 184.059 436.182 191.923 446.538 199.769C446.84 199.2 447.115 198.696 447.366 198.235L447.367 198.233L447.367 198.233C447.85 197.346 448.249 196.614 448.604 195.867C459.211 173.514 493.415 102.654 493.415 102.654C501.327 99.116 509.246 95.569 517.149 92.0288L517.181 92.0146L517.236 91.9899L517.256 91.9809L517.281 91.9695C533.646 84.6391 549.945 77.3381 565.991 70.2062L565.991 72.5475C565.628 72.6663 565.274 72.785 564.967 72.9208C550.435 79.4973 535.873 86.0187 521.315 92.5383L521.313 92.5391L521.311 92.5401L521.31 92.5403C517.823 94.1017 514.337 95.663 510.851 97.2249C507.43 98.7602 504.009 100.299 500.614 101.826L500.58 101.842L500.569 101.847L500.557 101.852L500.539 101.86C498.595 102.735 496.658 103.605 494.736 104.469C493.926 106.124 478.22 138.979 478.22 138.979C478.215 138.988 478.21 138.996 478.205 139.005C478.198 139.016 478.191 139.028 478.184 139.039C478.176 139.053 478.167 139.067 478.158 139.082C478.147 139.101 478.137 139.12 478.127 139.14C477.392 140.684 476.657 142.228 475.931 143.772L474.964 145.782L474.973 145.782C472.027 151.976 469.147 158.197 466.267 164.418L466.267 164.419L466.266 164.421L466.266 164.422L466.265 164.423L466.264 164.424L466.264 164.425L466.263 164.426L466.263 164.427L466.262 164.429L466.262 164.43L466.261 164.431C460.731 176.379 455.2 188.326 449.199 200.083C448.813 200.831 448.406 201.575 447.917 202.468L447.917 202.468C447.758 202.759 447.591 203.064 447.413 203.391L442.78 199.798C398.217 165.235 353.88 130.846 309.49 96.4105L308.281 95.401L292.342 97.1315L292.165 97.1504L292.159 97.151L292.154 97.1516L292.148 97.1522L292.142 97.1528L292.136 97.1534L292.131 97.1541L292.125 97.1547L292.119 97.1553L292.113 97.1559L292.107 97.1565L292.102 97.1572C259.597 100.618 227.092 104.079 194.485 107.549C193.673 109.049 192.867 110.537 192.066 112.015C189.445 116.853 186.881 121.587 184.343 126.33C177.116 139.813 169.897 153.3 162.677 166.787C155.451 180.285 148.226 193.783 140.993 207.276C134.172 220.004 127.336 232.727 120.5 245.448L120.499 245.45L120.498 245.452L120.497 245.454L120.496 245.456L120.495 245.458L120.494 245.459L120.493 245.461L120.492 245.463L120.491 245.465L120.49 245.467L120.489 245.469L120.441 245.558C115.324 255.083 110.206 264.606 105.096 274.132C104.594 275.064 104.134 276.015 103.673 276.968L103.672 276.968L103.672 276.969L103.672 276.969L103.672 276.969L103.672 276.97L103.672 276.97L103.671 276.971L103.671 276.971L103.671 276.971L103.671 276.972L103.67 276.974L103.664 276.986C103.503 277.319 103.342 277.651 103.179 277.983L100.388 277.983C131.167 220.603 161.947 163.224 192.857 105.615C210.804 103.705 228.751 101.797 246.713 99.8869L247.107 99.845L247.221 99.8329L247.346 99.8196L247.644 99.788L248.138 99.7354L248.686 99.6771L248.971 99.6469C268.95 97.5226 288.949 95.3964 308.988 93.2632C314.65 97.6449 320.299 102.014 325.938 106.376ZM181.943 137.079C183.663 133.691 185.376 130.302 187.09 126.913C188.805 123.52 190.52 120.127 192.243 116.736C192.645 115.936 193.089 115.153 193.558 114.326L193.558 114.325L193.558 114.325C193.644 114.173 193.731 114.02 193.819 113.865C193.937 113.655 194.057 113.442 194.178 113.224C219.996 109.301 245.79 105.378 271.555 101.459L271.81 101.42L291.197 98.4718L303.144 97.1315C351.063 134.084 398.982 171.028 446.919 207.955C447.511 208.408 448.283 208.977 449.156 209.62L449.156 209.62L449.158 209.622L449.162 209.625L449.165 209.627L449.636 209.974C449.99 209.225 450.324 208.396 450.632 207.633C450.802 207.211 450.963 206.81 451.116 206.453C459.536 186.544 494.978 109.474 494.978 109.474C518.192 98.332 538.907 88.7605 561.415 78.3605L561.417 78.3593L565.991 76.2461L565.991 78.2227C565.782 78.3208 565.573 78.423 565.366 78.5236L565.365 78.5242L565.365 78.5245C565.269 78.5714 565.173 78.618 565.079 78.6638C548.833 86.5701 532.587 94.4678 516.341 102.366C512.484 104.242 509.707 105.469 506.911 106.705C504.069 107.961 501.208 109.225 497.174 111.188C493.098 120.84 480.345 148.524 468.98 173.197L468.978 173.202L468.976 173.206C460.933 190.665 453.586 206.615 450.502 213.596C438.397 204.265 426.322 194.956 414.27 185.665L413.404 184.997L413.07 184.739C375.861 156.055 338.864 127.533 301.851 99.0063L278.176 102.603L278.171 102.604C250.549 106.8 223.088 110.973 195.723 115.124C195.344 115.845 194.988 116.513 194.651 117.148L194.65 117.149L194.649 117.151C194.018 118.338 193.449 119.408 192.903 120.486C188.835 128.511 184.77 136.536 180.706 144.561L180.635 144.702C174.546 156.725 168.458 168.747 162.356 180.767C156.604 192.103 150.847 203.437 145.089 214.772C136.159 232.354 127.228 249.935 118.318 267.523C117.136 269.862 116.045 272.235 114.954 274.609L114.954 274.61L114.953 274.61L114.953 274.611L114.953 274.612L114.952 274.613L114.952 274.613L114.951 274.614L114.951 274.615L114.951 274.616L114.95 274.616L114.95 274.617C114.435 275.737 113.92 276.858 113.395 277.975L110.604 277.975C111.942 275.288 113.275 272.597 114.608 269.907L114.61 269.902L114.613 269.897L114.615 269.892L114.618 269.888L114.62 269.883L114.622 269.878L114.625 269.873L114.627 269.869L114.63 269.864L114.63 269.863C117.553 263.963 120.477 258.06 123.463 252.186C136.423 226.652 149.4 201.118 162.376 175.583L162.448 175.442C168.947 162.654 175.446 149.866 181.943 137.079Z" fill="url(#paint0_linear_88_197)"/>
<defs>
<linearGradient id="paint0_linear_88_197" x1="547.703" y1="-19.0617" x2="66.4459" y2="271.283" gradientUnits="userSpaceOnUse">
<stop offset="0.078125" stop-color="#0BBD25" stop-opacity="0"/>
<stop offset="0.229167" stop-color="#0BBD25" stop-opacity="0.402985"/>
<stop offset="0.348958" stop-color="#0BBD25"/>
<stop offset="1" stop-color="#0BBD25" stop-opacity="0"/>
</linearGradient>
</defs>
</svg>
