<svg width="272" height="151" viewBox="0 0 272 151" fill="none" xmlns="http://www.w3.org/2000/svg">
<path fill-rule="evenodd" clip-rule="evenodd" d="M323.475 94.9328L243.747 142.489L243.238 142.793L242.727 142.492L3.99103 1.85634L5.00615 0.133106L243.232 140.468L322.451 93.2151L323.475 94.9328ZM315.696 104.059L243.213 146.294L242.706 146.589L242.201 146.292L2.19387 4.90725L3.20899 3.18402L242.712 144.271L314.689 102.331L315.696 104.059ZM243.704 150.692L307.926 113.18L306.917 111.453L243.202 148.669L1.41161 6.23494L0.396489 7.95817L242.692 150.69L243.198 150.988L243.704 150.692Z" fill="url(#paint0_linear_1345_1695)"/>
<defs>
<linearGradient id="paint0_linear_1345_1695" x1="23.259" y1="-30.8522" x2="299.999" y2="-59.8652" gradientUnits="userSpaceOnUse">
<stop stop-color="#0BBD25"/>
<stop offset="1" stop-color="#0BBD25" stop-opacity="0"/>
</linearGradient>
</defs>
</svg>
