<svg width="324" height="227" viewBox="0 0 324 227" fill="none" xmlns="http://www.w3.org/2000/svg">
<path fill-rule="evenodd" clip-rule="evenodd" d="M-40.3776 0H-41.1818H-83.3377V2H-41.986L-11.2701 141.864L-11.0975 142.649H-10.2933H112.349L162.399 179.559L163.075 180.057L163.682 179.479L293.647 55.7304L292.268 54.282L162.911 177.451L113.271 140.844L113.007 140.649H112.678H-9.48914L-40.205 0.785498L-40.3776 0ZM-48.7069 20.9822L-82.8979 19.2338L-83 21.2311L-49.5707 22.9406L-18.6519 163.428L-18.4744 164.235L-17.6487 164.213L106.587 160.918L163.646 194.96L164.293 195.346L164.842 194.831L302.966 65.4494L301.599 63.9898L164.025 192.857L107.362 159.052L107.113 158.903L106.823 158.911L-16.8761 162.191L-47.7813 21.7659L-47.9453 21.0211L-48.7069 20.9822ZM-59.011 34.5796H-59.8312H-82.949V36.5796H-60.6514L-31.2833 183.807L-31.1095 184.678L-30.2239 184.608L104.862 173.948L164.616 209.724L165.25 210.103L165.798 209.61L313.441 76.9251L312.105 75.4376L165.011 207.629L105.615 172.068L105.341 171.904L105.023 171.929L-29.4957 182.544L-58.8505 35.3839L-59.011 34.5796ZM-62.5509 39.6305H-61.7315L-61.5704 40.4339L-32.0228 187.786L104.63 176.398L104.952 176.371L105.229 176.538L165.208 212.679L315.02 78.7384L316.353 80.2294L165.991 214.662L165.44 215.154L164.808 214.773L104.474 178.418L-32.745 189.853L-33.6333 189.927L-33.8085 189.053L-63.3703 41.6305H-82.9489V39.6305H-62.5509ZM-66.5851 45.07H-67.4077H-82.949V47.07H-68.2302L-39.2488 194.489L-39.0772 195.361L-38.1904 195.293L104.476 184.244L164.816 219.829L165.442 220.198L165.986 219.717L319.651 84.119L318.328 82.6194L165.207 217.737L105.221 182.361L104.95 182.201L104.636 182.225L-37.458 193.23L-66.4265 45.8771L-66.5851 45.07ZM-71.6815 49.5381H-70.8471L-70.6976 50.359L-43.6609 198.868L105.225 188.247L105.538 188.225L105.809 188.386L165.018 223.758L322.215 85.726L323.535 87.2289L165.79 225.741L165.242 226.222L164.617 225.848L105.053 190.265L-44.4129 200.927L-45.3073 200.991L-45.4679 200.109L-72.5158 51.5381H-82.9489V49.5381H-71.6815ZM-42.7358 4.8567H-41.9316L-41.7591 5.64219L-11.0432 145.506H111.124H111.432L111.688 145.68L163.084 180.775L294.017 56.2244L295.395 57.6735L163.876 182.781L163.291 183.339L162.623 182.883L110.815 147.506H-11.8474H-12.6516L-12.8241 146.721L-43.5401 6.8567H-84.8918V4.8567H-42.7358ZM-43.4859 9.71331H-44.2901H-86.446V11.7133H-45.0943L-14.3784 151.577L-14.2058 152.363H-13.4016H109.281L162.849 186.012L163.508 186.426L164.071 185.889L296.95 59.2268L295.57 57.7792L163.254 183.904L110.101 150.516L109.857 150.363H109.569H-12.5974L-43.3134 10.4988L-43.4859 9.71331ZM-45.8441 14.57H-45.0399L-44.8674 15.3555L-14.1515 155.219H108.015H108.286L108.52 155.356L163.623 187.612L297.122 59.7236L298.506 61.1678L164.462 189.578L163.916 190.101L163.265 189.719L107.744 157.219H-14.9557H-15.7599L-15.9324 156.434L-46.6483 16.57H-88.0001V14.57H-45.8441ZM-52.0173 25.45L-83.2943 24.0901L-83.3812 26.0882L-52.8751 27.4146L-21.9554 170.418L-21.7765 171.246L-20.9306 171.205L105.626 165.197L164.23 200.012L164.871 200.392L165.418 199.888L307.039 69.535L305.685 68.0635L164.612 197.912L106.389 163.325L106.131 163.171L105.831 163.185L-20.1796 169.168L-51.0833 26.2377L-51.2464 25.4835L-52.0173 25.45ZM-83.2751 28.1707L-55.3007 29.9191L-54.5371 29.9668L-54.3835 30.7163L-24.6411 175.758L105.621 167.46L105.93 167.44L106.197 167.599L164.813 202.577L308.993 71.9435L310.336 73.4256L165.607 204.556L165.059 205.053L164.423 204.674L105.438 169.476L-25.3824 177.81L-26.2508 177.865L-26.4255 177.013L-56.189 31.8675L-83.3999 30.1668L-83.2751 28.1707Z" fill="url(#paint0_linear_1345_1679)"/>
<defs>
<linearGradient id="paint0_linear_1345_1679" x1="-88" y1="44.5" x2="253.042" y2="81.112" gradientUnits="userSpaceOnUse">
<stop stop-color="#0BBD25"/>
<stop offset="1" stop-color="#0BBD25" stop-opacity="0"/>
</linearGradient>
</defs>
</svg>
