<svg width="281" height="233" viewBox="0 0 281 233" fill="none" xmlns="http://www.w3.org/2000/svg">
<path fill-rule="evenodd" clip-rule="evenodd" d="M24.2212 163.175C16.8817 172.582 9.53503 181.989 2.17422 191.382C1.75134 191.927 1.25702 192.416 0.763153 192.904C0.510193 193.155 0.257355 193.405 0.0143127 193.662V196.497C0.254639 196.255 0.504913 196.02 0.755341 195.784C1.26752 195.304 1.7803 194.822 2.20975 194.273C17.404 174.818 32.5905 155.354 47.7771 135.891C57.8859 122.936 67.9948 109.98 78.1059 97.0265C94.0357 76.6053 109.98 56.1937 125.923 35.7838C129.4 31.3327 132.876 26.8817 136.353 22.4306C136.745 21.9272 137.167 21.4502 137.641 20.9141C137.863 20.6634 138.096 20.3997 138.342 20.1144C139.47 20.3054 140.598 20.494 141.728 20.6827C144.42 21.1325 147.115 21.5827 149.803 22.0683C158.949 23.7131 168.094 25.3653 177.237 27.0174C185.986 28.5981 194.734 30.1787 203.482 31.7525C224.392 35.5181 245.309 39.2767 266.226 43.0282C272.762 44.1998 276.082 44.7388 282.329 45.7528L283.271 45.9057C284.117 46.0407 289.197 46.8578 289.197 46.8578C289.197 46.8578 290.767 48.5204 291.542 49.3872C297.149 55.6539 302.808 61.8696 308.465 68.0836C310.126 69.9083 311.787 71.7329 313.446 73.5586C313.992 74.1573 314.551 74.7477 315.182 75.4145C315.555 75.8079 315.953 76.2279 316.388 76.6919C329.115 64.1323 341.884 51.6364 354.665 39.1284C367.292 26.7718 379.93 14.4033 392.553 1.94986C398.403 1.98417 404.902 1.98417 411.645 1.98417C418.389 1.98417 425.376 1.98417 432.2 2.01848V1.84445e-05L425.701 0L401.652 1.10064e-05L391.68 6.66745e-06C366.67 24.6403 341.689 49.2522 316.423 74.1412C311.745 69.0173 307.134 63.9655 302.532 58.9231C298.468 54.4703 294.411 50.0248 290.319 45.5434C267.422 41.4382 244.501 37.3301 221.554 33.2171C193.625 28.2113 165.655 23.1984 137.639 18.1747C137.163 18.7568 136.696 19.3217 136.238 19.8763C135.22 21.1091 134.244 22.2909 133.298 23.4964L133.258 23.5468C112.972 49.499 92.6866 75.4511 72.4148 101.417C62.3055 114.36 52.2018 127.311 42.0985 140.262C36.1397 147.9 30.1809 155.538 24.2212 163.175ZM2.24518 205.037C6.22705 199.798 10.1842 194.542 14.1415 189.285L14.2015 189.205C15.8379 187.031 17.4743 184.857 19.1125 182.685C37.5999 158.144 56.0872 133.603 74.5817 109.069C85.6862 94.3386 96.7959 79.6104 107.906 64.8816L107.953 64.8201L108.006 64.7497C115.082 55.3687 122.158 45.9874 129.234 36.6051C131.121 34.1009 133.014 31.6025 134.956 29.0392C136.077 27.5588 137.215 26.0567 138.378 24.5194L189.478 32.8564L190.099 32.9577C221.927 38.1506 253.711 43.3363 285.445 48.5132C288.206 51.3535 290.957 54.1834 293.703 57.009L293.954 57.2672L293.958 57.2716C302.165 65.7162 310.337 74.1249 318.647 82.6671C330.794 69.9675 342.832 57.3019 354.82 44.6891L354.822 44.6869L354.823 44.6855C366.563 32.3336 378.255 20.0323 389.953 7.79932C391.478 7.79932 393.002 7.79371 394.514 7.78814H394.514H394.514C397.507 7.77713 400.455 7.76628 403.277 7.79932C409.469 7.87466 415.304 7.85014 421.279 7.82503C424.32 7.81225 427.397 7.79932 430.575 7.79932C430.802 7.80437 431.348 7.80225 431.772 7.80059C431.945 7.79992 432.097 7.79932 432.2 7.79932V9.4242C431.976 9.43915 431.581 9.43314 431.257 9.42821C431.119 9.42611 430.994 9.4242 430.9 9.4242C422.621 9.3721 414.404 9.38947 406.187 9.40683H406.186C402.078 9.41552 397.969 9.4242 393.853 9.4242C392.631 9.40289 390.928 9.4242 390.928 9.4242C390.928 9.4242 389.385 11.0695 388.724 11.8014C386.251 14.5518 383.686 17.2195 381.121 19.8865L381.121 19.8865C380.327 20.7124 379.533 21.5383 378.742 22.3666C359.388 42.6231 340.95 61.9133 321.582 82.1556C321.28 82.4709 320.914 82.8953 320.493 83.3834C320.041 83.9072 319.526 84.5042 318.96 85.1184C317.869 84.1173 316.235 82.4117 315.244 81.3773L315.159 81.2887C310.981 76.944 306.826 72.7503 302.672 68.5566L302.67 68.5551C298.516 64.3618 294.362 60.1685 290.184 55.8243C287.122 52.6412 284.081 49.9626 284.081 49.9626C284.081 49.9626 280.259 49.38 276.649 48.8116C267.026 47.31 257.411 45.7294 247.798 44.1492C245.175 43.7181 242.553 43.287 239.93 42.8575C233.81 41.8558 227.692 40.8433 221.575 39.8309L221.569 39.8298C215.453 38.8177 209.338 37.8055 203.219 36.804C187.836 34.2888 172.454 31.7879 157.064 29.2869C153.197 28.6609 149.327 28.044 145.452 27.4264C143.389 27.0976 141.325 26.7685 139.259 26.4378C139.016 26.7335 138.784 27.0098 138.561 27.2747C138.125 27.7927 137.726 28.2676 137.355 28.7611C135.825 30.7873 134.296 32.8135 132.766 34.8397L132.764 34.8426C127.031 42.4359 121.298 50.0302 115.578 57.6289C109.651 65.4987 103.726 73.3705 97.8004 81.2429L97.7526 81.3064L97.6846 81.3968C88.3701 93.7719 79.0548 106.148 69.7289 118.519C51.945 142.115 34.161 165.704 16.3558 189.278C12.7654 194.034 9.13428 198.762 5.50403 203.488L5.50302 203.489C3.66666 205.88 1.83051 208.271 -3.05176e-05 210.665V207.119C0.226074 206.916 0.46225 206.721 0.698578 206.526L0.698761 206.525C1.25693 206.064 1.81592 205.601 2.24518 205.037ZM107.816 74.0771C97.9858 87.5998 88.1559 101.122 78.319 114.64C62.9079 135.822 47.4814 156.992 32.0508 178.167C26.6016 185.645 21.1519 193.124 15.7022 200.604C12.1868 205.427 8.65524 210.24 5.1228 215.054L5.10916 215.073L5.08554 215.105L5.06201 215.137C3.37433 217.437 1.68643 219.738 3.05176e-05 222.04V224.875C0.719696 223.947 1.44745 223.026 2.17499 222.105C3.71008 220.163 5.24435 218.221 6.70013 216.221C21.137 196.374 35.5587 176.519 49.9819 156.663C55.2777 149.372 60.5738 142.081 65.8709 134.79C82.7383 111.563 99.6128 88.337 116.494 65.1177C123.997 54.794 131.514 44.4846 139.032 34.1752C139.2 33.9466 139.386 33.7337 139.636 33.4492L139.636 33.4489C139.797 33.2647 139.985 33.0505 140.211 32.7826C186.515 39.5253 232.989 46.2964 279.633 53.0959C293.318 66.5387 307.038 80.024 320.921 93.6728C322.126 92.3473 323.308 91.0535 324.474 89.778C326.476 87.5873 328.428 85.4505 330.364 83.2995C334.558 78.6398 338.756 73.9834 342.954 69.327L342.966 69.3142C357.359 53.3494 371.752 37.3854 385.996 21.2937C387.19 19.9509 389.826 17.2438 389.826 17.2438C389.826 17.2438 393.414 16.9881 395.737 16.9312C404.309 16.4473 413.001 16.0843 421.626 15.7241L421.627 15.7241L421.627 15.724C425.167 15.5762 428.696 15.4288 432.2 15.2738L432.186 13.6489C429.87 13.8276 427.845 13.9081 425.572 13.9983L425.572 13.9983L425.572 13.9983L425.572 13.9983L425.571 13.9984C423.712 14.0722 421.687 14.1526 419.201 14.2988C416.56 14.4542 414.44 14.5353 412.241 14.6193H412.241C409.841 14.7111 407.348 14.8064 403.986 15.0058C399.692 15.2604 396.621 15.3839 393.549 15.5074L393.548 15.5075L393.548 15.5075C392.013 15.5692 390.477 15.631 388.788 15.7091C370.24 36.3134 351.777 56.827 333.182 77.4885L320.885 91.1506C307.89 78.3781 295.145 65.8505 282.419 53.3407L280.5 51.4546C236.145 44.9995 191.891 38.5571 147.6 32.1094L147.457 32.0886L139.486 30.9282C139.199 31.2687 138.926 31.5808 138.665 31.8778C138.165 32.4485 137.714 32.963 137.312 33.5144C127.475 47.0318 117.645 60.5544 107.816 74.0771ZM80.0008 123.005L80.067 122.91L80.6823 122.033L80.6843 122.03L80.6862 122.027L80.6881 122.025C99.0304 95.8651 117.374 69.7042 135.72 43.5469C136.711 42.1344 137.724 40.7378 138.731 39.3486L138.733 39.346L138.735 39.3437L138.736 39.3418C139.237 38.6507 139.737 37.9615 140.232 37.2731C141.45 37.4303 142.661 37.5868 143.866 37.7425C149.362 38.4528 154.741 39.1479 160.119 39.8238C164.072 40.3195 168.026 40.8061 171.98 41.2928L171.985 41.2934C176.587 41.8597 181.19 42.4261 185.79 43.0069C189.736 43.5056 193.679 44.0188 197.622 44.5319L197.623 44.532L197.624 44.5321L197.627 44.5326L197.628 44.5326L197.628 44.5327C201.996 45.1012 206.364 45.6696 210.736 46.2184C215.511 46.8174 220.287 47.4021 225.062 47.9868L225.066 47.9872C230.371 48.6368 235.676 49.2864 240.982 49.9556C245.085 50.4723 249.186 51.0048 253.287 51.5372L253.289 51.5374L253.29 51.5375L253.291 51.5377C259.848 52.3889 266.404 53.2401 272.969 54.0268C273.907 54.1405 275.654 54.3323 275.654 54.3323C275.654 54.3323 276.72 55.5047 277.31 56.066C291.59 69.6826 305.891 83.2641 320.2 96.8524L320.48 97.1189C321.026 97.637 321.612 98.1091 322.246 98.6198L322.246 98.6199C322.577 98.8866 322.921 99.1638 323.28 99.4636C344.744 74.0488 366.002 48.8757 387.381 23.5533C402.259 21.9475 417.166 20.4128 432.193 18.9563V20.5691C430.191 20.777 428.189 20.9851 426.187 21.1932L426.186 21.1933C414.57 22.4011 402.956 23.6086 391.332 24.754C390.06 24.8819 387.936 25.1164 387.936 25.1164C387.936 25.1164 386.671 26.6368 386.173 27.2266C385.129 28.4455 384.174 29.7055 383.214 30.9721C382.3 32.1787 381.381 33.3913 380.376 34.5803L333.291 90.4047C331.134 92.9603 328.961 95.5036 326.736 98.108L326.736 98.1085C325.59 99.4501 324.43 100.808 323.251 102.192C306.881 86.6319 290.71 71.2637 274.717 56.066C229.976 50.3961 185.591 44.7689 141.227 39.1417C140.998 39.418 140.783 39.6688 140.581 39.905C140.179 40.3733 139.826 40.7843 139.515 41.2235C117.667 72.3792 95.8328 103.535 73.999 134.698L69.0513 141.759L62.7616 150.735C46.2991 174.229 29.8354 197.725 13.3858 221.23C11.6072 223.771 9.89001 226.354 8.17102 228.939C7.34241 230.186 6.5134 231.433 5.67685 232.676H3.54532C3.78217 232.271 4.00876 231.859 4.23535 231.447C4.68848 230.623 5.1416 229.799 5.67685 229.031C20.3912 208.019 35.1106 187.026 49.8307 166.032L49.8513 166.003L49.8718 165.974L57.9771 154.414C65.3183 143.945 72.6595 133.475 80.0008 123.005ZM120.302 74.3803C110.618 88.752 100.934 103.124 91.2431 117.489C80.0945 134.018 68.9437 150.545 57.7944 167.07L57.7714 167.104L57.7484 167.138L57.7255 167.172C48.8744 180.29 40.0243 193.407 31.177 206.522C27.5493 211.898 23.9135 217.268 20.278 222.638L20.2724 222.647L20.2668 222.655L20.2517 222.677L20.2366 222.7C17.9902 226.018 15.7439 229.336 13.4996 232.655H16.3416C16.4667 232.384 16.5796 232.105 16.6925 231.826L16.6926 231.825C16.9262 231.248 17.1598 230.671 17.4998 230.168C28.7168 213.505 39.9462 196.846 51.1763 180.187L51.2343 180.101L51.3119 179.986C58.9938 168.59 66.6758 157.194 74.3544 145.796C83.1089 132.796 91.8587 119.794 100.609 106.791L100.711 106.639C107.231 96.9507 113.751 87.2618 120.274 77.5729C126.939 67.6684 133.611 57.7782 140.289 47.888C140.656 47.3447 141.066 46.8263 141.507 46.2698C141.688 46.0403 141.875 45.8044 142.066 45.5575C142.845 45.6243 143.617 45.686 144.385 45.7472L144.385 45.7472L144.386 45.7473L144.387 45.7474C145.984 45.8748 147.561 46.0006 149.135 46.1685C154.896 46.7891 160.656 47.4188 166.416 48.0485L166.417 48.0486L166.418 48.0486L166.419 48.0487L166.42 48.0488L166.424 48.0493C175.104 48.9981 183.784 49.9469 192.469 50.865C200.348 51.6991 208.232 52.5061 216.115 53.3131L216.117 53.3133C222.806 53.998 229.494 54.6827 236.179 55.3838C240.776 55.8627 244.503 56.2623 248.117 56.6498L248.119 56.65L248.126 56.6508L248.131 56.6513L248.133 56.6516L248.134 56.6517C252.825 57.1547 257.327 57.6375 263.299 58.2471C263.974 58.3182 269.111 58.7018 269.111 58.7018C269.111 58.7018 271.164 60.2365 271.846 60.8689C280.5 68.9118 289.161 76.9547 297.83 84.9905C306.58 93.1019 315.345 101.199 324.11 109.296L324.117 109.303L324.118 109.303L324.118 109.304C324.382 109.549 324.669 109.772 325.022 110.045C325.221 110.199 325.44 110.369 325.688 110.569C337.871 95.1446 350.02 79.7582 362.157 64.3885L362.183 64.3553L362.322 64.179C370.558 53.7483 378.789 43.3253 387.019 32.9034C389.168 32.5667 391.303 32.2314 393.43 31.8975L393.457 31.8932L393.459 31.893L393.467 31.8917L393.47 31.8912L393.474 31.8906C398.154 31.1557 402.791 30.4276 407.432 29.7061C409.596 29.37 411.76 29.0375 413.924 28.705L413.925 28.7049L413.925 28.7049C419.812 27.8004 425.699 26.8958 431.575 25.9191C431.706 25.899 431.855 25.886 432.009 25.8725L432.009 25.8725H432.009H432.009H432.009C432.072 25.867 432.136 25.8614 432.2 25.8552V24.086C425.347 25.1573 418.524 26.2244 411.731 27.2867L411.685 27.294C403.085 28.6389 394.534 29.9763 386.032 31.3048C365.761 56.9611 345.703 82.3546 325.461 107.982C325.074 107.653 324.706 107.347 324.354 107.054C323.628 106.45 322.969 105.902 322.342 105.318C318.492 101.745 314.639 98.1753 310.785 94.6056C299.206 83.8795 287.626 73.1525 276.138 62.3254C274.177 60.4852 270.34 57.1174 270.34 57.1174C270.34 57.1174 266.113 56.7124 263.782 56.5632C256.058 56.0718 248.36 55.1822 240.664 54.2929C237.677 53.9477 234.691 53.6025 231.703 53.2807C227.001 52.7754 222.302 52.2575 217.602 51.7397C212.323 51.1579 207.043 50.5762 201.762 50.0124C197.705 49.581 193.645 49.1711 189.584 48.7612C185.886 48.3878 182.188 48.0145 178.493 47.6251C174.617 47.2165 170.742 46.7938 166.866 46.3711C162.99 45.9483 159.114 45.5255 155.238 45.117C152.097 44.7838 148.956 44.4762 145.77 44.1641L145.766 44.1637L145.763 44.1635C144.195 44.0099 142.616 43.8553 141.021 43.696C140.212 44.8901 139.408 46.0735 138.607 47.2512L138.596 47.2667L138.594 47.2699L138.582 47.2874L138.58 47.291L138.553 47.3296C137.304 49.1667 136.065 50.9902 134.833 52.8189C129.989 60.0055 125.145 67.1929 120.302 74.3803ZM58.2846 179.066L58.6271 178.537L58.6591 178.487C67.8748 164.253 77.0909 150.017 86.3123 135.785L86.3812 135.678L86.45 135.572L86.5188 135.466L86.69 135.202C103.204 109.718 119.718 84.2351 136.239 58.7517C137.465 56.8608 138.714 54.9846 139.955 53.1211C140.649 52.0786 141.34 51.0402 142.023 50.0054L183.676 53.4756L183.834 53.4888L184.091 53.5102L184.446 53.5398C211.653 55.8063 238.724 58.0616 265.672 60.3077C279.646 72.9899 293.481 85.5498 307.353 98.1434L307.532 98.3065L307.895 98.6356C314.453 104.589 321.02 110.551 327.614 116.537L328.82 114.9C347.515 89.5159 366.025 64.3836 384.611 39.156C387.556 38.5347 390.501 37.9123 393.447 37.2895L393.447 37.2894L393.448 37.2894L393.448 37.2893L393.448 37.2892L393.449 37.2891L393.449 37.2891C406.272 34.5785 419.123 31.862 432.186 29.216V30.9638C432.091 30.9834 431.997 31 431.903 31.0164C431.794 31.0356 431.686 31.0545 431.582 31.0775C426.324 32.1717 421.065 33.2605 415.805 34.3494C410.546 35.4382 405.286 36.5271 400.029 37.6213C396.803 38.2929 393.584 38.9928 390.398 39.6854C388.798 40.0333 387.206 40.3794 385.627 40.7191L382.676 44.7291L382.628 44.7948L382.521 44.9406L382.462 45.0204L382.437 45.0546C364.229 69.8032 346.12 94.4184 327.941 119.116C327.699 118.918 327.488 118.749 327.299 118.597C326.885 118.263 326.578 118.016 326.285 117.752C324.432 116.071 322.578 114.39 320.725 112.709L320.714 112.699C312.942 105.651 305.168 98.6008 297.403 91.5415C287.257 82.3191 277.111 73.0968 267.015 63.8247C266.134 63.0147 264.592 61.7642 264.592 61.7642C264.592 61.7642 253.608 61.0466 249.608 60.7198C245.181 60.3556 240.757 59.9823 236.333 59.6089L236.333 59.6089L236.327 59.6084C232.984 59.3262 229.64 59.0441 226.296 58.7659C223.754 58.5557 221.213 58.3501 218.671 58.1445L218.665 58.144C214.849 57.8354 211.034 57.5268 207.219 57.2028C201.381 56.7089 195.546 56.2058 189.711 55.7027C185.304 55.3228 180.898 54.9428 176.49 54.5668C175.213 54.4582 173.936 54.3494 172.66 54.2406C166.17 53.6874 159.68 53.1342 153.185 52.6058C150.868 52.4168 148.551 52.2608 146.189 52.1018L146.189 52.1018L146.188 52.1018L146.188 52.1017L146.187 52.1017L146.187 52.1017L146.183 52.1014C145.085 52.0275 143.977 51.9529 142.854 51.874C142.283 52.751 141.719 53.6156 141.16 54.4726L141.13 54.5175L141.112 54.545C140.052 56.1692 139.01 57.7665 137.973 59.3698C133.64 66.0531 129.308 72.7358 124.975 79.4182C114.011 96.3287 103.048 113.238 92.0887 130.15C70.5107 163.473 48.9397 196.796 27.383 230.133C27.0432 230.659 26.8058 231.258 26.569 231.855C26.4642 232.119 26.3595 232.383 26.2462 232.641H24.1147C24.3297 232.219 24.5343 231.792 24.739 231.365C25.1902 230.422 25.6414 229.48 26.2035 228.605C29.2392 223.906 32.2852 219.208 35.3321 214.508L35.3521 214.477L35.3778 214.438C37.3932 211.329 39.409 208.219 41.4226 205.109C46.9985 196.498 52.5734 187.887 58.1485 179.276L58.1937 179.206L58.2391 179.136L58.2846 179.066ZM109.644 109.784L109.553 109.929L109.215 110.475C102.501 121.292 95.787 132.109 89.0688 142.925C81.4686 155.161 73.8657 167.397 66.2625 179.633C56.2808 195.698 46.2985 211.763 36.3208 227.83C35.555 229.058 34.8058 230.294 34.0574 231.528C33.8267 231.909 33.5961 232.289 33.3651 232.669H35.4967C43.1488 220.32 50.8009 207.972 58.4602 195.623C72.72 172.631 86.9869 149.639 101.261 126.655C108.34 115.255 115.425 103.858 122.511 92.4597L122.516 92.4517L122.52 92.4437L122.525 92.4358L122.53 92.4278L122.535 92.4199L122.54 92.4119C126.922 85.363 131.304 78.3138 135.685 71.2636C136.715 69.6082 137.737 67.9491 138.758 66.2901C139.779 64.6311 140.801 62.972 141.831 61.3166C142.248 60.6373 142.695 59.9779 143.147 59.3112L143.148 59.3101L143.148 59.3096C143.358 59.0006 143.568 58.6899 143.778 58.3751C144.031 58.3552 144.274 58.3292 144.509 58.304C145.03 58.2481 145.512 58.1965 145.987 58.2259C151.349 58.561 156.709 58.9055 162.067 59.25L162.071 59.2502C166.027 59.5045 169.983 59.7588 173.939 60.0092C178.536 60.3005 183.14 60.5563 187.744 60.805C191.418 61.003 195.092 61.1972 198.766 61.3915L198.772 61.3918L198.773 61.3918L198.774 61.3919L198.776 61.392L198.777 61.3921L198.779 61.3922C205.253 61.7345 211.726 62.0767 218.196 62.4392C230.942 63.1568 259.746 64.8051 259.746 64.8051C259.746 64.8051 261.551 66.3185 262.446 67.1214C274.694 78.1561 286.988 89.1451 299.28 100.132C302.318 102.848 305.357 105.564 308.394 108.281C311.937 111.446 315.367 114.471 318.808 117.505C321.785 120.129 324.769 122.761 327.841 125.496C328.306 125.916 328.796 126.308 329.291 126.703C329.634 126.978 329.98 127.254 330.321 127.543C340.223 113.048 350.093 98.5945 359.968 84.1344L360.018 84.061L360.126 83.9027L360.143 83.8788L360.429 83.4594L360.532 83.3081C368.438 71.732 376.346 60.1513 384.276 48.5417C385.746 48.1527 387.22 47.7618 388.696 47.3702L388.731 47.3608L388.765 47.3518L388.777 47.3488L388.781 47.3478C392.265 46.4235 395.765 45.4951 399.268 44.5771C403.748 43.4059 408.231 42.2372 412.713 41.0685C418.973 39.4364 425.234 37.8042 431.489 36.1647C431.656 36.123 431.827 36.089 432.001 36.0541L432.002 36.054C432.065 36.0414 432.129 36.0287 432.193 36.0155V34.225C431.958 34.2534 431.731 34.2961 431.511 34.3529C424.422 36.1951 417.334 38.0465 410.246 39.8978L410.245 39.8982L410.242 39.8989C402.023 42.0457 393.804 44.1925 385.584 46.3249C384.788 46.531 383.53 46.7796 383.53 46.7796C383.53 46.7796 382.237 48.3285 381.704 49.1172C366.812 71.0145 351.875 92.874 336.936 114.737L336.932 114.743L336.926 114.752L334.157 118.803C333.264 120.111 332.347 121.405 331.357 122.802L331.356 122.804C330.883 123.472 330.393 124.164 329.88 124.893C322.122 118.18 314.566 111.397 307.037 104.638L307.036 104.637C303.153 101.151 299.277 97.6723 295.385 94.2129C287.343 87.0616 279.322 79.8929 271.202 72.6359L271.162 72.5999L271.085 72.5311L271.034 72.486L270.959 72.4186L270.882 72.3496C267.514 69.3402 264.13 66.3155 260.72 63.2704L251.55 62.7346C215.542 60.6304 179.328 58.514 142.889 56.3857C141.782 58.1539 140.664 59.9299 139.542 61.7125L139.525 61.7391L139.519 61.7488C137.596 64.8033 135.661 67.8772 133.745 70.9652C125.71 83.8976 117.681 96.8341 109.651 109.771L109.65 109.774L109.648 109.776L109.647 109.779L109.645 109.781L109.644 109.784ZM142.655 64.5421C142.889 64.1487 143.154 63.7738 143.428 63.387C143.569 63.1869 143.713 62.9836 143.856 62.773C163.96 63.3912 184.035 64.0074 204.079 64.6226C221.353 65.1528 238.605 65.6823 255.832 66.2118C263.777 73.2231 271.706 80.2207 279.625 87.209L279.78 87.3458C296.693 102.272 313.559 117.156 330.427 132.04C330.776 132.353 331.515 132.914 331.515 132.914L332.133 133.447C332.133 133.447 332.353 133.077 332.587 132.758C341.571 118.539 350.596 104.259 359.641 89.9454L359.676 89.8903L359.696 89.8586L360.113 89.1982L360.115 89.1952L360.162 89.121C367.383 77.6942 374.617 66.2468 381.854 54.794C393.065 51.3251 404.232 47.8689 415.399 44.4126L432.2 39.2126V41.0244C432.193 41.0279 432.188 41.0297 432.183 41.0315L432.182 41.0315L432.182 41.0315C432.177 41.0333 432.172 41.0351 432.165 41.0386C429.466 41.8813 426.766 42.7125 424.064 43.544L424.062 43.5446C422.027 44.1711 419.991 44.7977 417.955 45.4295C406.338 49.0318 394.728 52.6412 382.984 56.2932C373.205 71.7821 363.422 87.2759 353.599 102.831L353.581 102.86L353.488 103.008L353.219 103.433L353.146 103.548C346.29 114.406 339.415 125.294 332.509 136.232C314.829 120.644 297.264 105.155 279.687 89.6544L279.68 89.6483L279.08 89.119L277.766 87.9601L276.829 87.1339L275.427 85.8978C268.634 79.907 261.837 73.9131 255.029 67.9099C218.352 66.7802 181.626 65.6505 144.865 64.5208C144.617 64.9126 144.381 65.2767 144.156 65.6245C143.757 66.2415 143.391 66.807 143.046 67.3841L141.594 69.816C136.748 77.9305 131.899 86.0503 127.074 94.1702C118.839 108.027 110.607 121.887 102.374 135.748L102.181 136.072L101.988 136.397C93.7557 150.257 85.5231 164.118 77.2888 177.974C73.9069 183.667 70.5226 189.358 67.1383 195.049C60.3766 206.42 53.6149 217.79 46.8721 229.173C46.4387 229.909 46.1422 230.727 45.8452 231.547C45.7089 231.923 45.5725 232.3 45.4227 232.669H42.5807C45.7354 227.371 48.8912 222.073 52.0472 216.775L52.3373 216.288C57.5501 207.538 62.7634 198.786 67.9741 190.031C75.0713 178.106 82.168 166.18 89.2644 154.255L89.3577 154.099C107.123 124.245 124.888 94.3934 142.655 64.5421ZM107.714 134.001L107.148 134.997L105.934 137.134C102.555 143.079 99.1761 149.024 95.7972 154.968C81.4948 180.127 67.1923 205.286 52.8969 230.438C52.6151 230.933 52.3745 231.455 52.1345 231.976L52.1343 231.976L52.1331 231.978C52.0288 232.205 51.9245 232.431 51.817 232.655H53.9485C54.9706 230.819 55.9904 228.98 57.0103 227.142L57.0128 227.137L57.0142 227.134L57.0156 227.132L57.017 227.13L57.0183 227.127L57.0197 227.125L57.0211 227.122L57.0225 227.12C59.5506 222.562 62.0798 218.002 64.6487 213.471C81.3171 184.085 98.0069 154.705 114.697 125.326C124.558 107.968 134.427 90.6178 144.296 73.2673C144.586 72.7592 144.905 72.2656 145.258 71.719L145.258 71.7184C145.398 71.5009 145.544 71.2749 145.696 71.0363H250.318C278.184 95.3498 306.313 119.891 334.754 144.701C335.153 144.034 335.54 143.392 335.919 142.765L335.919 142.764C336.6 141.636 337.25 140.559 337.88 139.472C341.364 133.472 344.847 127.473 348.33 121.473L348.333 121.468L348.336 121.464L348.338 121.459L348.341 121.454C357.327 105.975 366.311 90.4985 375.31 75.0294L381.321 64.1871C384.591 63.0133 387.801 61.8594 390.975 60.7187L391.018 60.7033L391.033 60.6978L391.034 60.6975C396.101 58.8763 401.076 57.0884 406.053 55.3057C408.648 54.3754 411.244 53.4471 413.84 52.5187L413.843 52.5173L413.844 52.5173L413.844 52.5173L413.844 52.5172L413.844 52.5172L413.844 52.5171L413.844 52.5171L413.844 52.5171L413.844 52.5171C419.811 50.383 425.778 48.2488 431.738 46.0905C431.88 46.0408 432.037 45.9981 432.193 45.9555V44.5345C422.914 47.277 385.065 60.6274 380.248 62.9721C369.727 81.071 359.151 99.2733 348.481 117.636C343.825 125.65 339.151 133.694 334.456 141.774C330.406 138.666 326.736 135.395 323.115 132.167L323.114 132.167L323.114 132.167L323.114 132.167L323.114 132.167L323.114 132.167L323.114 132.167L323.114 132.167C321.272 130.525 319.442 128.894 317.581 127.301C313.86 124.117 310.175 120.887 306.491 117.658L306.49 117.657L306.487 117.654L306.486 117.654L306.483 117.651L306.483 117.65L306.479 117.647L306.479 117.647L306.475 117.644L306.468 117.638C304.561 115.966 302.654 114.294 300.742 112.629C298.183 110.403 295.62 108.18 293.057 105.959L293.054 105.957L293.052 105.955L293.05 105.953L293.047 105.95L293.045 105.948L293.043 105.946L293.04 105.944L293.038 105.942L293.034 105.939C290.068 103.368 287.102 100.797 284.145 98.2202C281.113 95.5798 278.087 92.931 275.061 90.2818L275.058 90.2794L275.051 90.2727C272.478 88.0205 269.905 85.7679 267.327 83.5199C263.181 79.9071 259.03 76.3023 254.903 72.7176L254.898 72.7131C253.532 71.5266 252.168 70.3423 250.808 69.1606H144.68C144.301 69.8076 143.917 70.4571 143.532 71.1093L143.528 71.1152C142.616 72.6598 141.694 74.2195 140.801 75.7967C129.769 95.1962 118.741 114.6 107.714 134.001ZM150.784 75.2777L150.802 75.277L150.804 75.277L150.806 75.2769L150.808 75.2768L150.81 75.2768L150.812 75.2767L150.814 75.2766L150.816 75.2766L150.818 75.2765L150.819 75.2764C156.132 75.0709 161.445 74.8653 166.763 74.7026C171.972 74.5427 177.184 74.3957 182.395 74.2488L182.4 74.2486C188.765 74.0692 195.129 73.8897 201.492 73.6866C215.191 73.2532 228.896 72.8127 242.595 72.2443C243.803 72.1945 245.906 72.1519 245.906 72.1519C245.906 72.1519 247.732 73.6013 248.648 74.39C265.61 89.0875 282.602 103.748 299.594 118.409L299.597 118.412L299.61 118.423L299.664 118.469L299.677 118.481C306.273 124.172 312.869 129.864 319.464 135.557C322.022 137.765 324.568 139.99 327.114 142.214C329.017 143.877 330.92 145.539 332.829 147.195C333.56 147.829 334.312 148.442 335.183 149.152L335.184 149.152C335.573 149.469 335.986 149.806 336.431 150.172C336.661 149.814 336.883 149.479 337.094 149.159L337.095 149.159L337.095 149.158L337.095 149.158L337.095 149.158C337.571 148.439 337.998 147.795 338.357 147.117C344.139 136.233 349.909 125.344 355.679 114.454C357.318 111.361 358.956 108.269 360.595 105.176C361.69 103.114 362.784 101.053 363.879 98.9917L363.919 98.9158L363.919 98.9157C367.964 91.2987 372.008 83.6822 376.035 76.0526L378.905 70.6527C379.031 70.5925 379.157 70.5319 379.282 70.4713L379.283 70.4712L379.283 70.4712L379.283 70.4712L379.283 70.471C380.003 70.1244 380.725 69.7767 381.463 69.4804C398.366 62.6453 415.269 55.8245 432.179 49.0108V50.8865C432.122 50.9078 432.064 50.9291 432.007 50.9504L432.006 50.9505L432.005 50.9509H432.005C431.891 50.9933 431.776 51.0358 431.667 51.0783C425.554 53.5476 419.44 56.0133 413.325 58.479L413.319 58.4813L413.314 58.4837L413.313 58.484L413.311 58.4847L413.309 58.4853L413.308 58.486L413.306 58.4867L413.304 58.4873L413.303 58.488L413.286 58.4946L413.273 58.4999C407.16 60.9652 401.046 63.4306 394.934 65.8995C391.8 67.1648 388.669 68.4418 385.469 69.747L385.454 69.7528L385.449 69.755C383.642 70.4918 381.813 71.2377 379.949 71.9956L372.631 86.362V86.3691C366.212 98.4367 359.81 110.511 353.408 122.586L353.403 122.594L353.395 122.611C350.725 127.646 348.055 132.682 345.383 137.717C342.946 142.307 340.488 146.89 338.03 151.466C337.853 151.796 337.634 152.106 337.364 152.489L337.364 152.489L337.363 152.491L337.363 152.491L337.361 152.493C337.231 152.678 337.09 152.879 336.936 153.107C310.03 129.86 283.261 106.728 256.546 83.6429L245.181 73.8216C225.604 74.4932 206.104 75.1648 186.605 75.8363L186.451 75.8416L186.426 75.8425L186.401 75.8433L186.302 75.8467C173.101 76.3014 159.901 76.756 146.677 77.2107C146.409 77.6746 146.141 78.128 145.876 78.5763L145.876 78.5771C145.354 79.4608 144.843 80.3249 144.367 81.2108C137.634 93.6524 130.905 106.097 124.175 118.542L124.158 118.573C115.783 134.062 107.407 149.551 99.0229 165.036C91.438 179.05 83.8389 193.059 76.2399 207.067L76.2167 207.109L76.1827 207.172L76.0769 207.367L75.972 207.561C71.6093 215.603 67.2466 223.645 62.8867 231.689C62.768 231.906 62.67 232.131 62.571 232.357L62.5709 232.358L62.568 232.364C62.5483 232.409 62.5285 232.455 62.5086 232.5C62.4858 232.551 62.4627 232.603 62.4391 232.655H60.3076C75.3011 204.983 90.2966 177.312 105.29 149.646L105.537 149.191L106.721 147.006L107.463 145.637C120.094 122.33 132.723 99.0255 145.348 75.7257C145.652 75.6792 145.923 75.6253 146.174 75.5754L146.174 75.5753C146.575 75.4957 146.924 75.4262 147.273 75.4131C148.444 75.3683 149.614 75.323 150.784 75.2777ZM145.061 84.5706L145.06 84.5731C143.768 87.02 142.5 89.4224 141.255 91.8326L141.17 91.9986L141.15 92.0362C120.773 131.536 100.395 171.037 80.024 210.565C77.3452 215.757 74.7198 220.981 72.0949 226.204L72.093 226.207L72.0902 226.213L72.0873 226.219L72.0845 226.224L72.0817 226.23L72.0788 226.235L72.076 226.241L72.0609 226.271C70.9862 228.409 69.9117 230.547 68.8335 232.683H70.9651C71.1888 232.206 71.4088 231.726 71.6287 231.247C72.142 230.128 72.6553 229.01 73.2174 227.916C80.3127 214.113 87.4159 200.316 94.519 186.52L94.582 186.397C99.0306 177.757 103.479 169.116 107.926 160.475C113.205 150.211 118.481 139.947 123.756 129.683L123.816 129.566C130.832 115.918 137.847 102.27 144.872 88.6211C145.435 87.5318 146.044 86.4669 146.677 85.3604L146.679 85.3571C147.011 84.7759 147.35 84.1832 147.693 83.5695C178.536 81.3314 209.279 79.1004 240.3 76.8481C262.262 95.6653 284.262 114.521 306.321 133.427L306.601 133.666L307.399 134.35L308.507 135.3L309.491 136.143L309.762 136.376C319.601 144.808 329.451 153.25 339.316 161.704C339.503 161.372 339.675 161.076 339.834 160.802L339.834 160.802L339.835 160.801C340.169 160.225 340.446 159.749 340.687 159.252C343.78 152.812 346.87 146.371 349.96 139.93C355.253 128.898 360.546 117.865 365.853 106.838L366.35 105.808L366.431 105.64L366.496 105.503L366.598 105.289L366.598 105.289L366.6 105.285L366.602 105.28C366.757 104.955 366.911 104.632 367.068 104.309C367.082 104.277 367.098 104.245 367.114 104.213C367.13 104.181 367.146 104.149 367.16 104.117L376.923 83.9176C377.312 82.9381 377.758 82.077 378.197 81.2283C378.471 80.6981 378.743 80.1726 378.997 79.6261C381.548 78.4815 384.11 77.3308 386.679 76.1768L386.77 76.1359L386.786 76.1288C391.04 74.2185 395.314 72.2991 399.588 70.3825C402.708 68.9824 405.828 67.5842 408.949 66.186L408.95 66.1857C416.502 62.8016 424.055 59.4177 431.596 56.009C431.781 55.9237 431.987 55.8527 432.193 55.7817H432.193L432.193 55.7817L432.193 55.7817L432.193 55.7816L432.193 55.7816V53.9272C431.66 54.1261 431.156 54.3251 430.665 54.5453C422.228 58.3248 413.792 62.1079 405.356 65.8909L405.347 65.8953L405.334 65.9008L405.32 65.9074L405.302 65.9151L405.283 65.924C396.822 69.7181 388.362 73.5122 379.9 77.3028C379.43 77.5107 378.935 77.649 378.433 77.7893L378.344 77.8144L373.079 87.7898C362.187 110.427 351.295 133.056 340.381 155.686C340.091 156.285 339.727 156.85 339.297 157.518L339.297 157.518L339.296 157.518L339.296 157.519C339.074 157.864 338.833 158.237 338.577 158.656C322.248 144.671 306.156 130.742 290.099 116.843L290.097 116.841C273.995 102.903 257.928 88.9955 241.692 75.0931C238.156 75.3307 234.551 75.561 230.941 75.7916L230.941 75.7916L230.941 75.7916L230.941 75.7917H230.941C225.05 76.168 219.149 76.5449 213.528 76.9547C207.607 77.3858 201.691 77.8402 195.775 78.2946L195.772 78.2948L195.772 78.2949C190.379 78.7091 184.988 79.1232 179.594 79.5196C175.253 79.8393 170.908 80.1318 166.562 80.4244L166.561 80.4245L166.56 80.4245L166.559 80.4246L166.558 80.4247L166.557 80.4247L166.556 80.4248L166.555 80.4249L166.554 80.4249L166.553 80.425L166.548 80.4253L166.544 80.4256C162.879 80.6723 159.214 80.9191 155.551 81.1822C153.497 81.3309 151.443 81.5283 149.386 81.7261L149.382 81.7264L149.382 81.7265L149.382 81.7265L149.381 81.7265L149.381 81.7265L149.38 81.7265L149.379 81.7267C148.392 81.8216 147.403 81.9166 146.414 82.0063C145.96 82.8679 145.509 83.7219 145.061 84.5706ZM248.824 88.8848L248.882 88.934C256.225 95.1631 263.547 101.375 270.866 107.592C275.569 111.59 280.268 115.595 284.967 119.6L284.973 119.605L284.978 119.61L284.984 119.614L284.989 119.619C291.974 125.573 298.961 131.527 305.965 137.461C309.876 140.778 313.775 144.109 317.684 147.448C325.359 154.003 333.07 160.589 340.978 167.161C341.21 166.683 341.419 166.261 341.611 165.874L341.611 165.874C341.98 165.131 342.285 164.518 342.556 163.892C350.655 145.17 376.773 85.822 376.773 85.822C382.849 82.8424 388.928 79.8553 394.996 76.8739C407.493 70.734 419.94 64.6188 432.193 58.6451V60.6061C431.916 60.7056 431.646 60.8051 431.411 60.9188C420.313 66.4276 409.192 71.8902 398.074 77.3513C395.412 78.659 392.75 79.9666 390.088 81.2747C387.464 82.5666 384.839 83.8614 382.235 85.1463L382.204 85.1617C380.722 85.8926 379.247 86.6203 377.782 87.3424C377.164 88.7279 365.171 116.246 365.171 116.246C365.167 116.255 365.162 116.263 365.157 116.272L365.144 116.295L365.144 116.296C365.129 116.323 365.113 116.35 365.1 116.381C364.539 117.674 363.977 118.967 363.423 120.26L362.684 121.944H362.691C360.44 127.135 358.24 132.349 356.039 137.563L356.039 137.564C351.816 147.57 347.593 157.577 343.01 167.423C342.715 168.051 342.404 168.674 342.032 169.421L342.031 169.421L341.796 169.894L341.646 170.194L338.431 167.459C304.294 138.418 270.331 109.526 236.328 80.5926L235.404 79.7471L223.233 81.1966C198.352 84.1025 173.47 87.0085 148.51 89.9216C147.891 91.1754 147.277 92.4184 146.667 93.6533C144.664 97.7086 142.704 101.676 140.765 105.652C135.245 116.949 129.73 128.249 124.215 139.549L124.206 139.566L124.135 139.712L124.081 139.822L124.028 139.931L123.992 140.005C118.55 151.154 113.109 162.303 107.663 173.448C102.459 184.099 97.2439 194.745 92.029 205.39L92.0129 205.423L92.0054 205.438L91.9979 205.453L91.9904 205.469L91.9829 205.484L91.9754 205.499L91.9679 205.515L91.9604 205.53L91.9529 205.545L91.9453 205.56L91.9378 205.576L91.9303 205.591C88.0355 213.542 84.1408 221.492 80.2513 229.443C79.8679 230.226 79.5154 231.024 79.1625 231.824C79.0381 232.106 78.9136 232.388 78.7877 232.669H76.6562C100.16 184.611 123.663 136.552 147.266 88.3016C160.78 86.7242 174.294 85.1482 187.819 83.571L188.19 83.5278L188.577 83.4826L188.742 83.4634L188.765 83.4607L188.88 83.4473L189.115 83.4198C204.705 81.6019 220.309 79.7823 235.944 77.9567C240.247 81.6084 244.539 85.2496 248.824 88.8848ZM138.932 114.654C140.246 111.816 141.555 108.976 142.865 106.135C144.174 103.295 145.483 100.455 146.797 97.6163C147.105 96.9468 147.443 96.2912 147.801 95.5986L147.802 95.5974C147.956 95.2981 148.114 94.992 148.275 94.6748C168.047 91.3794 187.802 88.084 207.534 84.7923L207.617 84.7784L222.359 82.3191L231.482 81.1965C268.073 112.146 304.664 143.089 341.27 174.017C341.722 174.397 342.314 174.875 342.983 175.416L343.344 175.708C343.614 175.082 343.869 174.388 344.104 173.749L344.104 173.748L344.104 173.748L344.104 173.747L344.104 173.747L344.104 173.747C344.234 173.394 344.358 173.058 344.474 172.759C350.904 156.084 377.967 91.5344 377.967 91.5344C395.693 82.202 411.511 74.1854 428.699 65.4748L428.701 65.4737L428.701 65.4736L432.193 63.7039V65.3594C432.033 65.4417 431.873 65.5274 431.716 65.6119L431.715 65.6121L431.713 65.613C431.641 65.652 431.568 65.6908 431.497 65.7289C419.11 72.3408 406.723 78.9457 394.336 85.5506L394.307 85.5662L394.294 85.5733L394.28 85.5804C391.335 87.1517 389.214 88.1798 387.079 89.2146C384.909 90.2666 382.724 91.3256 379.644 92.9696C376.532 101.053 366.794 124.241 358.115 144.906C351.972 159.532 346.361 172.894 344.005 178.742C335.236 171.328 326.489 163.931 317.757 156.547L315.773 154.869L315.751 154.851L315.158 154.35L315.095 154.296C286.792 130.364 258.649 106.568 230.495 82.7668L212.404 85.7813L212.314 85.7963L212.193 85.8166L211.881 85.8685C190.967 89.3536 170.175 92.8184 149.455 96.2664C149.165 96.8698 148.894 97.4294 148.636 97.961L148.635 97.9625L148.634 97.9654C148.152 98.9591 147.718 99.8549 147.302 100.757C144.187 107.494 141.076 114.232 137.966 120.969L137.962 120.977L137.959 120.984L137.956 120.992L137.952 120.999L137.949 121.006L137.945 121.014L137.942 121.021L137.939 121.028L137.935 121.036L137.932 121.043L137.928 121.05C133.281 131.117 128.633 141.182 123.976 151.245C119.626 160.649 115.272 170.051 110.917 179.453L110.853 179.591L110.789 179.729C103.97 194.454 97.1511 209.179 90.3476 223.909C89.4463 225.865 88.6139 227.852 87.7812 229.839L87.7808 229.84L87.7803 229.841L87.7799 229.842L87.7794 229.843L87.779 229.844L87.7785 229.845L87.778 229.846L87.7776 229.847L87.7771 229.848L87.7767 229.849L87.776 229.85L87.7732 229.857C87.3809 230.793 86.9886 231.729 86.589 232.662H84.4575C85.4727 230.426 86.4836 228.188 87.4948 225.95L87.4969 225.945L87.4991 225.94L87.5013 225.935L87.5035 225.93L87.5057 225.925L87.5079 225.921L87.514 225.907C89.752 220.952 91.9908 215.996 94.2767 211.063C104.188 189.644 114.112 168.226 124.036 146.808L124.069 146.737L124.134 146.595L124.199 146.455L124.232 146.384L124.297 146.244C129.176 135.714 134.055 125.184 138.932 114.654Z" fill="url(#paint0_linear_1345_1665)"/>
<defs>
<linearGradient id="paint0_linear_1345_1665" x1="432.2" y1="9.7493" x2="78.7277" y2="226.115" gradientUnits="userSpaceOnUse">
<stop stop-color="#0BBD25"/>
<stop offset="1" stop-color="#0BBD25" stop-opacity="0"/>
</linearGradient>
</defs>
</svg>
