<svg width="934" height="855" viewBox="0 0 934 855" fill="none" xmlns="http://www.w3.org/2000/svg">
<path fill-rule="evenodd" clip-rule="evenodd" d="M82.2606 461.189L81.6556 461.719L0.027956 533.197L1.34553 534.702L82.3681 463.754L380.012 683.246L380.66 683.723L381.265 683.193L619.129 474.903L779.142 461.465L779.978 461.395L780.054 460.559L821.884 0.577929L819.893 0.396805L778.139 459.542L618.634 472.938L618.306 472.965L618.059 473.182L380.552 681.159L82.9079 461.667L82.2606 461.189ZM102.599 515.158L33.4295 569.746L34.6685 571.316L103.239 517.201L402.281 737.517L402.946 738.007L403.553 737.446L638.861 520.107L807.518 489.193L808.259 489.057L808.333 488.308L856.409 3.58338L854.419 3.38597L806.417 487.361L638.216 518.192L637.93 518.244L637.717 518.441L402.802 735.417L103.812 515.138L103.198 514.686L102.599 515.158ZM104.793 559.758L104.176 560.298L59.4124 599.496L60.73 601.001L104.876 562.343L412.401 798.413L413.106 798.954L413.726 798.318L657.573 548.27L834.431 516.135L835.157 516.003L835.245 515.27L896.154 8.01031L894.168 7.77188L833.348 514.299L656.901 546.359L656.587 546.416L656.364 546.645L412.914 796.286L105.444 560.257L104.793 559.758ZM107.474 574.69L108.09 574.15L108.741 574.648L416.914 810.722L663.185 555.959L663.409 555.726L663.728 555.669L842.29 523.747L905.411 9.22322L907.396 9.46674L844.185 524.723L844.096 525.456L843.369 525.586L664.398 557.581L417.732 812.753L417.113 813.394L416.405 812.852L108.175 576.734L69.2942 610.781L67.9767 609.276L107.474 574.69ZM107.912 592.915L107.293 593.457L77.1997 619.809L78.5173 621.313L107.992 595.504L415.093 832.605L415.797 833.149L416.419 832.513L674.28 568.863L851.942 535.365L852.656 535.23L852.749 534.51L920.378 11.3968L918.394 11.1403L850.858 533.534L673.6 566.956L673.291 567.014L673.07 567.239L415.611 830.479L108.563 593.418L107.912 592.915ZM106.593 609.356L107.221 608.806L107.874 609.325L413.139 851.923L684.414 577.908L684.636 577.684L684.945 577.628L860.696 545.52L931.188 10.5687L933.171 10.83L862.584 546.503L862.488 547.225L861.772 547.356L685.614 579.539L413.93 853.967L413.299 854.604L412.597 854.046L107.283 611.41L86.0933 629.965L84.7758 628.461L106.593 609.356ZM86.8812 473.758L87.4862 473.228L88.1334 473.706L385.778 693.198L623.285 485.221L623.517 485.018L623.823 484.981L784.112 465.638L826.572 1.19342L828.564 1.37551L786.03 466.625L785.957 467.43L785.154 467.527L624.37 486.929L386.49 695.232L385.885 695.762L385.238 695.285L87.5936 475.793L6.57107 546.741L5.25349 545.237L86.8812 473.758ZM92.7117 485.268L92.1067 485.798L10.479 557.276L11.7966 558.781L92.8192 487.832L390.463 707.324L391.111 707.801L391.716 707.272L629.611 498.955L790.839 473.211L791.607 473.088L791.677 472.313L834.208 1.74865L832.217 1.5686L789.755 471.358L629.011 497.025L628.727 497.071L628.51 497.26L391.003 705.237L93.359 485.745L92.7117 485.268ZM97.3322 497.837L97.9372 497.307L98.5845 497.784L396.229 717.276L633.736 509.3L633.94 509.121L634.206 509.07L796.762 477.872L838.52 2.69758L840.512 2.87266L798.688 478.799L798.622 479.551L797.88 479.694L634.849 510.983L396.941 719.311L396.336 719.841L395.689 719.363L98.0447 499.871L17.0221 570.82L15.7046 569.315L97.3322 497.837ZM103.774 529.415L40.9061 579.814L42.1571 581.374L104.423 531.458L407.742 756.656L408.421 757.161L409.031 756.574L644.239 530.027L817.213 497.985L817.945 497.849L818.025 497.109L871.225 4.57425L869.237 4.35946L816.116 496.154L643.58 528.115L643.284 528.17L643.068 528.378L408.254 754.546L104.996 529.392L104.376 528.932L103.774 529.415ZM47.8383 587.702L104.971 543.654L105.576 543.187L106.186 543.65L410.797 774.896L649.927 536.994L650.147 536.775L650.452 536.719L824.404 504.85L882.22 6.27525L884.207 6.50563L826.305 505.815L826.22 506.55L825.492 506.684L651.118 538.631L411.591 776.928L410.974 777.542L410.281 777.016L105.586 545.705L49.0594 589.286L47.8383 587.702Z" fill="url(#paint0_linear_88_331)"/>
<defs>
<linearGradient id="paint0_linear_88_331" x1="122.804" y1="690.863" x2="974.405" y2="100.663" gradientUnits="userSpaceOnUse">
<stop stop-color="#0BBD25"/>
<stop offset="1" stop-color="#0BBD25" stop-opacity="0"/>
</linearGradient>
</defs>
</svg>
