<svg width="495" height="403" viewBox="0 0 495 403" fill="none" xmlns="http://www.w3.org/2000/svg">
<path fill-rule="evenodd" clip-rule="evenodd" d="M453.081 282.403C465.783 298.683 478.498 314.964 491.237 331.22C491.969 332.164 492.825 333.01 493.679 333.856C494.117 334.289 494.555 334.722 494.975 335.167V340.074C494.559 339.654 494.126 339.247 493.693 338.84C492.806 338.008 491.919 337.175 491.176 336.225C464.902 302.583 438.642 268.927 412.382 235.272C394.864 212.821 377.346 190.369 359.824 167.922C332.274 132.605 304.7 97.304 277.128 62.0063C271.09 54.2776 265.053 46.5489 259.016 38.8203C258.338 37.9491 257.608 37.1236 256.788 36.1961C256.404 35.762 256.001 35.3055 255.573 34.8116C253.622 35.1422 251.669 35.4686 249.715 35.7951C245.055 36.5735 240.391 37.3528 235.739 38.1931C219.909 41.0398 204.083 43.8994 188.258 46.7587C173.117 49.4943 157.978 52.2297 142.839 54.9533C106.65 61.4705 70.4488 67.9754 34.2477 74.468C22.9371 76.4957 17.1902 77.4285 6.37939 79.1833L4.7482 79.4481C3.28491 79.6817 -5.50711 81.0958 -5.50711 81.0958C-5.50711 81.0958 -8.22464 83.9732 -9.56496 85.4734C-19.2702 96.3193 -29.0636 107.077 -38.8543 117.832C-41.7289 120.989 -44.6034 124.147 -47.4753 127.306C-48.4187 128.343 -49.3865 129.364 -50.4796 130.518C-51.1245 131.199 -51.8131 131.926 -52.566 132.729C-74.5935 110.992 -96.6921 89.3659 -118.812 67.7184C-140.664 46.3332 -162.537 24.9274 -184.383 3.37458C-194.507 3.43396 -205.756 3.43396 -217.426 3.43396C-229.097 3.43396 -241.189 3.43396 -253 3.49333V3.19215e-05L-241.751 0L-200.132 1.90485e-05L-182.873 1.15392e-05C-139.589 42.6445 -96.3541 85.2398 -52.6275 128.315C-44.5255 119.442 -36.5415 110.694 -28.5722 101.962C-21.5437 94.2604 -14.5265 86.5717 -7.44997 78.821C32.1678 71.718 71.8255 64.6101 111.53 57.4938C159.877 48.8286 208.293 40.1509 256.791 31.4546C257.615 32.4622 258.423 33.4401 259.216 34.4003C260.978 36.5335 262.667 38.5787 264.304 40.6647C299.435 85.6087 334.567 130.553 369.673 175.521C387.179 197.933 404.674 220.36 422.17 242.786C432.473 255.993 442.776 269.199 453.081 282.403ZM470.53 327.597L470.528 327.594C467.66 323.785 464.793 319.976 461.922 316.169C429.927 273.697 397.931 231.225 365.923 188.765C346.678 163.235 327.424 137.71 308.169 112.184L308.168 112.182C295.891 95.906 283.613 79.63 271.338 63.352C268.079 59.0278 264.811 54.7135 261.458 50.2876L261.435 50.2576C259.494 47.6956 257.524 45.0961 255.512 42.4356C226.389 47.1869 197.285 51.9353 168.202 56.6803L166.998 56.8767L165.304 57.1531C110.453 66.1023 55.6757 75.0394 0.98558 83.9611C-3.81805 88.9031 -8.60324 93.8267 -13.3813 98.7429L-13.746 99.1181L-13.759 99.1315C-27.9589 113.742 -42.0987 128.291 -56.4763 143.071C-77.4977 121.093 -98.3306 99.1734 -119.077 77.3454L-119.082 77.3397C-139.401 55.9615 -159.636 34.6709 -179.884 13.4985C-182.522 13.4985 -185.16 13.4888 -187.778 13.4791H-187.778C-192.957 13.4601 -198.059 13.4413 -202.944 13.4985C-213.66 13.6288 -223.759 13.5864 -234.099 13.543H-234.1C-239.362 13.5208 -244.687 13.4985 -250.188 13.4985C-250.581 13.5072 -251.525 13.5035 -252.259 13.5007C-252.558 13.4995 -252.822 13.4985 -253 13.4985V16.3106C-252.612 16.3365 -251.928 16.3261 -251.368 16.3175H-251.367C-251.129 16.3139 -250.912 16.3106 -250.75 16.3106C-236.421 16.2204 -222.2 16.2505 -207.978 16.2806L-207.976 16.2806C-200.866 16.2956 -193.756 16.3106 -186.633 16.3106C-184.518 16.2737 -181.571 16.3106 -181.571 16.3106C-181.571 16.3106 -178.901 19.1582 -177.757 20.4247C-173.476 25.185 -169.037 29.8018 -164.599 34.4176L-164.599 34.4178C-163.224 35.8471 -161.85 37.2764 -160.481 38.7097C-126.985 73.7672 -95.0752 107.152 -61.5548 142.185C-61.0329 142.731 -60.3994 143.465 -59.6709 144.31L-59.6705 144.31L-59.6704 144.31C-58.8886 145.217 -57.9974 146.25 -57.0173 147.313C-55.1295 145.58 -52.3014 142.629 -50.5859 140.839L-50.5851 140.838L-50.4387 140.685C-43.2086 133.166 -36.0186 125.908 -28.8285 118.651L-28.8277 118.65L-28.827 118.649C-21.6367 111.391 -14.4464 104.133 -7.2162 96.6142C-1.91638 91.1054 3.34656 86.4696 3.34656 86.4696C3.34656 86.4696 9.9621 85.4613 16.2087 84.4775C32.8643 81.8787 49.5048 79.1433 66.1419 76.4084L66.1515 76.4068C70.6869 75.6612 75.2221 74.9157 79.7574 74.173C90.3464 72.4399 100.929 70.6884 111.512 68.9369L111.525 68.9348C122.112 67.1825 132.7 65.4302 143.294 63.6963C169.916 59.3433 196.538 55.015 223.172 50.6866C229.865 49.6032 236.562 48.5356 243.269 47.4666L243.269 47.4666C246.839 46.8975 250.412 46.3281 253.987 45.7556C254.407 46.267 254.809 46.7447 255.194 47.2029L255.195 47.2033C255.949 48.1 256.64 48.9222 257.283 49.7766C259.93 53.2835 262.577 56.7903 265.225 60.2973C275.147 73.4404 285.071 86.5851 294.972 99.7375C305.177 113.287 315.378 126.841 325.58 140.395L325.82 140.714C341.98 162.184 358.142 183.656 374.322 205.119C405.1 245.956 435.878 286.781 466.693 327.581C472.906 335.81 479.189 343.99 485.471 352.168L485.475 352.174C488.654 356.312 491.832 360.45 495 364.593V358.457C494.609 358.106 494.2 357.768 493.791 357.43L493.791 357.43C492.825 356.631 491.857 355.831 491.114 354.854C484.224 345.789 477.377 336.693 470.53 327.597ZM308.394 128.189C325.411 151.597 342.427 175.006 359.455 198.405C386.115 235.048 412.802 271.671 439.496 308.303L440.217 309.293C449.419 321.921 458.622 334.55 467.824 347.181C473.915 355.537 480.034 363.876 486.154 372.217C489.103 376.237 492.053 380.257 495 384.28V389.186C493.754 387.581 492.495 385.987 491.236 384.393L491.234 384.391C488.578 381.03 485.923 377.67 483.404 374.209C458.425 339.869 433.472 305.516 408.517 271.16L408.109 270.599C399.073 258.159 390.037 245.719 380.998 233.278C351.806 193.081 322.602 152.883 293.385 112.698C280.4 94.8311 267.391 76.9888 254.381 59.1465C254.09 58.7511 253.767 58.3828 253.336 57.8906L253.335 57.8901L253.334 57.8887L253.333 57.8875C253.054 57.5692 252.73 57.1991 252.34 56.7363C172.203 68.4058 91.771 80.1244 11.0441 91.8922C-12.6391 115.157 -36.3837 138.496 -60.4112 162.118C-62.4971 159.824 -64.5431 157.585 -66.5602 155.377C-70.0246 151.586 -73.4037 147.888 -76.7533 144.165C-84.0195 136.093 -91.292 128.027 -98.5643 119.96C-123.475 92.3306 -148.384 64.7022 -173.035 36.8528C-175.101 34.5288 -179.663 29.8438 -179.663 29.8438C-179.663 29.8438 -185.873 29.4011 -189.894 29.3027C-204.729 28.4653 -219.772 27.837 -234.7 27.2136L-234.7 27.2136C-240.827 26.9577 -246.935 26.7026 -253 26.4342L-252.975 23.6221C-248.967 23.9314 -245.462 24.0706 -241.528 24.2269H-241.528H-241.528H-241.528C-238.31 24.3547 -234.805 24.4939 -230.503 24.7469C-225.933 25.0158 -222.262 25.1561 -218.458 25.3015C-214.303 25.4604 -209.989 25.6253 -204.17 25.9704C-196.739 26.411 -191.423 26.6248 -186.107 26.8386L-186.106 26.8387L-186.106 26.8387C-183.448 26.9456 -180.79 27.0525 -177.868 27.1877C-145.801 62.8086 -113.883 98.2728 -81.7346 133.992L-60.3497 157.753C-38.1208 135.906 -16.3165 114.472 5.45242 93.0736L5.86386 92.6692L9.54391 89.0517C86.34 77.8755 162.961 66.7211 239.645 55.5576L253.594 53.5269C254.09 54.1159 254.564 54.6559 255.014 55.1696L255.015 55.1707C255.881 56.1582 256.661 57.0487 257.357 58.0029C274.367 81.3783 291.366 104.763 308.365 128.148L308.38 128.168L308.394 128.189ZM394.66 267.241C381.519 248.501 368.378 229.759 355.237 211.017L355.085 210.801L354.982 210.654L354.927 210.576C323.325 165.506 291.721 120.432 260.111 75.3654C258.394 72.9166 256.638 70.4952 254.891 68.0865C254.024 66.891 253.159 65.6986 252.303 64.5076C250.198 64.7792 248.105 65.0497 246.022 65.3188C236.507 66.5485 227.196 67.7518 217.885 68.922C211.041 69.7803 204.195 70.6229 197.348 71.4654C189.384 72.4456 181.419 73.4258 173.457 74.4309C166.628 75.294 159.805 76.182 152.982 77.0699L152.98 77.0702L152.978 77.0704L152.976 77.0707C145.414 78.0548 137.852 79.0388 130.284 79.9889C122.019 81.0257 113.754 82.0377 105.488 83.0496L105.482 83.0504C96.3007 84.1746 87.1191 85.2987 77.9374 86.4569C70.834 87.3514 63.7341 88.2731 56.6344 89.1949L56.6339 89.195L56.6333 89.195L56.6328 89.1951C45.2857 90.6683 33.939 92.1414 22.5783 93.5029C20.9552 93.6996 17.9302 94.0316 17.9302 94.0316C17.9302 94.0316 16.0858 96.0605 15.0651 97.032C-9.65042 120.599 -34.4024 144.106 -59.1667 167.624L-59.6488 168.081C-60.5938 168.978 -61.6078 169.795 -62.7047 170.679L-62.7051 170.679L-62.7063 170.68L-62.7066 170.68L-62.7112 170.684C-63.2822 171.144 -63.8757 171.622 -64.4936 172.139C-101.642 128.155 -138.433 84.5879 -175.433 40.7629C-201.182 37.9839 -226.98 35.3278 -252.988 32.807V35.5984C-249.522 35.9581 -246.056 36.3184 -242.591 36.6787L-242.588 36.6791L-242.587 36.6791C-222.484 38.7692 -202.386 40.8588 -182.27 42.841C-180.069 43.0624 -176.392 43.4682 -176.392 43.4682C-176.392 43.4682 -174.204 46.0996 -173.343 47.1202C-171.535 49.2298 -169.883 51.4104 -168.222 53.6024L-168.222 53.6025C-166.639 55.6908 -165.049 57.7895 -163.309 59.8472L-81.8195 156.461C-78.0869 160.884 -74.3276 165.284 -70.4779 169.791L-70.4754 169.794L-70.47 169.8C-68.4883 172.12 -66.4827 174.468 -64.4444 176.861C-36.1132 149.932 -8.12619 123.334 19.5534 97.032C96.9848 87.2193 173.801 77.4804 250.581 67.7416C250.974 68.2168 251.345 68.6483 251.693 69.0548L251.697 69.0595L251.7 69.0623C252.395 69.8729 253.005 70.5842 253.545 71.3445C291.357 125.265 329.144 179.185 366.931 233.118C372.765 241.443 378.598 249.769 384.432 258.094L386.311 260.777L386.357 260.842L386.403 260.907L386.449 260.972C414.917 301.6 443.387 342.231 471.833 382.878C474.911 387.275 477.883 391.746 480.859 396.221L480.863 396.228L480.868 396.234C482.299 398.387 483.73 400.54 485.175 402.688H488.864C488.454 401.987 488.062 401.273 487.67 400.56L487.669 400.559C486.885 399.133 486.101 397.707 485.175 396.379C459.69 359.985 434.196 323.626 408.7 287.265L407.598 285.693L394.66 267.241ZM286.767 128.686L286.795 128.728L286.823 128.77L286.851 128.812L286.88 128.853C303.612 153.684 320.344 178.516 337.087 203.336C356.414 231.99 375.745 260.64 395.073 289.287L395.627 290.108C410.768 312.549 425.908 334.988 441.043 357.424C447.334 366.748 453.64 376.062 459.946 385.376L459.977 385.422C463.865 391.164 467.752 396.907 471.636 402.651H466.718C466.501 402.182 466.306 401.699 466.11 401.216C465.706 400.216 465.302 399.218 464.713 398.347C445.305 369.515 425.876 340.692 406.445 311.868L406.334 311.702L406.084 311.332L405.926 311.098L405.769 310.865C392.617 291.354 379.464 271.842 366.316 252.325C351.161 229.822 336.014 207.314 320.866 184.804C309.527 167.955 298.188 151.104 286.844 134.254C275.309 117.112 263.763 99.9957 252.204 82.8788C251.569 81.9395 250.861 81.0433 250.1 80.0813L250.098 80.0794L250.098 80.0787L250.097 80.0779L250.095 80.0751C249.782 79.679 249.46 79.2717 249.13 78.8456C247.782 78.9613 246.445 79.0679 245.116 79.1739L245.116 79.1739C242.35 79.3946 239.62 79.6123 236.895 79.9031C226.922 80.9774 216.952 82.0673 206.98 83.1573C191.957 84.7996 176.932 86.442 161.898 88.0311C148.263 89.4744 134.621 90.8709 120.98 92.2674L120.979 92.2675L120.977 92.2676L120.976 92.2678L120.975 92.2679C109.398 93.453 97.8212 94.6381 86.2498 95.8517C78.2816 96.6817 71.8245 97.3742 65.5613 98.0458C57.4426 98.9164 49.6498 99.7521 39.3139 100.807C38.1457 100.93 29.2553 101.594 29.2553 101.594C29.2553 101.594 25.7016 104.25 24.5211 105.345C9.54388 119.264 -5.44562 133.184 -20.4474 147.091C-35.5874 161.125 -50.7519 175.135 -65.9165 189.144L-65.9447 189.17C-66.401 189.595 -66.8975 189.98 -67.5084 190.453L-67.5085 190.453C-67.8524 190.719 -68.2326 191.014 -68.6622 191.359C-89.7353 164.678 -110.752 138.062 -131.746 111.475L-131.783 111.428L-131.823 111.378L-132.215 110.881C-146.419 92.8933 -160.613 74.9183 -174.806 56.9454C-178.541 56.3601 -182.254 55.7771 -185.951 55.1966L-185.959 55.1953C-194.065 53.9226 -202.097 52.6615 -210.134 51.4119C-213.878 50.8305 -217.622 50.2552 -221.366 49.6799L-221.37 49.6793L-221.371 49.6791C-231.56 48.1136 -241.749 46.5482 -251.918 44.8579C-252.145 44.823 -252.402 44.8005 -252.669 44.7772C-252.778 44.7676 -252.889 44.7579 -253 44.7472V41.6854C-241.315 43.5118 -229.681 45.3313 -218.099 47.1427L-217.948 47.1664L-217.715 47.2028L-217.708 47.2039L-217.593 47.2218L-217.547 47.229C-202.646 49.5595 -187.829 51.8768 -173.097 54.1787C-138.015 98.5816 -103.302 142.529 -68.2687 186.883C-67.5989 186.314 -66.9631 185.785 -66.3545 185.278L-66.3525 185.277L-66.3523 185.276C-65.0959 184.231 -63.9554 183.282 -62.8706 182.272C-56.2076 176.088 -49.5386 169.91 -42.8693 163.732C-22.8297 145.169 -2.78825 126.604 17.094 107.865C20.4878 104.681 27.128 98.8521 27.128 98.8521C27.128 98.8521 34.4444 98.1512 38.4777 97.8929C51.8451 97.0425 65.1678 95.5029 78.4872 93.9637C83.6567 93.3663 88.8257 92.7689 93.9967 92.2119C102.133 91.3375 110.267 90.4412 118.401 89.5449L118.402 89.5448L118.402 89.5447L118.403 89.5447L118.403 89.5446C127.539 88.5379 136.675 87.5312 145.814 86.5555C152.836 85.809 159.864 85.0995 166.891 84.39L166.893 84.3899C173.293 83.7438 179.692 83.0978 186.086 82.4239C192.791 81.7171 199.496 80.9857 206.202 80.2543L206.208 80.2536C212.916 79.5219 219.624 78.7903 226.332 78.0832C231.768 77.5066 237.205 76.9742 242.719 76.4341C245.436 76.168 248.173 75.8999 250.938 75.6239C252.351 77.7104 253.757 79.7782 255.156 81.8359L255.162 81.8438C257.339 85.0465 259.5 88.225 261.648 91.4127C270.022 103.836 278.394 116.261 286.767 128.686ZM393.798 309.395L393.516 308.96C377.555 284.306 361.593 259.65 345.621 235C316.823 190.56 288.024 146.12 259.213 101.68C257.094 98.4115 254.935 95.168 252.791 91.9464L252.788 91.9428L252.785 91.9383L252.784 91.9364L252.777 91.9263C251.578 90.1253 250.384 88.3311 249.204 86.5432C225.105 88.5511 201.07 90.5535 177.095 92.5508L176.846 92.5716C129.402 96.5241 82.196 100.457 35.2067 104.373C11.0117 126.333 -12.9437 148.08 -36.9634 169.886L-37.2192 170.118L-37.7244 170.577C-49.1218 180.924 -60.5344 191.285 -71.9947 201.688L-74.1616 198.746C-106.49 154.852 -138.499 111.392 -170.638 67.7664C-175.692 66.7004 -180.745 65.6324 -185.8 64.5638L-185.924 64.5376L-185.935 64.5351L-185.936 64.5351C-208.128 59.8441 -230.369 55.1428 -252.975 50.5635V53.5884C-252.812 53.6223 -252.648 53.6511 -252.486 53.6794L-252.486 53.6794L-252.486 53.6794L-252.486 53.6794L-252.486 53.6795L-252.485 53.6795C-252.296 53.7127 -252.109 53.7454 -251.93 53.7852C-242.831 55.6789 -233.728 57.5633 -224.626 59.4478C-215.523 61.3322 -206.421 63.2167 -197.321 65.1103C-191.739 66.2726 -186.167 67.484 -180.654 68.6827L-180.652 68.6832C-177.883 69.2851 -175.129 69.8839 -172.396 70.4716L-167.347 77.3342L-167.31 77.3843C-135.653 120.415 -104.167 163.211 -72.5603 206.152C-72.1413 205.81 -71.7764 205.516 -71.4501 205.253C-70.7328 204.675 -70.2024 204.247 -69.6953 203.791C-66.4918 200.885 -63.288 197.98 -60.0839 195.074L-60.0792 195.07L-60.0745 195.066C-46.6165 182.861 -33.155 170.653 -19.7097 158.429C-2.15022 142.468 15.4092 126.507 32.8827 110.46C34.4074 109.058 37.0758 106.894 37.0758 106.894C37.0758 106.894 56.0863 105.652 63.0092 105.086C70.6718 104.456 78.3303 103.81 85.9893 103.163L85.9901 103.163L85.991 103.163L85.9918 103.163L85.9926 103.163L85.9934 103.163C91.7794 102.675 97.5657 102.186 103.354 101.705C107.757 101.341 112.159 100.985 116.561 100.629C123.164 100.094 129.767 99.5603 136.371 98.9996C146.466 98.1455 156.557 97.2755 166.648 96.4054L166.651 96.4051L166.654 96.4049L166.657 96.4046L166.66 96.4044L166.668 96.4037C174.295 95.7461 181.923 95.0884 189.553 94.4376C191.76 94.2498 193.967 94.0617 196.173 93.8736L196.175 93.8735L196.177 93.8733L196.179 93.8732L196.181 93.873L196.183 93.8728C207.413 92.9156 218.645 91.9582 229.886 91.0438C233.897 90.7165 237.908 90.4465 241.997 90.1712C243.9 90.0431 245.82 89.9139 247.765 89.7772C248.781 91.3377 249.785 92.8755 250.779 94.3995C252.614 97.2107 254.419 99.9752 256.213 102.75C263.666 114.247 271.119 125.742 278.572 137.237C297.593 166.574 316.612 195.908 335.624 225.248C372.969 282.919 410.301 340.59 447.609 398.286C448.197 399.197 448.608 400.233 449.017 401.267L449.018 401.267C449.199 401.724 449.38 402.181 449.576 402.626H453.265C452.893 401.898 452.54 401.159 452.186 400.42L452.185 400.418C451.404 398.787 450.623 397.156 449.65 395.642C444.389 387.499 439.11 379.356 433.829 371.21L433.801 371.166C430.303 365.771 426.805 360.375 423.311 354.977C413.565 339.928 403.821 324.877 394.076 309.826L393.798 309.395ZM305.24 189.997L305.259 190.029L305.279 190.06L305.298 190.092L305.318 190.123L305.338 190.155L305.357 190.186C317.185 209.243 329.014 228.302 340.85 247.358C354.02 268.561 367.195 289.764 380.37 310.968L380.645 311.409C397.812 339.038 414.98 366.668 432.14 394.302C433.465 396.426 434.762 398.564 436.057 400.7L436.123 400.81C436.339 401.165 436.554 401.52 436.769 401.875C436.931 402.142 437.093 402.409 437.255 402.675H433.566C420.323 381.304 407.08 359.933 393.824 338.561C369.145 298.77 344.453 258.978 319.749 219.198C307.527 199.516 295.295 179.839 283.062 160.161L283.056 160.151L283.049 160.141L283.043 160.131L283.037 160.121L283.003 160.065L282.94 159.964L282.632 159.468L282.182 158.745C274.845 146.942 267.508 135.139 260.173 123.334C258.39 120.469 256.622 117.598 254.854 114.727C253.087 111.856 251.319 108.984 249.536 106.119C248.814 104.944 248.041 103.803 247.259 102.65L247.258 102.649L247.255 102.644L247.252 102.64C246.891 102.107 246.527 101.572 246.167 101.029C245.728 100.994 245.307 100.949 244.901 100.906C243.999 100.809 243.165 100.719 242.343 100.77C233.069 101.35 223.799 101.946 214.532 102.542L214.527 102.542L214.523 102.542L214.518 102.542L214.514 102.543L214.51 102.543L214.505 102.543C207.659 102.983 200.813 103.423 193.968 103.857C186.012 104.361 178.044 104.804 170.076 105.234C163.735 105.576 157.394 105.911 151.054 106.246L151.049 106.246L151.044 106.247L151.038 106.247L151.033 106.247L151.028 106.247L151 106.249L150.997 106.249L150.993 106.249L150.989 106.25L150.985 106.25L150.982 106.25L150.978 106.25C139.773 106.843 128.57 107.435 117.373 108.062C95.3125 109.304 45.4622 112.157 45.4622 112.157C45.4622 112.157 42.3389 114.776 40.7896 116.166C19.593 135.262 -1.68253 154.28 -22.9547 173.294C-28.2146 177.996 -33.4742 182.697 -38.7323 187.4C-44.863 192.878 -50.7994 198.112 -56.7536 203.362L-56.7541 203.362C-61.9062 207.905 -67.0717 212.46 -72.388 217.194C-73.1934 217.92 -74.0415 218.598 -74.8972 219.283C-75.4917 219.758 -76.0897 220.237 -76.6795 220.736C-93.818 195.65 -110.901 170.634 -127.991 145.608L-128.054 145.515L-128.101 145.447L-128.179 145.333L-128.244 145.237L-128.346 145.088L-128.487 144.881C-142.328 124.613 -156.174 104.337 -170.06 84.0101C-172.646 83.3256 -175.239 82.6378 -177.836 81.9487L-177.847 81.9459C-183.88 80.3455 -189.94 78.7381 -196.005 77.1486C-203.758 75.1219 -211.515 73.0995 -219.273 71.0769C-230.107 68.2522 -240.943 65.4271 -251.77 62.5895C-252.059 62.5173 -252.354 62.4584 -252.656 62.3982C-252.766 62.3763 -252.876 62.3542 -252.988 62.3313V59.2325C-252.582 59.2817 -252.188 59.3555 -251.807 59.4539C-239.54 62.6416 -227.276 65.8451 -215.012 69.0485L-215.008 69.0496L-215.003 69.0508L-215.001 69.0513C-200.776 72.767 -186.551 76.4827 -172.322 80.1736C-170.945 80.5302 -168.768 80.9606 -168.768 80.9606C-168.768 80.9606 -166.53 83.6412 -165.608 85.0061C-139.821 122.922 -113.958 160.772 -88.0906 198.629L-83.3197 205.611C-81.7732 207.872 -80.1875 210.111 -78.475 212.529L-78.4736 212.531L-78.4709 212.535C-77.6518 213.691 -76.8038 214.889 -75.9171 216.149C-62.4905 204.531 -49.4118 192.791 -36.3808 181.093C-29.6607 175.061 -22.9532 169.039 -16.2173 163.052C-2.29755 150.674 11.586 138.266 25.6405 125.706L25.7217 125.633L25.8485 125.52C31.789 120.211 37.7602 114.874 43.7776 109.501L59.3623 108.59L59.9551 108.555L61.0482 108.492L61.1875 108.483L61.5039 108.465L63.0049 108.377L63.5436 108.346C124.578 104.779 185.955 101.192 247.704 97.5855C249.634 100.667 251.582 103.762 253.538 106.868C256.866 112.154 260.215 117.474 263.529 122.818C277.402 145.145 291.264 167.478 305.126 189.814L305.132 189.823L305.138 189.833L305.144 189.842L305.15 189.852L305.182 189.903L305.24 189.997ZM248.109 111.702C247.704 111.021 247.245 110.372 246.772 109.703C246.527 109.357 246.279 109.005 246.031 108.64C211.221 109.711 176.46 110.778 141.753 111.843L141.61 111.847L141.015 111.866C111.383 112.775 81.7895 113.683 52.2375 114.592C38.4048 126.799 24.5999 138.982 10.8134 151.148L10.4333 151.484L9.96323 151.899C-19.0312 177.486 -47.9448 203.003 -76.8641 228.519C-77.4666 229.06 -78.7454 230.032 -78.7454 230.032L-79.8152 230.954C-79.8152 230.954 -80.1964 230.315 -80.6022 229.761C-96.4501 204.679 -112.372 179.485 -128.33 154.232L-128.483 153.99C-140.927 134.297 -153.395 114.569 -165.867 94.8312C-185.224 88.8416 -204.506 82.8738 -223.787 76.9061L-223.913 76.8671L-224.655 76.6375L-224.99 76.5338L-225.306 76.436C-234.534 73.5798 -243.763 70.7236 -253 67.8648V71.0004C-252.988 71.0066 -252.978 71.0097 -252.969 71.0127C-252.96 71.0158 -252.951 71.0189 -252.938 71.025C-248.268 72.4836 -243.594 73.9221 -238.919 75.3611C-235.395 76.4456 -231.87 77.5304 -228.345 78.6243C-208.24 84.8587 -188.148 91.1053 -167.822 97.4258C-150.868 124.28 -133.906 151.142 -116.877 178.111L-116.752 178.309C-104.698 197.399 -92.6097 216.542 -80.4669 235.774C-49.875 208.802 -19.4828 182.001 10.9312 155.181L10.9701 155.147C25.1767 142.619 39.3882 130.087 53.627 117.531C117.102 115.575 180.663 113.62 244.285 111.665C244.714 112.342 245.121 112.971 245.509 113.571L245.511 113.575L245.512 113.576L245.513 113.577L245.515 113.579C246.204 114.646 246.836 115.623 247.433 116.621L249.95 120.835C258.335 134.877 266.726 148.928 275.076 162.979C289.438 187.147 303.796 211.321 318.155 235.495L318.213 235.592L318.272 235.691L318.505 236.084L318.622 236.281C332.826 260.195 347.031 284.109 361.238 308.017C367.023 317.755 372.813 327.491 378.602 337.227L378.786 337.536L378.8 337.559C390.504 357.241 402.208 376.922 413.879 396.626C414.629 397.898 415.143 399.315 415.656 400.733L415.657 400.734C415.893 401.385 416.129 402.037 416.388 402.676H421.307C415.67 393.21 410.031 383.744 404.392 374.277C395.38 359.149 386.367 344.019 377.359 328.884C364.96 308.05 352.563 287.218 340.167 266.386L339.529 265.314C309.056 214.107 278.586 162.905 248.109 111.702ZM308.674 232.077L309.447 233.437L310.882 235.962C316.99 246.709 323.098 257.455 329.205 268.2C353.958 311.742 378.711 355.284 403.452 398.814C403.94 399.67 404.357 400.574 404.772 401.476C404.85 401.645 404.928 401.815 405.007 401.984C405.11 402.207 405.215 402.43 405.321 402.651H401.632C399.863 399.473 398.098 396.291 396.333 393.108L396.332 393.108L396.332 393.107L396.332 393.106C391.95 385.206 387.566 377.303 383.114 369.45C354.266 318.591 325.381 267.745 296.497 216.899C279.429 186.858 262.349 156.83 245.269 126.802C244.768 125.923 244.216 125.068 243.605 124.122L243.605 124.121C243.361 123.745 243.109 123.354 242.847 122.941L61.7798 122.941C13.5527 165.02 -35.1294 207.492 -84.3526 250.432C-85.0426 249.276 -85.7139 248.163 -86.369 247.078C-87.5468 245.127 -88.6727 243.262 -89.763 241.381C-95.765 231.045 -101.765 220.709 -107.765 210.374L-107.81 210.296L-107.856 210.217L-107.872 210.19C-123.421 183.404 -138.969 156.621 -154.541 129.851L-164.944 111.087C-170.609 109.054 -176.171 107.055 -181.669 105.079L-181.745 105.051L-181.754 105.048L-181.754 105.048L-181.754 105.048L-181.754 105.048C-190.524 101.896 -199.134 98.8014 -207.749 95.7162C-212.239 94.1064 -216.731 92.4999 -221.222 90.8934L-221.229 90.8909L-221.231 90.8902L-221.233 90.8896L-221.234 90.8891C-231.56 87.196 -241.886 83.5027 -252.201 79.7676C-252.447 79.6815 -252.717 79.6077 -252.988 79.5339V77.0746C-236.928 81.8211 -171.425 104.926 -163.087 108.984C-144.88 140.306 -126.577 171.806 -108.112 203.585C-100.053 217.456 -91.9627 231.38 -83.8361 245.365C-76.8265 239.986 -70.476 234.325 -64.2081 228.739L-64.207 228.738L-64.2059 228.737L-64.2048 228.736L-64.2037 228.735L-64.1988 228.73L-64.1938 228.726L-64.1932 228.725C-61.01 225.888 -57.8481 223.07 -54.6318 220.317C-48.1906 214.807 -41.8132 209.216 -35.4368 203.626C-32.1236 200.722 -28.8105 197.818 -25.4889 194.925C-21.0549 191.066 -16.6129 187.216 -12.1716 183.366L-12.1542 183.351C-7.01886 178.899 -1.88443 174.449 3.23587 169.987C8.49014 165.412 13.7336 160.821 18.978 156.23C23.4296 152.333 27.8818 148.436 32.3418 144.546C39.5016 138.308 46.6682 132.083 53.7953 125.893L53.8096 125.881L53.8391 125.855L53.8557 125.841C56.2192 123.788 58.5783 121.739 60.9313 119.695L244.605 119.695C245.264 120.818 245.93 121.945 246.599 123.077L246.599 123.078L246.601 123.081C248.179 125.753 249.773 128.451 251.319 131.179C270.412 164.755 289.499 198.338 308.584 231.917L308.674 232.077ZM237.607 130.419C236.406 130.373 235.205 130.327 234.004 130.28L234.003 130.28L234.002 130.28L234.001 130.28L234 130.28L233.998 130.28L233.997 130.28L233.996 130.28L233.995 130.28L233.994 130.28C224.795 129.924 215.595 129.568 206.387 129.286C197.374 129.009 188.359 128.755 179.343 128.501L179.333 128.501C168.315 128.19 157.296 127.879 146.282 127.528C122.574 126.778 98.8538 126.015 75.146 125.031C73.0556 124.945 69.4158 124.872 69.4158 124.872C69.4158 124.872 66.2556 127.38 64.6694 128.745C35.321 154.175 5.92163 179.541 -23.4783 204.908L-23.5116 204.937C-34.9721 214.825 -46.4327 224.714 -57.8904 234.606C-62.3045 238.417 -66.6985 242.255 -71.093 246.095L-71.0972 246.098L-71.1014 246.102L-71.1055 246.105L-71.1097 246.109L-71.1139 246.113L-71.118 246.116L-71.1222 246.12L-71.1264 246.124L-71.1305 246.127C-74.4239 249.004 -77.7176 251.882 -81.0203 254.748C-82.2863 255.844 -83.5877 256.905 -85.0947 258.134L-85.095 258.134L-85.0969 258.135C-85.77 258.684 -86.4842 259.266 -87.2546 259.9C-87.6523 259.279 -88.0361 258.7 -88.4029 258.146L-88.4033 258.146C-89.2272 256.902 -89.966 255.787 -90.587 254.613C-100.598 235.769 -110.586 216.919 -120.575 198.067C-123.408 192.72 -126.241 187.373 -129.075 182.026C-130.969 178.459 -132.863 174.892 -134.756 171.325L-134.791 171.26L-134.825 171.195L-134.826 171.193C-141.827 158.01 -148.826 144.828 -155.796 131.622L-160.763 122.277C-160.981 122.173 -161.199 122.068 -161.416 121.963C-162.663 121.363 -163.913 120.761 -165.19 120.248C-194.444 108.419 -223.697 96.6141 -252.963 84.8217V88.068C-252.865 88.1049 -252.765 88.1418 -252.665 88.1787L-252.665 88.1789L-252.664 88.1791C-252.465 88.2527 -252.266 88.3264 -252.078 88.4C-241.508 92.6696 -230.936 96.933 -220.363 101.196L-220.327 101.211L-220.296 101.223C-209.698 105.497 -199.1 109.771 -188.505 114.051C-183.081 116.241 -177.662 118.451 -172.123 120.709C-168.985 121.989 -165.809 123.285 -162.571 124.601L-149.906 149.465V149.477C-138.803 170.348 -127.73 191.232 -116.658 212.115L-116.639 212.151L-116.626 212.174C-112.001 220.898 -107.376 229.622 -102.748 238.344C-98.5306 246.288 -94.276 254.219 -90.0214 262.138C-89.715 262.71 -89.3361 263.247 -88.8697 263.91C-88.6435 264.231 -88.3968 264.581 -88.1277 264.979C-41.9097 225.046 4.07608 185.308 49.9668 145.652L50.5227 145.171L50.6444 145.066L50.6658 145.048L70.6701 127.761C104.623 128.926 138.441 130.091 172.259 131.256L172.359 131.259C195.275 132.048 218.191 132.838 241.15 133.627C241.612 134.427 242.074 135.209 242.531 135.983L242.534 135.989L242.535 135.99L242.535 135.99L242.536 135.992L242.538 135.996C243.441 137.524 244.323 139.018 245.146 140.55C256.803 162.089 268.453 183.633 280.103 205.177C294.604 231.995 309.106 258.814 323.623 285.625C336.739 309.858 349.879 334.081 363.019 358.303L363.05 358.361L363.082 358.419L363.113 358.477L363.144 358.534L363.176 358.592L363.325 358.868L363.474 359.143C371.039 373.088 378.603 387.032 386.163 400.979C386.368 401.355 386.538 401.744 386.709 402.136L386.788 402.315L386.838 402.428C386.87 402.502 386.904 402.577 386.938 402.651H390.627C364.991 355.337 339.352 308.027 313.716 260.723L312.72 258.884C289.625 216.269 266.533 173.659 243.449 131.057C242.923 130.976 242.454 130.883 242.02 130.797L242.019 130.796C241.326 130.659 240.721 130.538 240.117 130.516C239.28 130.484 238.444 130.452 237.607 130.419ZM243.944 146.363C246.181 150.6 248.377 154.759 250.532 158.933C285.86 227.412 321.188 295.892 356.504 364.421C361.15 373.426 365.704 382.487 370.257 391.547C372.127 395.266 373.996 398.985 375.871 402.7H372.182C372.043 402.405 371.906 402.109 371.769 401.813C371.522 401.281 371.278 400.748 371.033 400.215L371.032 400.211L371.031 400.209L371.03 400.207L371.029 400.205L371.028 400.203L371.027 400.202L371.026 400.2L371.025 400.198L371.024 400.196L371.023 400.194C370.138 398.265 369.253 396.336 368.284 394.449C356.04 370.63 343.781 346.821 331.524 323.012L331.426 322.822L331.297 322.571L331.199 322.381L331.18 322.345L331.162 322.309L331.143 322.273L331.125 322.237L331.106 322.201L331.088 322.166L331.069 322.13L331.051 322.094L331.033 322.058C323.426 307.283 315.819 292.507 308.215 277.73C299.071 259.954 289.934 242.178 280.797 224.402L280.71 224.232L280.693 224.198C268.558 200.59 256.424 176.983 244.273 153.375C243.298 151.49 242.244 149.647 241.149 147.732C240.573 146.724 239.985 145.696 239.391 144.632C186.012 140.759 132.805 136.897 79.118 132.999C41.2015 165.486 3.21948 198.039 -34.8642 230.679L-35.1204 230.898L-35.7581 231.445C-54.5614 247.56 -73.3895 263.697 -92.2469 279.857C-92.5716 279.283 -92.8695 278.77 -93.1448 278.296C-93.7243 277.299 -94.2033 276.474 -94.6202 275.615C-99.9751 264.465 -105.325 253.314 -110.675 242.163L-110.685 242.142L-110.695 242.122L-110.704 242.101C-119.853 223.032 -129.002 203.963 -138.175 184.903L-139.035 183.12C-139.179 182.82 -139.321 182.521 -139.463 182.223L-139.463 182.223L-139.464 182.221C-139.735 181.654 -140.003 181.09 -140.277 180.526C-140.302 180.47 -140.33 180.415 -140.357 180.36C-140.385 180.304 -140.413 180.249 -140.437 180.194L-157.333 145.235C-158.006 143.539 -158.778 142.049 -159.538 140.58C-160.013 139.663 -160.483 138.753 -160.923 137.807C-165.391 135.802 -169.88 133.786 -174.382 131.764L-174.435 131.741L-174.553 131.688C-181.865 128.404 -189.212 125.104 -196.559 121.81C-201.958 119.387 -207.359 116.967 -212.759 114.547C-225.831 108.69 -238.902 102.833 -251.955 96.9337C-252.274 96.7862 -252.631 96.6633 -252.987 96.5404H-252.987L-252.987 96.5403L-252.987 96.5403L-252.987 96.5403L-252.988 96.5402V93.3308C-252.065 93.6751 -251.192 94.0194 -250.344 94.4006C-235.699 100.961 -221.057 107.527 -206.415 114.093C-191.773 120.66 -177.13 127.226 -162.485 133.786C-161.672 134.146 -160.816 134.386 -159.947 134.628L-159.792 134.672L-150.68 151.936C-131.83 191.113 -112.979 230.278 -94.0914 269.442C-93.589 270.479 -92.9585 271.458 -92.2138 272.613C-91.8285 273.211 -91.4126 273.857 -90.9681 274.582C-62.7075 250.38 -34.8577 226.273 -7.06815 202.217C20.8 178.094 48.6075 154.024 76.7078 129.962C82.8271 130.373 89.0671 130.772 95.3132 131.171C105.509 131.822 115.721 132.475 125.451 133.184C135.699 133.93 145.94 134.717 156.18 135.503L156.182 135.503L156.184 135.504L156.186 135.504L156.188 135.504L156.19 135.504L156.192 135.504L156.194 135.504L156.196 135.504L156.198 135.505L156.2 135.505C165.527 136.221 174.852 136.937 184.18 137.623C191.699 138.177 199.226 138.683 206.753 139.19L206.754 139.19L206.754 139.19L206.755 139.19L206.756 139.19L206.756 139.19L206.757 139.19L206.757 139.191L206.758 139.191L206.758 139.191L206.759 139.191C213.103 139.618 219.449 140.045 225.791 140.5C229.349 140.758 232.906 141.1 236.471 141.443C238.18 141.607 239.891 141.771 241.605 141.927C242.389 143.416 243.168 144.892 243.942 146.359L243.944 146.363ZM64.2754 153.907L64.2664 153.915C51.5582 164.696 38.8857 175.446 26.2181 186.207C18.0662 193.136 9.92221 200.078 1.77739 207.02C-10.3125 217.324 -22.4043 227.63 -34.5269 237.902C-41.2947 243.64 -48.043 249.404 -54.8079 255.183L-54.811 255.185L-54.8138 255.188C-68.0941 266.531 -81.4393 277.93 -95.1243 289.301C-95.5242 288.476 -95.8866 287.746 -96.219 287.077L-96.2202 287.075C-96.8582 285.79 -97.3854 284.728 -97.8542 283.645C-111.872 251.243 -157.074 148.53 -157.074 148.53C-167.565 143.385 -178.063 138.227 -188.542 133.079L-188.558 133.071L-188.617 133.042C-210.243 122.417 -231.782 111.834 -252.988 101.496V104.89C-252.508 105.062 -252.041 105.234 -251.635 105.431C-232.429 114.964 -213.183 124.418 -193.942 133.869L-193.878 133.901L-193.775 133.951L-193.637 134.019C-189.13 136.232 -184.624 138.446 -180.118 140.66C-175.581 142.894 -171.043 145.133 -166.54 147.354L-166.416 147.416L-166.338 147.454L-166.314 147.466C-163.803 148.705 -161.303 149.938 -158.821 151.162C-157.751 153.559 -136.994 201.184 -136.994 201.184C-136.957 201.258 -136.908 201.332 -136.871 201.418L-136.869 201.422C-135.899 203.658 -134.928 205.895 -133.969 208.132L-132.69 211.046H-132.703C-128.807 220.03 -124.998 229.053 -121.19 238.076L-121.19 238.076L-121.19 238.077L-121.19 238.077L-121.19 238.077L-121.19 238.077L-121.19 238.077L-121.19 238.077L-121.19 238.077L-121.19 238.077L-121.19 238.078L-121.19 238.078C-113.881 255.396 -106.572 272.714 -98.6412 289.756C-98.1309 290.842 -97.5926 291.92 -96.947 293.214L-96.9439 293.22C-96.7348 293.639 -96.5145 294.08 -96.2802 294.552L-90.5287 289.659C-31.512 239.452 27.2052 189.501 85.9917 139.48L87.5902 138.017L108.654 140.525L109.083 140.575C152.003 145.588 194.923 150.6 237.977 155.625C239.05 157.8 240.115 159.956 241.173 162.098C244.637 169.111 248.027 175.973 251.38 182.85C260.938 202.408 270.486 221.971 280.034 241.535L280.052 241.571L280.069 241.607L280.086 241.642C289.611 261.158 299.136 280.674 308.67 300.184C317.686 318.637 326.722 337.082 335.758 355.526L335.775 355.562L335.793 355.598L335.81 355.634L335.828 355.67L335.845 355.705L335.863 355.741L335.881 355.777L335.898 355.813C342.639 369.572 349.379 383.332 356.11 397.093C356.773 398.444 357.381 399.823 357.99 401.203L357.991 401.204L357.991 401.205L357.992 401.205L357.992 401.206L357.992 401.207L357.993 401.208L357.993 401.209L357.993 401.21L357.994 401.21L357.994 401.211L357.994 401.212C358.21 401.7 358.425 402.188 358.643 402.676H362.332L361.669 401.32C321.213 318.598 280.756 235.874 240.129 152.822C216.179 150.026 192.229 147.233 168.258 144.438C141.093 141.27 113.902 138.099 86.6558 134.918C79.1792 141.263 71.7212 147.59 64.2754 153.907ZM247.751 183.696L247.747 183.686L247.742 183.676L247.738 183.667L247.733 183.657L247.729 183.647L247.724 183.637L247.72 183.628C245.463 178.732 243.207 173.835 240.941 168.942C240.408 167.783 239.822 166.648 239.203 165.449L239.199 165.442L239.196 165.437C238.931 164.923 238.659 164.397 238.383 163.852C204.137 158.144 169.923 152.436 135.746 146.735L110.167 142.468L94.378 140.525C31.0507 194.089 -32.2766 247.64 -95.6285 301.167C-96.4132 301.826 -97.4381 302.655 -98.5974 303.591L-99.2191 304.094C-99.6863 303.009 -100.128 301.807 -100.534 300.701L-100.535 300.7L-100.536 300.698L-100.537 300.695L-100.538 300.691C-100.761 300.083 -100.974 299.505 -101.174 298.991C-112.303 270.131 -159.14 158.417 -159.14 158.417C-189.82 142.264 -217.197 128.39 -246.945 113.314C-248.948 112.298 -250.962 111.278 -252.988 110.251V113.116C-252.712 113.258 -252.437 113.405 -252.166 113.551L-252.163 113.552L-252.162 113.553L-252.16 113.554L-252.159 113.554L-252.145 113.562C-252.023 113.627 -251.902 113.692 -251.783 113.755C-230.318 125.213 -208.854 136.658 -187.389 148.104L-187.373 148.112C-182.276 150.832 -178.605 152.611 -174.911 154.402L-174.91 154.402L-174.91 154.402C-171.154 156.222 -167.373 158.055 -162.042 160.9C-156.656 174.891 -139.803 215.021 -124.783 250.785C-114.152 276.098 -104.44 299.223 -100.363 309.345C-84.0886 295.584 -67.8557 281.858 -51.6534 268.158L-51.5019 268.03C-2.12393 226.277 46.9712 184.763 96.0872 143.243C106.551 144.986 116.996 146.727 127.423 148.464C163.914 154.545 200.191 160.591 236.342 166.606C236.843 167.651 237.313 168.62 237.759 169.54L237.761 169.544C238.595 171.265 239.347 172.816 240.068 174.378C245.481 186.089 250.888 197.801 256.295 209.511C264.337 226.929 272.378 244.345 280.437 261.757C287.952 278.002 295.474 294.244 302.997 310.487L303.048 310.598L303.099 310.709L303.151 310.82L303.202 310.931L303.254 311.043C315.057 336.529 326.861 362.017 338.637 387.514C340.198 390.902 341.639 394.341 343.081 397.781L343.081 397.783L343.082 397.784L343.082 397.785L343.083 397.786L343.084 397.788L343.084 397.789L343.085 397.79L343.085 397.792L343.086 397.793L343.086 397.794L343.087 397.795C343.768 399.419 344.448 401.044 345.142 402.663H348.831C347.063 398.77 345.302 394.872 343.541 390.974L343.54 390.971L343.539 390.969C339.667 382.395 335.792 373.818 331.837 365.282C314.687 328.22 297.515 291.159 280.344 254.098C271.746 235.542 263.148 216.986 254.553 198.43C252.289 193.54 250.033 188.647 247.778 183.754L247.774 183.744L247.769 183.735L247.765 183.725L247.76 183.715L247.756 183.705L247.751 183.696Z" fill="url(#paint0_linear_1902_1590)"/>
<defs>
<linearGradient id="paint0_linear_1902_1590" x1="-230.5" y1="293" x2="437.185" y2="338.427" gradientUnits="userSpaceOnUse">
<stop stop-color="#0BBD25" stop-opacity="0"/>
<stop offset="0.0364583" stop-color="#0BBD25" stop-opacity="0"/>
<stop offset="0.427083" stop-color="#0BBD25" stop-opacity="0"/>
<stop offset="0.494792" stop-color="#0BBD25" stop-opacity="0.14"/>
<stop offset="0.494892" stop-color="#0BBD25" stop-opacity="0.12"/>
<stop offset="0.583333" stop-color="#0BBD25" stop-opacity="0.37"/>
<stop offset="0.625" stop-color="#0BBD25"/>
<stop offset="0.703025" stop-color="#0BBD25" stop-opacity="0.568769"/>
<stop offset="0.703125" stop-color="#0BBD25" stop-opacity="0.35"/>
<stop offset="0.833333" stop-color="#0BBD25" stop-opacity="0"/>
</linearGradient>
</defs>
</svg>
