<svg width="281" height="233" viewBox="0 0 281 233" fill="none" xmlns="http://www.w3.org/2000/svg">
<path fill-rule="evenodd" clip-rule="evenodd" d="M24.2222 163.175C16.8827 172.582 9.53604 181.989 2.17523 191.382C1.75235 191.927 1.25803 192.416 0.76416 192.904C0.5112 193.155 0.258362 193.405 0.0153198 193.662V196.497C0.255646 196.255 0.50592 196.02 0.756348 195.784C1.26852 195.304 1.78131 194.822 2.21075 194.273C17.405 174.818 32.5915 155.354 47.7781 135.891C57.8869 122.936 67.9958 109.98 78.1069 97.0265C94.0367 76.6053 109.981 56.1937 125.924 35.7838C129.401 31.3327 132.877 26.8817 136.354 22.4306C136.746 21.9272 137.168 21.4502 137.642 20.9141C137.864 20.6634 138.097 20.3997 138.344 20.1144C139.471 20.3054 140.599 20.494 141.729 20.6827C144.421 21.1325 147.116 21.5827 149.804 22.0683C158.95 23.7131 168.095 25.3653 177.238 27.0174C185.987 28.5981 194.735 30.1787 203.483 31.7525C224.393 35.5181 245.31 39.2767 266.227 43.0282C272.763 44.1998 276.083 44.7388 282.33 45.7528L283.272 45.9057C284.118 46.0407 289.198 46.8578 289.198 46.8578C289.198 46.8578 290.768 48.5204 291.543 49.3872C297.15 55.6539 302.809 61.8696 308.466 68.0836C310.127 69.9083 311.788 71.7329 313.447 73.5586C313.993 74.1573 314.552 74.7477 315.183 75.4145C315.556 75.8079 315.954 76.2279 316.389 76.6919C329.116 64.1323 341.885 51.6364 354.666 39.1284C367.293 26.7718 379.931 14.4033 392.554 1.94986C398.404 1.98417 404.903 1.98417 411.646 1.98417C418.39 1.98417 425.377 1.98417 432.201 2.01848V1.84445e-05L425.702 0L401.653 1.10064e-05L391.681 6.66745e-06C366.671 24.6403 341.69 49.2522 316.424 74.1412C311.746 69.0173 307.135 63.9655 302.533 58.9231C298.469 54.4703 294.412 50.0248 290.32 45.5434C267.423 41.4382 244.502 37.3301 221.555 33.2171C193.626 28.2113 165.656 23.1984 137.64 18.1747C137.164 18.7568 136.697 19.3217 136.239 19.8763C135.221 21.1091 134.245 22.2909 133.299 23.4964L133.259 23.5468C112.973 49.499 92.6876 75.4511 72.4158 101.417C62.3065 114.36 52.2029 127.311 42.0995 140.262C36.1407 147.9 30.1819 155.538 24.2222 163.175ZM2.24619 205.037C6.22806 199.798 10.1852 194.542 14.1425 189.285L14.2025 189.205C15.8389 187.031 17.4753 184.857 19.1136 182.685C37.6009 158.144 56.0883 133.603 74.5827 109.069C85.7016 94.3194 96.8259 79.572 107.951 64.824L108.035 64.7127C115.102 55.344 122.169 45.9751 129.235 36.6051C131.119 34.1052 133.008 31.6109 134.947 29.0522L134.957 29.0391C136.078 27.5587 137.216 26.0567 138.379 24.5194L189.479 32.8564L190.1 32.9577C221.928 38.1506 253.712 43.3363 285.446 48.5132C288.207 51.3535 290.958 54.1834 293.704 57.009L293.955 57.2672L293.959 57.2716C302.166 65.7162 310.338 74.1249 318.648 82.6671C330.796 69.9669 342.834 57.3005 354.823 44.687L354.823 44.6868L354.826 44.6835C366.565 32.3323 378.256 20.0316 389.954 7.79932C391.479 7.79932 393.003 7.79371 394.515 7.78814H394.515H394.515C397.508 7.77713 400.456 7.76628 403.278 7.79932C409.47 7.87466 415.305 7.85014 421.28 7.82503C424.321 7.81225 427.398 7.79932 430.576 7.79932C430.803 7.80437 431.349 7.80224 431.773 7.80059C431.946 7.79991 432.098 7.79932 432.201 7.79932V9.4242C431.977 9.43915 431.582 9.43314 431.258 9.42821C431.12 9.42611 430.995 9.4242 430.901 9.4242C422.622 9.3721 414.405 9.38947 406.188 9.40683H406.187C402.079 9.41552 397.97 9.4242 393.854 9.4242C392.632 9.40289 390.929 9.4242 390.929 9.4242C390.929 9.4242 389.386 11.0695 388.725 11.8014C386.252 14.5518 383.687 17.2195 381.122 19.8865C380.328 20.7124 379.534 21.5383 378.743 22.3666C359.389 42.6231 340.951 61.9133 321.583 82.1556C321.281 82.4708 320.915 82.8951 320.494 83.383L320.494 83.3834C320.042 83.9071 319.527 84.5042 318.961 85.1184C317.87 84.1173 316.236 82.4117 315.245 81.3773L315.16 81.2887C310.982 76.944 306.827 72.7503 302.673 68.5566L302.671 68.5551C298.517 64.3618 294.363 60.1685 290.185 55.8243C287.123 52.6412 284.082 49.9626 284.082 49.9626C284.082 49.9626 280.26 49.38 276.65 48.8116C267.027 47.31 257.412 45.7295 247.799 44.1493L247.799 44.1492C245.176 43.7181 242.554 43.287 239.931 42.8575C233.811 41.8558 227.693 40.8433 221.576 39.8309C215.458 38.8184 209.341 37.8059 203.22 36.804C187.837 34.2888 172.455 31.7879 157.065 29.2869C153.198 28.6609 149.327 28.0439 145.452 27.4262C143.389 27.0975 141.326 26.7685 139.26 26.4378C139.017 26.7335 138.785 27.0097 138.562 27.2747C138.126 27.7927 137.727 28.2676 137.356 28.7611C135.827 30.7865 134.298 32.8118 132.769 34.8372C127.035 42.4324 121.3 50.0284 115.579 57.6289C109.652 65.4988 103.727 73.3709 97.8011 81.2434L97.7529 81.3073C88.4161 93.7123 79.0783 106.118 69.7299 118.519C51.946 142.115 34.162 165.704 16.3568 189.278C12.7664 194.034 9.13528 198.762 5.50504 203.488L5.50403 203.489C3.66766 205.88 1.83151 208.271 0.000976562 210.665V207.119C0.227081 206.916 0.463257 206.721 0.699585 206.526L0.699768 206.525C1.25793 206.064 1.81693 205.601 2.24619 205.037ZM107.816 74.0771C97.9866 87.5998 88.1567 101.122 78.3198 114.64C62.9184 135.808 47.5016 156.965 32.0807 178.127L31.8102 178.498C26.4414 185.866 21.0722 193.234 15.703 200.604C12.1883 205.426 8.6575 210.238 5.12579 215.051L5.11215 215.07L5.11041 215.072C3.40686 217.394 1.70309 219.716 0.000823975 222.04V224.875C0.720612 223.947 1.44849 223.026 2.17618 222.105L2.17828 222.102C3.71252 220.161 5.24597 218.22 6.70093 216.221C21.1202 196.398 35.5243 176.568 49.9299 156.736L49.951 156.706L50.1987 156.365C55.4226 149.174 60.6467 141.982 65.8717 134.79C82.7391 111.563 99.6136 88.337 116.495 65.1177C123.99 54.8057 131.498 44.5078 139.007 34.21L139.032 34.1752C139.201 33.9466 139.387 33.7337 139.637 33.4491L139.637 33.4488L139.641 33.4445C139.801 33.2613 139.988 33.0484 140.212 32.7826C186.515 39.5253 232.99 46.2964 279.634 53.0959C293.319 66.5387 307.038 80.024 320.922 93.6728C322.127 92.3473 323.309 91.0536 324.475 89.7781C326.476 87.5873 328.429 85.4505 330.364 83.2995C334.563 78.6353 338.765 73.9744 342.967 69.3136L342.967 69.3132L342.968 69.3127C357.361 53.3484 371.753 37.3849 385.997 21.2937C387.19 19.9509 389.826 17.2438 389.826 17.2438C389.826 17.2438 393.414 16.9881 395.738 16.9312C404.309 16.4473 413.002 16.0843 421.627 15.7241L421.627 15.7241L421.627 15.7241L421.627 15.7241L421.628 15.724C425.168 15.5762 428.697 15.4288 432.201 15.2738L432.187 13.6489C429.871 13.8276 427.846 13.9081 425.573 13.9983L425.573 13.9983L425.572 13.9983L425.572 13.9983L425.572 13.9984C423.713 14.0722 421.688 14.1526 419.202 14.2988C416.561 14.4542 414.44 14.5353 412.242 14.6193L412.242 14.6193L412.242 14.6193H412.242C409.842 14.7111 407.349 14.8064 403.987 15.0057C399.693 15.2604 396.621 15.3839 393.55 15.5074L393.55 15.5074L393.55 15.5074L393.549 15.5075L393.549 15.5075C392.013 15.5692 390.478 15.631 388.789 15.7091C370.307 36.2393 351.911 56.6795 333.383 77.2657L333.279 77.381L333.249 77.4145L320.886 91.1505C307.93 78.4167 295.223 65.9261 282.535 53.4539L280.501 51.4546C236.289 45.0205 192.178 38.5988 148.032 32.1721L147.858 32.1468L147.768 32.1336L139.487 30.9282C139.2 31.2687 138.926 31.581 138.666 31.878C138.166 32.4486 137.715 32.9631 137.313 33.5144C127.476 47.0318 117.646 60.5544 107.816 74.0771ZM57.9783 154.414C65.5593 143.603 73.1404 132.791 80.7216 121.978L80.7235 121.976L80.7255 121.973L80.7274 121.97C99.0569 95.829 117.388 69.6861 135.722 43.5469C136.713 42.1336 137.726 40.7362 138.734 39.3462L138.736 39.3436L138.737 39.3417C139.239 38.6507 139.738 37.9615 140.233 37.2731C141.451 37.4303 142.662 37.5867 143.867 37.7425L143.872 37.7431C149.366 38.4532 154.743 39.148 160.12 39.8238C164.074 40.3197 168.03 40.8065 171.986 41.2933L171.986 41.2933L171.986 41.2934L171.986 41.2934C176.589 41.8597 181.191 42.4261 185.791 43.0069C189.738 43.5057 193.681 44.0189 197.625 44.5321C201.994 45.1008 206.364 45.6694 210.737 46.2184C215.513 46.8175 220.289 47.4022 225.065 47.9869C230.371 48.6366 235.677 49.2863 240.983 49.9556C245.087 50.4724 249.19 51.005 253.292 51.5376C259.849 52.3889 266.405 53.2401 272.97 54.0268C273.908 54.1405 275.656 54.3323 275.656 54.3323C275.656 54.3323 276.721 55.5047 277.311 56.066C291.591 69.6826 305.892 83.2642 320.201 96.8525L320.481 97.1189C321.027 97.637 321.613 98.1091 322.247 98.6198L322.247 98.6199C322.578 98.8866 322.922 99.1638 323.281 99.4636C344.745 74.0488 366.003 48.8757 387.383 23.5533C402.26 21.9475 417.167 20.4128 432.194 18.9563V20.5691C430.192 20.777 428.19 20.9851 426.188 21.1932C414.571 22.401 402.957 23.6085 391.333 24.754C390.061 24.8819 387.937 25.1164 387.937 25.1164C387.937 25.1164 386.672 26.6368 386.175 27.2266C385.13 28.4455 384.175 29.7055 383.216 30.9721C382.301 32.1787 381.382 33.3913 380.377 34.5803L333.292 90.4047C331.135 92.9601 328.963 95.5032 326.738 98.1074L326.737 98.1079L326.737 98.1084L326.737 98.1089L326.73 98.1168C325.586 99.4557 324.429 100.811 323.252 102.192C306.882 86.6319 290.711 71.2637 274.718 56.066C229.977 50.3961 185.592 44.7689 141.228 39.1417C141.002 39.4154 140.788 39.664 140.588 39.8982L140.583 39.904L140.582 39.9048L140.582 39.9052C140.18 40.3734 139.828 40.7843 139.516 41.2235C117.668 72.3792 95.834 103.535 74.0002 134.698C70.3382 139.924 66.6759 145.15 63.0136 150.377L62.8889 150.555L62.7628 150.735C46.3003 174.229 29.8366 197.725 13.387 221.23C11.6084 223.771 9.8912 226.354 8.17221 228.939L8.16498 228.95C7.33878 230.193 6.51215 231.436 5.67804 232.676H3.54651C3.78333 232.271 4.00992 231.859 4.23648 231.447L4.23694 231.446C4.68994 230.622 5.14294 229.798 5.67804 229.031C20.4011 208.006 35.1292 187.001 49.8582 165.995L57.9783 154.414ZM120.307 74.3741C110.622 88.7478 100.936 103.122 91.2441 117.489C80.0956 134.018 68.9447 150.545 57.7954 167.07L57.7724 167.104L57.7495 167.138L57.7265 167.172C48.8754 180.29 40.0253 193.407 31.178 206.522C27.5373 211.917 23.8885 217.307 20.2399 222.696L20.2364 222.701L20.2329 222.707L20.2295 222.712C17.9858 226.026 15.7422 229.34 13.5006 232.655H16.3427C16.4677 232.384 16.5806 232.105 16.6935 231.826L16.6936 231.825C16.9272 231.248 17.1608 230.671 17.5008 230.168C28.7178 213.505 39.9472 196.846 51.1773 180.187L51.2353 180.101L51.3129 179.986C58.9948 168.59 66.6768 157.194 74.3554 145.796C83.1061 132.802 91.8521 119.805 100.599 106.808L100.615 106.783C107.168 97.0468 113.72 87.3098 120.275 77.5729C126.94 67.6684 133.612 57.7782 140.29 47.888C140.657 47.3449 141.067 46.8267 141.507 46.2704L141.508 46.2699C141.689 46.0404 141.876 45.8044 142.067 45.5575C142.846 45.6243 143.618 45.686 144.385 45.7472L144.386 45.7472C145.984 45.8747 147.562 46.0005 149.136 46.1685C154.896 46.7891 160.655 47.4186 166.415 48.0482L166.422 48.049L166.422 48.049L166.424 48.0492L166.427 48.0495C175.106 48.9982 183.785 49.947 192.47 50.865C200.349 51.699 208.233 52.5061 216.116 53.3131C222.805 53.9978 229.494 54.6826 236.18 55.3838C240.777 55.8627 244.504 56.2623 248.118 56.6498L248.12 56.65L248.127 56.6508L248.132 56.6513L248.134 56.6516L248.135 56.6517C252.826 57.1547 257.328 57.6375 263.3 58.2471C263.975 58.3182 269.112 58.7018 269.112 58.7018C269.112 58.7018 271.165 60.2365 271.847 60.8689C280.501 68.9118 289.162 76.9547 297.831 84.9905C306.581 93.1019 315.346 101.199 324.111 109.296L324.118 109.303L324.119 109.303L324.119 109.304C324.383 109.549 324.67 109.772 325.023 110.045C325.221 110.199 325.441 110.369 325.689 110.569C337.865 95.1526 350.009 79.7741 362.139 64.4123L362.272 64.2435C370.526 53.7913 378.773 43.3468 387.02 32.9034C389.178 32.5653 391.322 32.2287 393.457 31.8934C398.143 31.1576 402.786 30.4285 407.433 29.7061C409.597 29.37 411.761 29.0375 413.925 28.705L413.926 28.7049L413.926 28.7049C419.813 27.8004 425.7 26.8958 431.576 25.9191C431.707 25.899 431.856 25.886 432.01 25.8725L432.01 25.8725H432.01H432.01H432.01C432.073 25.867 432.137 25.8614 432.201 25.8552V24.086C425.348 25.1573 418.525 26.2244 411.732 27.2867L411.725 27.2878C403.112 28.6349 394.548 29.9743 386.033 31.3048C365.762 56.9611 345.704 82.3546 325.462 107.982C325.075 107.653 324.707 107.347 324.355 107.054L324.355 107.054L324.355 107.054C323.629 106.45 322.97 105.902 322.343 105.318C318.493 101.745 314.64 98.1759 310.787 94.6065C299.208 83.8801 287.627 73.1528 276.139 62.3254C274.178 60.4852 270.341 57.1174 270.341 57.1174C270.341 57.1174 266.114 56.7124 263.783 56.5632C256.059 56.0718 248.361 55.1822 240.665 54.2928C237.678 53.9477 234.692 53.6025 231.704 53.2807C227.004 52.7756 222.306 52.2579 217.608 51.7402L217.607 51.7401L217.605 51.7399L217.604 51.7398L217.602 51.7396C212.323 51.1579 207.044 50.5762 201.763 50.0124C197.707 49.5811 193.647 49.1712 189.587 48.7613L189.585 48.7611C185.887 48.3878 182.189 48.0145 178.494 47.6251C174.618 47.2165 170.743 46.7938 166.867 46.3711C162.991 45.9483 159.115 45.5255 155.239 45.117C152.098 44.7838 148.957 44.4762 145.771 44.1641L145.767 44.1637L145.764 44.1635C144.196 44.0099 142.617 43.8553 141.022 43.696C140.205 44.9023 139.392 46.0977 138.583 47.2873L138.581 47.2909C137.323 49.1411 136.074 50.9773 134.834 52.8189C129.991 60.0034 125.149 67.1887 120.307 74.3741ZM58.2855 179.066L58.628 178.537L58.66 178.487C67.8757 164.253 77.0917 150.017 86.3131 135.785L86.5264 135.456L86.6306 135.295C103.165 109.78 119.699 84.266 136.24 58.7517C137.465 56.8629 138.712 54.9888 139.951 53.1273L139.954 53.1239L139.955 53.1218L139.956 53.121C140.649 52.0786 141.341 51.0401 142.024 50.0054L183.721 53.4792L183.979 53.5008L184.531 53.5467L184.783 53.5677L185.131 53.5968L185.279 53.609C212.205 55.8523 239 58.0845 265.673 60.3077C279.517 72.8723 293.225 85.3169 306.968 97.7931L307.179 97.9849L307.209 98.0119L307.299 98.0939L307.335 98.1263L307.508 98.2841L307.834 98.5799L308.692 99.3589L308.767 99.4263C315.035 105.117 321.313 110.816 327.615 116.537L328.885 114.813C347.558 89.4587 366.048 64.3549 384.611 39.156C387.557 38.5347 390.502 37.9121 393.449 37.2893L393.449 37.2892L393.45 37.2891L393.45 37.289L393.451 37.2889L393.451 37.2889C406.274 34.5784 419.125 31.862 432.187 29.216V30.9638C432.092 30.9834 431.997 31 431.904 31.0164C431.794 31.0356 431.687 31.0545 431.583 31.0775C426.327 32.1713 421.069 33.2598 415.812 34.3483L415.811 34.3485L415.809 34.3487L415.808 34.3489L415.806 34.3494L415.806 34.3495C410.546 35.4383 405.287 36.5271 400.029 37.6213C396.804 38.2929 393.585 38.9928 390.399 39.6854L390.398 39.6857C388.798 40.0335 387.207 40.3795 385.628 40.7191L382.717 44.6748L382.683 44.7213L382.669 44.7405C364.384 69.5949 346.198 94.3139 327.942 119.116C327.7 118.919 327.49 118.75 327.302 118.598L327.3 118.597C326.886 118.263 326.579 118.016 326.286 117.752C324.459 116.094 322.631 114.437 320.803 112.779L320.732 112.715C312.954 105.661 305.175 98.606 297.404 91.5415C287.258 82.3191 277.112 73.0968 267.016 63.8247C266.135 63.0147 264.593 61.7642 264.593 61.7642C264.593 61.7642 253.609 61.0466 249.608 60.7198C245.18 60.3554 240.753 59.9819 236.327 59.6083L236.326 59.6083C232.984 59.3262 229.641 59.0441 226.297 58.7659C223.753 58.5556 221.21 58.3498 218.666 58.1441C214.851 57.8354 211.035 57.5268 207.22 57.2028C201.383 56.709 195.549 56.206 189.715 55.7029C185.307 55.3229 180.899 54.9429 176.49 54.5668C175.282 54.464 174.074 54.361 172.866 54.2581L172.817 54.2538L172.766 54.2496L172.716 54.2452L172.664 54.2409L172.662 54.2407C166.172 53.6875 159.682 53.1343 153.186 52.6058C150.868 52.4167 148.551 52.2607 146.188 52.1017C145.088 52.0276 143.979 51.953 142.855 51.874C142.27 52.7736 141.691 53.6602 141.117 54.5388C140.056 56.1652 139.012 57.7645 137.974 59.3698C133.666 66.0147 129.358 72.6591 125.05 79.3032L125.017 79.3549C114.039 96.2865 103.063 113.217 92.0896 130.15C70.5115 163.473 48.9406 196.796 27.3839 230.133C27.0441 230.659 26.8066 231.258 26.5699 231.855C26.4651 232.119 26.3604 232.383 26.247 232.641H24.1155C24.3306 232.219 24.5352 231.792 24.7398 231.365C25.1911 230.422 25.6422 229.48 26.2044 228.605C29.2401 223.906 32.286 219.208 35.333 214.508L35.353 214.477L35.3787 214.438C37.394 211.329 39.4099 208.219 41.4235 205.109C47.0296 196.452 52.6347 187.794 58.24 179.136L58.2855 179.066ZM109.645 109.784L109.555 109.929L109.216 110.475C102.502 121.292 95.7882 132.109 89.0699 142.925C81.4583 155.179 73.8441 167.434 66.2294 179.689L66.2117 179.717L66.1941 179.745L66.1764 179.774L66.1587 179.802L66.1411 179.831C56.2003 195.829 46.2589 211.829 36.322 227.83C35.5562 229.058 34.807 230.294 34.0586 231.528C33.8279 231.909 33.5973 232.289 33.3663 232.669H35.4979C43.15 220.32 50.8022 207.972 58.4614 195.623C72.7212 172.631 86.9881 149.639 101.262 126.655C108.342 115.255 115.426 103.858 122.512 92.4597L122.517 92.4517L122.522 92.4437L122.527 92.4358L122.532 92.4278L122.536 92.4199L122.541 92.4119C126.923 85.363 131.305 78.3138 135.686 71.2636C136.716 69.6082 137.738 67.9491 138.759 66.2901C139.78 64.6311 140.802 62.972 141.832 61.3166C142.249 60.6373 142.696 59.9779 143.148 59.3112C143.358 59.0016 143.569 58.6905 143.779 58.3751C144.033 58.3552 144.275 58.3292 144.51 58.304C145.031 58.2481 145.513 58.1965 145.988 58.2259C151.35 58.561 156.71 58.9055 162.068 59.25L162.072 59.2502C166.028 59.5045 169.984 59.7588 173.94 60.0092C178.537 60.3005 183.141 60.5563 187.745 60.805C191.419 61.003 195.094 61.1972 198.768 61.3915L198.773 61.3918L198.774 61.3918L198.776 61.3919L198.777 61.392L198.779 61.3921L198.78 61.3922C205.254 61.7345 211.727 62.0767 218.197 62.4392C230.944 63.1568 259.747 64.8051 259.747 64.8051C259.747 64.8051 261.552 66.3185 262.447 67.1214C274.695 78.1561 286.989 89.1451 299.281 100.132L299.359 100.202L299.385 100.225C302.389 102.91 305.393 105.595 308.396 108.281C311.938 111.446 315.368 114.471 318.809 117.504C321.786 120.129 324.77 122.761 327.842 125.496C328.308 125.916 328.798 126.308 329.292 126.703C329.636 126.978 329.981 127.254 330.322 127.543C340.216 113.061 350.077 98.62 359.943 84.1727L359.965 84.1407C368.06 72.2873 376.157 60.4296 384.278 48.5417C385.728 48.1577 387.183 47.7719 388.64 47.3854L388.682 47.3741L388.697 47.3703L388.738 47.3595L388.767 47.3518L388.778 47.3488C392.263 46.4242 395.765 45.4954 399.269 44.5771C403.746 43.4068 408.225 42.2391 412.704 41.0713L412.706 41.0708L412.707 41.0704L412.709 41.0699L412.711 41.0695L412.713 41.069L412.714 41.0686C418.974 39.4365 425.235 37.8042 431.491 36.1647C431.657 36.123 431.828 36.089 432.002 36.0541L432.003 36.054C432.066 36.0414 432.13 36.0287 432.194 36.0155V34.225C431.96 34.2534 431.732 34.2961 431.512 34.3529C424.422 36.1952 417.334 38.0467 410.246 39.8981L410.244 39.8987L410.243 39.899L410.242 39.8991L410.242 39.8992C402.024 42.0459 393.805 44.1926 385.585 46.3249C384.789 46.531 383.532 46.7796 383.532 46.7796C383.532 46.7796 382.238 48.3285 381.706 49.1172C366.812 71.0166 351.873 92.8782 336.933 114.744L336.932 114.745L336.931 114.746L336.93 114.748L336.929 114.749L336.923 114.757L334.159 118.803C333.265 120.111 332.348 121.405 331.358 122.802L331.357 122.804C330.884 123.472 330.394 124.164 329.881 124.893C322.124 118.18 314.567 111.397 307.039 104.639L307.039 104.638L307.038 104.638L307.038 104.638L307.038 104.638L307.038 104.638L307.037 104.637L307.036 104.636C303.153 101.151 299.278 97.6719 295.386 94.2129C287.344 87.0613 279.322 79.8922 271.202 72.6348L271.2 72.6331L271.137 72.5771C267.686 69.4927 264.217 66.3923 260.721 63.2704L251.622 62.7387C215.591 60.6331 179.353 58.5154 142.891 56.3857C141.783 58.1539 140.665 59.9299 139.543 61.7125L139.526 61.7391L139.52 61.7488C137.597 64.8033 135.662 67.8772 133.746 70.9652C125.711 83.8976 117.682 96.8341 109.653 109.771L109.651 109.774L109.65 109.776L109.648 109.779L109.646 109.781L109.645 109.784ZM142.656 64.5421C142.89 64.1487 143.155 63.7738 143.429 63.387L143.43 63.3849C143.571 63.1855 143.715 62.9829 143.857 62.773C163.962 63.3912 184.039 64.0074 204.084 64.6227C221.357 65.1529 238.607 65.6823 255.833 66.2118C263.85 73.287 271.851 80.3482 279.842 87.4C296.735 102.308 313.58 117.174 330.428 132.04C330.777 132.353 331.516 132.914 331.516 132.914L332.134 133.447C332.134 133.447 332.354 133.077 332.588 132.758C341.7 118.336 350.854 103.851 360.03 89.3319L360.164 89.1194C367.385 77.6931 374.618 66.2463 381.855 54.794C393.066 51.3251 404.233 47.8689 415.4 44.4126L432.201 39.2126V41.0244C432.194 41.0279 432.189 41.0297 432.183 41.0315L432.183 41.0315L432.183 41.0315C432.178 41.0333 432.173 41.0351 432.166 41.0386C429.467 41.8813 426.767 42.7125 424.065 43.544L424.063 43.5446C422.028 44.1711 419.992 44.7977 417.956 45.4295C406.339 49.0318 394.729 52.6412 382.985 56.2932C373.178 71.8259 363.367 87.3636 353.517 102.963L353.483 103.016C346.516 114.051 339.529 125.116 332.51 136.232C314.829 120.643 297.264 105.153 279.685 89.6518C271.474 82.4107 263.26 75.1671 255.03 67.9099C218.353 66.7802 181.627 65.6505 144.866 64.5208C144.618 64.9126 144.382 65.2767 144.157 65.6245C143.758 66.2415 143.392 66.807 143.047 67.3841L141.593 69.8192L141.581 69.8396L141.56 69.8741L141.55 69.8913C136.719 77.9807 131.885 86.0754 127.075 94.1702C118.787 108.117 110.501 122.067 102.215 136.017L102.186 136.066C93.8879 150.037 85.5898 164.007 77.2898 177.974C73.9171 183.651 70.542 189.327 67.1669 195.003L67.1393 195.049C60.3776 206.42 53.6159 217.79 46.8731 229.173C46.4397 229.909 46.1432 230.727 45.8462 231.547C45.7099 231.923 45.5735 232.3 45.4237 232.669H42.5817C45.7365 227.371 48.8922 222.073 52.0482 216.775L52.3383 216.288C57.5511 207.538 62.7644 198.786 67.9751 190.031L83.747 163.528L88.5879 155.394L89.3733 154.074C107.134 124.228 124.893 94.3852 142.656 64.5421ZM107.715 134.001L107.15 134.997L105.935 137.134C102.556 143.079 99.1772 149.024 95.7984 154.968C81.4959 180.127 67.1935 205.286 52.8981 230.438C52.6165 230.932 52.3763 231.453 52.1366 231.974L52.1364 231.974L52.1363 231.974L52.1361 231.975L52.1359 231.975L52.1357 231.976L52.1355 231.976L52.1343 231.978L52.1337 231.98L52.0677 232.123L52.0217 232.222L51.9725 232.328L51.9371 232.404C51.8978 232.488 51.8582 232.572 51.8182 232.655H53.9497C54.9698 230.822 55.9876 228.988 57.0055 227.152L57.01 227.144L57.0126 227.14L57.0139 227.137L57.0153 227.135L57.0167 227.132L57.0181 227.13L57.0194 227.127L57.0208 227.125L57.0222 227.122C59.5508 222.564 62.0805 218.003 64.6499 213.471C81.3183 184.085 98.0081 154.705 114.698 125.326C124.56 107.968 134.429 90.6178 144.297 73.2673C144.587 72.7592 144.906 72.2656 145.259 71.719L145.259 71.7184L145.261 71.7162C145.401 71.4994 145.546 71.2741 145.697 71.0363H250.319C278.185 95.3498 306.314 119.891 334.755 144.701C335.154 144.034 335.541 143.392 335.919 142.766L335.92 142.764L335.921 142.763C336.601 141.636 337.252 140.558 337.882 139.472C341.366 133.471 344.85 127.471 348.333 121.47L348.353 121.436L348.37 121.407L348.395 121.363L348.403 121.35C357.368 105.906 366.332 90.4638 375.311 75.0294L381.322 64.1871C384.604 63.009 387.826 61.8511 391.011 60.7063L391.035 60.6978L391.035 60.6975C396.102 58.8763 401.077 57.0884 406.055 55.3057C408.651 54.375 411.248 53.4462 413.845 52.5173C419.812 50.3832 425.779 48.2489 431.739 46.0905C431.881 46.0408 432.038 45.9981 432.194 45.9555V44.5345C422.915 47.277 385.066 60.6274 380.249 62.9721C369.721 81.0837 359.137 99.2989 348.46 117.675C343.811 125.676 339.144 133.707 334.457 141.774C330.407 138.666 326.738 135.396 323.116 132.168L323.116 132.168L323.116 132.168L323.116 132.168L323.116 132.168L323.116 132.167L323.116 132.167L323.116 132.167L323.116 132.167L323.116 132.167L323.116 132.167L323.115 132.167L323.115 132.167L323.115 132.167L323.115 132.167L323.115 132.167C321.273 130.525 319.444 128.894 317.583 127.301C313.861 124.117 310.176 120.887 306.491 117.657L306.488 117.654C304.575 115.977 302.662 114.3 300.744 112.629C298.185 110.403 295.621 108.181 293.058 105.959L293.056 105.957L293.054 105.955L293.051 105.953L293.049 105.951L293.047 105.949L293.044 105.947L293.042 105.945L293.04 105.943L293.027 105.931C290.063 103.363 287.101 100.795 284.146 98.2202C281.114 95.5798 278.088 92.931 275.062 90.2818L275.06 90.2794L275.052 90.2727C272.479 88.0205 269.906 85.7679 267.328 83.5199C263.182 79.9071 259.032 76.3023 254.904 72.7176L254.899 72.7131C253.533 71.5266 252.169 70.3423 250.809 69.1606H144.681C144.301 69.8091 143.916 70.4601 143.53 71.1139L143.53 71.1144L143.53 71.1149L143.528 71.117C142.616 72.661 141.695 74.2201 140.802 75.7967C129.77 95.1962 118.742 114.6 107.715 134.001ZM147.274 75.4131C148.451 75.368 149.628 75.3225 150.805 75.277L150.807 75.2769L150.809 75.2768L150.811 75.2768L150.813 75.2767L150.815 75.2766L150.817 75.2766L150.819 75.2765L150.821 75.2764L150.823 75.2764C156.134 75.0708 161.446 74.8653 166.764 74.7026C171.961 74.5431 177.159 74.3965 182.358 74.2499L182.362 74.2498L182.367 74.2497L182.371 74.2495L182.375 74.2494L182.379 74.2493L182.384 74.2492L182.388 74.249L182.392 74.2489L182.396 74.2488C188.762 74.0693 195.129 73.8897 201.493 73.6866C215.192 73.2532 228.897 72.8127 242.596 72.2443C243.804 72.1945 245.907 72.1519 245.907 72.1519C245.907 72.1519 247.733 73.6013 248.649 74.39C265.611 89.0869 282.602 103.747 299.593 118.408C306.218 124.123 312.842 129.839 319.465 135.557C322.021 137.764 324.566 139.987 327.111 142.21L327.115 142.214L327.116 142.215C329.019 143.877 330.922 145.539 332.83 147.195C333.562 147.829 334.314 148.442 335.184 149.152C335.574 149.469 335.987 149.806 336.432 150.172C336.662 149.814 336.883 149.479 337.095 149.16L337.095 149.159C337.572 148.44 337.999 147.796 338.358 147.117C344.143 136.228 349.915 125.334 355.688 114.44L355.719 114.38C357.345 111.312 358.97 108.244 360.596 105.176C361.691 103.114 362.786 101.052 363.88 98.9907L363.92 98.9154C367.965 91.2984 372.009 83.6821 376.036 76.0526L378.906 70.6527L379.134 70.5435L379.283 70.4714L379.284 70.4712C380.004 70.1245 380.726 69.7767 381.464 69.4804C398.367 62.6453 415.27 55.8245 432.18 49.0108V50.8865C432.123 50.9078 432.065 50.9291 432.008 50.9504L432.007 50.9505L432.007 50.9509H432.007C431.892 50.9933 431.777 51.0358 431.668 51.0783C425.547 53.5509 419.425 56.0198 413.302 58.4888C407.179 60.9578 401.056 63.4269 394.935 65.8995C391.802 67.1644 388.672 68.4409 385.473 69.7456L385.472 69.746L385.469 69.7473C383.656 70.4867 381.821 71.2351 379.951 71.9956L372.632 86.362V86.3691C366.212 98.4381 359.809 110.514 353.407 122.59C350.733 127.633 348.059 132.675 345.384 137.717C342.947 142.307 340.489 146.89 338.031 151.466C337.854 151.796 337.635 152.107 337.365 152.489C337.235 152.675 337.092 152.877 336.937 153.107C310.294 130.087 283.785 107.179 257.33 84.3192L257.118 84.1362L256.75 83.8184L256.729 83.7995L245.182 73.8216C225.546 74.4952 205.989 75.1688 186.432 75.8424C173.188 76.2985 159.945 76.7546 146.678 77.2107C146.41 77.6746 146.142 78.128 145.877 78.5763C145.355 79.4603 144.845 80.3246 144.368 81.2108C137.656 93.6145 130.947 106.021 124.238 118.428L124.175 118.545L124.149 118.593C115.777 134.075 107.405 149.558 99.024 165.036C91.4312 179.065 83.8242 193.088 76.2173 207.11L76.1833 207.173L76.1092 207.31C71.7011 215.436 67.293 223.562 62.8878 231.689C62.769 231.906 62.671 232.131 62.572 232.357C62.5288 232.456 62.4855 232.556 62.4402 232.655H60.3086C75.2365 205.104 90.1664 177.555 105.094 150.009L105.264 149.696L105.665 148.956L106.709 147.03C119.591 123.259 132.472 99.49 145.349 75.7257C145.653 75.6792 145.924 75.6253 146.175 75.5753C146.576 75.4957 146.925 75.4262 147.274 75.4131ZM145.063 84.57L145.06 84.5746C143.769 87.0209 142.501 89.4229 141.257 91.8326L141.215 91.913L141.196 91.9506C120.803 131.479 100.411 171.008 80.0252 210.565C77.3403 215.769 74.7089 221.004 72.0779 226.239L72.076 226.243C70.9967 228.391 69.9175 230.538 68.8347 232.683H70.9662C71.1886 232.209 71.4072 231.732 71.6257 231.256L71.6299 231.247L71.6301 231.247C72.1434 230.128 72.6566 229.01 73.2186 227.916C80.324 214.093 87.4374 200.276 94.5507 186.46L94.5537 186.454L94.5567 186.448L94.5598 186.442L94.5628 186.437L94.5658 186.431L94.5688 186.425L94.5718 186.419L94.5749 186.413L94.5779 186.408L94.5809 186.402C99.0303 177.76 103.48 169.118 107.927 160.475C113.206 150.211 118.482 139.947 123.757 129.683L123.818 129.566C130.833 115.918 137.848 102.27 144.873 88.6211C145.436 87.5318 146.045 86.4669 146.678 85.3605L146.679 85.3589L146.68 85.3573L146.681 85.3556L146.685 85.3479L146.687 85.3445L146.693 85.335L146.696 85.329C147.023 84.7568 147.357 84.1733 147.694 83.5694C178.537 81.3314 209.28 79.1004 240.301 76.8481C262.263 95.6653 284.263 114.521 306.322 133.426C317.305 142.839 328.302 152.264 339.317 161.704C339.504 161.372 339.677 161.076 339.836 160.802C340.17 160.225 340.447 159.749 340.688 159.252C343.777 152.822 346.862 146.39 349.948 139.959L349.963 139.927C355.255 128.896 360.548 117.864 365.854 106.838L366.352 105.808C366.435 105.635 366.517 105.462 366.599 105.29L366.6 105.288L366.601 105.287L366.601 105.285L366.602 105.283C366.757 104.957 366.912 104.633 367.069 104.309C367.075 104.296 367.081 104.283 367.087 104.27L367.104 104.235L367.115 104.213L367.13 104.184L367.142 104.16C367.148 104.146 367.155 104.132 367.162 104.117L376.924 83.9176C377.313 82.9381 377.759 82.077 378.198 81.2283L378.198 81.2282L378.198 81.2282L378.198 81.2281L378.198 81.228L378.198 81.228L378.198 81.2279L378.198 81.2278L378.198 81.2278L378.198 81.2277L378.198 81.2276C378.473 80.6976 378.745 80.1724 378.999 79.6261C381.577 78.4688 384.168 77.3053 386.766 76.1384C391.027 74.225 395.308 72.3024 399.589 70.3825C402.701 68.9858 405.815 67.591 408.928 66.1962L408.933 66.1937L408.939 66.1912L408.94 66.1905L408.942 66.1897L408.944 66.189L408.945 66.1882L408.947 66.1875L408.949 66.1867L408.95 66.1859L408.951 66.1857C416.504 62.8016 424.056 59.4177 431.597 56.009C431.782 55.9237 431.988 55.8527 432.194 55.7817H432.194L432.194 55.7817L432.194 55.7817L432.194 55.7816L432.194 55.7816V53.9272C431.661 54.1261 431.157 54.3251 430.666 54.5453C422.204 58.3358 413.744 62.1299 405.284 65.9239C396.824 69.7181 388.363 73.5122 379.901 77.3028C379.431 77.5107 378.937 77.6489 378.435 77.7892L378.435 77.7893L378.434 77.7893L378.345 77.8144L373.08 87.7898C362.188 110.427 351.296 133.056 340.383 155.686C340.092 156.285 339.728 156.85 339.298 157.518L339.297 157.518L339.297 157.519C339.075 157.864 338.835 158.237 338.578 158.656C322.25 144.672 306.159 130.744 290.103 116.846L290.1 116.843L290.1 116.843L290.099 116.842L290.099 116.842L290.098 116.841L290.098 116.841L290.097 116.841L290.097 116.84L290.096 116.84L290.096 116.839L290.096 116.839C273.995 102.902 257.929 88.9948 241.693 75.0931C238.158 75.3306 234.552 75.561 230.943 75.7916L230.942 75.7916C225.051 76.1679 219.151 76.5449 213.529 76.9547C207.609 77.3858 201.692 77.8402 195.777 78.2946L195.773 78.2949C190.38 78.7091 184.989 79.1232 179.595 79.5196C175.253 79.8394 170.906 80.132 166.559 80.4247L166.558 80.4248L166.557 80.4248L166.556 80.4249L166.555 80.425L166.554 80.425L166.553 80.4251L166.552 80.4252L166.551 80.4252L166.55 80.4253L166.549 80.4254L166.548 80.4254L166.548 80.4255L166.547 80.4255L166.547 80.4256L166.546 80.4256L166.546 80.4256L166.545 80.4257L166.544 80.4257L166.544 80.4258L166.543 80.4258C162.879 80.6725 159.215 80.9191 155.552 81.1822C153.498 81.3309 151.444 81.5284 149.385 81.7262L149.383 81.7265L149.383 81.7265L149.382 81.7265L149.382 81.7265L149.382 81.7266L149.381 81.7266L149.38 81.7267C148.393 81.8216 147.404 81.9166 146.415 82.0063C145.961 82.8677 145.511 83.7215 145.063 84.57ZM248.829 88.8883L248.888 88.9379C256.229 95.1657 263.549 101.376 270.867 107.592C275.577 111.596 280.282 115.606 284.988 119.617L284.993 119.621C291.977 125.574 298.963 131.528 305.966 137.461C309.876 140.777 313.774 144.107 317.682 147.445L317.684 147.446L317.686 147.448C325.36 154.003 333.071 160.589 340.979 167.161C341.211 166.683 341.42 166.261 341.613 165.874C341.981 165.132 342.286 164.518 342.557 163.892C350.656 145.17 376.775 85.8219 376.775 85.8219C382.829 82.8524 388.889 79.8753 394.936 76.904L394.944 76.9L394.967 76.8889L394.97 76.8872L394.995 76.8753L395 76.8727L395.005 76.8701L395.021 76.8625C407.51 70.7265 419.948 64.6151 432.194 58.6451V60.6061C431.917 60.7056 431.647 60.8051 431.412 60.9188C420.316 66.4268 409.197 71.8886 398.08 77.3489L398.08 77.3492L398.076 77.3512C395.413 78.6589 392.751 79.9666 390.09 81.2747C387.521 82.539 384.953 83.806 382.403 85.0637L382.363 85.0838L382.334 85.0979L382.289 85.12L382.262 85.1337L382.241 85.1437C380.748 85.8807 379.26 86.6144 377.784 87.3424C377.165 88.7279 365.172 116.246 365.172 116.246C365.168 116.253 365.164 116.261 365.16 116.269L365.145 116.296L365.134 116.315C365.129 116.325 365.124 116.334 365.118 116.344C365.115 116.351 365.112 116.357 365.109 116.364L365.104 116.373L365.101 116.381L365.098 116.387L365.098 116.389L365.097 116.39L365.096 116.392L365.095 116.394L365.095 116.396L365.094 116.398L365.093 116.399L365.092 116.401L365.091 116.403L365.091 116.405L365.09 116.407C364.532 117.691 363.975 118.976 363.424 120.26L362.685 121.944H362.692C360.441 127.135 358.241 132.349 356.04 137.563L356.04 137.563L356.04 137.564L356.04 137.564L356.04 137.565L356.039 137.565L356.039 137.566L356.039 137.566L356.039 137.567L356.039 137.567L356.038 137.568L356.038 137.568C351.816 147.573 347.593 157.578 343.011 167.423C342.717 168.051 342.406 168.674 342.033 169.421L342.033 169.421L342.03 169.426C341.91 169.668 341.782 169.922 341.647 170.194L338.776 167.752C304.523 138.612 270.446 109.623 236.329 80.5926L235.406 79.7471L223.235 81.1965L223.085 81.214L223.03 81.2204L222.891 81.2366L222.781 81.2495C198.05 84.1378 173.319 87.0262 148.511 89.9216C147.892 91.1749 147.279 92.4175 146.669 93.6519L146.666 93.6575C144.664 97.7113 142.705 101.678 140.766 105.652C135.242 116.956 129.724 128.263 124.205 139.571L124.134 139.717C118.646 150.962 113.157 162.207 107.664 173.448C102.46 184.099 97.2451 194.745 92.0302 205.39L92.0141 205.423L92.0066 205.438L91.9991 205.453L91.9916 205.469L91.9841 205.484L91.9766 205.499L91.9691 205.515L91.9615 205.53L91.954 205.545L91.9465 205.56L91.939 205.576L91.9315 205.591C88.0367 213.542 84.142 221.492 80.2525 229.443C79.8694 230.225 79.5172 231.023 79.1646 231.822L79.1637 231.824C79.0393 232.106 78.9148 232.388 78.7889 232.669H76.6574C100.161 184.611 123.664 136.552 147.267 88.3016C161.059 86.6918 174.85 85.0835 188.653 83.4738L188.771 83.4601C204.475 81.6288 220.194 79.7957 235.945 77.9566C240.249 81.6096 244.543 85.2519 248.829 88.8883ZM138.933 114.654C140.248 111.816 141.557 108.976 142.866 106.135C144.175 103.295 145.484 100.455 146.798 97.6163C147.106 96.9464 147.445 96.2903 147.803 95.5973L147.804 95.5948L147.807 95.5899L147.818 95.5682L147.825 95.5545C147.973 95.2689 148.123 94.9768 148.276 94.6748C168.014 91.3852 187.734 88.0955 207.432 84.8095L207.566 84.7872L207.6 84.7815L222.361 82.3191L231.484 81.1965C268.075 112.146 304.666 143.089 341.271 174.017C341.724 174.398 342.316 174.876 342.986 175.417L343.345 175.708C343.615 175.081 343.871 174.386 344.105 173.747C344.235 173.394 344.359 173.058 344.475 172.759C350.905 156.084 377.968 91.5344 377.968 91.5344C395.695 82.2017 411.514 74.1849 428.702 65.474L428.702 65.4739L432.194 63.7039V65.3594C432.034 65.4417 431.875 65.5272 431.717 65.6116L431.716 65.612L431.716 65.6121L431.716 65.6122L431.716 65.6123L431.716 65.6123L431.715 65.613L431.701 65.6204L431.698 65.6221L431.688 65.627L431.675 65.6341L431.672 65.636L431.662 65.6412L431.658 65.6433C431.604 65.6721 431.551 65.7007 431.498 65.7289C419.122 72.3351 406.745 78.9344 394.369 85.5336L394.345 85.5463L394.281 85.5804C391.336 87.1517 389.215 88.1797 387.081 89.2145L387.08 89.2146L387.08 89.2146L387.08 89.2147C384.91 90.2666 382.725 91.3256 379.645 92.9696C376.533 101.053 366.795 124.241 358.116 144.905L358.116 144.907C351.973 159.532 346.362 172.894 344.006 178.742C335.126 171.233 326.267 163.742 317.424 156.265L316.319 155.331L315.71 154.815L315.677 154.788L315.619 154.739L315.405 154.557C286.998 130.537 258.753 106.654 230.496 82.7668L212.418 85.7791C191.324 89.2943 170.353 92.7889 149.456 96.2663C149.168 96.8658 148.899 97.4219 148.643 97.9503L148.637 97.9612C148.155 98.9565 147.72 99.8536 147.303 100.757C144.176 107.522 141.053 114.287 137.929 121.051L137.905 121.104C133.265 131.152 128.626 141.2 123.977 151.245C119.627 160.649 115.273 170.051 110.918 179.453L110.855 179.591L110.79 179.729C103.971 194.454 97.1523 209.179 90.3488 223.909C89.4474 225.865 88.615 227.852 87.7823 229.839L87.7819 229.84L87.7814 229.841L87.781 229.842L87.7805 229.843L87.7801 229.844L87.7796 229.845L87.7791 229.846L87.7787 229.847L87.7782 229.848L87.7778 229.849L87.7771 229.85L87.7743 229.857C87.382 230.793 86.9897 231.729 86.5902 232.662H84.4587C85.4803 230.412 86.4977 228.16 87.5153 225.907L87.5189 225.899C89.7556 220.947 91.9933 215.993 94.2779 211.063C104.188 189.646 114.111 168.23 124.034 146.813C129.001 136.094 133.968 125.374 138.933 114.654Z" fill="url(#paint0_linear_1345_1849)"/>
<defs>
<linearGradient id="paint0_linear_1345_1849" x1="432.201" y1="9.7493" x2="78.7287" y2="226.115" gradientUnits="userSpaceOnUse">
<stop stop-color="#0BBD25"/>
<stop offset="1" stop-color="#0BBD25" stop-opacity="0"/>
</linearGradient>
</defs>
</svg>
