<svg width="1401" height="279" viewBox="0 0 1401 279" fill="none" xmlns="http://www.w3.org/2000/svg">
<path opacity="0.4" fill-rule="evenodd" clip-rule="evenodd" d="M1268.2 31.1099C1299.17 10.3975 1330.15 -10.308 1361.16 -30.9573C1362.95 -32.1596 1364.89 -33.1263 1366.83 -34.0921C1367.83 -34.5867 1368.82 -35.0811 1369.79 -35.6068L1372.57 -44.012C1371.62 -43.5274 1370.64 -43.0754 1369.67 -42.6231C1367.68 -41.6984 1365.69 -40.7725 1363.88 -39.5657C1299.83 3.24315 1235.78 46.0822 1171.74 88.9213C1129.08 117.46 1086.42 145.999 1043.75 174.528C976.602 219.455 909.424 264.34 842.252 309.221C827.532 319.056 812.812 328.891 798.093 338.727C796.439 339.835 794.722 340.837 792.793 341.963C791.89 342.49 790.941 343.043 789.929 343.648C786.774 341.979 783.613 340.317 780.45 338.653C772.907 334.686 765.357 330.715 757.862 326.646C732.353 312.824 706.857 298.982 681.363 285.141C656.971 271.897 632.58 258.655 608.183 245.433C549.87 213.817 491.529 182.215 433.181 150.635C414.95 140.769 405.632 135.923 388.103 126.807L385.459 125.432C383.085 124.205 368.822 116.814 368.822 116.814C368.822 116.814 365.793 110.349 364.344 107.021C353.847 82.9558 343.149 58.9916 332.454 35.034C329.314 28.0003 326.174 20.9671 323.04 13.9321C322.009 11.6239 320.929 9.32684 319.709 6.73256C318.988 5.20147 318.219 3.56685 317.383 1.76528C267.364 26.5545 217.285 51.1146 167.157 75.6986C117.636 99.9853 68.0675 124.295 18.4617 148.872C1.15205 143.049 -18.1182 136.692 -38.1112 130.097C-58.1041 123.502 -78.8196 116.668 -99.0198 109.892L-100.994 115.876L-81.7237 122.233L-10.4237 145.754L19.1429 155.507C117.393 106.913 215.531 58.3747 314.783 9.29306C323.651 29.078 332.388 48.582 341.108 68.0501C348.794 85.2097 356.468 102.341 364.208 119.613C428.057 154.167 491.973 188.751 555.963 223.377C633.897 265.547 711.943 307.778 790.118 350.087C792.099 348.827 794.036 347.608 795.937 346.411C800.161 343.753 804.211 341.204 808.194 338.555C893.777 281.414 979.36 224.273 1064.92 167.076C1107.58 138.569 1150.23 110.031 1192.89 81.4946C1217.99 64.6972 1243.1 47.9002 1268.2 31.1099ZM1323.65 -36.4604L1323.64 -36.4564C1316.57 -31.5493 1309.51 -26.6421 1302.43 -21.7403C1223.62 32.9385 1144.8 87.6173 1065.97 142.268C1018.74 175.014 971.497 207.747 924.25 240.481L923.636 240.907L922.764 241.511C892.864 262.226 862.963 282.943 833.064 303.663C825.027 309.237 816.978 314.788 808.721 320.484L808.698 320.5C803.925 323.792 799.082 327.132 794.132 330.552C746.402 305.681 698.703 280.826 651.038 255.989C561.084 209.116 471.251 162.306 381.563 115.574C375.989 104.109 370.436 92.6875 364.892 81.2831L364.887 81.273C348.814 48.2115 332.81 15.2902 316.528 -18.1614C268.092 7.61206 220.011 33.3913 172.131 59.0632C125.241 84.2043 78.5425 109.242 31.8904 134.071C27.3704 132.58 22.8466 131.106 18.3561 129.643L18.356 129.643C9.47345 126.749 0.721191 123.898 -7.6137 121.039C-25.8986 114.76 -43.223 109.126 -60.9624 103.356L-60.9626 103.356L-60.9638 103.356C-69.9909 100.42 -79.1255 97.4491 -88.5489 94.3405C-89.2175 94.1033 -90.8364 93.5763 -92.0954 93.1664C-92.6084 92.9994 -93.0616 92.8518 -93.3665 92.7513L-91.7772 87.9337C-91.098 88.1086 -89.9322 88.513 -88.9766 88.8444C-88.5693 88.9857 -88.2002 89.1137 -87.9232 89.2051C-63.4257 97.4576 -39.0462 105.443 -14.6666 113.428C-2.47685 117.421 9.71293 121.413 21.9174 125.439C25.5199 126.698 30.5891 128.3 30.5891 128.3C30.5891 128.3 36.7732 124.931 39.448 123.407C49.4727 117.672 59.6865 112.271 69.898 106.872L69.9029 106.87C73.0636 105.198 76.224 103.527 79.3785 101.846C156.573 60.7179 230.105 21.5578 307.328 -19.5147C308.53 -20.1545 310.031 -21.0548 311.756 -22.0901L311.757 -22.0904L311.757 -22.0907C313.609 -23.2015 315.719 -24.4679 317.999 -25.7348C320.254 -21.7003 323.43 -15.0465 325.357 -11.01L325.523 -10.6627C333.66 6.30499 341.877 22.8024 350.093 39.2999C358.31 55.7973 366.526 72.2948 374.663 89.2625C380.629 101.695 387.025 112.611 387.025 112.611C387.025 112.611 397.789 118.077 407.934 123.292C434.997 137.156 461.957 151.245 488.912 165.332L488.914 165.333C496.268 169.177 503.622 173.02 510.978 176.858C528.143 185.813 545.286 194.797 562.43 203.78L562.442 203.786C579.588 212.771 596.735 221.756 613.903 230.712C657.05 253.214 700.211 275.674 743.393 298.141C754.247 303.78 765.119 309.394 776.005 315.016C781.798 318.008 787.596 321.002 793.396 324.003C794.405 323.364 795.364 322.772 796.283 322.205C798.081 321.095 799.73 320.077 801.314 318.977C807.828 314.467 814.342 309.957 820.857 305.448C845.286 288.537 869.718 271.625 894.114 254.686C919.224 237.262 944.329 219.83 969.436 202.396L970.116 201.924C1009.93 174.275 1049.76 146.623 1089.6 118.997C1165.41 66.4321 1241.21 13.8881 1317.06 -38.593C1332.35 -49.1832 1347.75 -59.6498 1363.13 -70.114L1363.14 -70.1163C1370.92 -75.4075 1378.7 -80.6979 1386.46 -86.0034L1383 -75.4917C1382.13 -75.1114 1381.24 -74.7633 1380.35 -74.415L1380.34 -74.4145C1378.24 -73.5917 1376.13 -72.7677 1374.3 -71.5154C1357.38 -59.8816 1340.51 -48.1713 1323.65 -36.4604ZM933.182 213.536L933.407 213.374L934.22 212.789C976.255 182.551 1018.29 152.313 1060.34 122.098C1126.68 74.4169 1193.06 26.7857 1259.46 -20.8579L1259.61 -20.9683C1283.09 -37.8203 1306.58 -54.6739 1330.07 -71.5318C1345.21 -82.3949 1360.39 -93.2133 1375.58 -104.034L1375.61 -104.055L1375.64 -104.076C1382.95 -109.291 1390.27 -114.507 1397.59 -119.729L1400.36 -128.134C1397.32 -126.088 1394.26 -124.07 1391.21 -122.052L1391.21 -122.051C1384.75 -117.792 1378.31 -113.537 1372.03 -109.029C1309.81 -64.3016 1247.63 -19.5363 1185.44 25.2337L1185.22 25.3936C1162.47 41.7726 1139.71 58.1521 1116.96 74.5307C1044.23 126.897 971.482 179.256 898.721 231.587C866.407 254.837 834.064 278.031 801.722 301.225L801.687 301.25L801.638 301.285C800.915 301.798 800.154 302.247 799.136 302.847L799.136 302.847C798.477 303.235 797.711 303.687 796.779 304.26C666.089 238.982 534.922 173.452 403.277 107.671C375.852 54.4313 348.364 1.0301 320.551 -53.0154C315.71 -50.2803 310.967 -47.6159 306.29 -44.9891L306.219 -44.9489L306.21 -44.9437C298.131 -40.4059 290.252 -35.9799 282.409 -31.4951C265.425 -21.7873 248.432 -12.0927 231.44 -2.39835L231.422 -2.38801L231.37 -2.3582C173.079 30.8983 114.792 64.1532 56.8209 97.9325C51.9685 100.746 41.5056 106.194 41.5056 106.194C41.5056 106.194 30.6173 103.443 23.6733 101.34C-2.21362 94.3907 -28.3404 86.9655 -54.2653 79.5976L-54.2653 79.5975L-54.2654 79.5975L-54.2662 79.5973L-54.267 79.5971C-64.9076 76.573 -75.5142 73.5586 -86.0563 70.5907L-87.6034 75.4222C-80.5621 77.1573 -74.4787 78.8997 -67.6511 80.8552C-62.0659 82.4549 -55.9825 84.1973 -48.4693 86.195C-40.4882 88.3172 -34.1206 90.1511 -27.5214 92.0518L-27.5212 92.0519C-20.314 94.1277 -12.8305 96.2831 -2.66707 98.9803C10.3124 102.425 19.5405 105.063 28.7685 107.701C33.3827 109.02 37.9969 110.339 43.0801 111.759C118.138 68.8616 192.854 26.1487 268.107 -16.8715L318.189 -45.5024C344.125 4.87612 369.558 54.2909 394.954 103.632L399.101 111.69C524.421 174.273 649.453 236.719 774.587 299.216L797.114 310.467C798.293 309.741 799.406 309.085 800.465 308.461L800.475 308.456L800.477 308.454C802.518 307.252 804.358 306.167 806.089 304.926C848.464 274.478 890.823 244.007 933.182 213.536ZM1063.64 95.5756L1059.8 98.4401L1057.2 100.375C978.346 159.165 899.487 217.959 820.62 276.738C816.296 279.962 811.921 283.116 807.569 286.254L807.568 286.255L807.566 286.257L807.565 286.257L807.549 286.269C805.393 287.823 803.243 289.374 801.107 290.927C797.674 289.281 794.26 287.644 790.862 286.014L790.826 285.997L790.799 285.984C775.196 278.501 759.927 271.179 744.639 263.914C733.4 258.575 722.147 253.263 710.894 247.95C697.804 241.77 684.713 235.59 671.643 229.369C660.428 224.03 649.238 218.651 638.047 213.272L638.046 213.271L638.044 213.27L638.042 213.269C625.645 207.311 613.249 201.353 600.823 195.449C587.256 189.005 573.676 182.604 560.096 176.203L560.089 176.2L560.082 176.197L560.075 176.194L560.064 176.188C544.97 169.074 529.876 161.959 514.802 154.786C503.138 149.239 491.495 143.648 479.853 138.056C461.246 129.12 442.64 120.183 423.946 111.431C421.277 110.176 416.282 107.898 416.282 107.898C416.282 107.898 414.269 103.38 413.07 101.139C384.05 46.8029 354.933 -7.44981 325.802 -61.7294L325.227 -62.8007C324.115 -64.8709 322.839 -66.8437 321.459 -68.9779L321.459 -68.9785C320.739 -70.0928 319.99 -71.2511 319.221 -72.4903C230.725 -18.1321 143.076 35.7115 54.9229 89.8792C9.24107 80.0886 -36.4555 70.0595 -82.4337 59.6806L-80.8562 54.8987C-74.7681 56.2295 -68.6801 57.5592 -62.5924 58.8889L-62.5355 58.9013L-62.4838 58.9126L-62.4346 58.9234C-26.8122 66.704 8.8013 74.4827 44.3848 82.4554C48.2806 83.3201 54.8085 84.7028 54.8085 84.7028C54.8085 84.7028 60.0454 81.4317 62.0967 80.1697C66.3851 77.577 70.4485 74.7753 74.5332 71.9588L74.5335 71.9587L74.5337 71.9585L74.5339 71.9583C78.425 69.2754 82.3355 66.5791 86.4785 64.0373L280.679 -55.423C289.575 -60.8912 298.505 -66.3076 307.65 -71.8543C312.359 -74.7106 317.126 -77.6014 321.973 -80.5517C355.29 -18.4073 388.204 42.9737 420.759 103.675C547.863 164.244 673.956 224.339 799.986 284.414C800.933 283.819 801.815 283.286 802.646 282.784L802.648 282.783C804.297 281.787 805.745 280.913 807.098 279.916C902.347 208.912 997.553 137.894 1092.77 66.8553C1109.07 54.6926 1125.37 42.5301 1141.68 30.3675L1142.01 30.1202L1142.15 30.016L1142.5 29.7528C1214.04 -23.6214 1285.59 -76.9995 1357.11 -130.419C1364.87 -136.213 1372.49 -142.191 1380.11 -148.176C1383.79 -151.061 1387.46 -153.948 1391.16 -156.816L1397.48 -154.731C1396.38 -153.762 1395.31 -152.762 1394.23 -151.762C1392.08 -149.762 1389.93 -147.761 1387.6 -146.009C1323.41 -98.0951 1259.23 -50.2457 1195.05 -2.39383L1190.41 1.06289L1159.55 24.0687C1130.79 45.5101 1102.03 66.953 1073.27 88.3963L1067.64 92.5939L1063.64 95.5756ZM896.481 200.408C939.253 167.267 982.025 134.126 1024.81 101.01C1074.19 62.7831 1123.58 24.5647 1172.96 -13.6485L1173.67 -14.1985C1212.44 -44.2065 1251.22 -74.2112 1289.98 -104.215C1306.06 -116.66 1322.17 -129.082 1338.27 -141.502C1348.16 -149.135 1358.06 -156.767 1367.95 -164.404L1359.52 -167.184C1358.89 -166.503 1358.28 -165.786 1357.67 -165.068C1356.41 -163.585 1355.16 -162.102 1353.66 -160.944C1304.11 -122.517 1254.53 -84.1184 1204.96 -45.7171L1204.89 -45.6665L1204.82 -45.616L1204.76 -45.5654L1204.69 -45.5148L1204.37 -45.2631L1204.31 -45.215C1170.39 -18.9465 1136.48 7.32316 1102.57 33.603C1063.87 63.6031 1025.19 93.6146 986.5 123.628L985.739 124.219L983.705 125.796C955.706 147.518 927.704 169.242 899.696 190.962C870.249 213.81 840.796 236.608 811.321 259.399C809.701 260.65 807.979 261.786 806.13 263.005C805.367 263.508 804.583 264.025 803.775 264.571C801.531 263.611 799.302 262.673 797.087 261.741L797.086 261.741L797.084 261.74C792.47 259.799 787.916 257.883 783.413 255.845C766.935 248.369 750.47 240.867 734.004 233.365L734.002 233.364L734 233.363L733.998 233.362L733.996 233.361C709.189 222.058 684.381 210.755 659.527 199.538C636.982 189.359 614.397 179.255 591.814 169.152C572.651 160.58 553.489 152.007 534.351 143.389C521.17 137.464 510.499 132.629 500.149 127.939C486.733 121.859 473.855 116.024 456.745 108.375C454.813 107.504 439.958 101.342 439.958 101.342C439.958 101.342 435.371 94.784 433.967 92.242C416.176 59.9318 398.363 27.6146 380.522 -4.68846C362.512 -37.295 344.446 -69.8733 326.379 -102.452L326.36 -102.487C325.819 -103.471 325.186 -104.41 324.407 -105.565L324.406 -105.567L324.406 -105.567C323.967 -106.218 323.482 -106.937 322.941 -107.772C271.736 -73.9556 220.664 -40.2189 169.647 -6.5189C134.795 16.5036 99.968 39.509 65.1426 62.5109C58.4145 61.403 51.727 60.3039 45.0672 59.2094L45.0656 59.2092L45.0423 59.2053C30.4387 56.8052 15.9681 54.427 1.49409 52.0256C-5.24977 50.9059 -11.9916 49.7751 -18.7334 48.6442L-18.7355 48.6439L-18.7357 48.6438L-18.736 48.6438L-18.7362 48.6438C-37.076 45.5675 -55.4149 42.4914 -73.7906 39.6405C-74.1986 39.5721 -74.6527 39.4651 -75.1226 39.3544L-75.1226 39.3544L-75.1227 39.3543L-75.1228 39.3543L-75.1228 39.3543C-75.3155 39.3089 -75.5109 39.2628 -75.7069 39.2186L-77.4372 44.4639C-56.0725 47.9904 -34.8019 51.4995 -13.626 54.9929C13.2379 59.4247 39.9493 63.8314 66.5071 68.2166C151.7 11.9747 236.005 -43.6963 321.086 -99.8817C321.912 -98.5268 322.703 -97.2607 323.459 -96.0488L323.461 -96.0462C325.023 -93.5454 326.44 -91.2753 327.728 -88.9315C335.647 -74.5735 343.58 -60.2225 351.513 -45.8711L351.515 -45.8669C375.355 -2.74054 399.197 40.3896 422.668 83.7264C426.682 91.1003 434.764 104.838 434.764 104.838C434.764 104.838 446.902 110.173 453.665 112.895C476.085 121.906 498.038 132.073 519.986 142.237C528.504 146.182 537.022 150.126 545.566 154.003C559.011 160.099 572.44 166.232 585.868 172.364L585.876 172.368C600.956 179.254 616.036 186.141 631.139 192.976C642.745 198.223 654.384 203.41 666.022 208.597C676.621 213.321 687.22 218.044 697.794 222.813C708.885 227.814 719.963 232.858 731.04 237.902C742.118 242.947 753.197 247.991 764.289 252.993C773.274 257.052 782.284 261.036 791.423 265.076L791.425 265.077L791.427 265.078L791.428 265.078L791.43 265.079C795.935 267.071 800.471 269.076 805.051 271.112C808.636 268.348 812.197 265.612 815.741 262.89L815.781 262.859C821.329 258.598 826.835 254.369 832.322 250.116C853.709 233.549 875.095 216.978 896.481 200.408ZM1181.44 -48.268L1181.24 -48.1075C1139.94 -14.8719 1098.64 18.3652 1057.32 51.5889C982.873 111.445 908.424 171.301 833.953 231.15C828.471 235.557 822.934 239.897 817.435 244.208L817.434 244.209L817.431 244.211L817.411 244.226L817.325 244.294L817.248 244.353C814.233 246.718 811.229 249.073 808.251 251.425C768.807 234.666 729.464 217.951 690.22 201.277L688.176 200.409L688.166 200.405L687.058 199.934L687.055 199.933L687.053 199.932L687.05 199.931C608.225 166.441 529.794 133.118 451.724 99.9449C422.574 48.457 393.717 -2.52862 364.781 -53.6543C350.909 -78.1639 337.019 -102.706 323.069 -127.35L318.118 -123.835C237.786 -66.8067 158.25 -10.3438 78.3986 46.3289C69.0566 45.2897 59.7155 44.2549 50.3698 43.2197L50.365 43.2191C9.69587 38.714 -31.0622 34.199 -72.3782 29.2683L-70.6687 24.0862C-70.3687 24.1207 -70.0716 24.1642 -69.7789 24.207L-69.7787 24.207L-69.7786 24.207L-69.7784 24.2071L-69.7783 24.2071L-69.7781 24.2071C-69.4343 24.2574 -69.0965 24.3068 -68.7669 24.3398C-52.1092 26.238 -35.4513 28.1536 -18.7935 30.0693C-2.13388 31.9852 14.5258 33.9011 31.1853 35.7994C41.4056 36.963 51.635 38.0364 61.7578 39.0986C66.842 39.6322 71.8993 40.1628 76.915 40.7007L89.4994 31.757L89.5009 31.756L89.5027 31.7547C168.065 -24.0795 246.199 -79.6091 324.623 -135.317C325.146 -134.496 325.604 -133.788 326.013 -133.155L326.017 -133.149C326.919 -131.753 327.586 -130.721 328.197 -129.653C332.038 -122.873 335.88 -116.093 339.723 -109.312L339.755 -109.256C355.91 -80.7463 372.07 -52.2294 388.193 -23.694C409.255 13.5724 430.316 50.8388 451.182 88.2041C453.002 91.4672 456.35 96.6827 456.35 96.6827C456.35 96.6827 488.216 109.554 499.756 114.435C512.53 119.847 525.288 125.283 538.047 130.72C547.682 134.826 557.318 138.932 566.961 143.028C574.297 146.14 581.637 149.237 588.978 152.335C599.988 156.982 610.998 161.629 621.993 166.321C638.809 173.491 655.609 180.686 672.41 187.882L672.432 187.891C685.127 193.328 697.821 198.765 710.524 204.191C714.169 205.748 717.815 207.305 721.461 208.862L721.554 208.902C740.255 216.89 758.958 224.878 777.701 232.798C784.387 235.626 791.106 238.355 797.955 241.137C801.143 242.432 804.36 243.739 807.614 245.072C810.213 242.992 812.779 240.943 815.321 238.912L815.383 238.863L815.403 238.847L815.407 238.843C820.134 235.069 824.782 231.357 829.418 227.622C848.78 212.061 868.142 196.501 887.503 180.943C936.569 141.512 985.631 102.086 1034.69 62.6444C1131.25 -15.0487 1227.8 -92.7486 1324.32 -170.505C1325.84 -171.735 1327.13 -173.277 1328.42 -174.816L1328.42 -174.821C1328.99 -175.5 1329.56 -176.179 1330.14 -176.829L1336.46 -174.744C1335.41 -173.708 1334.39 -172.643 1333.37 -171.578L1333.37 -171.576L1333.36 -171.574L1333.36 -171.572C1331.1 -169.219 1328.84 -166.866 1326.32 -164.822C1312.7 -153.84 1299.05 -142.868 1285.39 -131.892C1276.33 -124.612 1267.27 -117.33 1258.22 -110.043C1232.63 -89.4543 1207.03 -68.8615 1181.44 -48.268ZM962.675 105.895C993.823 79.8351 1024.97 53.774 1056.13 27.7218C1090.08 -0.66095 1124.04 -29.0411 1158 -57.4226L1158.25 -57.6311L1158.26 -57.6434L1158.28 -57.6557L1158.29 -57.6679L1158.31 -57.6802L1159.8 -58.9298L1159.94 -59.0447L1160.08 -59.1595L1160.21 -59.274C1205.33 -96.9845 1250.46 -134.697 1295.57 -172.421C1299.04 -175.311 1302.47 -178.241 1305.89 -181.169L1307.25 -182.329L1308.18 -183.122L1308.5 -183.401L1309.06 -183.876L1302.74 -185.961L1302.35 -185.631C1267.71 -156.613 1233.08 -127.595 1198.43 -98.5847C1133.66 -44.3635 1068.87 9.85091 1004.07 64.0372C971.927 90.9169 939.769 117.783 907.61 144.651L907.474 144.764L907.315 144.897L907.263 144.94L907.104 145.073L906.312 145.735C886.819 162.02 867.326 178.306 847.834 194.596C843.161 198.496 838.512 202.415 833.862 206.334C829.21 210.254 824.558 214.175 819.884 218.077C817.984 219.681 816.015 221.198 814.024 222.731L814.024 222.731L814.023 222.732L814.022 222.732L814.021 222.733L814.02 222.734L814.019 222.735C813.094 223.447 812.164 224.163 811.235 224.894C810.463 224.704 809.717 224.544 808.997 224.389C807.397 224.045 805.917 223.727 804.537 223.175C788.964 216.935 773.406 210.67 757.851 204.406L757.842 204.403L757.834 204.399L757.825 204.396L757.816 204.392L757.808 204.389L757.799 204.385C746.336 199.769 734.875 195.154 723.41 190.55C710.065 185.19 696.665 179.929 683.258 174.688C672.558 170.508 661.854 166.338 651.152 162.169L651.144 162.166L651.136 162.163L651.128 162.16L651.12 162.157L651.112 162.154L651.105 162.151C632.248 154.805 613.394 147.461 594.569 140.059C557.479 125.465 473.692 92.4059 473.692 92.4059C473.692 92.4059 469.821 86.1539 467.952 82.8979C442.432 38.2053 416.732 -6.39646 391.037 -50.9913L390.998 -51.0583L390.96 -51.1251L390.921 -51.1918C384.605 -62.1528 378.29 -73.1134 371.977 -84.0748C364.57 -96.9242 357.359 -109.246 350.125 -121.605L350.121 -121.613C343.863 -132.304 337.589 -143.024 331.159 -154.136C330.189 -155.835 329.119 -157.476 328.04 -159.132C327.29 -160.283 326.536 -161.44 325.808 -162.629C282.332 -129.385 238.991 -96.231 195.631 -63.0622L195.517 -62.9752L195.417 -62.8989C159.842 -35.6856 124.255 -8.46248 88.5689 18.8278C83.8225 18.5431 79.0632 18.2604 74.2948 17.977L74.0832 17.9645L74.0594 17.9631C62.8208 17.2954 51.5319 16.6247 40.2429 15.9198C25.8213 15.0108 11.3948 14.0921 -3.033 13.1733L-3.03974 13.1728L-3.05532 13.1719C-23.21 11.8883 -43.3672 10.6047 -63.5171 9.34716C-64.0522 9.30768 -64.5912 9.2418 -65.1422 9.17445L-65.1432 9.17433L-65.1437 9.17426C-65.3436 9.14983 -65.5451 9.12521 -65.7486 9.10158L-67.4997 14.4101C-66.7768 14.5551 -66.061 14.6511 -65.3524 14.698C-42.5306 16.1698 -19.7043 17.6131 3.12151 19.0562C29.5922 20.7299 56.0624 22.4035 82.5247 24.1216C85.0856 24.289 89.0574 24.7817 89.0574 24.7817C89.0574 24.7817 94.4062 21.4542 96.7575 19.6371C162.349 -30.7352 228.034 -80.9521 293.73 -131.178L305.885 -140.47C309.814 -143.472 313.797 -146.412 318.099 -149.588L318.102 -149.59L318.131 -149.612C320.18 -151.124 322.3 -152.689 324.522 -154.34C340.958 -126.85 356.729 -99.3457 372.442 -71.9418L372.45 -71.9279C380.55 -57.8004 388.636 -43.6996 396.789 -29.6412C413.641 -0.569013 430.413 28.5344 447.392 57.9961C454.651 70.5914 461.948 83.2522 469.305 96.0041L495.294 106.295C600.217 147.839 705.743 189.622 811.922 231.661C816.969 227.473 822.055 223.273 827.16 219.057L827.17 219.049C835.856 211.876 844.597 204.657 853.293 197.378C889.762 166.896 926.217 136.397 962.675 105.895ZM820.594 207.706C819.515 208.644 818.363 209.496 817.174 210.376C816.559 210.83 815.934 211.292 815.304 211.777C756.273 190.271 697.326 168.798 638.469 147.359C587.802 128.903 537.202 110.471 486.674 92.0636C469.89 63.359 453.14 34.711 436.412 6.10125C400.84 -54.736 365.37 -115.4 329.89 -176.068C329.164 -177.335 327.522 -179.722 327.522 -179.722L326.211 -181.906C326.211 -181.906 325.196 -181.026 324.188 -180.308C283.549 -146.858 242.726 -113.263 201.81 -79.5908L201.455 -79.2993L200.093 -78.1781L199.894 -78.0147L199.78 -77.9203L199.577 -77.7531L198.92 -77.2129L197.59 -76.1183C165.723 -49.8936 133.802 -23.6235 101.867 2.65949C65.1926 1.97838 28.6615 1.30307 -7.86966 0.62777L-9.63854 0.595064C-27.3007 0.268572 -44.9634 -0.057948 -62.6428 -0.385147L-60.8708 -5.75688C-60.8465 -5.76043 -60.829 -5.76049 -60.8116 -5.76054L-60.8115 -5.76055L-60.8112 -5.76057C-60.7937 -5.76063 -60.7761 -5.76069 -60.7516 -5.76427C-51.9306 -5.62376 -43.114 -5.44679 -34.2942 -5.26974L-34.2895 -5.26964L-34.2843 -5.26954L-34.2756 -5.26936C-27.6287 -5.13593 -20.9798 -5.00247 -14.3259 -4.88454C23.6395 -4.20298 61.5907 -3.54945 99.984 -2.89026C144.195 -39.3069 188.426 -75.7333 232.832 -112.304L233.186 -112.596L233.327 -112.712L236.207 -115.083L239.094 -117.461C268.573 -141.738 298.132 -166.082 327.818 -190.532C364.98 -127.044 401.896 -63.961 438.838 -0.832969L439.047 -0.47647C456.255 28.9285 473.468 58.3435 490.715 87.8142C598.351 127.035 706.134 166.304 814.022 205.608C815.141 204.691 816.194 203.842 817.2 203.032L817.203 203.03C818.99 201.59 820.627 200.271 822.216 198.898L828.938 193.075L828.97 193.047L829.035 192.991L829.078 192.954L829.09 192.944L829.093 192.94L829.097 192.937L829.1 192.934C851.337 173.673 873.587 154.399 895.769 135.102C934.025 101.821 972.279 68.5271 1010.53 35.2332C1048.8 1.92691 1087.07 -31.3794 1125.34 -64.6734C1140.93 -78.2404 1156.53 -91.8003 1172.12 -105.36C1203.3 -132.462 1234.47 -159.565 1265.6 -186.723C1267.6 -188.478 1269.28 -190.615 1270.96 -192.755L1270.96 -192.756L1270.96 -192.757C1271.74 -193.74 1272.51 -194.722 1273.31 -195.669L1281.74 -192.89C1267.02 -180.109 1252.3 -167.328 1237.58 -154.547L1236.67 -153.763L1236.53 -153.641L1236.39 -153.52C1212.51 -132.789 1188.63 -112.055 1164.75 -91.3113C1131.98 -62.8378 1099.21 -34.3655 1066.44 -5.89421L1066.24 -5.7211C984.359 65.4268 902.482 136.568 820.594 207.706ZM991.927 36.1231C1010.61 19.2263 1029.28 2.33013 1047.96 -14.5646C1114.98 -75.1691 1181.99 -135.774 1248.97 -196.364C1250.29 -197.555 1251.51 -198.868 1252.74 -200.177C1253.27 -200.749 1253.8 -201.32 1254.34 -201.88L1248.02 -203.965C1243.19 -199.52 1238.37 -195.066 1233.55 -190.611C1221.58 -179.553 1209.6 -168.491 1197.53 -157.553C1119.37 -86.729 1041.15 -15.9463 962.937 54.8363C916.721 96.654 870.492 138.444 824.262 180.234C822.906 181.457 821.477 182.609 819.896 183.885L819.885 183.894C819.259 184.399 818.609 184.923 817.93 185.479L507.739 83.1535C448.9 -16.1873 389.504 -116.459 329.445 -217.837C327.612 -216.249 325.836 -214.726 324.103 -213.239L324.095 -213.232C320.975 -210.555 317.992 -207.996 315.061 -205.391C300.304 -192.289 285.549 -179.185 270.795 -166.083L270.062 -165.431L268.626 -164.156L268.445 -163.996L266.978 -162.692L266.734 -162.476L266.489 -162.258L266.483 -162.253C224.684 -125.131 182.89 -88.0144 141.06 -50.9342L112.634 -24.6671C101.724 -24.3837 91.0131 -24.101 80.424 -23.8214C63.6185 -23.3777 47.1197 -22.9422 30.6181 -22.5251C22.0097 -22.3047 13.4011 -22.0908 4.79245 -21.8769C-14.9856 -21.3854 -34.7646 -20.8939 -54.5469 -20.3241C-55.0168 -20.3156 -55.522 -20.3421 -56.0271 -20.3686L-57.4169 -16.1554C-27.2229 -15.2112 98.0507 -17.7754 114.626 -20.0156C163.106 -63.0176 211.845 -106.268 261.01 -149.896L261.561 -150.385L262.012 -150.785L262.236 -150.984L262.317 -151.055C283.946 -170.249 305.658 -189.516 327.467 -208.867C336.435 -195.69 344.115 -182.404 351.695 -169.292L351.696 -169.291C355.551 -162.621 359.381 -155.995 363.342 -149.452C371.262 -136.371 379.028 -123.19 386.793 -110.011C390.827 -103.163 394.862 -96.315 398.917 -89.4822C404.334 -80.3643 409.769 -71.2554 415.203 -62.1479L415.218 -62.1228C421.501 -51.5934 427.782 -41.0658 434.034 -30.528C440.429 -19.7533 446.798 -8.96003 453.167 1.83507L453.175 1.84706L453.182 1.85906L453.189 1.87105L453.196 1.88304L453.203 1.89503L453.21 1.90703L453.217 1.91902L453.224 1.93101C458.649 11.1245 464.075 20.3193 469.518 29.5051C478.284 44.2822 487.07 59.0394 495.807 73.7143C498.695 78.5644 501.577 83.4054 504.451 88.2353L819.108 192.034C820.864 190.488 822.635 188.939 824.414 187.383L824.433 187.367L824.437 187.363L824.443 187.358L824.453 187.349C828.663 183.668 832.915 179.95 837.1 176.153C888.714 129.487 940.32 82.8056 991.921 36.1285L991.923 36.1267L991.925 36.1249L991.927 36.1231ZM806.989 167.926L806.938 167.911L806.932 167.909C790.966 163.319 774.997 158.728 759.057 154.005C743.458 149.384 727.868 144.724 712.277 140.064L712.275 140.064L712.273 140.063L712.272 140.063L712.27 140.062L712.268 140.062L712.266 140.061L712.265 140.061L712.263 140.06L712.261 140.06L712.258 140.059L712.256 140.058L712.253 140.057L712.25 140.056L712.247 140.055L712.244 140.055L712.242 140.054L712.239 140.053L712.236 140.052C693.195 134.361 674.153 128.669 655.094 123.05C614.056 110.937 572.99 98.8379 531.819 87.1252C528.19 86.0914 521.913 84.1608 521.913 84.1608C521.913 84.1608 517.916 78.0775 515.97 74.8428C480.054 14.6754 444.014 -45.4117 407.974 -105.5L407.967 -105.511C393.92 -128.93 379.874 -152.349 365.835 -175.772C360.412 -184.819 355.039 -193.903 349.666 -202.987L349.664 -202.992L349.658 -203.001L349.652 -203.011L349.647 -203.02L349.641 -203.03L349.635 -203.039L349.63 -203.049L349.624 -203.058L349.618 -203.068L349.613 -203.077C345.614 -209.839 341.614 -216.601 337.593 -223.349C336.043 -225.943 334.413 -228.496 332.526 -231.453C331.682 -232.774 330.787 -234.176 329.825 -235.699C328.792 -234.859 327.808 -234.084 326.866 -233.343L326.866 -233.343C324.752 -231.678 322.855 -230.184 321.128 -228.524C293.342 -201.913 265.591 -175.276 237.837 -148.638L237.805 -148.607C229.928 -141.046 222.05 -133.485 214.172 -125.925C208.85 -120.823 203.527 -115.723 198.204 -110.623C178.759 -91.9922 159.316 -73.3628 139.912 -54.6772L126.12 -41.4748C125.688 -41.4192 125.256 -41.3627 124.824 -41.3061C122.35 -40.9824 119.867 -40.6577 117.39 -40.5007C60.5899 -36.7676 3.80375 -33.0766 -52.9965 -29.4136L-51.1619 -34.975C-50.9725 -34.9826 -50.7808 -34.9894 -50.5891 -34.9962C-50.2057 -35.0099 -49.8223 -35.0235 -49.4576 -35.0434C-28.8948 -36.3873 -8.33025 -37.7189 12.2343 -39.0506L12.245 -39.0513C32.813 -40.3832 53.381 -41.715 73.9472 -43.0592C84.4758 -43.7456 95.007 -44.4692 105.771 -45.2088C111.871 -45.6279 118.046 -46.0522 124.337 -46.4777L160.085 -81.9147L160.092 -81.9358C190.932 -111.439 221.726 -140.981 252.52 -170.522L252.531 -170.532L252.608 -170.606C265.438 -182.914 278.267 -195.222 291.1 -207.527C302.815 -218.752 314.586 -229.934 326.35 -241.096C327.197 -241.902 328.15 -242.609 329.323 -243.48L329.325 -243.481C329.894 -243.903 330.514 -244.364 331.199 -244.892C388.078 -149.914 444.667 -55.405 501.139 38.9088L525.694 79.9192C584.561 97.1242 643.196 114.253 701.831 131.381C741.551 142.984 781.27 154.587 821.062 166.213C822.31 165.1 823.547 164.018 824.771 162.947L824.772 162.946L824.773 162.946L824.774 162.945L824.775 162.944L824.775 162.943C827.186 160.835 829.544 158.773 831.821 156.612C863.95 126.313 896.069 96.0017 928.188 65.6895C968.2 27.9299 1008.21 -9.83084 1048.25 -47.5701C1084.47 -81.7261 1120.73 -115.852 1156.98 -149.976L1157.03 -150.023L1157.08 -150.07L1157.13 -150.117L1157.18 -150.164C1178.32 -170.055 1199.45 -189.946 1220.58 -209.843C1221.14 -210.371 1221.65 -210.94 1222.16 -211.513L1222.16 -211.515L1222.17 -211.517C1222.39 -211.768 1222.62 -212.02 1222.85 -212.27L1229.17 -210.185C1157.66 -142.811 1086.14 -75.4446 1014.63 -8.08807C950.926 51.9216 887.228 111.923 823.549 171.916C822.602 171.756 821.746 171.651 820.952 171.554L820.952 171.553C819.687 171.398 818.583 171.262 817.534 170.959C814.019 169.947 810.504 168.937 806.989 167.926ZM833.052 145.97C839.276 139.977 845.387 134.093 851.436 128.163C950.657 30.8139 1049.88 -66.5354 1149.11 -163.976C1162.16 -176.777 1175.08 -189.726 1188 -202.673L1188.06 -202.736L1188.12 -202.799C1193.38 -208.072 1198.65 -213.346 1203.92 -218.608L1197.6 -220.693C1196.47 -219.496 1195.34 -218.289 1194.22 -217.082L1194.22 -217.077L1194.21 -217.072L1194.21 -217.069L1194.21 -217.067L1194.2 -217.064L1194.2 -217.061L1194.2 -217.058L1194.2 -217.055L1194.19 -217.052L1194.19 -217.049C1191.59 -214.246 1188.98 -211.444 1186.26 -208.761C1151.59 -174.648 1116.9 -140.56 1082.22 -106.473C1060.61 -85.2342 1039 -63.9962 1017.39 -42.7529C991.699 -17.4859 966.018 7.78504 940.338 33.056L940.283 33.1106L940.227 33.1652C906.018 66.829 871.809 100.493 837.573 134.148C834.837 136.827 831.989 139.389 829.031 142.051L829.023 142.058C827.469 143.456 825.884 144.882 824.269 146.366C730.634 122.836 637.302 99.3818 543.127 75.7197C496.439 -1.51313 449.676 -78.8957 402.787 -156.486C379.408 -195.173 355.998 -233.912 332.55 -272.709C331.67 -271.909 330.87 -271.199 330.131 -270.543L330.13 -270.543C328.573 -269.161 327.287 -268.018 326.087 -266.783C310.649 -250.746 295.219 -234.704 279.789 -218.662L279.751 -218.623L279.714 -218.585L279.677 -218.546C253.199 -191.018 226.723 -163.492 200.209 -135.996L197.727 -133.428C197.311 -132.995 196.899 -132.563 196.487 -132.133L196.485 -132.131C195.701 -131.311 194.921 -130.496 194.133 -129.685C193.986 -129.523 193.819 -129.368 193.672 -129.206L144.971 -78.8651C142.86 -76.3417 140.696 -74.2247 138.564 -72.1382L138.563 -72.138C137.231 -70.8342 135.911 -69.5423 134.623 -68.1706C125.839 -67.2603 117.012 -66.3439 108.16 -65.4248L108.14 -65.4227C93.65 -63.9182 79.0907 -62.4065 64.5341 -60.9029C53.9154 -59.8035 43.2967 -58.7102 32.6783 -57.6169L32.6663 -57.6156L32.6608 -57.615C6.96194 -54.969 -18.7348 -52.3231 -44.4243 -49.593C-45.0551 -49.5209 -45.7351 -49.5118 -46.4151 -49.5027L-46.4151 -49.5027L-46.4151 -49.5027L-46.4151 -49.5027L-46.4152 -49.5027L-46.4153 -49.5027L-46.4154 -49.5027L-46.4155 -49.5027L-46.4158 -49.5027L-46.4162 -49.5026L-48.2299 -44.0045C-46.4554 -44.0732 -44.7652 -44.1696 -43.0962 -44.3432C-14.2956 -47.3057 14.5032 -50.2805 43.302 -53.2552C72.0925 -56.2291 100.883 -59.2031 129.675 -62.1647C131.27 -62.322 132.873 -62.248 134.499 -62.1729L134.499 -62.1729L134.789 -62.1596L160.155 -86.5864C214.588 -143.048 269.015 -199.489 323.505 -255.909C324.951 -257.402 326.585 -258.722 328.513 -260.281C329.511 -261.087 330.588 -261.958 331.76 -262.949C366.495 -205.52 400.579 -148.486 434.59 -91.5747L434.596 -91.5658C468.705 -34.4907 502.74 22.4603 537.281 79.5609C547.997 82.315 558.913 85.1586 569.839 88.0049L569.844 88.0061L569.847 88.007L569.849 88.0075L569.851 88.008L569.853 88.0085L569.855 88.009L569.857 88.0095L569.859 88.01L569.861 88.0105L569.863 88.011C587.69 92.655 605.545 97.3063 622.606 101.588C640.584 106.101 658.573 110.541 676.559 114.98L676.573 114.984C692.962 119.029 709.349 123.074 725.724 127.172C738.921 130.474 752.105 133.86 765.291 137.247C776.401 140.1 787.512 142.955 798.636 145.759C804.875 147.328 811.163 148.752 817.463 150.18L817.467 150.181L817.47 150.181L817.473 150.182L817.476 150.183L817.479 150.183L817.483 150.184L817.486 150.185L817.489 150.186L817.492 150.186C820.504 150.869 823.518 151.552 826.532 152.252C828.687 150.172 830.828 148.111 832.955 146.063L832.961 146.057L833.012 146.008L833.052 145.97ZM557.124 76.6933C547.901 61.5966 538.7 46.5419 529.513 31.5119L529.4 31.3276L529.16 30.9339L528.945 30.5825L528.818 30.3746L528.79 30.3282C513.351 5.06907 497.954 -20.1218 482.571 -45.326C472.53 -61.7907 462.509 -78.2715 452.487 -94.7539L452.474 -94.7748L452.462 -94.7957L452.459 -94.8006L452.456 -94.8055L452.453 -94.8105L452.45 -94.8154L452.447 -94.8204L452.444 -94.8253L452.441 -94.8303L452.438 -94.8352L452.435 -94.8401L452.432 -94.8451L452.429 -94.85C437.552 -119.317 422.673 -143.787 407.722 -168.214C399.376 -181.861 391.078 -195.541 382.76 -209.254L382.758 -209.257L382.756 -209.259L382.755 -209.262L382.753 -209.265L382.751 -209.268L382.749 -209.27L382.748 -209.273L382.746 -209.276L382.744 -209.279L382.743 -209.282L382.741 -209.284C366.399 -236.225 349.977 -263.296 332.958 -290.514C331.806 -289.326 330.772 -288.28 329.825 -287.321L329.822 -287.318L329.822 -287.318C328.003 -285.477 326.5 -283.956 325.085 -282.366C282.759 -234.78 147.276 -84.3647 147.276 -84.3647C126.357 -81.4737 105.418 -78.5646 84.5188 -75.6612L84.4911 -75.6573L84.4843 -75.6564L84.4474 -75.6512C41.4076 -69.6719 -1.45942 -63.7165 -43.6157 -57.992L-41.6977 -63.8061C-40.7789 -63.83 -39.8811 -63.8609 -39.0748 -63.9686C-0.783816 -69.4471 37.5304 -74.7659 75.8344 -80.0832C85.0076 -81.3566 94.1802 -82.63 103.352 -83.9054C112.392 -85.1683 121.436 -86.4397 130.41 -87.7013L130.413 -87.7017L130.484 -87.7118L130.838 -87.7615L131.239 -87.8179L131.264 -87.8215C136.125 -88.5048 140.965 -89.1851 145.772 -89.8595C148.96 -93.3627 211.432 -163.22 211.432 -163.22C211.473 -163.261 211.517 -163.301 211.562 -163.342L211.563 -163.343C211.612 -163.387 211.662 -163.433 211.711 -163.482C211.733 -163.504 211.754 -163.527 211.775 -163.55C214.704 -166.835 217.633 -170.12 220.541 -173.412L224.378 -177.682L224.357 -177.689C236.109 -190.878 247.732 -204.184 259.355 -217.49L259.356 -217.491C281.665 -243.029 303.973 -268.567 327.19 -293.28C328.674 -294.848 330.202 -296.387 332.032 -298.232L332.034 -298.233L332.035 -298.234L332.036 -298.236L332.04 -298.24L332.042 -298.241L332.043 -298.243L332.045 -298.245L332.046 -298.246L332.053 -298.253C332.649 -298.853 333.276 -299.486 333.945 -300.162L340.671 -289.123L341.065 -288.476L342.385 -286.311L343.173 -285.017L344.207 -283.32C415.868 -165.712 487.178 -48.6812 558.564 68.5027L560.476 71.9129L597.979 79.5194C674.593 95.2394 751.207 110.959 828.059 126.735C831.128 123.614 834.172 120.521 837.196 117.449C847.093 107.393 856.776 97.554 866.406 87.6701C893.783 59.6156 921.149 31.5455 948.514 3.47533L948.57 3.41838L948.625 3.36143L948.852 3.12906L949.078 2.89721C976.334 -25.0609 1003.59 -53.019 1030.86 -80.9615C1056.58 -107.323 1082.33 -133.66 1108.08 -159.995L1108.12 -160.036L1108.16 -160.076L1108.2 -160.117L1108.29 -160.212L1108.39 -160.308L1108.53 -160.458C1127.99 -180.359 1147.45 -200.26 1166.9 -220.169C1168.8 -222.115 1170.62 -224.137 1172.45 -226.162L1172.48 -226.189L1172.49 -226.205C1173.12 -226.905 1173.75 -227.605 1174.39 -228.302L1180.71 -226.217L1178.3 -223.754C1062.42 -105.075 946.527 13.6068 830.161 132.754C787.559 124.01 744.958 115.261 702.321 106.505L702.102 106.46L701.553 106.347L700.819 106.196C652.984 96.3726 605.104 86.5396 557.124 76.6933ZM880.645 62.7729C873.972 69.903 867.312 77.0436 860.653 84.1842C853.994 91.3248 847.335 98.4653 840.662 105.595C839.095 107.28 837.449 108.893 835.71 110.598C834.959 111.334 834.19 112.088 833.403 112.871C771.739 103.331 710.129 93.8092 648.587 84.2975L648.194 84.2368L601.668 77.0458L573.522 71.4514C495.304 -56.0981 417.08 -183.627 338.8 -311.127C337.828 -312.7 336.539 -314.699 335.082 -316.96C334.827 -317.355 334.567 -317.759 334.303 -318.17C332.892 -316.579 331.46 -314.773 330.141 -313.111L330.138 -313.108L330.136 -313.106L330.132 -313.101L330.132 -313.1L330.131 -313.099L330.128 -313.095C329.399 -312.176 328.705 -311.302 328.069 -310.532C292.695 -267.38 149.324 -102.469 149.324 -102.469C87.6438 -92.1373 32.9077 -83.8404 -26.566 -74.8254L-26.5709 -74.8247L-26.578 -74.8236L-26.5838 -74.8227L-26.5914 -74.8216C-30.5943 -74.2149 -34.6187 -73.6048 -38.6681 -72.9907L-37.0489 -77.899C-36.4934 -77.987 -35.9346 -78.0848 -35.3838 -78.1812L-35.3788 -78.1821L-35.3577 -78.1858L-35.3504 -78.1871C-35.106 -78.2298 -34.8633 -78.2723 -34.6232 -78.3134C8.63387 -85.8134 51.884 -93.2923 95.1341 -100.771C105.404 -102.549 112.697 -103.523 120.039 -104.503C127.502 -105.499 135.015 -106.502 145.756 -108.364C162.887 -129.285 214.431 -188.5 260.37 -241.276L260.371 -241.278L260.377 -241.285L260.383 -241.292L260.384 -241.292L260.384 -241.292L260.387 -241.297C292.903 -278.651 322.607 -312.777 335.311 -327.811C355.491 -294.914 375.62 -262.1 395.712 -229.348L395.715 -229.343L395.719 -229.337L395.967 -228.932C456.861 -129.664 517.407 -30.9629 577.986 67.7619C596.928 70.6932 615.835 73.6187 634.71 76.5394C700.629 86.7391 766.162 96.8793 831.463 106.999C832.911 105.492 834.263 104.098 835.547 102.774C837.951 100.295 840.118 98.0609 842.237 95.791C858.114 78.8032 873.981 61.8119 889.847 44.8219L889.869 44.7984C913.497 19.4958 937.123 -5.80424 960.776 -31.0868C983.024 -54.8765 1005.28 -78.6587 1027.54 -102.441L1027.71 -102.622C1062.34 -139.615 1096.96 -176.609 1131.55 -213.634C1136.14 -218.56 1140.56 -223.641 1144.97 -228.723L1144.97 -228.724L1144.98 -228.725L1144.98 -228.726L1144.98 -228.727L1144.98 -228.728L1144.98 -228.729L1144.98 -228.73L1144.98 -228.731L1144.98 -228.731L1144.98 -228.732L1144.98 -228.735L1144.99 -228.743L1144.99 -228.745C1147.07 -231.139 1149.15 -233.533 1151.25 -235.911L1157.57 -233.826C1152.34 -228.155 1147.12 -222.472 1141.9 -216.788C1130.42 -204.287 1118.94 -191.781 1107.33 -179.39C1057 -125.582 1006.63 -71.7864 956.26 -17.9906C931.054 8.93006 905.847 35.8507 880.645 62.7729Z" fill="url(#paint0_linear_2689_564)"/>
<defs>
<linearGradient id="paint0_linear_2689_564" x1="-75.3373" y1="177.339" x2="1272.63" y2="-73.8505" gradientUnits="userSpaceOnUse">
<stop stop-color="#0BBD25" stop-opacity="0.38"/>
<stop offset="1" stop-color="#0BBD25" stop-opacity="0.15"/>
</linearGradient>
</defs>
</svg>
