<svg width="403" height="748" viewBox="0 0 403 748" fill="none" xmlns="http://www.w3.org/2000/svg">
<path fill-rule="evenodd" clip-rule="evenodd" d="M120.297 706.081C104.017 718.783 87.7361 731.498 71.48 744.237C70.5366 744.969 69.6901 745.825 68.8443 746.679C68.4113 747.117 67.9784 747.555 67.5328 747.975L62.6265 747.975C63.0465 747.559 63.4532 747.126 63.8602 746.693C64.6924 745.806 65.5256 744.919 66.4753 744.176C100.129 717.893 133.795 691.624 167.462 665.355C189.902 647.846 212.342 630.337 234.778 612.824C270.096 585.274 305.396 557.7 340.694 530.128C348.423 524.09 356.151 518.053 363.88 512.016C364.751 511.338 365.576 510.608 366.504 509.789C366.938 509.405 367.395 509.001 367.889 508.573C367.558 506.623 367.232 504.67 366.905 502.716C366.127 498.056 365.347 493.391 364.507 488.739C361.66 472.909 358.801 457.083 355.942 441.258C353.206 426.117 350.471 410.978 347.747 395.839C341.23 359.65 334.725 323.449 328.232 287.248C326.204 275.937 325.272 270.19 323.517 259.379L323.252 257.748C323.018 256.285 321.604 247.493 321.604 247.493C321.604 247.493 318.727 244.775 317.227 243.435C306.381 233.73 295.623 223.936 284.868 214.145C281.71 211.271 278.553 208.397 275.394 205.525C274.358 204.581 273.336 203.613 272.182 202.52C271.501 201.875 270.774 201.187 269.971 200.434C291.708 178.406 313.335 156.308 334.982 134.187C356.367 112.335 377.773 90.4625 399.326 68.6165C399.266 58.4928 399.266 47.2442 399.266 35.5737C399.266 23.9033 399.266 11.8111 399.207 1.92652e-05L402.7 1.91125e-05L402.7 11.2486L402.7 52.8685L402.7 70.1273C360.056 113.411 317.46 156.646 274.386 200.373C283.259 208.475 292.007 216.459 300.739 224.428C308.44 231.456 316.128 238.473 323.879 245.55C330.984 285.175 338.093 324.841 345.21 364.553C353.874 412.892 362.551 461.301 371.246 509.791C370.238 510.615 369.26 511.423 368.3 512.216C366.167 513.978 364.122 515.667 362.035 517.304C317.092 552.435 272.148 587.567 227.179 622.673C204.787 640.163 182.38 657.644 159.973 675.124C146.747 685.442 133.52 695.761 120.297 706.081ZM47.8459 744.114C56.912 737.224 66.0086 730.376 75.1057 723.528C78.9148 720.66 82.7239 717.793 86.5309 714.922C129.003 682.927 171.476 650.931 213.936 618.923C239.483 599.665 265.026 580.397 290.57 561.129C306.828 548.865 323.087 536.6 339.348 524.338C343.672 521.079 347.987 517.811 352.413 514.458L352.443 514.435C355.005 512.494 357.604 510.524 360.265 508.512C355.45 479.001 350.638 449.509 345.83 420.038C336.786 364.607 327.755 309.252 318.739 253.986C313.671 249.06 308.623 244.153 303.582 239.254L303.569 239.241C288.958 225.041 274.409 210.901 259.63 196.524C281.61 175.5 303.531 154.665 325.361 133.917L325.363 133.915C346.741 113.597 368.03 93.3627 389.202 73.116C389.202 70.4776 389.211 67.8401 389.221 65.2221L389.221 65.222C389.24 60.0433 389.259 54.9405 389.202 50.0563C389.071 39.3399 389.114 29.2412 389.157 18.9006L389.157 18.9004C389.179 13.6381 389.202 8.3131 389.202 2.81217C389.193 2.41901 389.197 1.47523 389.2 0.741241C389.201 0.442209 389.202 0.177996 389.202 1.97026e-05L386.39 1.98255e-05C386.364 0.387983 386.374 1.07186 386.383 1.63248L386.383 1.63253C386.386 1.87149 386.39 2.08805 386.39 2.24974C386.48 16.5793 386.45 30.8005 386.42 45.0216L386.42 45.0243C386.405 52.1339 386.39 59.2436 386.39 66.3668C386.426 68.4818 386.39 71.4287 386.39 71.4287C386.39 71.4287 383.542 74.0992 382.275 75.2427C377.515 79.5241 372.898 83.9632 368.283 88.4013C366.853 89.7757 365.424 91.1499 363.99 92.5194C328.933 126.015 295.548 157.925 260.515 191.445C259.969 191.967 259.235 192.601 258.39 193.329L258.39 193.329L258.39 193.33C257.483 194.111 256.45 195.003 255.387 195.983C257.12 197.87 260.071 200.699 261.861 202.414L262.015 202.561C269.534 209.792 276.792 216.982 284.05 224.172L284.051 224.173L284.052 224.174C291.31 231.364 298.567 238.554 306.086 245.784C311.595 251.084 316.231 256.347 316.231 256.347C316.231 256.347 317.239 262.962 318.223 269.209C320.821 285.863 323.556 302.502 326.291 319.138L326.292 319.141C327.038 323.68 327.784 328.219 328.527 332.757C330.26 343.346 332.012 353.929 333.763 364.512L333.765 364.525C335.518 375.112 337.27 385.7 339.004 396.294C343.357 422.916 347.685 449.538 352.014 476.172C353.097 482.865 354.165 489.564 355.234 496.271L355.234 496.271C355.803 499.84 356.372 503.412 356.945 506.987C356.433 507.408 355.955 507.809 355.497 508.195L355.496 508.196C354.599 508.949 353.778 509.64 352.924 510.283C349.424 512.925 345.924 515.567 342.424 518.209C329.274 528.137 316.122 538.066 302.963 547.972C289.413 558.177 275.86 568.378 262.305 578.58L261.986 578.82C240.516 594.98 219.044 611.142 197.581 627.322C156.744 658.1 115.92 688.878 75.1197 719.693C66.8892 725.907 58.7074 732.191 50.5277 738.474L50.5271 738.474L50.5193 738.48C46.3834 741.657 42.248 744.833 38.107 748L44.243 748C44.5941 747.609 44.9322 747.2 45.2704 746.791C46.0695 745.825 46.8697 744.857 47.8459 744.114ZM274.498 561.405C251.094 578.417 227.69 595.43 204.295 612.455C167.642 639.123 131.009 665.817 94.3658 692.519L93.3765 693.24C80.759 702.434 68.1403 711.629 55.5191 720.824C47.1645 726.914 38.8267 733.032 30.4867 739.151L30.4748 739.16L30.395 739.218C26.4046 742.146 22.4138 745.074 18.4204 748L13.5141 748C15.1194 746.754 16.7132 745.495 18.3066 744.236C21.6687 741.579 25.0291 738.924 28.4913 736.404C62.8404 711.418 97.2027 686.458 131.568 661.496C144.186 652.331 156.804 643.166 169.422 633.998C209.62 604.806 249.817 575.602 290.002 546.385C307.856 533.41 325.686 520.409 343.515 507.409L343.519 507.406L343.554 507.381C343.949 507.09 344.318 506.767 344.81 506.335C345.129 506.056 345.5 505.731 345.964 505.34C334.294 425.203 322.576 344.771 310.808 264.044C287.543 240.361 264.204 216.616 240.582 192.589C242.876 190.503 245.116 188.457 247.323 186.44C251.115 182.975 254.813 179.596 258.535 176.247C266.607 168.981 274.672 161.709 282.738 154.437L282.74 154.436L282.741 154.434C310.371 129.524 337.998 104.616 365.847 79.9646C368.171 77.8988 372.856 73.3367 372.856 73.3367C372.856 73.3367 373.299 67.127 373.397 63.106C374.235 48.2714 374.863 33.2277 375.487 18.3003L375.487 18.2999C375.743 12.1729 375.998 6.06539 376.266 1.15548e-06L379.078 0.0246308C378.769 4.03273 378.63 7.53781 378.473 11.4717L378.473 11.4718L378.473 11.4718L378.473 11.4718C378.346 14.6899 378.206 18.195 377.953 22.4972C377.684 27.0673 377.544 30.7379 377.399 34.5421C377.24 38.6968 377.075 43.0108 376.73 48.8297C376.289 56.2608 376.075 61.577 375.862 66.8931L375.862 66.8938L375.862 66.8942C375.755 69.552 375.648 72.2099 375.512 75.132C339.907 107.185 304.458 139.09 268.754 171.224L268.661 171.308L244.948 192.65C267.008 215.096 288.647 237.109 310.254 259.09L313.648 262.544C324.825 339.34 335.979 415.961 347.143 492.645L349.173 506.594C348.584 507.09 348.044 507.564 347.531 508.014L347.529 508.015C346.542 508.881 345.652 509.661 344.697 510.357C321.304 527.381 297.901 544.393 274.498 561.405ZM135.459 647.66C154.216 634.508 172.974 621.355 191.732 608.202C236.933 576.508 282.137 544.813 327.335 513.111C329.781 511.396 332.2 509.642 334.605 507.897L334.609 507.894L334.61 507.893L334.612 507.892L334.623 507.884L334.662 507.856C335.841 507.001 337.018 506.148 338.193 505.303C337.921 503.197 337.65 501.103 337.381 499.019L337.38 499.013C336.151 489.501 334.948 480.193 333.778 470.885C332.92 464.041 332.077 457.195 331.235 450.348C330.255 442.383 329.274 434.419 328.269 426.457C327.406 419.628 326.518 412.805 325.63 405.982L325.63 405.98L325.63 405.978L325.63 405.977C324.645 398.414 323.661 390.853 322.711 383.284C321.674 375.019 320.663 366.754 319.651 358.488L319.65 358.482C318.526 349.301 317.401 340.119 316.243 330.937C315.349 323.834 314.427 316.734 313.505 309.635C312.032 298.287 310.559 286.94 309.197 275.578C309.001 273.955 308.669 270.93 308.669 270.93C308.669 270.93 306.64 269.086 305.668 268.065C282.112 243.361 258.616 218.62 235.108 193.867L235.098 193.855L234.619 193.351C233.722 192.406 232.905 191.392 232.021 190.295L232.021 190.295L232.02 190.294L232.02 190.293L232.016 190.289C231.556 189.718 231.078 189.124 230.561 188.506C274.546 151.358 318.112 114.567 361.937 77.5668C364.716 51.8178 367.372 26.0196 369.893 0.0123937L367.102 0.0123939C366.744 3.45623 366.386 6.8998 366.028 10.3432L366.021 10.4091L366.021 10.4099C363.931 30.514 361.841 50.613 359.859 70.7299C359.638 72.931 359.232 76.6077 359.232 76.6077C359.232 76.6077 356.601 78.7965 355.58 79.6572C353.47 81.4645 351.29 83.1171 349.098 84.7783L349.098 84.7784C347.009 86.361 344.911 87.9515 342.853 89.6912L246.239 171.181C241.817 174.913 237.416 178.672 232.909 182.522L232.906 182.525L232.9 182.53C230.58 184.512 228.232 186.517 225.839 188.556C252.768 216.887 279.366 244.874 305.668 272.553C315.481 349.985 325.22 426.801 334.959 503.581C334.48 503.977 334.046 504.349 333.638 504.7L333.637 504.7C332.827 505.395 332.116 506.005 331.356 506.545C277.435 544.357 223.515 582.144 169.582 619.931C160.353 626.398 151.124 632.865 141.895 639.331L141.757 639.428C101.12 667.903 60.4793 696.38 19.8224 724.833C15.4251 727.911 10.955 730.883 6.48013 733.858L6.47336 733.863L6.46658 733.867C4.31384 735.298 2.15997 736.73 0.012636 738.175L0.0126362 741.864C0.713594 741.454 1.42685 741.062 2.14011 740.67L2.14112 740.669L2.14176 740.669C3.56757 739.885 4.99329 739.101 6.32077 738.175C42.6449 712.739 78.934 687.294 115.225 661.847L116.814 660.733L135.459 647.66ZM273.94 539.817C249.078 556.57 224.216 573.323 199.364 590.087C170.712 609.413 142.063 628.743 113.418 648.07C90.7018 663.397 67.9877 678.722 45.276 694.043C35.9518 700.335 26.637 706.641 17.3228 712.947L17.2769 712.978L17.2668 712.985L17.2566 712.992L16.822 713.286C11.2315 717.071 5.6413 720.855 0.0493176 724.636L0.0493173 719.718C0.351289 719.578 0.659242 719.448 0.96927 719.32C1.14056 719.25 1.3125 719.18 1.48441 719.11L1.48514 719.11L1.48569 719.11C2.48465 718.706 3.48312 718.302 4.35312 717.713C33.1794 698.309 61.9971 678.883 90.8163 659.456L90.9818 659.344L91.0786 659.279C110.842 645.956 130.606 632.633 150.375 619.316C172.879 604.161 195.386 589.014 217.896 573.866C234.745 562.527 251.596 551.188 268.446 539.844C285.588 528.309 302.705 516.763 319.821 505.204C320.761 504.569 321.658 503.859 322.621 503.098L322.622 503.097L322.628 503.092C323.024 502.78 323.43 502.459 323.855 502.13C323.739 500.782 323.632 499.445 323.526 498.116C323.306 495.35 323.088 492.62 322.797 489.895C321.723 479.922 320.633 469.952 319.543 459.981L319.543 459.979C317.901 444.956 316.258 429.931 314.669 414.898C313.226 401.263 311.829 387.621 310.433 373.98L310.432 373.975C309.247 362.398 308.062 350.821 306.848 339.25C306.019 331.284 305.326 324.829 304.655 318.567L304.654 318.561C303.784 310.443 302.948 302.65 301.893 292.314C301.77 291.146 301.106 282.255 301.106 282.255C301.106 282.255 298.45 278.702 297.356 277.521C283.436 262.544 269.516 247.554 255.609 232.553C241.575 217.413 227.565 202.248 213.556 187.084L213.53 187.055C213.105 186.599 212.721 186.102 212.247 185.492L212.247 185.491C211.981 185.148 211.687 184.767 211.341 184.338C238.037 163.253 264.668 142.225 291.269 121.219L291.291 121.202C309.455 106.859 327.606 92.5263 345.755 78.1939C346.34 74.4586 346.923 70.7462 347.504 67.0492C348.777 58.9408 350.038 50.9062 351.288 42.8658C351.87 39.1225 352.445 35.3783 353.02 31.6341L353.021 31.63L353.021 31.6291C354.587 21.4399 356.152 11.2511 357.842 1.08212C357.877 0.855377 357.9 0.5977 357.923 0.331033C357.933 0.221703 357.942 0.110862 357.953 2.10685e-05L361.015 2.09347e-05C359.162 11.8542 357.316 23.6559 355.479 35.405L355.472 35.451C353.141 50.3528 350.824 65.1702 348.522 79.9031C304.119 114.985 260.171 149.698 215.817 184.731C216.387 185.402 216.917 186.038 217.424 186.648C218.469 187.904 219.418 189.045 220.428 190.129C226.612 196.792 232.79 203.462 238.968 210.131L238.97 210.133C257.533 230.172 276.097 250.213 294.835 270.094C298.02 273.488 303.848 280.128 303.848 280.128C303.848 280.128 304.549 287.444 304.807 291.478C305.658 304.845 307.197 318.168 308.737 331.487C309.334 336.657 309.931 341.826 310.488 346.997C311.363 355.133 312.259 363.267 313.155 371.401C314.162 380.538 315.169 389.674 316.145 398.814C316.891 405.835 317.601 412.862 318.31 419.889L318.31 419.891L318.311 419.895C318.957 426.294 319.602 432.693 320.276 439.086C320.983 445.791 321.715 452.496 322.446 459.202L322.447 459.208C323.178 465.916 323.91 472.624 324.617 479.332C325.194 484.768 325.726 490.203 326.266 495.716L326.266 495.718L326.266 495.72C326.532 498.437 326.8 501.173 327.076 503.938C325 505.344 322.942 506.744 320.894 508.136L320.864 508.156L320.861 508.158C317.657 510.337 314.477 512.499 311.288 514.648C298.839 523.038 286.39 531.427 273.94 539.817ZM47.7231 676.311C63.0682 666.373 78.4152 656.437 93.7625 646.501C118.409 630.545 143.057 614.588 167.701 598.621L168.568 598.059C212.719 569.448 256.869 540.836 301.02 512.213C304.29 510.093 307.536 507.933 310.759 505.787L310.763 505.785L310.765 505.783L310.772 505.779C312.574 504.579 314.368 503.384 316.157 502.204C314.189 478.584 312.226 455.026 310.269 431.526L310.18 430.457L310.152 430.125L310.082 429.284C306.145 382.029 302.228 335.011 298.327 288.207C276.298 263.935 254.482 239.904 232.607 215.808C222.099 204.234 211.577 192.644 201.012 181.005L203.613 179.09C247.623 146.676 291.196 114.584 334.934 82.3623C336.009 77.2645 337.086 72.1681 338.164 67.069L338.164 67.0679L338.165 67.0668L338.165 67.0656L338.165 67.0645L338.165 67.0641L338.166 67.0618L338.167 67.0577C342.857 44.8676 347.558 22.6289 352.137 0.0245141L349.112 0.0245142C349.078 0.188463 349.049 0.352412 349.021 0.51397L349.021 0.514083L349.021 0.514202L349.021 0.51433L349.021 0.514465L349.021 0.514606C348.987 0.704229 348.955 0.890555 348.915 1.06972C347.021 10.1692 345.137 19.2718 343.252 28.3744C341.368 37.4769 339.484 46.5793 337.59 55.6787C336.428 61.2588 335.217 66.8279 334.019 72.3391L334.019 72.3398L334.019 72.3414L334.018 72.3437L334.018 72.3445L334.017 72.3464L334.016 72.3507C333.415 75.1184 332.816 77.8714 332.229 80.6039L325.313 85.6915L325.306 85.6967L325.182 85.7877L325.077 85.8655L324.822 86.0532C281.957 117.588 239.324 148.954 196.548 180.44C196.89 180.859 197.185 181.224 197.447 181.55C198.025 182.267 198.453 182.798 198.909 183.305C201.797 186.488 204.684 189.672 207.572 192.857L207.641 192.933L207.662 192.956C219.858 206.404 232.057 219.855 244.271 233.29C260.232 250.85 276.193 268.409 292.24 285.883C293.642 287.407 295.806 290.076 295.806 290.076C295.806 290.076 297.048 309.086 297.614 316.009C298.243 323.662 298.889 331.311 299.534 338.96L299.535 338.964L299.535 338.969L299.536 338.973L299.536 338.978L299.537 338.993C300.025 344.779 300.514 350.566 300.995 356.354C301.359 360.757 301.715 365.159 302.072 369.562L302.072 369.568C302.606 376.169 303.14 382.77 303.701 389.371C304.555 399.472 305.426 409.57 306.297 419.668C306.954 427.296 307.612 434.923 308.263 442.553L308.6 446.511L308.827 449.175C309.784 460.408 310.742 471.643 311.656 482.886C311.984 486.897 312.254 490.908 312.529 494.997C312.657 496.9 312.786 498.82 312.923 500.765C311.365 501.78 309.829 502.782 308.307 503.775L308.303 503.778C305.491 505.613 302.726 507.418 299.95 509.213C288.397 516.703 276.845 524.192 265.293 531.682L265.119 531.795L265.029 531.854L264.938 531.912C235.776 550.819 206.617 569.725 177.452 588.624C119.781 625.969 62.1101 663.301 4.41461 700.609C3.50272 701.197 2.46677 701.608 1.43365 702.017L1.43311 702.018C0.9758 702.199 0.519043 702.38 0.0738832 702.576L0.0738834 706.265C0.802796 705.893 1.54248 705.539 2.2821 705.185C3.91318 704.404 5.54395 703.623 7.05832 702.65C15.2079 697.385 23.3574 692.101 31.5096 686.816L31.5779 686.772L31.6459 686.728L31.7137 686.684L31.7812 686.64L31.8484 686.597C37.1385 683.167 42.4298 679.737 47.7231 676.311ZM212.71 558.236L212.621 558.291L212.532 558.346L212.444 558.401L212.356 558.455L212.268 558.51L212.18 558.565C193.234 570.324 174.287 582.083 155.343 593.85C134.128 607.028 112.913 620.209 91.6973 633.392C63.9336 650.643 36.1681 667.896 8.39871 685.14C6.27356 686.466 4.134 687.763 1.99658 689.059C1.33896 689.458 0.681518 689.856 0.0247494 690.255L0.0247492 686.566C21.3962 673.323 42.7676 660.08 64.139 646.824C103.931 622.145 143.722 597.453 183.502 572.749C203.124 560.564 222.742 548.369 242.361 536.173L242.416 536.138L242.471 536.104L242.527 536.07L242.582 536.035L242.638 536.001L242.693 535.966C254.916 528.368 267.14 520.769 279.366 513.172C282.226 511.392 285.093 509.627 287.96 507.863L287.971 507.855C290.843 506.087 293.715 504.319 296.581 502.536C297.756 501.814 298.897 501.04 300.051 500.258L300.052 500.258L300.056 500.255L300.06 500.252L300.065 500.249L300.069 500.246C300.599 499.887 301.132 499.525 301.672 499.167C301.706 498.728 301.751 498.307 301.795 497.901C301.891 496.999 301.981 496.165 301.93 495.343C301.35 486.06 300.753 476.782 300.157 467.505L300.156 467.489C299.716 460.648 299.277 453.808 298.843 446.968C298.339 439.012 297.897 431.044 297.466 423.076C297.124 416.717 296.787 410.359 296.451 404.001L296.451 404.001C295.859 392.788 295.266 381.578 294.638 370.373C293.396 348.313 290.543 298.462 290.543 298.462C290.543 298.462 287.924 295.339 286.535 293.79C267.438 272.593 248.421 251.318 229.407 230.046L229.371 230.006C224.681 224.759 219.991 219.513 215.301 214.268C209.822 208.137 204.588 202.2 199.337 196.245L199.331 196.238L199.328 196.234L199.326 196.232L199.325 196.231L199.324 196.231L199.32 196.226C194.783 191.08 190.234 185.921 185.506 180.612C184.78 179.807 184.102 178.958 183.418 178.103C182.942 177.508 182.464 176.91 181.965 176.321C207.049 159.183 232.063 142.101 257.088 125.012C277.6 111.005 298.119 96.9926 318.69 82.9404C319.369 80.3759 320.051 77.8047 320.734 75.2286L320.749 75.1727L320.755 75.152C322.355 69.1196 323.962 63.0601 325.552 56.9947C327.578 49.2419 329.601 41.4849 331.623 33.7272C334.448 22.8929 337.273 12.0571 340.111 1.22975C340.183 0.941188 340.242 0.646013 340.302 0.344224C340.324 0.234489 340.346 0.123879 340.369 0.0123939L343.468 0.0123937C343.418 0.41818 343.345 0.811669 343.246 1.19286C340.058 13.4628 336.854 25.7301 333.649 37.9972L333.646 38.01C329.931 52.2316 326.217 66.453 322.527 80.6779C322.17 82.0551 321.74 84.2316 321.74 84.2316C321.74 84.2316 319.059 86.4695 317.694 87.3918C279.792 113.169 241.956 139.023 204.113 164.881L204.108 164.885L204.095 164.894L204.094 164.894L204.088 164.898L204.077 164.906L197.089 169.68C194.827 171.227 192.587 172.814 190.168 174.527C189.011 175.347 187.813 176.196 186.551 177.083C198.169 190.51 209.909 203.588 221.607 216.619C227.64 223.339 233.661 230.047 239.648 236.783C252.025 250.702 264.432 264.585 276.993 278.638L277.09 278.747L277.333 279.019L277.335 279.021C282.593 284.904 287.878 290.818 293.199 296.778L294.109 312.349C297.757 374.766 301.425 437.541 305.115 500.704C302.032 502.635 298.936 504.584 295.828 506.54L295.826 506.541L295.824 506.543L295.818 506.547L295.804 506.555C290.527 509.877 285.217 513.22 279.882 516.529C257.497 530.438 235.104 544.337 212.71 558.236ZM290.998 501.109C291.679 500.704 292.328 500.245 292.997 499.772L292.998 499.771C293.344 499.527 293.696 499.278 294.06 499.031C292.989 464.221 291.923 429.459 290.857 394.752C289.94 364.873 289.024 335.034 288.108 305.238C276.318 291.876 264.549 278.541 252.796 265.223L251.587 263.853L251.471 263.722L250.784 262.943C225.202 233.956 199.691 205.049 174.181 176.136C173.64 175.533 172.668 174.255 172.668 174.255L171.746 173.185C171.746 173.185 172.386 172.804 172.939 172.398C198.018 156.552 223.21 140.632 248.459 124.676L248.473 124.667C268.245 112.172 288.052 99.6553 307.869 87.1335C313.858 67.7765 319.826 48.4956 325.793 29.2149L325.832 29.0889C328.832 19.3958 331.833 9.70273 334.835 2.2079e-05L331.7 2.22161e-05C331.694 0.0123185 331.691 0.0215417 331.687 0.0307651C331.684 0.0399881 331.681 0.0492114 331.675 0.0615076C330.217 4.73158 328.778 9.40566 327.339 14.0814C326.255 17.6052 325.17 21.1299 324.076 24.6546C317.842 44.7595 311.595 64.8521 305.274 85.1783C278.349 102.177 251.416 119.184 224.375 136.258L224.366 136.264L224.07 136.451C205.087 148.438 186.05 160.458 166.926 172.533C193.97 203.207 220.842 233.68 247.735 264.175C260.202 278.314 272.674 292.457 285.17 306.627C287.125 370.102 289.08 433.663 291.035 497.285C290.358 497.714 289.73 498.121 289.129 498.509L289.126 498.511L289.124 498.512L289.123 498.513L289.121 498.515C288.054 499.204 287.077 499.836 286.08 500.433L281.889 502.935L281.865 502.95L281.844 502.962L281.824 502.975L281.803 502.987L281.782 503L281.761 503.012C267.754 511.377 253.738 519.746 239.721 528.076C215.711 542.344 191.695 556.609 167.678 570.874L167.581 570.932L167.386 571.048L167.288 571.106L167.19 571.164C143.019 585.521 118.848 599.878 94.6835 614.238C84.833 620.09 74.9853 625.946 65.1375 631.802L65.1142 631.816L65.0908 631.83L65.0675 631.844L65.0441 631.858L65.0208 631.872L64.9974 631.886C45.3637 643.561 25.7301 655.237 6.07449 666.879C4.80212 667.629 3.38547 668.143 1.96686 668.656L1.96631 668.657C1.31488 668.893 0.663054 669.129 0.0245959 669.388L0.0245961 674.307C9.51739 668.654 19.0102 662.999 28.5037 657.344L28.7751 657.182L28.9353 657.087L29.4251 656.795C44.2195 647.982 59.0157 639.168 73.8163 630.359C94.4125 618.102 115.008 605.846 135.602 593.59C187.404 562.764 239.201 531.94 290.998 501.109ZM171 561.46C158.833 568.375 146.666 575.29 134.5 582.205L134.078 582.445C90.6768 607.118 47.2753 631.791 3.88605 656.452C3.03036 656.94 2.12707 657.356 1.22586 657.771L1.2243 657.772C0.830931 657.953 0.437956 658.134 0.0495283 658.321L0.0495281 654.632C3.22558 652.864 6.4057 651.1 9.58636 649.336L9.5871 649.335L9.58783 649.335L9.58856 649.335L9.58929 649.334L9.59002 649.334L9.59076 649.333L9.59149 649.333L9.59222 649.333C17.4926 644.951 25.3964 640.566 33.2503 636.114C84.0888 607.277 134.915 578.404 185.741 549.531L185.801 549.497C215.842 532.429 245.87 515.349 275.898 498.269C276.778 497.768 277.632 497.216 278.578 496.605L278.579 496.605L278.906 496.393C279.181 496.216 279.465 496.034 279.759 495.847L279.759 314.78C237.681 266.553 195.208 217.871 152.269 168.647C153.425 167.957 154.536 167.286 155.622 166.631C157.573 165.453 159.438 164.327 161.319 163.237C171.676 157.223 182.034 151.21 192.391 145.198L192.469 145.152L192.534 145.115C219.312 129.57 246.087 114.027 272.849 98.4587L291.613 88.0558C293.657 82.3623 295.666 76.7735 297.651 71.2483L297.654 71.2401C300.806 62.4722 303.899 53.8641 306.984 45.2514C308.594 40.761 310.2 36.2694 311.807 31.7778L311.809 31.7707L311.81 31.7687L311.811 31.7667L311.812 31.7642L311.813 31.7617L311.813 31.7601C315.506 21.4363 319.198 11.1119 322.933 0.799373C323.019 0.553442 323.092 0.282918 323.166 0.0123939L325.626 0.0123937C320.879 16.0717 297.774 81.5755 293.716 89.9126C262.39 108.123 230.885 126.428 199.102 144.895C185.236 152.952 171.316 161.04 157.335 169.164C162.714 176.174 168.375 182.524 173.962 188.792L173.962 188.793L173.963 188.794L173.964 188.795L173.965 188.796L173.97 188.801L173.974 188.806L173.975 188.807C176.812 191.99 179.63 195.152 182.383 198.368C187.894 204.809 193.484 211.187 199.074 217.563C201.978 220.876 204.883 224.189 207.775 227.511C211.63 231.941 215.476 236.378 219.322 240.815L219.325 240.818L219.329 240.822L219.332 240.826L219.335 240.83L219.338 240.833L219.342 240.837L219.345 240.841L219.348 240.845L219.355 240.852L219.361 240.859L219.368 240.867L219.374 240.874L219.38 240.882L219.387 240.889C223.826 246.01 228.264 251.13 232.713 256.236C237.27 261.468 241.841 266.69 246.413 271.913L246.418 271.918L246.422 271.923L246.427 271.929L246.431 271.934L246.436 271.939L246.441 271.945L246.445 271.95L246.467 271.975L246.492 272.003L246.504 272.017L246.516 272.03L246.579 272.103C250.44 276.513 254.301 280.924 258.154 285.342C264.309 292.406 270.451 299.477 276.559 306.509L276.57 306.522L276.649 306.613L276.702 306.674L276.749 306.728L276.845 306.839L276.856 306.852L276.932 306.939C278.96 309.274 280.985 311.606 283.006 313.931L283.006 497.605C281.887 498.261 280.764 498.925 279.636 499.591L279.625 499.597L279.622 499.599L279.618 499.601L279.618 499.602C276.946 501.18 274.249 502.774 271.521 504.319C238.182 523.277 204.837 542.229 171.495 561.179L171 561.46ZM272.419 487.023L272.42 487.005L272.42 487.003L272.42 487.002L272.42 487L272.42 486.998L272.42 486.997L272.42 486.995L272.42 486.993L272.421 486.992L272.421 486.99C272.776 477.793 273.132 468.594 273.414 459.387C273.69 450.392 273.944 441.395 274.198 432.397L274.198 432.387L274.198 432.378L274.198 432.369L274.199 432.36L274.199 432.351L274.199 432.342L274.2 432.333C274.51 421.315 274.821 410.296 275.173 399.282C275.923 375.574 276.685 351.854 277.669 328.146C277.755 326.056 277.829 322.416 277.829 322.416C277.829 322.416 275.32 319.256 273.955 317.669C248.531 288.328 223.17 258.935 197.809 229.542L197.772 229.499L197.764 229.489L197.681 229.393L197.668 229.378L197.655 229.363L197.643 229.349L197.63 229.334L197.618 229.32L197.605 229.305L197.593 229.291L197.58 229.276C187.753 217.886 177.925 206.497 168.094 195.11C164.283 190.695 160.444 186.301 156.605 181.906L156.601 181.902L156.597 181.897L156.594 181.893L156.59 181.889L156.586 181.885L156.583 181.881L156.579 181.877L156.576 181.872L156.572 181.868L156.567 181.862C153.692 178.571 150.816 175.28 147.952 171.98C146.856 170.714 145.795 169.412 144.566 167.905L144.565 167.904L144.557 167.894C144.011 167.224 143.431 166.512 142.8 165.745C143.42 165.348 143.999 164.965 144.552 164.599L144.552 164.598L144.554 164.597L144.554 164.597C145.798 163.773 146.913 163.034 148.088 162.413C166.927 152.404 185.774 142.418 204.623 132.43L204.648 132.417L204.756 132.36L204.864 132.303C210.134 129.51 215.404 126.718 220.674 123.925C224.263 122.02 227.85 120.115 231.438 118.21L231.503 118.176L231.506 118.174L231.508 118.173L231.51 118.172L231.513 118.17L231.515 118.169L231.518 118.168L231.52 118.167L231.523 118.165L231.525 118.164C244.702 111.167 257.879 104.17 271.078 97.2043L280.423 92.2365L280.559 91.9525L280.734 91.59L280.737 91.5836L280.737 91.5835C281.337 90.3371 281.939 89.0868 282.452 87.8098C294.281 58.5562 306.086 29.3027 317.878 0.0368869L314.632 0.036887C314.595 0.135266 314.558 0.235011 314.522 0.334756L314.521 0.33525L314.521 0.335877C314.447 0.534975 314.374 0.734053 314.3 0.922241C310.023 11.5112 305.752 22.1032 301.48 32.6952L301.478 32.7001L301.476 32.7051C297.203 43.3029 292.929 53.9007 288.65 64.4955C286.461 69.9151 284.253 75.3297 281.996 80.8638L281.996 80.8652L281.994 80.8696L281.992 80.8746L281.991 80.8765C280.711 84.0146 279.416 87.1912 278.099 90.4289L253.235 103.094L253.223 103.094C232.349 114.199 211.462 125.273 190.577 136.347L190.539 136.366C181.811 140.994 173.083 145.622 164.356 150.252C156.412 154.469 148.481 158.724 140.562 162.979C139.991 163.285 139.453 163.664 138.79 164.13L138.789 164.131L138.787 164.133C138.467 164.358 138.118 164.604 137.722 164.872C178.063 211.563 218.205 258.016 258.264 304.374L274.939 323.67C273.778 357.522 272.616 391.239 271.455 424.956L271.455 424.968L271.454 425.003L271.445 425.242L271.442 425.34C270.652 448.263 269.863 471.185 269.073 494.15C268.271 494.613 267.486 495.077 266.71 495.535L266.709 495.536L266.705 495.538C265.177 496.44 263.683 497.323 262.15 498.146C240.66 509.777 219.164 521.4 197.668 533.024L197.562 533.082C170.731 547.59 143.9 562.099 117.076 576.623C92.7716 589.777 68.4774 602.956 44.1837 616.134C30.0301 623.812 15.8767 631.49 1.72162 639.163C1.34497 639.368 0.956418 639.538 0.564237 639.709C0.393033 639.784 0.221158 639.859 0.0492833 639.938L0.0492835 643.627C46.9777 618.2 93.9028 592.769 140.821 567.343L142.815 566.262L143.489 565.897C186.214 542.743 228.933 519.592 271.643 496.449C271.724 495.923 271.817 495.454 271.904 495.02L271.904 495.019C272.042 494.326 272.162 493.721 272.184 493.117C272.261 491.109 272.339 489.101 272.417 487.093L272.417 487.076L272.418 487.058L272.419 487.04L272.419 487.023ZM256.336 496.945C252.1 499.181 247.94 501.377 243.767 503.532L243.149 503.851L242.503 504.184L241.787 504.554C173.967 539.541 106.147 574.529 38.2794 609.504C29.2729 614.151 20.2108 618.705 11.1499 623.259L11.07 623.299C7.37854 625.154 3.68734 627.01 0.000241112 628.871L0.000240951 625.182C0.826382 624.795 1.65585 624.414 2.48535 624.033L2.48874 624.032L2.49139 624.031L2.49322 624.03L2.49505 624.029L2.49688 624.028L2.49872 624.027L2.50055 624.026L2.50238 624.025L2.50421 624.024L2.50604 624.023C4.43518 623.138 6.36425 622.253 8.25125 621.284C32.1543 608.996 56.0479 596.695 79.9409 584.394L79.9594 584.384L79.9779 584.375L79.9964 584.365L80.0149 584.356L80.0334 584.346L80.0519 584.337L80.0704 584.327L80.0889 584.318L80.1074 584.308L80.1258 584.298C95.0735 576.603 110.021 568.907 124.97 561.215C142.744 552.073 160.518 542.937 178.292 533.801L178.427 533.731C202.06 521.584 225.692 509.437 249.325 497.273C251.211 496.298 253.054 495.244 254.969 494.149C255.977 493.572 257.004 492.985 258.068 492.391C261.942 439.012 265.803 385.805 269.701 332.118C237.346 294.356 204.927 256.529 172.421 218.602L171.885 217.977L171.734 217.8L171.019 216.965L171.014 216.96L169.389 215.064C153.894 196.985 138.38 178.882 122.843 160.753C123.412 160.431 123.921 160.136 124.391 159.863L124.403 159.856L124.404 159.855C125.402 159.276 126.227 158.797 127.085 158.38C138.236 153.024 149.388 147.674 160.54 142.324L160.545 142.321L160.55 142.319L160.555 142.317L160.56 142.314L160.565 142.312L160.57 142.309L160.575 142.307L160.58 142.304L160.585 142.302L160.59 142.3C179.663 133.15 198.735 124 217.797 114.825L219.58 113.965L219.703 113.906L219.96 113.783L220.087 113.722L220.477 113.537L220.477 113.537L220.479 113.536C221.046 113.265 221.61 112.997 222.175 112.723C222.199 112.712 222.223 112.701 222.247 112.689C222.266 112.68 222.284 112.671 222.302 112.662L222.34 112.643L222.374 112.626C222.391 112.617 222.409 112.609 222.426 112.601C222.453 112.587 222.48 112.575 222.507 112.563L257.466 95.6673C259.161 94.9938 260.651 94.2225 262.12 93.4622C263.038 92.9872 263.947 92.5165 264.893 92.0768C266.877 87.657 268.871 83.2165 270.871 78.763L270.938 78.6144L270.94 78.6085L270.977 78.5274C274.272 71.1886 277.584 63.815 280.891 56.4413C283.312 51.0461 285.729 45.6499 288.147 40.2538L288.148 40.251L288.153 40.2406C294.01 27.1686 299.867 14.0977 305.767 1.0453C305.914 0.725724 306.037 0.369293 306.16 0.0128428L306.16 0.0128099L306.16 0.01276L306.16 0.0126842L306.16 0.0125686L306.16 0.0123939L309.369 0.0123937C309.025 0.934636 308.681 1.80769 308.3 2.65616C301.739 17.3016 295.173 31.944 288.606 46.5863C282.04 61.2282 275.474 75.8701 268.914 90.5151C268.554 91.3276 268.315 92.1838 268.072 93.0529L268.028 93.208L250.764 102.32C211.587 121.17 172.423 140.021 133.258 158.909C132.221 159.411 131.242 160.042 130.087 160.786L130.086 160.786C129.489 161.172 128.843 161.588 128.118 162.032C152.32 190.292 176.427 218.142 200.482 245.931C224.606 273.8 248.676 301.607 272.738 329.708C272.327 335.825 271.929 342.062 271.53 348.305L271.529 348.313L271.529 348.317C270.878 358.512 270.225 368.723 269.516 378.451C268.77 388.699 267.983 398.94 267.197 409.18C266.48 418.513 265.763 427.845 265.077 437.18C264.523 444.701 264.016 452.229 263.51 459.759C263.082 466.103 262.655 472.449 262.2 478.791C261.942 482.349 261.6 485.906 261.258 489.471L261.258 489.471L261.257 489.472C261.093 491.181 260.929 492.891 260.773 494.605C259.283 495.39 257.805 496.17 256.336 496.945ZM267.782 339.656C261.437 332.18 255.111 324.722 248.794 317.277L248.788 317.27L248.604 317.053L248.492 316.92C237.809 304.328 227.156 291.771 216.493 279.218C209.644 271.16 202.782 263.109 195.92 255.058L195.859 254.987L195.809 254.928L195.746 254.854L195.727 254.832L195.69 254.789L195.681 254.777L195.68 254.777L195.68 254.777L195.68 254.777L195.68 254.777L195.68 254.777L195.68 254.777L195.68 254.776L195.679 254.776L195.679 254.776L195.679 254.776L195.679 254.776C185.375 242.686 175.069 230.595 164.799 218.473C159.059 211.704 153.294 204.955 147.515 198.189C136.171 184.908 124.771 171.562 113.399 157.876C114.224 157.476 114.954 157.113 115.623 156.781L115.626 156.78C116.911 156.142 117.972 155.615 119.055 155.146C151.457 141.128 254.17 95.9256 254.17 95.9256C259.3 85.466 264.443 74.9986 269.576 64.5513L269.621 64.4588L269.629 64.4426L269.658 64.3839L269.658 64.3834C280.284 42.7571 290.867 21.2176 301.204 0.0123937L297.811 0.0123939C297.638 0.49196 297.466 0.959227 297.269 1.36501C287.736 20.5707 278.283 39.8165 268.832 59.0571L268.791 59.1407C266.541 63.7216 264.291 68.3021 262.04 72.8818C259.806 77.4194 257.568 81.957 255.346 86.4599L255.285 86.5844L255.246 86.6621C254.004 89.1809 252.766 91.6887 251.539 94.1795C249.141 95.2493 201.516 116.006 201.516 116.006C201.487 116.02 201.459 116.037 201.429 116.053C201.383 116.079 201.335 116.106 201.283 116.129C199.045 117.1 196.807 118.072 194.569 119.031L191.654 120.31L191.654 120.297C182.67 124.193 173.647 128.001 164.624 131.809L164.624 131.81L164.624 131.81L164.624 131.81L164.624 131.81L164.624 131.81L164.624 131.81L164.624 131.81L164.623 131.81L164.623 131.81L164.623 131.81L164.623 131.81C147.304 139.119 129.986 146.428 112.944 154.359C111.858 154.869 110.78 155.408 109.486 156.053L109.48 156.056C109.061 156.265 108.62 156.486 108.148 156.72L112.84 162.234C163.114 221.331 213.132 280.127 263.22 338.992L264.684 340.59L262.175 361.654L262.14 361.953C257.123 404.916 252.105 447.879 247.075 490.977C244.902 492.049 242.748 493.113 240.609 494.17L240.6 494.174C233.587 497.638 226.726 501.027 219.85 504.38C200.299 513.935 180.741 523.48 161.183 533.025C141.626 542.571 122.068 552.116 102.517 561.67C84.1001 570.668 65.6917 579.686 47.2844 588.704L47.1529 588.768L47.0561 588.815L46.9595 588.863L46.8631 588.91L46.7669 588.957L46.7313 588.974L46.6957 588.992L46.6601 589.009L46.6246 589.027C32.9525 595.724 19.281 602.422 5.60736 609.11C4.25253 609.774 2.87075 610.384 1.487 610.995L1.06378 611.182C0.878811 611.264 0.693844 611.346 0.508968 611.428C0.402584 611.475 0.29623 611.522 0.189877 611.57L0.0247155 611.643L0.0247156 615.332L1.19 614.763C83.9755 574.275 166.763 533.788 249.879 493.129C252.657 469.327 255.433 445.524 258.211 421.701L258.264 421.246L258.27 421.19C261.436 394.048 264.604 366.879 267.782 339.656ZM219 500.753L219.02 500.744C223.933 498.48 228.847 496.215 233.758 493.941C234.917 493.408 236.052 492.822 237.251 492.203L237.258 492.199C237.774 491.933 238.302 491.66 238.849 491.383C244.558 457.129 250.267 422.906 255.969 388.721L260.232 363.167L262.175 347.378C208.611 284.051 155.06 220.723 101.533 157.372C100.874 156.587 100.047 155.563 99.1105 154.405L98.6062 153.781C99.6913 153.314 100.894 152.872 102 152.465C102.611 152.241 103.193 152.027 103.709 151.826C132.569 140.697 244.284 93.8598 244.284 93.8598C260.436 63.1799 274.31 35.803 289.386 6.05564L289.387 6.05502C290.402 4.05213 291.422 2.0385 292.449 0.0123937L289.584 0.0123939C289.442 0.288429 289.294 0.564462 289.148 0.836625L289.147 0.838303L289.147 0.839615L289.146 0.841306L289.138 0.855369C289.073 0.97697 289.008 1.09778 288.945 1.21745C277.489 22.6784 266.046 44.1393 254.602 65.6002L254.588 65.6269C251.869 70.7245 250.089 74.3949 248.299 78.0895C246.478 81.8456 244.645 85.6267 241.8 90.9578C227.811 96.3431 187.686 113.194 151.925 128.213L151.916 128.217L151.915 128.217L151.915 128.218C126.602 138.848 103.477 148.56 93.3556 152.637C107.134 168.932 120.878 185.186 134.595 201.409C176.374 250.817 217.912 299.942 259.458 349.087C257.799 359.042 256.143 368.979 254.49 378.901L254.243 380.38C248.16 416.885 242.112 453.177 236.094 489.342C235.053 489.841 234.087 490.309 233.169 490.754L233.159 490.759C231.437 491.594 229.885 492.346 228.323 493.068C216.674 498.452 205.026 503.83 193.379 509.208L193.378 509.208L193.377 509.209L193.376 509.209L193.375 509.209L193.374 509.21L193.374 509.21L193.373 509.21L193.372 509.211L193.371 509.211L193.37 509.212L193.191 509.294C175.773 517.337 158.356 525.378 140.943 533.437C124.519 541.035 108.096 548.641 91.6736 556.246C66.1814 568.052 40.6884 579.858 15.1864 591.637C11.7931 593.2 8.34866 594.644 4.90332 596.088C3.27969 596.768 1.65585 597.449 0.037044 598.142L0.0370441 601.831C3.92965 600.063 7.82705 598.303 11.7251 596.542C20.301 592.668 28.8801 588.793 37.4186 584.837C74.4815 567.686 111.544 550.514 148.607 533.341C167.162 524.744 185.716 516.147 204.271 507.553C209.162 505.288 214.057 503.032 218.952 500.776L218.961 500.771L218.971 500.767L218.981 500.762L219 500.753Z" fill="url(#paint0_linear_54_76)"/>
<defs>
<linearGradient id="paint0_linear_54_76" x1="430.601" y1="24.1811" x2="64.2731" y2="690.185" gradientUnits="userSpaceOnUse">
<stop stop-color="#0BBD25"/>
<stop offset="1" stop-color="#0BBD25" stop-opacity="0"/>
</linearGradient>
</defs>
</svg>
