<svg width="508" height="293" viewBox="0 0 508 293" fill="none" xmlns="http://www.w3.org/2000/svg">
<path d="M507 73L407.462 82.5773L368.896 245.391L284.417 192.347L1 291.5" stroke="url(#paint0_linear_88_743)" stroke-width="2"/>
<path fill-rule="evenodd" clip-rule="evenodd" d="M373.086 0.703613H373.9H506.424V2.70361H374.714L342.574 157.925L342.272 159.387L341.035 158.55L264.327 106.681L24.7691 173.463L24.232 171.537L264.235 104.63L264.681 104.506L265.064 104.765L340.919 156.057L372.921 1.50085L373.086 0.703613ZM375.656 8.77986H376.47H506.424V10.7799H377.284L345.144 166.001L344.841 167.463L343.605 166.627L266.901 114.76L21.2769 185.461L20.7237 183.539L266.797 112.709L267.246 112.579L267.634 112.841L343.488 164.134L375.491 9.5771L375.656 8.77986ZM379.04 16.8561H378.225L378.06 17.6533L346.058 172.21L270.203 120.918L269.812 120.653L269.36 120.787L18.2169 195.041L18.7839 196.959L269.474 122.839L346.174 174.703L347.411 175.539L347.714 174.077L379.854 18.8561H506.424V16.8561H379.04ZM380.795 24.9324H381.609H506.424V26.9324H382.423L350.284 182.154L349.981 183.615L348.744 182.779L272.051 130.92L16.2971 210.455L15.7032 208.545L271.916 128.867L272.375 128.725L272.773 128.994L348.628 180.286L380.63 25.7296L380.795 24.9324ZM384.179 33.0086H383.365L383.2 33.8058L351.198 188.362L275.343 137.07L274.935 136.794L274.467 136.949L12.185 224.051L12.8153 225.949L274.63 139.003L351.314 190.855L352.551 191.692L352.853 190.23L384.993 35.0086H506.424V33.0086H384.179ZM385.935 41.0848H386.749H506.424V43.0848H387.563L355.423 198.306L355.12 199.768L353.884 198.932L277.209 147.085L9.33086 240.944L8.66952 239.056L277.022 145.031L277.496 144.865L277.912 145.146L353.767 196.439L385.77 41.8821L385.935 41.0848ZM389.318 49.1611H388.504L388.339 49.9583L356.337 204.515L280.482 153.223L280.059 152.937L279.58 153.111L6.65782 252.56L7.34255 254.439L279.785 155.165L356.453 207.008L357.69 207.844L357.993 206.382L390.133 51.1611H506.424V49.1611H389.318ZM391.074 57.2373H391.888H506.424V59.2373H392.702L360.562 214.459L360.26 215.92L359.023 215.084L282.361 163.246L4.85464 268.435L4.14576 266.565L282.137 161.192L282.622 161.008L283.052 161.299L358.907 212.591L390.909 58.0346L391.074 57.2373ZM506.387 63.4788L397.725 67.5169L396.946 67.5458L396.784 68.3076L362.944 226.954L284.866 177.07L284.447 176.803L283.981 176.974L3.1543 280.562L3.84644 282.438L284.207 179.023L363.083 229.415L364.298 230.192L364.599 228.781L398.577 69.4866L506.461 65.4774L506.387 63.4788Z" fill="url(#paint1_linear_88_743)"/>
<defs>
<linearGradient id="paint0_linear_88_743" x1="507.367" y1="78.1569" x2="-36.8108" y2="223.245" gradientUnits="userSpaceOnUse">
<stop offset="0.015625" stop-color="#0BBD25" stop-opacity="0"/>
<stop offset="0.192708" stop-color="#0BBD25"/>
<stop offset="1" stop-color="#0BBD25" stop-opacity="0"/>
</linearGradient>
<linearGradient id="paint1_linear_88_743" x1="506.69" y1="32.6506" x2="65.1404" y2="164.008" gradientUnits="userSpaceOnUse">
<stop offset="0.0677083" stop-color="#333131" stop-opacity="0"/>
<stop offset="0.1875" stop-color="#333131"/>
<stop offset="1" stop-color="#655D5D" stop-opacity="0"/>
</linearGradient>
</defs>
</svg>
