<svg width="266" height="292" viewBox="0 0 266 292" fill="none" xmlns="http://www.w3.org/2000/svg">
<path d="M507 72.2964L407.462 81.8737L368.896 244.687L284.417 191.644L1 290.796" stroke="url(#paint0_linear_2665_1077)" stroke-width="2"/>
<path fill-rule="evenodd" clip-rule="evenodd" d="M373.086 0H373.9H506.424V2H374.714L342.574 157.221L342.272 158.683L341.035 157.847L264.327 105.977L24.7691 172.76L24.232 170.833L264.235 103.927L264.681 103.802L265.064 104.062L340.919 155.354L372.921 0.797242L373.086 0ZM375.656 8.07625H376.47H506.424V10.0762H377.284L345.144 165.297L344.841 166.759L343.605 165.923L266.901 114.057L21.2769 184.757L20.7237 182.835L266.797 112.005L267.246 111.876L267.634 112.138L343.488 163.43L375.491 8.87349L375.656 8.07625ZM379.04 16.1525H378.225L378.06 16.9497L346.058 171.506L270.203 120.214L269.812 119.95L269.36 120.083L18.2169 194.337L18.7839 196.255L269.474 122.135L346.174 173.999L347.411 174.836L347.714 173.374L379.854 18.1525H506.424V16.1525H379.04ZM380.795 24.2287H381.609H506.424V26.2287H382.423L350.284 181.45L349.981 182.912L348.744 182.076L272.051 130.216L16.2971 209.751L15.7032 207.841L271.916 128.164L272.375 128.021L272.773 128.29L348.628 179.583L380.63 25.026L380.795 24.2287ZM384.179 32.305H383.365L383.2 33.1022L351.198 187.659L275.343 136.367L274.935 136.091L274.467 136.246L12.185 223.347L12.8153 225.245L274.63 138.299L351.314 190.152L352.551 190.988L352.853 189.526L384.993 34.305H506.424V32.305H384.179ZM385.935 40.3812H386.749H506.424V42.3812H387.563L355.423 197.602L355.12 199.064L353.884 198.228L277.209 146.381L9.33086 240.24L8.66952 238.353L277.022 144.327L277.496 144.161L277.912 144.443L353.767 195.735L385.77 41.1785L385.935 40.3812ZM389.318 48.4575H388.504L388.339 49.2547L356.337 203.811L280.482 152.519L280.059 152.233L279.58 152.408L6.65782 251.857L7.34255 253.736L279.785 154.462L356.453 206.304L357.69 207.141L357.993 205.679L390.133 50.4575H506.424V48.4575H389.318ZM391.074 56.5337H391.888H506.424V58.5337H392.702L360.562 213.755L360.26 215.217L359.023 214.381L282.361 162.543L4.85464 267.731L4.14576 265.861L282.137 160.489L282.622 160.305L283.052 160.595L358.907 211.888L390.909 57.331L391.074 56.5337ZM506.387 62.7752L397.725 66.8133L396.946 66.8422L396.784 67.604L362.944 226.25L284.866 176.366L284.447 176.099L283.981 176.271L3.1543 279.858L3.84644 281.735L284.207 178.319L363.083 228.712L364.298 229.488L364.599 228.078L398.577 68.783L506.461 64.7738L506.387 62.7752Z" fill="url(#paint1_linear_2665_1077)"/>
<defs>
<linearGradient id="paint0_linear_2665_1077" x1="507.367" y1="77.4533" x2="-36.8108" y2="222.542" gradientUnits="userSpaceOnUse">
<stop offset="0.015625" stop-color="#0BBD25" stop-opacity="0"/>
<stop offset="0.192708" stop-color="#0BBD25"/>
<stop offset="1" stop-color="#0BBD25" stop-opacity="0"/>
</linearGradient>
<linearGradient id="paint1_linear_2665_1077" x1="506.69" y1="31.947" x2="65.1404" y2="163.304" gradientUnits="userSpaceOnUse">
<stop offset="0.0677083" stop-color="#333131" stop-opacity="0"/>
<stop offset="0.1875" stop-color="#333131"/>
<stop offset="1" stop-color="#655D5D" stop-opacity="0"/>
</linearGradient>
</defs>
</svg>
