<svg width="375" height="227" viewBox="0 0 375 227" fill="none" xmlns="http://www.w3.org/2000/svg">
<path fill-rule="evenodd" clip-rule="evenodd" d="M42.6229 0H41.8187H-0.33725V2H41.0145L71.7304 141.864L71.903 142.649H72.7072H195.349L245.4 179.559L246.075 180.057L246.683 179.479L376.648 55.7304L375.268 54.282L245.911 177.451L196.272 140.844L196.007 140.649H195.678H73.5114L42.7954 0.785498L42.6229 0ZM34.2936 20.9822L0.1026 19.2338L0.000457764 21.2311L33.4298 22.9406L64.3486 163.428L64.5261 164.235L65.3517 164.213L189.587 160.918L246.647 194.96L247.293 195.346L247.843 194.831L385.967 65.4494L384.599 63.9898L247.025 192.857L190.363 159.052L190.114 158.903L189.824 158.911L66.1244 162.191L35.2191 21.7659L35.0552 21.0211L34.2936 20.9822ZM23.9895 34.5796H23.1693H0.0515137V36.5796H22.3491L51.7172 183.807L51.891 184.678L52.7766 184.608L187.862 173.948L247.617 209.724L248.25 210.103L248.799 209.61L396.442 76.9251L395.105 75.4376L248.011 207.629L188.616 172.068L188.342 171.904L188.023 171.929L53.5048 182.544L24.15 35.3839L23.9895 34.5796ZM20.4496 39.6305H21.269L21.4301 40.4339L50.9777 187.786L187.63 176.398L187.953 176.371L188.23 176.538L248.209 212.679L398.021 78.7384L399.354 80.2294L248.991 214.662L248.441 215.154L247.809 214.773L187.474 178.418L50.2555 189.853L49.3672 189.927L49.192 189.053L19.6302 41.6305H0.0515442V39.6305H20.4496ZM16.4154 45.07H15.5928H0.0514526V47.07H14.7703L43.7516 194.489L43.9232 195.361L44.8101 195.293L187.477 184.244L247.817 219.829L248.442 220.198L248.986 219.717L402.652 84.119L401.328 82.6194L248.207 217.737L188.221 182.361L187.95 182.201L187.636 182.225L45.5425 193.23L16.574 45.8771L16.4154 45.07ZM11.319 49.5381H12.1534L12.3029 50.359L39.3396 198.868L188.225 188.247L188.539 188.225L188.809 188.386L248.018 223.758L405.216 85.726L406.535 87.2289L248.79 225.741L248.243 226.222L247.618 225.848L188.054 190.265L38.5876 200.927L37.6932 200.991L37.5326 200.109L10.4846 51.5381H0.0515442V49.5381H11.319ZM40.2646 4.8567H41.0688L41.2414 5.64219L71.9573 145.506H194.124H194.433L194.688 145.68L246.084 180.775L377.017 56.2244L378.396 57.6735L246.877 182.781L246.291 183.339L245.624 182.883L193.815 147.506H71.1531H70.3489L70.1764 146.721L39.4604 6.8567H-1.8913V4.8567H40.2646ZM39.5146 9.71331H38.7104H-3.44553V11.7133H37.9062L68.6221 151.577L68.7946 152.363H69.5989H192.282L245.85 186.012L246.509 186.426L247.072 185.889L379.95 59.2268L378.571 57.7792L246.255 183.904L193.102 150.516L192.858 150.363H192.57H70.4031L39.6871 10.4988L39.5146 9.71331ZM37.1563 14.57H37.9606L38.1331 15.3555L68.849 155.219H191.016H191.287L191.521 155.356L246.624 187.612L380.123 59.7236L381.506 61.1678L247.462 189.578L246.917 190.101L246.265 189.719L190.745 157.219H68.0448H67.2406L67.0681 156.434L36.3521 16.57H-4.9996V14.57H37.1563ZM30.9832 25.45L-0.293793 24.0901L-0.380676 26.0882L30.1254 27.4146L61.045 170.418L61.224 171.246L62.0699 171.205L188.626 165.197L247.231 200.012L247.871 200.392L248.419 199.888L390.04 69.535L388.685 68.0635L247.612 197.912L189.39 163.325L189.131 163.171L188.831 163.185L62.8209 169.168L31.9171 26.2377L31.7541 25.4835L30.9832 25.45ZM-0.274628 28.1707L27.6998 29.9191L28.4634 29.9668L28.617 30.7163L58.3594 175.758L188.621 167.46L188.931 167.44L189.197 167.599L247.813 202.577L391.994 71.9435L393.337 73.4256L248.608 204.556L248.059 205.053L247.424 204.674L188.439 169.476L57.6181 177.81L56.7497 177.865L56.575 177.013L26.8115 31.8675L-0.399384 30.1668L-0.274628 28.1707Z" fill="url(#paint0_linear_1345_1525)"/>
<defs>
<linearGradient id="paint0_linear_1345_1525" x1="-4.99951" y1="44.5" x2="336.042" y2="81.112" gradientUnits="userSpaceOnUse">
<stop stop-color="#0BBD25"/>
<stop offset="1" stop-color="#0BBD25" stop-opacity="0"/>
</linearGradient>
</defs>
</svg>
