<svg width="375" height="233" viewBox="0 0 375 233" fill="none" xmlns="http://www.w3.org/2000/svg">
<path fill-rule="evenodd" clip-rule="evenodd" d="M-29.7787 163.175C-37.1183 172.582 -44.4649 181.989 -51.8257 191.382C-52.2486 191.927 -52.743 192.416 -53.2368 192.904C-53.4898 193.155 -53.7426 193.405 -53.9857 193.662V196.497C-53.7453 196.255 -53.4951 196.02 -53.2446 195.784C-52.7325 195.304 -52.2197 194.822 -51.7902 194.273C-36.596 174.818 -21.4095 155.354 -6.2229 135.891C3.88596 122.936 13.9948 109.98 24.1059 97.0265C40.0358 76.6053 55.9799 56.1937 71.9228 35.7838C75.3997 31.3327 78.8765 26.8817 82.3531 22.4306C82.7452 21.9272 83.167 21.4502 83.6409 20.9141C83.8626 20.6634 84.0957 20.3997 84.3425 20.1144C85.4699 20.3054 86.5985 20.494 87.7276 20.6827C90.4198 21.1325 93.1149 21.5827 95.8029 22.0683C104.949 23.7131 114.094 25.3653 123.237 27.0174C131.986 28.5981 140.734 30.1787 149.482 31.7525C170.392 35.5181 191.309 39.2767 212.226 43.0282C218.762 44.1998 222.082 44.7388 228.329 45.7528L229.271 45.9057C230.117 46.0407 235.197 46.8578 235.197 46.8578C235.197 46.8578 236.767 48.5204 237.542 49.3872C243.149 55.6539 248.808 61.8696 254.465 68.0836C256.126 69.9083 257.787 71.7329 259.446 73.5586C259.992 74.1573 260.551 74.7477 261.182 75.4145C261.555 75.8079 261.953 76.2279 262.388 76.6919C275.115 64.1323 287.884 51.6364 300.665 39.1284C313.292 26.7718 325.93 14.4033 338.553 1.94986C344.403 1.98417 350.902 1.98417 357.645 1.98417C364.389 1.98417 371.376 1.98417 378.2 2.01848V1.84445e-05L371.701 0L347.652 1.10064e-05L337.68 6.66745e-06C312.67 24.6403 287.689 49.2522 262.423 74.1412C257.745 69.0173 253.134 63.9655 248.532 58.9231C244.468 54.4703 240.411 50.0248 236.319 45.5434C213.422 41.4382 190.501 37.3301 167.554 33.2171C139.625 28.2113 111.655 23.1984 83.6391 18.1747C83.1629 18.7568 82.6963 19.3217 82.2381 19.8763C81.2199 21.1091 80.2437 22.2909 79.2979 23.4964L79.2585 23.5468C58.9725 49.499 38.6866 75.4511 18.4148 101.417C8.30551 114.36 -1.79813 127.311 -11.9015 140.262C-17.8603 147.9 -23.819 155.538 -29.7787 163.175ZM-51.7548 205.037C-47.7729 199.798 -43.8158 194.542 -39.8584 189.285L-39.7985 189.205C-38.1621 187.031 -36.5257 184.857 -34.8874 182.685C-16.4001 158.144 2.08728 133.603 20.5817 109.069C31.7007 94.3194 42.8249 79.572 53.9496 64.824L54.0335 64.7127C61.1005 55.344 68.1677 45.9751 75.2338 36.6051C77.1177 34.1052 79.0074 31.6109 80.9459 29.0522L80.9557 29.0391C82.0773 27.5587 83.2152 26.0567 84.378 24.5194L135.478 32.8564L136.099 32.9577C167.927 38.1506 199.711 43.3363 231.445 48.5132C234.206 51.3535 236.957 54.1834 239.703 57.009L239.954 57.2672L239.958 57.2716C248.165 65.7162 256.337 74.1249 264.647 82.6671C276.795 69.9669 288.833 57.3005 300.822 44.687L300.822 44.6868L300.825 44.6835C312.564 32.3323 324.255 20.0316 335.953 7.79932C337.478 7.79932 339.002 7.79371 340.514 7.78814H340.514H340.514C343.507 7.77713 346.455 7.76628 349.277 7.79932C355.469 7.87466 361.304 7.85014 367.279 7.82503C370.32 7.81225 373.397 7.79932 376.575 7.79932C376.802 7.80437 377.348 7.80224 377.772 7.80059C377.945 7.79991 378.097 7.79932 378.2 7.79932V9.4242C377.976 9.43915 377.581 9.43314 377.257 9.42821C377.119 9.42611 376.994 9.4242 376.9 9.4242C368.621 9.3721 360.404 9.38947 352.187 9.40683H352.186C348.078 9.41552 343.969 9.4242 339.853 9.4242C338.631 9.40289 336.928 9.4242 336.928 9.4242C336.928 9.4242 335.385 11.0695 334.724 11.8014C332.251 14.5518 329.686 17.2195 327.121 19.8865C326.327 20.7124 325.533 21.5383 324.742 22.3666C305.388 42.6231 286.95 61.9133 267.582 82.1556C267.28 82.4708 266.914 82.8951 266.493 83.383L266.493 83.3834C266.041 83.9071 265.526 84.5042 264.96 85.1184C263.869 84.1173 262.235 82.4117 261.244 81.3773L261.159 81.2887C256.981 76.944 252.826 72.7503 248.672 68.5566L248.67 68.5551C244.516 64.3618 240.362 60.1685 236.184 55.8243C233.122 52.6412 230.081 49.9626 230.081 49.9626C230.081 49.9626 226.259 49.38 222.649 48.8116C213.026 47.31 203.411 45.7295 193.798 44.1493L193.798 44.1492C191.175 43.7181 188.553 43.287 185.93 42.8575C179.81 41.8558 173.692 40.8433 167.575 39.8309C161.457 38.8184 155.34 37.8059 149.219 36.804C133.836 34.2888 118.454 31.7879 103.064 29.2869C99.1969 28.6609 95.3264 28.0439 91.451 27.4262C89.3885 27.0975 87.3246 26.7685 85.259 26.4378C85.0161 26.7335 84.7839 27.0097 84.5611 27.2747C84.1255 27.7927 83.7262 28.2676 83.3548 28.7611C81.8261 30.7865 80.297 32.8118 78.7679 34.8372C73.0339 42.4324 67.2993 50.0284 61.5779 57.6289C55.6506 65.4988 49.7256 73.3709 43.8001 81.2434L43.752 81.3073C34.4151 93.7123 25.0773 106.118 15.7289 118.519C-2.05499 142.115 -19.8389 165.704 -37.6442 189.278C-41.2346 194.034 -44.8657 198.762 -48.4959 203.488L-48.4969 203.489C-50.3333 205.88 -52.1695 208.271 -54 210.665V207.119C-53.7739 206.916 -53.5377 206.721 -53.3014 206.526L-53.3012 206.525C-52.743 206.064 -52.1841 205.601 -51.7548 205.037ZM53.8154 74.0771C43.9856 87.5998 34.1557 101.122 24.3188 114.64C8.91745 135.808 -6.49939 156.965 -21.9203 178.127L-22.1908 178.498C-27.5595 185.866 -32.9288 193.234 -38.298 200.604C-41.8127 205.426 -45.3435 210.238 -48.8752 215.051L-48.8888 215.07L-48.8906 215.072C-50.5941 217.394 -52.2979 219.716 -54.0002 222.04V224.875C-53.2804 223.947 -52.5525 223.026 -51.8248 222.105L-51.8227 222.102C-50.2885 220.161 -48.755 218.22 -47.3 216.221C-32.8808 196.398 -18.4767 176.568 -4.07108 156.736L-4.04993 156.706L-3.80228 156.365C1.4216 149.174 6.64569 141.982 11.8708 134.79C28.7381 111.563 45.6126 88.337 62.4942 65.1177C69.9887 54.8057 77.4973 44.5078 85.006 34.21L85.0314 34.1752C85.1996 33.9466 85.3862 33.7337 85.6355 33.4491L85.6358 33.4488L85.6396 33.4445C85.8001 33.2613 85.9866 33.0484 86.2109 32.7826C132.514 39.5253 178.989 46.2964 225.633 53.0959C239.318 66.5387 253.037 80.024 266.921 93.6728C268.126 92.3473 269.308 91.0536 270.474 89.7781C272.475 87.5873 274.428 85.4505 276.363 83.2995C280.562 78.6353 284.764 73.9744 288.966 69.3136L288.966 69.3132L288.967 69.3127C303.36 53.3484 317.752 37.3849 331.996 21.2937C333.189 19.9509 335.825 17.2438 335.825 17.2438C335.825 17.2438 339.414 16.9881 341.737 16.9312C350.308 16.4473 359.001 16.0843 367.626 15.7241L367.626 15.7241L367.626 15.7241L367.626 15.7241L367.627 15.724C371.167 15.5762 374.696 15.4288 378.2 15.2738L378.186 13.6489C375.87 13.8276 373.845 13.9081 371.572 13.9983L371.572 13.9983L371.571 13.9983L371.571 13.9983L371.571 13.9984C369.712 14.0722 367.687 14.1526 365.201 14.2988C362.56 14.4542 360.439 14.5353 358.241 14.6193L358.241 14.6193L358.241 14.6193H358.241C355.841 14.7111 353.348 14.8064 349.986 15.0057C345.692 15.2604 342.62 15.3839 339.549 15.5074L339.549 15.5074L339.549 15.5074L339.548 15.5075L339.548 15.5075C338.012 15.5692 336.477 15.631 334.788 15.7091C316.306 36.2393 297.91 56.6795 279.382 77.2657L279.278 77.381L279.248 77.4145L266.885 91.1505C253.929 78.4167 241.222 65.9261 228.534 53.4539L226.5 51.4546C182.288 45.0205 138.177 38.5988 94.0308 32.1721L93.8572 32.1468L93.7667 32.1336L85.4862 30.9282C85.1991 31.2687 84.9254 31.581 84.665 31.878C84.1649 32.4486 83.7139 32.9631 83.312 33.5144C73.4751 47.0318 63.6453 60.5544 53.8154 74.0771ZM3.97729 154.414C11.5583 143.603 19.1394 132.791 26.7206 121.978L26.7226 121.976L26.7245 121.973L26.7264 121.97C45.056 95.829 63.3866 69.6861 81.7207 43.5469C82.7119 42.1336 83.7252 40.7362 84.7332 39.3462L84.7351 39.3436L84.7365 39.3417C85.2376 38.6507 85.7374 37.9615 86.2325 37.2731C87.4501 37.4303 88.6608 37.5867 89.8659 37.7425L89.8706 37.7431C95.3653 38.4532 100.742 39.148 106.119 39.8238C110.073 40.3197 114.029 40.8065 117.985 41.2933L117.985 41.2933L117.985 41.2934L117.985 41.2934C122.588 41.8597 127.19 42.4261 131.79 43.0069C135.737 43.5057 139.68 44.0189 143.624 44.5321C147.993 45.1008 152.363 45.6694 156.736 46.2184C161.512 46.8175 166.288 47.4022 171.064 47.9869C176.37 48.6366 181.676 49.2863 186.982 49.9556C191.086 50.4724 195.189 51.005 199.291 51.5376C205.848 52.3889 212.404 53.2401 218.969 54.0268C219.907 54.1405 221.655 54.3323 221.655 54.3323C221.655 54.3323 222.72 55.5047 223.31 56.066C237.59 69.6826 251.891 83.2642 266.2 96.8525L266.48 97.1189C267.026 97.637 267.612 98.1091 268.246 98.6198L268.246 98.6199C268.577 98.8866 268.922 99.1638 269.28 99.4636C290.744 74.0488 312.002 48.8757 333.382 23.5533C348.259 21.9475 363.166 20.4128 378.193 18.9563V20.5691C376.191 20.777 374.189 20.9851 372.187 21.1932C360.57 22.401 348.956 23.6085 337.332 24.754C336.06 24.8819 333.936 25.1164 333.936 25.1164C333.936 25.1164 332.671 26.6368 332.174 27.2266C331.129 28.4455 330.175 29.7055 329.215 30.9721C328.3 32.1787 327.381 33.3913 326.376 34.5803L279.291 90.4047C277.134 92.9601 274.962 95.5032 272.737 98.1074L272.737 98.1079L272.736 98.1084L272.736 98.1089L272.729 98.1168C271.585 99.4557 270.428 100.811 269.251 102.192C252.881 86.6319 236.71 71.2637 220.717 56.066C175.976 50.3961 131.591 44.7689 87.2271 39.1417C87.0006 39.4154 86.7875 39.664 86.5866 39.8982L86.5816 39.904L86.5809 39.9048L86.5806 39.9052C86.179 40.3734 85.8265 40.7843 85.5148 41.2235C63.6668 72.3792 41.833 103.535 19.9992 134.698C16.3372 139.924 12.6749 145.15 9.0126 150.377L8.88791 150.555L8.76184 150.735C-7.70068 174.229 -24.1644 197.725 -40.614 221.23C-42.3926 223.771 -44.1098 226.354 -45.8288 228.939L-45.836 228.95C-46.6622 230.193 -47.4888 231.436 -48.3229 232.676H-50.4545C-50.2177 232.271 -49.9911 231.859 -49.7645 231.447L-49.764 231.446C-49.311 230.622 -48.858 229.798 -48.3229 229.031C-33.5999 208.006 -18.8717 187.001 -4.14282 165.995L3.97729 154.414ZM66.3065 74.3741C56.6208 88.7478 46.9352 103.122 37.2432 117.489C26.0946 134.018 14.9438 150.545 3.79443 167.07L3.77145 167.104L3.74847 167.138L3.72549 167.172C-5.12555 180.29 -13.9756 193.407 -22.823 206.522C-26.4637 211.917 -30.1125 217.307 -33.7611 222.696L-33.7646 222.701L-33.768 222.707L-33.7715 222.712C-36.0152 226.026 -38.2588 229.34 -40.5003 232.655H-37.6583C-37.5333 232.384 -37.4204 232.105 -37.3074 231.826L-37.3073 231.825C-37.0737 231.248 -36.8402 230.671 -36.5002 230.168C-25.2832 213.505 -14.0537 196.846 -2.82364 180.187L-2.76569 180.101L-2.68805 179.986C4.9938 168.59 12.6758 157.194 20.3544 145.796C29.1051 132.802 37.8511 119.805 46.5978 106.808L46.6143 106.783C53.1666 97.0468 59.7192 87.3098 66.2744 77.5729C72.9389 67.6684 79.6105 57.7782 86.2893 47.888C86.6564 47.3449 87.0662 46.8267 87.5061 46.2704L87.5066 46.2699C87.6881 46.0404 87.8747 45.8044 88.0656 45.5575C88.8446 45.6243 89.6169 45.686 90.3844 45.7472L90.3848 45.7472C91.9831 45.8747 93.5607 46.0005 95.1351 46.1685C100.895 46.7891 106.654 47.4186 112.414 48.0482L112.421 48.049L112.421 48.049L112.423 48.0492L112.426 48.0495C121.105 48.9982 129.784 49.947 138.469 50.865C146.348 51.699 154.232 52.5061 162.115 53.3131C168.804 53.9978 175.493 54.6826 182.179 55.3838C186.776 55.8627 190.503 56.2623 194.117 56.6498L194.119 56.65L194.126 56.6508L194.131 56.6513L194.133 56.6516L194.134 56.6517C198.825 57.1547 203.327 57.6375 209.299 58.2471C209.974 58.3182 215.111 58.7018 215.111 58.7018C215.111 58.7018 217.164 60.2365 217.846 60.8689C226.5 68.9118 235.161 76.9547 243.83 84.9905C252.58 93.1019 261.345 101.199 270.11 109.296L270.117 109.303L270.118 109.303L270.118 109.304C270.382 109.549 270.669 109.772 271.022 110.045C271.22 110.199 271.44 110.369 271.688 110.569C283.864 95.1526 296.008 79.7741 308.138 64.4123L308.271 64.2435C316.525 53.7913 324.772 43.3468 333.019 32.9034C335.177 32.5653 337.321 32.2287 339.456 31.8934C344.142 31.1576 348.785 30.4285 353.432 29.7061C355.596 29.37 357.76 29.0375 359.924 28.705L359.925 28.7049L359.925 28.7049C365.812 27.8004 371.699 26.8958 377.575 25.9191C377.706 25.899 377.855 25.886 378.009 25.8725L378.009 25.8725H378.009H378.009H378.009C378.072 25.867 378.136 25.8614 378.2 25.8552V24.086C371.347 25.1573 364.524 26.2244 357.731 27.2867L357.724 27.2878C349.111 28.6349 340.547 29.9743 332.032 31.3048C311.761 56.9611 291.703 82.3546 271.461 107.982C271.074 107.653 270.706 107.347 270.354 107.054L270.354 107.054L270.354 107.054C269.628 106.45 268.969 105.902 268.342 105.318C264.492 101.745 260.639 98.1759 256.786 94.6065C245.207 83.8801 233.626 73.1528 222.138 62.3254C220.177 60.4852 216.34 57.1174 216.34 57.1174C216.34 57.1174 212.113 56.7124 209.782 56.5632C202.058 56.0718 194.36 55.1822 186.664 54.2928C183.677 53.9477 180.691 53.6025 177.703 53.2807C173.003 52.7756 168.305 52.2579 163.607 51.7402L163.606 51.7401L163.604 51.7399L163.603 51.7398L163.601 51.7396C158.322 51.1579 153.043 50.5762 147.762 50.0124C143.706 49.5811 139.646 49.1712 135.586 48.7613L135.584 48.7611C131.886 48.3878 128.188 48.0145 124.493 47.6251C120.617 47.2165 116.742 46.7938 112.866 46.3711C108.99 45.9483 105.114 45.5255 101.238 45.117C98.0971 44.7838 94.956 44.4762 91.7699 44.1641L91.7657 44.1637L91.7635 44.1635C90.1953 44.0099 88.6163 43.8553 87.0211 43.696C86.2039 44.9023 85.3911 46.0977 84.5822 47.2873L84.5798 47.2909C83.3218 49.1411 82.0733 50.9773 80.8326 52.8189C75.9901 60.0034 71.1483 67.1887 66.3065 74.3741ZM4.28452 179.066L4.62701 178.537L4.65906 178.487C13.8747 164.253 23.0908 150.017 32.3122 135.785L32.5254 135.456L32.6297 135.295C49.1639 109.78 65.6981 84.266 82.2393 58.7517C83.4636 56.8629 84.7112 54.9888 85.9503 53.1273L85.9526 53.1239L85.954 53.1218L85.9546 53.121C86.6485 52.0786 87.3398 51.0401 88.0228 50.0054L129.72 53.4792L129.978 53.5008L130.53 53.5467L130.782 53.5677L131.13 53.5968L131.278 53.609C158.204 55.8523 184.999 58.0845 211.672 60.3077C225.516 72.8723 239.224 85.3169 252.967 97.7931L253.178 97.9849L253.208 98.0119L253.298 98.0939L253.334 98.1263L253.507 98.2841L253.833 98.5799L254.691 99.3589L254.766 99.4263C261.034 105.117 267.312 110.816 273.614 116.537L274.884 114.813C293.557 89.4587 312.047 64.3549 330.611 39.156C333.556 38.5347 336.501 37.9121 339.448 37.2893L339.448 37.2892L339.449 37.2891L339.449 37.289L339.45 37.2889L339.45 37.2889C352.273 34.5784 365.124 31.862 378.186 29.216V30.9638C378.091 30.9834 377.996 31 377.903 31.0164C377.793 31.0356 377.686 31.0545 377.582 31.0775C372.326 32.1713 367.068 33.2598 361.811 34.3483L361.81 34.3485L361.808 34.3487L361.807 34.3489L361.805 34.3494L361.805 34.3495C356.545 35.4383 351.286 36.5271 346.028 37.6213C342.803 38.2929 339.584 38.9928 336.398 39.6854L336.397 39.6857C334.797 40.0335 333.206 40.3795 331.627 40.7191L328.716 44.6748L328.682 44.7213L328.668 44.7405C310.383 69.5949 292.197 94.3139 273.941 119.116C273.699 118.919 273.489 118.75 273.301 118.598L273.299 118.597C272.885 118.263 272.578 118.016 272.285 117.752C270.458 116.094 268.63 114.437 266.802 112.779L266.731 112.715C258.953 105.661 251.174 98.606 243.403 91.5415C233.257 82.3191 223.111 73.0968 213.015 63.8247C212.134 63.0147 210.592 61.7642 210.592 61.7642C210.592 61.7642 199.608 61.0466 195.607 60.7198C191.179 60.3554 186.752 59.9819 182.326 59.6083L182.325 59.6083C178.983 59.3262 175.64 59.0441 172.296 58.7659C169.752 58.5556 167.209 58.3498 164.665 58.1441C160.85 57.8354 157.034 57.5268 153.219 57.2028C147.382 56.709 141.548 56.206 135.714 55.7029C131.306 55.3229 126.898 54.9429 122.489 54.5668C121.281 54.464 120.073 54.361 118.865 54.2581L118.816 54.2538L118.766 54.2496L118.715 54.2452L118.663 54.2409L118.661 54.2407C112.172 53.6875 105.681 53.1343 99.1849 52.6058C96.8672 52.4167 94.5496 52.2607 92.1868 52.1017C91.0872 52.0276 89.9779 51.953 88.8542 51.874C88.2685 52.7736 87.6899 53.6602 87.1164 54.5388C86.0548 56.1652 85.0109 57.7645 83.973 59.3698C79.6651 66.0147 75.3572 72.6591 71.0495 79.3032L71.016 79.3549C60.0383 96.2865 49.0616 113.217 38.0886 130.15C16.5106 163.473 -5.06036 196.796 -26.6171 230.133C-26.9569 230.659 -27.1943 231.258 -27.4311 231.855C-27.5359 232.119 -27.6406 232.383 -27.7539 232.641H-29.8854C-29.6704 232.219 -29.4658 231.792 -29.2611 231.365C-28.8099 230.422 -28.3587 229.48 -27.7966 228.605C-24.7609 223.906 -21.7149 219.208 -18.668 214.508L-18.6479 214.477L-18.6223 214.438C-16.6069 211.329 -14.5911 208.219 -12.5775 205.109C-6.97141 196.452 -1.36627 187.794 4.23901 179.136L4.28452 179.066ZM55.6439 109.784L55.5537 109.929L55.2148 110.475C48.5012 121.292 41.7873 132.109 35.069 142.925C27.4574 155.179 19.8431 167.434 12.2284 179.689L12.2108 179.717L12.1931 179.745L12.1754 179.774L12.1577 179.802L12.1401 179.831C2.19928 195.829 -7.74213 211.829 -17.679 227.83C-18.4448 229.058 -19.194 230.294 -19.9424 231.528C-20.1731 231.909 -20.4037 232.289 -20.6346 232.669H-18.5031C-10.851 220.32 -3.19882 207.972 4.46042 195.623C18.7202 172.631 32.9872 149.639 47.2612 126.655C54.3406 115.255 61.4255 103.858 68.5108 92.4597L68.5157 92.4517L68.5207 92.4437L68.5256 92.4358L68.5305 92.4278L68.5355 92.4199L68.5404 92.4119C72.9223 85.363 77.3042 78.3138 81.6852 71.2636C82.7154 69.6082 83.7368 67.9491 84.7581 66.2901C85.7795 64.6311 86.8008 62.972 87.8311 61.3166C88.2484 60.6373 88.6954 59.9779 89.1475 59.3112C89.3574 59.0016 89.5683 58.6905 89.7778 58.3751C90.0316 58.3552 90.2744 58.3292 90.5092 58.304C91.0305 58.2481 91.5124 58.1965 91.9875 58.2259C97.3494 58.561 102.709 58.9055 108.067 59.25L108.071 59.2502C112.027 59.5045 115.983 59.7588 119.939 60.0092C124.536 60.3005 129.14 60.5563 133.744 60.805C137.418 61.003 141.093 61.1972 144.767 61.3915L144.772 61.3918L144.773 61.3918L144.775 61.3919L144.776 61.392L144.778 61.3921L144.779 61.3922C151.253 61.7345 157.726 62.0767 164.196 62.4392C176.943 63.1568 205.746 64.8051 205.746 64.8051C205.746 64.8051 207.551 66.3185 208.446 67.1214C220.694 78.1561 232.988 89.1451 245.28 100.132L245.358 100.202L245.384 100.225C248.388 102.91 251.392 105.595 254.395 108.281C257.937 111.446 261.367 114.471 264.808 117.504C267.785 120.129 270.769 122.761 273.841 125.496C274.307 125.916 274.797 126.308 275.291 126.703C275.635 126.978 275.98 127.254 276.321 127.543C286.215 113.061 296.076 98.62 305.942 84.1727L305.964 84.1407C314.059 72.2873 322.156 60.4296 330.277 48.5417C331.727 48.1577 333.182 47.7719 334.639 47.3854L334.681 47.3741L334.696 47.3703L334.737 47.3595L334.766 47.3518L334.777 47.3488C338.263 46.4242 341.764 45.4954 345.268 44.5771C349.745 43.4068 354.224 42.2391 358.703 41.0713L358.705 41.0708L358.706 41.0704L358.708 41.0699L358.71 41.0695L358.712 41.069L358.713 41.0686C364.973 39.4365 371.234 37.8042 377.49 36.1647C377.656 36.123 377.827 36.089 378.001 36.0541L378.002 36.054C378.065 36.0414 378.129 36.0287 378.193 36.0155V34.225C377.959 34.2534 377.731 34.2961 377.511 34.3529C370.421 36.1952 363.333 38.0467 356.245 39.8981L356.243 39.8987L356.242 39.899L356.242 39.8991L356.241 39.8992C348.023 42.0459 339.804 44.1926 331.584 46.3249C330.788 46.531 329.531 46.7796 329.531 46.7796C329.531 46.7796 328.237 48.3285 327.705 49.1172C312.811 71.0166 297.872 92.8782 282.932 114.744L282.931 114.745L282.93 114.746L282.929 114.748L282.928 114.749L282.922 114.757L280.158 118.803C279.264 120.111 278.347 121.405 277.357 122.802L277.356 122.804C276.883 123.472 276.393 124.164 275.88 124.893C268.123 118.18 260.566 111.397 253.038 104.639L253.038 104.638L253.038 104.638L253.037 104.638L253.037 104.638L253.037 104.638L253.036 104.637L253.035 104.636C249.152 101.151 245.277 97.6719 241.385 94.2129C233.343 87.0613 225.321 79.8922 217.201 72.6348L217.199 72.6331L217.136 72.5771C213.685 69.4927 210.216 66.3923 206.72 63.2704L197.621 62.7387C161.59 60.6331 125.352 58.5154 88.8897 56.3857C87.7823 58.1539 86.6642 59.9299 85.542 61.7125L85.5252 61.7391L85.5191 61.7488C83.5961 64.8033 81.6609 67.8772 79.7455 70.9652C71.7103 83.8976 63.6812 96.8341 55.6517 109.771L55.6501 109.774L55.6486 109.776L55.647 109.779L55.6454 109.781L55.6439 109.784ZM88.6553 64.5421C88.8895 64.1487 89.1545 63.7738 89.428 63.387L89.4295 63.3849C89.5704 63.1855 89.7137 62.9829 89.856 62.773C109.961 63.3912 130.038 64.0074 150.083 64.6227C167.356 65.1529 184.606 65.6823 201.832 66.2118C209.849 73.287 217.85 80.3482 225.841 87.4C242.734 102.308 259.579 117.174 276.427 132.04C276.776 132.353 277.515 132.914 277.515 132.914L278.133 133.447C278.133 133.447 278.353 133.077 278.587 132.758C287.699 118.336 296.853 103.851 306.029 89.3319L306.163 89.1194C313.384 77.6931 320.617 66.2463 327.854 54.794C339.065 51.3251 350.232 47.8689 361.399 44.4126L378.2 39.2126V41.0244C378.193 41.0279 378.188 41.0297 378.183 41.0315L378.182 41.0315L378.182 41.0315C378.177 41.0333 378.172 41.0351 378.165 41.0386C375.466 41.8813 372.766 42.7125 370.064 43.544L370.062 43.5446C368.027 44.1711 365.991 44.7977 363.955 45.4295C352.338 49.0318 340.728 52.6412 328.984 56.2932C319.177 71.8259 309.366 87.3636 299.516 102.963L299.482 103.016C292.515 114.051 285.528 125.116 278.509 136.232C260.828 120.643 243.263 105.153 225.684 89.6518C217.473 82.4107 209.259 75.1671 201.029 67.9099C164.352 66.7802 127.626 65.6505 90.865 64.5208C90.6165 64.9126 90.3811 65.2767 90.1562 65.6245C89.7571 66.2415 89.3914 66.807 89.0461 67.3841L87.592 69.8192L87.5798 69.8396L87.5592 69.8741L87.549 69.8913C82.7183 77.9807 77.8844 86.0754 73.0739 94.1702C64.7861 108.117 56.5001 122.067 48.2141 136.017L48.185 136.066C39.8869 150.037 31.5888 164.007 23.2888 177.974C19.9161 183.651 16.541 189.327 13.166 195.003L13.1383 195.049C6.37659 206.42 -0.385101 217.79 -7.12787 229.173C-7.56125 229.909 -7.85782 230.727 -8.15475 231.547C-8.29108 231.923 -8.42749 232.3 -8.57727 232.669H-11.4193C-8.26453 227.371 -5.10876 222.073 -1.95276 216.775L-1.66263 216.288C3.55011 207.538 8.76346 198.786 13.9741 190.031L29.746 163.528L34.5869 155.394L35.3723 154.074C53.1331 124.228 70.8924 94.3852 88.6553 64.5421ZM53.7144 134.001L53.1487 134.997L51.934 137.134C48.5551 143.079 45.1763 149.024 41.7974 154.968C27.495 180.127 13.1925 205.286 -1.10287 230.438C-1.38443 230.932 -1.62466 231.453 -1.86435 231.974L-1.86453 231.974L-1.86472 231.974L-1.8649 231.975L-1.86508 231.975L-1.86526 231.976L-1.86545 231.976L-1.86664 231.978L-1.86728 231.98L-1.93329 232.123L-1.97928 232.222L-2.02847 232.328L-2.06387 232.404C-2.10318 232.488 -2.14276 232.572 -2.1828 232.655H-0.0512695C0.968842 230.822 1.9866 228.988 3.00455 227.152L3.00903 227.144L3.0116 227.14L3.01297 227.137L3.01434 227.135L3.01572 227.132L3.01709 227.13L3.01846 227.127L3.01984 227.125L3.02121 227.122C5.5498 222.564 8.0795 218.003 10.6489 213.471C27.3174 184.085 44.0071 154.705 60.6969 125.326C70.5587 107.968 80.4276 90.6178 90.2965 73.2673C90.5861 72.7592 90.9048 72.2656 91.2578 71.719L91.2582 71.7184L91.2596 71.7162C91.3996 71.4994 91.545 71.2741 91.6962 71.0363H196.318C224.184 95.3498 252.313 119.891 280.754 144.701C281.153 144.034 281.54 143.392 281.918 142.766L281.919 142.764L281.92 142.763C282.6 141.636 283.251 140.558 283.881 139.472C287.365 133.471 290.849 127.471 294.332 121.47L294.352 121.436L294.369 121.407L294.394 121.363L294.402 121.35C303.367 105.906 312.331 90.4638 321.31 75.0294L327.321 64.1871C330.603 63.009 333.825 61.8511 337.01 60.7063L337.034 60.6978L337.034 60.6975C342.102 58.8763 347.076 57.0884 352.054 55.3057C354.65 54.375 357.247 53.4462 359.844 52.5173C365.811 50.3832 371.778 48.2489 377.738 46.0905C377.88 46.0408 378.037 45.9981 378.193 45.9555V44.5345C368.914 47.277 331.065 60.6274 326.248 62.9721C315.72 81.0837 305.136 99.2989 294.459 117.675C289.81 125.676 285.143 133.707 280.456 141.774C276.406 138.666 272.737 135.396 269.116 132.168L269.115 132.168L269.115 132.168L269.115 132.168L269.115 132.168L269.115 132.167L269.115 132.167L269.115 132.167L269.115 132.167L269.115 132.167L269.115 132.167L269.114 132.167L269.114 132.167L269.114 132.167L269.114 132.167L269.114 132.167C267.272 130.525 265.443 128.894 263.582 127.301C259.86 124.117 256.175 120.887 252.49 117.657L252.487 117.654C250.574 115.977 248.661 114.3 246.743 112.629C244.184 110.403 241.62 108.181 239.057 105.959L239.055 105.957L239.053 105.955L239.05 105.953L239.048 105.951L239.046 105.949L239.043 105.947L239.041 105.945L239.039 105.943L239.026 105.931C236.062 103.363 233.1 100.795 230.145 98.2202C227.113 95.5798 224.087 92.931 221.061 90.2818L221.059 90.2794L221.051 90.2727C218.478 88.0205 215.905 85.7679 213.328 83.5199C209.181 79.9071 205.031 76.3023 200.903 72.7176L200.898 72.7131C199.532 71.5266 198.168 70.3423 196.808 69.1606H90.6802C90.3 69.8091 89.9153 70.4601 89.5291 71.1139L89.5288 71.1144L89.5285 71.1149L89.5273 71.117C88.615 72.661 87.6939 74.2201 86.8008 75.7967C75.7691 95.1962 64.7412 114.6 53.7144 134.001ZM93.2735 75.4131C94.4504 75.368 95.6273 75.3225 96.8043 75.277L96.8062 75.2769L96.8082 75.2768L96.8101 75.2768L96.812 75.2767L96.8139 75.2766L96.8159 75.2766L96.8178 75.2765L96.8197 75.2764L96.8216 75.2764C102.133 75.0708 107.445 74.8653 112.763 74.7026C117.96 74.5431 123.158 74.3965 128.357 74.2499L128.361 74.2498L128.366 74.2497L128.37 74.2495L128.374 74.2494L128.378 74.2493L128.383 74.2492L128.387 74.249L128.391 74.2489L128.395 74.2488C134.761 74.0693 141.128 73.8897 147.492 73.6866C161.191 73.2532 174.896 72.8127 188.595 72.2443C189.803 72.1945 191.906 72.1519 191.906 72.1519C191.906 72.1519 193.732 73.6013 194.648 74.39C211.61 89.0869 228.601 103.747 245.592 118.408C252.217 124.123 258.841 129.839 265.464 135.557C268.02 137.764 270.565 139.987 273.11 142.21L273.114 142.214L273.115 142.215C275.018 143.877 276.921 145.539 278.829 147.195C279.561 147.829 280.313 148.442 281.183 149.152C281.573 149.469 281.986 149.806 282.431 150.172C282.661 149.814 282.882 149.479 283.094 149.16L283.095 149.159C283.571 148.44 283.998 147.796 284.357 147.117C290.142 136.228 295.914 125.334 301.687 114.44L301.718 114.38C303.344 111.312 304.969 108.244 306.595 105.176C307.69 103.114 308.785 101.052 309.879 98.9907L309.919 98.9154C313.964 91.2984 318.008 83.6821 322.035 76.0526L324.905 70.6527L325.133 70.5435L325.282 70.4714L325.283 70.4712C326.003 70.1245 326.725 69.7767 327.463 69.4804C344.366 62.6453 361.269 55.8245 378.179 49.0108V50.8865C378.122 50.9078 378.064 50.9291 378.007 50.9504L378.007 50.9505L378.006 50.9509H378.006C377.891 50.9933 377.776 51.0358 377.667 51.0783C371.546 53.5509 365.424 56.0198 359.301 58.4888C353.178 60.9578 347.055 63.4269 340.934 65.8995C337.801 67.1644 334.671 68.4409 331.472 69.7456L331.471 69.746L331.468 69.7473C329.655 70.4867 327.82 71.2351 325.95 71.9956L318.631 86.362V86.3691C312.211 98.4381 305.808 110.514 299.406 122.59C296.732 127.633 294.058 132.675 291.384 137.717C288.946 142.307 286.488 146.89 284.03 151.466C283.853 151.796 283.634 152.107 283.364 152.489C283.234 152.675 283.091 152.877 282.936 153.107C256.293 130.087 229.784 107.179 203.329 84.3192L203.117 84.1362L202.75 83.8184L202.728 83.7995L191.181 73.8216C171.545 74.4952 151.988 75.1688 132.431 75.8424C119.187 76.2985 105.944 76.7546 92.6766 77.2107C92.4088 77.6746 92.1411 78.128 91.8762 78.5763C91.3541 79.4603 90.8436 80.3246 90.3675 81.2108C83.6546 93.6145 76.9459 106.021 70.237 118.428L70.174 118.545L70.1477 118.593C61.7759 134.075 53.4038 149.558 45.023 165.036C37.4302 179.065 29.8232 193.088 22.2164 207.11L22.1823 207.173L22.1082 207.31C17.7001 215.436 13.292 223.562 8.88678 231.689C8.76807 231.906 8.67001 232.131 8.57104 232.357C8.52786 232.456 8.4845 232.556 8.43918 232.655H6.30765C21.2356 205.104 36.1655 177.555 51.0932 150.009L51.2632 149.696L51.6643 148.956L52.7077 147.03C65.5904 123.259 78.4714 99.49 91.348 75.7257C91.6519 75.6792 91.9231 75.6253 92.1742 75.5753C92.5747 75.4957 92.9241 75.4262 93.2735 75.4131ZM91.0616 84.57L91.0593 84.5746C89.7679 87.0209 88.5 89.4229 87.2556 91.8326L87.2141 91.913L87.1947 91.9506C66.8022 131.479 46.4096 171.008 26.0242 210.565C23.3393 215.769 20.7079 221.004 18.0769 226.239L18.075 226.243C16.9958 228.391 15.9166 230.538 14.8338 232.683H16.9653C17.1876 232.209 17.4062 231.732 17.6248 231.256L17.629 231.247L17.6292 231.247C18.1424 230.128 18.6556 229.01 19.2176 227.916C26.323 214.093 33.4365 200.276 40.5497 186.46L40.5527 186.454L40.5558 186.448L40.5588 186.442L40.5618 186.437L40.5648 186.431L40.5678 186.425L40.5709 186.419L40.5739 186.413L40.5769 186.408L40.5799 186.402C45.0293 177.76 49.4786 169.118 53.9258 160.475C59.2053 150.211 64.4809 139.947 69.7565 129.683L69.8166 129.566C76.832 115.918 83.8474 102.27 90.872 88.6211C91.4353 87.5318 92.0443 86.4669 92.6771 85.3605L92.678 85.3589L92.679 85.3573L92.6799 85.3556L92.6843 85.3479L92.6862 85.3445L92.6916 85.335L92.6951 85.329C93.0223 84.7568 93.3559 84.1733 93.6927 83.5694C124.536 81.3314 155.279 79.1004 186.3 76.8481C208.262 95.6653 230.262 114.521 252.321 133.426C263.304 142.839 274.301 152.264 285.316 161.704C285.503 161.372 285.676 161.076 285.835 160.802C286.17 160.225 286.446 159.749 286.687 159.252C289.776 152.822 292.861 146.39 295.947 139.959L295.962 139.927C301.254 128.896 306.547 117.864 311.853 106.838L312.351 105.808C312.434 105.635 312.516 105.462 312.598 105.29L312.599 105.288L312.6 105.287L312.6 105.285L312.601 105.283C312.757 104.957 312.911 104.633 313.068 104.309C313.074 104.296 313.08 104.283 313.086 104.27L313.103 104.235L313.114 104.213L313.129 104.184L313.141 104.16C313.148 104.146 313.154 104.132 313.161 104.117L322.923 83.9176C323.312 82.9381 323.758 82.077 324.197 81.2283L324.197 81.2282L324.197 81.2282L324.197 81.2281L324.197 81.228L324.197 81.228L324.197 81.2279L324.197 81.2278L324.197 81.2278L324.197 81.2277L324.197 81.2276C324.472 80.6976 324.744 80.1724 324.998 79.6261C327.576 78.4688 330.167 77.3053 332.765 76.1384C337.026 74.225 341.307 72.3024 345.588 70.3825C348.7 68.9858 351.814 67.591 354.927 66.1962L354.932 66.1937L354.938 66.1912L354.939 66.1905L354.941 66.1897L354.943 66.189L354.944 66.1882L354.946 66.1875L354.948 66.1867L354.949 66.1859L354.95 66.1857C362.503 62.8016 370.055 59.4177 377.596 56.009C377.781 55.9237 377.987 55.8527 378.193 55.7817H378.193L378.193 55.7817L378.193 55.7817L378.193 55.7816L378.193 55.7816V53.9272C377.66 54.1261 377.156 54.3251 376.665 54.5453C368.203 58.3358 359.743 62.1299 351.283 65.9239C342.823 69.7181 334.362 73.5122 325.9 77.3028C325.431 77.5107 324.936 77.6489 324.434 77.7892L324.434 77.7893L324.433 77.7893L324.344 77.8144L319.079 87.7898C308.187 110.427 297.295 133.056 286.382 155.686C286.091 156.285 285.727 156.85 285.297 157.518L285.296 157.518L285.296 157.519C285.074 157.864 284.834 158.237 284.577 158.656C268.249 144.672 252.158 130.744 236.102 116.846L236.099 116.843L236.099 116.843L236.098 116.842L236.098 116.842L236.097 116.841L236.097 116.841L236.096 116.841L236.096 116.84L236.096 116.84L236.095 116.839L236.095 116.839C219.994 102.902 203.928 88.9948 187.693 75.0931C184.157 75.3306 180.551 75.561 176.942 75.7916L176.941 75.7916C171.05 76.1679 165.15 76.5449 159.528 76.9547C153.608 77.3858 147.691 77.8402 141.776 78.2946L141.772 78.2949C136.379 78.7091 130.988 79.1232 125.594 79.5196C121.252 79.8394 116.905 80.132 112.558 80.4247L112.557 80.4248L112.556 80.4248L112.555 80.4249L112.554 80.425L112.553 80.425L112.552 80.4251L112.551 80.4252L112.55 80.4252L112.549 80.4253L112.548 80.4254L112.547 80.4254L112.547 80.4255L112.546 80.4255L112.546 80.4256L112.545 80.4256L112.545 80.4256L112.544 80.4257L112.543 80.4257L112.543 80.4258L112.542 80.4258C108.878 80.6725 105.214 80.9191 101.551 81.1822C99.4968 81.3309 97.4427 81.5284 95.3843 81.7262L95.382 81.7265L95.3816 81.7265L95.3813 81.7265L95.3809 81.7265L95.3805 81.7266L95.3802 81.7266L95.3789 81.7267C94.3917 81.8216 93.4035 81.9166 92.4138 82.0063C91.9603 82.8677 91.5096 83.7215 91.0616 84.57ZM194.828 88.8883L194.887 88.9379C202.228 95.1657 209.548 101.376 216.866 107.592C221.576 111.596 226.281 115.606 230.987 119.617L230.992 119.621C237.976 125.574 244.962 131.528 251.965 137.461C255.875 140.777 259.773 144.107 263.681 147.445L263.683 147.446L263.685 147.448C271.359 154.003 279.07 160.589 286.978 167.161C287.21 166.683 287.419 166.261 287.612 165.874C287.98 165.132 288.285 164.518 288.556 163.892C296.656 145.17 322.774 85.8219 322.774 85.8219C328.828 82.8524 334.888 79.8753 340.935 76.904L340.944 76.9L340.966 76.8889L340.97 76.8872L340.994 76.8753L340.999 76.8727L341.004 76.8701L341.02 76.8625C353.509 70.7265 365.947 64.6151 378.193 58.6451V60.6061C377.916 60.7056 377.646 60.8051 377.412 60.9188C366.315 66.4268 355.196 71.8886 344.079 77.3489L344.079 77.3492L344.075 77.3512C341.412 78.6589 338.75 79.9666 336.089 81.2747C333.52 82.539 330.952 83.806 328.403 85.0637L328.362 85.0838L328.333 85.0979L328.288 85.12L328.261 85.1337L328.24 85.1437C326.747 85.8807 325.259 86.6144 323.783 87.3424C323.164 88.7279 311.171 116.246 311.171 116.246C311.167 116.253 311.163 116.261 311.159 116.269L311.144 116.296L311.133 116.315C311.128 116.325 311.123 116.334 311.118 116.344C311.114 116.351 311.111 116.357 311.108 116.364L311.104 116.373L311.1 116.381L311.097 116.387L311.097 116.389L311.096 116.39L311.095 116.392L311.094 116.394L311.094 116.396L311.093 116.398L311.092 116.399L311.091 116.401L311.09 116.403L311.09 116.405L311.089 116.407C310.531 117.691 309.974 118.976 309.423 120.26L308.684 121.944H308.691C306.44 127.135 304.24 132.349 302.039 137.563L302.039 137.563L302.039 137.564L302.039 137.564L302.039 137.565L302.038 137.565L302.038 137.566L302.038 137.566L302.038 137.567L302.038 137.567L302.037 137.568L302.037 137.568C297.815 147.573 293.592 157.578 289.01 167.423C288.716 168.051 288.405 168.674 288.032 169.421L288.032 169.421L288.029 169.426C287.909 169.668 287.781 169.922 287.646 170.194L284.775 167.752C250.522 138.612 216.445 109.623 182.328 80.5926L181.405 79.7471L169.234 81.1965L169.084 81.214L169.029 81.2204L168.89 81.2366L168.78 81.2495C144.049 84.1378 119.318 87.0262 94.5098 89.9216C93.8914 91.1749 93.2776 92.4175 92.6679 93.6519L92.6651 93.6575C90.6627 97.7113 88.7036 101.678 86.7653 105.652C81.2413 116.956 75.7227 128.263 70.204 139.571L70.133 139.717C64.6447 150.962 59.1564 162.207 53.6628 173.448C48.4592 184.099 43.2441 194.745 38.0292 205.39L38.0131 205.423L38.0056 205.438L37.9981 205.453L37.9906 205.469L37.9831 205.484L37.9756 205.499L37.9681 205.515L37.9606 205.53L37.9531 205.545L37.9456 205.56L37.938 205.576L37.9305 205.591C34.0357 213.542 30.141 221.492 26.2516 229.443C25.8684 230.225 25.5162 231.023 25.1636 231.822L25.1628 231.824C25.0383 232.106 24.9138 232.388 24.7879 232.669H22.6564C46.1599 184.611 69.6634 136.552 93.2664 88.3016C107.058 86.6918 120.849 85.0835 134.652 83.4738L134.77 83.4601C150.474 81.6288 166.193 79.7957 181.944 77.9566C186.249 81.6096 190.542 85.2519 194.828 88.8883ZM84.9322 114.654C86.2466 111.816 87.5557 108.976 88.8648 106.135C90.1739 103.295 91.483 100.455 92.7975 97.6163C93.1051 96.9464 93.444 96.2903 93.802 95.5973L93.8033 95.5948L93.8058 95.5899L93.817 95.5682L93.8241 95.5545C93.9715 95.2689 94.1223 94.9768 94.2753 94.6748C114.013 91.3852 133.733 88.0955 153.431 84.8095L153.565 84.7872L153.599 84.7815L168.36 82.3191L177.483 81.1965C214.074 112.146 250.665 143.089 287.27 174.017C287.723 174.398 288.315 174.876 288.985 175.417L289.344 175.708C289.614 175.081 289.87 174.386 290.105 173.747C290.234 173.394 290.358 173.058 290.474 172.759C296.904 156.084 323.967 91.5344 323.967 91.5344C341.694 82.2017 357.513 74.1849 374.701 65.474L374.701 65.4739L378.193 63.7039V65.3594C378.033 65.4417 377.874 65.5272 377.716 65.6116L377.715 65.612L377.715 65.6121L377.715 65.6122L377.715 65.6123L377.715 65.6123L377.714 65.613L377.7 65.6204L377.697 65.6221L377.687 65.627L377.674 65.6341L377.671 65.636L377.661 65.6412L377.657 65.6433C377.603 65.6721 377.55 65.7007 377.497 65.7289C365.121 72.3351 352.744 78.9344 340.368 85.5336L340.344 85.5463L340.281 85.5804C337.335 87.1517 335.214 88.1797 333.08 89.2145L333.079 89.2146L333.079 89.2146L333.079 89.2147C330.909 90.2666 328.724 91.3256 325.644 92.9696C322.532 101.053 312.794 124.241 304.115 144.905L304.115 144.907C297.972 159.532 292.361 172.894 290.005 178.742C281.125 171.233 272.266 163.742 263.423 156.265L262.318 155.331L261.709 154.815L261.676 154.788L261.618 154.739L261.404 154.557C232.997 130.537 204.752 106.654 176.495 82.7668L158.418 85.7791C137.323 89.2943 116.352 92.7889 95.4547 96.2663C95.1673 96.8658 94.8977 97.4219 94.6416 97.9503L94.6363 97.9612C94.1537 98.9565 93.7188 99.8536 93.3019 100.757C90.175 107.522 87.0516 114.287 83.9283 121.051L83.9041 121.104C79.2645 131.152 74.6253 141.2 69.976 151.245C65.6261 160.649 61.2718 170.051 56.9174 179.453L56.8536 179.591L56.7895 179.729C49.9705 194.454 43.1513 209.179 36.3478 223.909C35.4465 225.865 34.614 227.852 33.7814 229.839L33.7809 229.84L33.7805 229.841L33.78 229.842L33.7795 229.843L33.7791 229.844L33.7786 229.845L33.7782 229.846L33.7777 229.847L33.7773 229.848L33.7768 229.849L33.7762 229.85L33.7733 229.857C33.3811 230.793 32.9888 231.729 32.5892 232.662H30.4577C31.4793 230.412 32.4967 228.16 33.5143 225.907L33.5179 225.899C35.7547 220.947 37.9923 215.993 40.2769 211.063C50.1873 189.646 60.1103 168.23 70.0333 146.813C75.0001 136.094 79.9669 125.374 84.9322 114.654Z" fill="url(#paint0_linear_1345_1497)"/>
<defs>
<linearGradient id="paint0_linear_1345_1497" x1="378.2" y1="9.7493" x2="24.7277" y2="226.115" gradientUnits="userSpaceOnUse">
<stop stop-color="#0BBD25"/>
<stop offset="1" stop-color="#0BBD25" stop-opacity="0"/>
</linearGradient>
</defs>
</svg>
