<svg width="166" height="167" viewBox="0 0 166 167" fill="none" xmlns="http://www.w3.org/2000/svg">
<path fill-rule="evenodd" clip-rule="evenodd" d="M-123.795 50.176C-129.009 43.494 -134.227 36.812 -139.456 30.14C-139.756 29.7529 -140.107 29.4054 -140.458 29.0583C-140.638 28.8805 -140.817 28.7029 -140.99 28.52L-140.99 26.5063C-140.819 26.6787 -140.641 26.8457 -140.463 27.0127C-140.1 27.3543 -139.735 27.6962 -139.43 28.086C-128.647 41.8931 -117.87 55.7057 -107.092 69.5183C-99.9022 78.7335 -92.7119 87.9486 -85.5199 97.1622C-74.2137 111.656 -62.8974 126.143 -51.5819 140.629C-49.1031 143.803 -46.6244 146.976 -44.1459 150.149C-43.8674 150.507 -43.5679 150.845 -43.2313 151.226C-43.0738 151.404 -42.9081 151.592 -42.7328 151.794C-41.932 151.659 -41.1303 151.525 -40.3283 151.391C-38.4159 151.071 -36.5016 150.751 -34.5922 150.406C-28.095 149.238 -21.5991 148.064 -15.1039 146.891C-8.88992 145.768 -2.67657 144.645 3.53676 143.528C18.3897 140.853 33.2476 138.183 48.1055 135.518C52.7478 134.686 55.1065 134.303 59.5439 133.583L60.2129 133.474C60.8135 133.378 64.422 132.798 64.422 132.798C64.422 132.798 65.5373 131.617 66.0874 131.001C70.0709 126.55 74.0905 122.134 78.109 117.72C79.2887 116.424 80.4683 115.129 81.6469 113.832C82.0341 113.407 82.4314 112.987 82.8801 112.514C83.1447 112.234 83.4273 111.936 83.7363 111.606C92.777 120.528 101.847 129.404 110.926 138.289C119.894 147.066 128.872 155.851 137.838 164.697C141.993 164.673 146.61 164.673 151.399 164.673C156.189 164.673 161.152 164.673 166 164.648L166 166.082L161.383 166.082L144.301 166.082L137.218 166.082C119.453 148.58 101.708 131.097 83.7615 113.418C80.4359 117.06 77.1588 120.651 73.8877 124.235C71.0032 127.396 68.1235 130.551 65.2194 133.732C48.9586 136.647 32.6814 139.564 16.385 142.485C-3.45737 146.042 -23.3281 149.603 -43.2324 153.172C-43.5707 152.759 -43.9023 152.357 -44.2278 151.963C-44.951 151.088 -45.6443 150.248 -46.316 149.392C-60.7349 130.946 -75.1537 112.5 -89.5625 94.0433C-96.7398 84.8543 -103.913 75.6593 -111.086 66.4646C-115.322 61.0346 -119.558 55.6046 -123.795 50.176ZM-130.966 31.6144L-130.958 31.6253L-130.917 31.6795C-129.753 33.2257 -128.589 34.7719 -127.424 36.3173C-114.292 53.7491 -101.16 71.1809 -88.0233 88.6077C-80.1239 99.0868 -72.2208 109.564 -64.3173 120.042C-59.279 126.721 -54.2406 133.4 -49.2029 140.081C-47.8624 141.859 -46.5179 143.634 -45.1384 145.455L-45.1143 145.487C-44.3255 146.528 -43.5251 147.584 -42.7076 148.665L-6.5321 142.763C16.2639 139.044 39.0289 135.33 61.7572 131.622C63.7585 129.563 65.752 127.512 67.7425 125.464L67.8089 125.396C73.6369 119.399 79.4402 113.428 85.3411 107.362C93.9698 116.383 102.521 125.38 111.037 134.34L111.038 134.341C119.377 143.115 127.681 151.853 135.991 160.542C137.074 160.542 138.156 160.546 139.231 160.55L139.231 160.55L139.231 160.55C141.357 160.558 143.451 160.565 145.455 160.542C149.854 160.488 153.999 160.506 158.243 160.524C160.402 160.533 162.588 160.542 164.846 160.542C165.007 160.538 165.394 160.54 165.696 160.541L165.696 160.541C165.819 160.541 165.927 160.542 166 160.542L166 159.388C165.841 159.377 165.56 159.381 165.33 159.385L165.33 159.385C165.232 159.386 165.143 159.388 165.077 159.388C159.195 159.425 153.359 159.412 147.522 159.4C144.603 159.394 141.685 159.388 138.761 159.388C137.893 159.403 136.684 159.388 136.684 159.388C136.684 159.388 135.588 158.219 135.118 157.699C133.361 155.745 131.539 153.851 129.718 151.956L129.718 151.956C129.154 151.369 128.589 150.783 128.027 150.194C114.28 135.806 101.183 122.104 87.4255 107.725C87.2113 107.501 86.9513 107.2 86.6522 106.853L86.6522 106.853C86.3313 106.481 85.9655 106.057 85.5632 105.621C84.7885 106.332 83.6279 107.543 82.9238 108.278L82.9236 108.278L82.8631 108.341C79.8956 111.427 76.9444 114.406 73.9933 117.385C71.0421 120.364 68.091 123.343 65.1234 126.429C62.9483 128.69 60.7882 130.592 60.7882 130.592C60.7882 130.592 58.073 131.006 55.5092 131.41C48.6739 132.477 41.8448 133.599 35.0171 134.722L35.0157 134.722L35.0047 134.724C33.1454 135.029 31.2862 135.335 29.4271 135.639C25.0792 136.351 20.7339 137.07 16.3885 137.789C12.0432 138.508 7.69785 139.228 3.34998 139.939C-7.57646 141.726 -18.5029 143.502 -29.4344 145.279C-32.1812 145.723 -34.9303 146.162 -37.6829 146.6L-37.6832 146.6L-37.6846 146.601C-39.1492 146.834 -40.6149 147.068 -42.0818 147.303C-42.2542 147.093 -42.4191 146.897 -42.5772 146.708L-42.5774 146.708C-42.8868 146.34 -43.1705 146.003 -43.4343 145.652C-44.5215 144.212 -45.609 142.771 -46.6965 141.331L-46.7035 141.322C-50.7728 135.932 -54.8426 130.541 -58.9029 125.147C-63.1136 119.556 -67.3228 113.964 -71.5323 108.371L-71.5641 108.329C-78.1965 99.517 -84.8296 90.7043 -91.4703 81.8954C-104.103 65.1348 -116.735 48.3793 -129.382 31.6338C-131.931 28.2581 -134.508 24.9023 -137.085 21.5475L-137.092 21.5387C-138.396 19.8407 -139.7 18.1429 -141 16.4428L-141 18.9612C-140.839 19.1053 -140.672 19.244 -140.504 19.3829C-140.107 19.7108 -139.71 20.0392 -139.405 20.4399C-136.581 24.1563 -133.773 27.8853 -130.966 31.6144ZM-64.4165 113.464C-71.3988 103.858 -78.3812 94.2527 -85.3685 84.6511C-96.3054 69.619 -107.253 54.5951 -118.204 39.5673C-122.085 34.2419 -125.965 28.9161 -129.846 23.5893C-132.34 20.1678 -134.846 16.7531 -137.352 13.3377L-137.359 13.3274L-137.367 13.3171L-137.381 13.2983C-138.587 11.6537 -139.794 10.0088 -141 8.36289L-141 6.34922C-140.489 7.00817 -139.972 7.66242 -139.455 8.3165C-138.364 9.69631 -137.275 11.0754 -136.241 12.4963C-126.008 26.5633 -115.786 40.6357 -105.564 54.7095L-105.544 54.7372L-105.512 54.7807L-105.261 55.1255L-104.197 56.5914C-100.868 61.1736 -97.5397 65.7559 -94.2106 70.3382C-82.2294 86.8364 -70.2431 103.335 -58.2518 119.828C-52.9223 127.161 -47.5827 134.484 -42.2432 141.807C-42.1237 141.969 -41.9913 142.12 -41.8143 142.322L-41.8141 142.322C-41.6994 142.453 -41.566 142.605 -41.4054 142.796C-8.51507 138.006 24.4964 133.197 57.629 128.367C67.3492 118.818 77.0947 109.239 86.9562 99.5444C87.8122 100.486 88.6518 101.405 89.4796 102.311C90.9016 103.867 92.2886 105.385 93.6635 106.913C96.642 110.222 99.623 113.528 102.604 116.834L102.606 116.837L102.615 116.846L102.615 116.847C112.839 128.187 123.063 139.526 133.18 150.957C134.028 151.91 135.901 153.833 135.901 153.833C135.901 153.833 138.449 154.015 140.1 154.055C146.188 154.399 152.362 154.657 158.489 154.913L158.489 154.913L158.489 154.913C161.004 155.018 163.511 155.123 166 155.233L165.99 156.387C164.345 156.26 162.906 156.203 161.292 156.139C159.971 156.086 158.532 156.029 156.767 155.925C154.891 155.815 153.384 155.757 151.823 155.698L151.823 155.698C150.118 155.632 148.347 155.565 145.959 155.423C142.909 155.242 140.727 155.154 138.545 155.067C137.454 155.023 136.363 154.979 135.164 154.923C122.07 140.379 109.037 125.898 95.9113 111.314L95.882 111.281L95.7491 111.134L86.931 101.336C77.7604 110.349 68.766 119.19 59.7853 128.018L59.6659 128.136L58.2447 129.533C26.7775 134.112 -4.61807 138.683 -36.0389 143.257L-36.0731 143.262L-41.9202 144.113C-42.124 143.871 -42.3184 143.649 -42.5034 143.438L-42.5034 143.438C-42.8587 143.033 -43.1791 142.668 -43.4645 142.276C-50.4519 132.674 -57.4342 123.069 -64.4165 113.464ZM-99.8177 56.3988C-94.4124 64.1073 -89.0071 71.8163 -83.6017 79.5254L-83.4834 79.6941C-70.522 98.1796 -57.5598 116.666 -44.5951 135.15C-43.8904 136.155 -43.17 137.148 -42.4533 138.136C-42.0973 138.627 -41.7421 139.117 -41.3903 139.606L-38.8099 139.273C-34.9056 138.768 -31.0849 138.275 -27.2642 137.794C-24.4563 137.442 -21.6474 137.097 -18.8384 136.751L-18.8382 136.751L-18.838 136.751L-18.8354 136.751C-15.5665 136.348 -12.2975 135.946 -9.02992 135.533C-6.22624 135.179 -3.42483 134.815 -0.623548 134.45C2.47998 134.046 5.58338 133.642 8.68956 133.252C12.0818 132.827 15.4741 132.411 18.8663 131.996C22.6356 131.535 26.4048 131.073 30.174 130.598C33.0884 130.231 36.0012 129.853 38.914 129.474L38.9168 129.474L38.9174 129.474C43.5747 128.869 48.232 128.265 52.8949 127.706C53.5611 127.625 54.8026 127.489 54.8026 127.489C54.8026 127.489 55.5597 126.656 55.9786 126.257C66.1206 116.587 76.2775 106.941 86.4395 97.2901L86.6432 97.0967C87.0311 96.7287 87.4473 96.3934 87.8975 96.0306L87.8976 96.0305C88.1328 95.8411 88.3772 95.6442 88.6317 95.4312C103.878 113.484 118.978 131.365 134.164 149.352C144.732 150.492 155.321 151.582 165.995 152.617L165.995 151.471C164.572 151.324 163.15 151.176 161.728 151.028C153.477 150.17 145.227 149.312 136.97 148.499C136.067 148.408 134.558 148.241 134.558 148.241C134.558 148.241 133.66 147.161 133.306 146.743C132.565 145.877 131.886 144.982 131.205 144.082C130.555 143.225 129.902 142.364 129.188 141.519L95.7427 101.866C94.2105 100.051 92.6672 98.244 91.0869 96.394L91.0849 96.3917L91.0663 96.3698C90.2589 95.4246 89.4418 94.4681 88.6115 93.4932C76.9836 104.546 65.4969 115.462 54.1365 126.257C22.3564 130.285 -9.17125 134.282 -40.6838 138.279C-40.8462 138.083 -40.999 137.905 -41.1429 137.737C-41.4282 137.404 -41.6786 137.112 -41.9001 136.8C-57.4191 114.67 -72.9281 92.5393 -88.4371 70.4038L-96.3888 59.0555L-96.4464 58.9733L-96.4913 58.9092C-108.161 42.2553 -119.831 25.6001 -131.492 8.93824C-132.755 7.13384 -133.974 5.29958 -135.195 3.46335L-135.195 3.46303L-135.195 3.46271L-135.196 3.46239C-135.784 2.57692 -136.373 1.69101 -136.968 0.807774L-138.482 0.807774C-138.313 1.09548 -138.152 1.38823 -137.992 1.68099C-137.67 2.26639 -137.348 2.85178 -136.968 3.39681C-126.531 18.3003 -116.091 33.1895 -105.651 48.0795L-99.8177 56.3988ZM-55.5591 113.231C-62.434 103.028 -69.3089 92.8254 -76.1883 82.6273C-84.1221 70.8646 -92.0575 59.1034 -99.9919 47.3438C-106.281 38.0233 -112.568 28.7037 -118.854 19.3852C-121.442 15.5509 -124.035 11.7205 -126.628 7.89029C-128.223 5.53467 -129.818 3.17916 -131.411 0.822911L-129.392 0.822911C-129.303 1.01532 -129.223 1.21363 -129.143 1.41189L-129.143 1.41221C-128.977 1.82227 -128.811 2.23215 -128.57 2.58931C-120.587 14.4486 -112.595 26.3043 -104.602 38.1607C-99.129 46.2799 -93.6556 54.3994 -88.1847 62.5207C-81.9894 71.7203 -75.7973 80.9215 -69.6047 90.1235L-69.5375 90.2233C-64.8815 97.1421 -60.2251 104.061 -55.5669 110.981C-50.833 118.016 -46.094 125.041 -41.3499 132.066C-41.0892 132.452 -40.7981 132.82 -40.4856 133.215L-40.4853 133.216C-40.3564 133.379 -40.2238 133.546 -40.0882 133.722C-39.5347 133.674 -38.986 133.63 -38.4407 133.587C-37.3054 133.496 -36.1849 133.407 -35.0666 133.288C-30.9754 132.847 -26.8851 132.4 -22.7946 131.953L-22.7888 131.952C-16.6226 131.278 -10.4561 130.604 -4.28587 129.952C1.3111 129.359 6.91101 128.786 12.5107 128.213L12.5129 128.212C17.2636 127.726 22.014 127.24 26.7624 126.742C30.0327 126.401 32.6829 126.117 35.2534 125.841C38.5856 125.484 41.784 125.141 46.0262 124.708C46.5056 124.658 50.1545 124.385 50.1545 124.385C50.1545 124.385 51.6131 123.295 52.0976 122.846C58.2446 117.133 64.3967 111.42 70.5539 105.712C76.7692 99.9504 82.9945 94.1992 89.2199 88.4481L89.2272 88.4413C89.4144 88.2671 89.618 88.1094 89.8684 87.9154L89.8688 87.9151L89.869 87.915L89.8692 87.9149C90.0103 87.8056 90.1663 87.6847 90.3426 87.543C98.983 98.4827 107.6 109.396 116.208 120.297L116.229 120.324L116.25 120.35L116.261 120.364L116.41 120.552C122.245 127.942 128.076 135.327 133.907 142.71C135.437 142.95 136.959 143.189 138.473 143.427L138.48 143.428L138.481 143.428L138.483 143.428C141.81 143.951 145.107 144.468 148.407 144.981C149.942 145.22 151.478 145.456 153.015 145.692L153.016 145.692L153.016 145.692L153.017 145.692L153.018 145.692L153.018 145.692L153.019 145.692C157.201 146.335 161.382 146.977 165.556 147.671C165.649 147.685 165.755 147.695 165.864 147.704C165.909 147.708 165.954 147.712 166 147.717L166 148.973C161.158 148.216 156.337 147.462 151.537 146.712L151.51 146.707L151.507 146.707L151.465 146.7L151.439 146.696L151.334 146.68C145.257 145.73 139.214 144.784 133.205 143.846C118.807 125.621 104.56 107.584 90.1811 89.38C89.9061 89.6138 89.6452 89.8309 89.3954 90.0388L89.3945 90.0395L89.3942 90.0397L89.3937 90.0401C88.8784 90.4689 88.4105 90.8582 87.9655 91.2726C85.2341 93.8077 82.5002 96.3402 79.7662 98.8728L79.7567 98.8816L79.7547 98.8834L79.7527 98.8853L79.7513 98.8865L79.7507 98.8871C71.5278 106.504 63.3042 114.122 55.1459 121.811C53.7529 123.118 51.0276 125.51 51.0276 125.51C51.0276 125.51 48.0247 125.798 46.3694 125.904C40.883 126.253 35.4151 126.885 29.9484 127.517C27.8267 127.762 25.7052 128.007 23.5828 128.236C20.2435 128.595 16.9054 128.962 13.5673 129.33L13.5663 129.33L13.5656 129.33C9.81595 129.744 6.06639 130.157 2.31542 130.557C-0.564648 130.864 -3.44746 131.155 -6.33015 131.446L-6.33152 131.446L-6.335 131.446C-8.96185 131.711 -11.5886 131.976 -14.213 132.253C-16.9662 132.543 -19.7194 132.844 -22.4726 133.144C-25.2255 133.444 -27.9784 133.744 -30.7314 134.035C-32.9625 134.271 -35.1937 134.49 -37.4567 134.711C-38.5722 134.821 -39.6954 134.931 -40.8301 135.044C-41.4087 134.19 -41.9842 133.343 -42.557 132.501L-42.5622 132.493C-43.4565 131.178 -44.344 129.873 -45.2259 128.564C-48.6707 123.453 -52.1149 118.342 -55.5591 113.231ZM-99.4453 39.1264L-99.3622 39.2546C-92.8066 49.3806 -86.2507 59.5071 -79.6909 69.6316L-79.6562 69.6851L-79.6389 69.7118C-67.8365 87.9244 -56.0341 106.137 -44.2267 124.35C-43.3566 125.692 -42.4698 127.024 -41.5891 128.347L-41.589 128.347L-41.5886 128.348L-41.5882 128.348L-41.5878 128.349L-41.5842 128.354L-41.5655 128.383C-41.08 129.112 -40.5964 129.838 -40.1186 130.562L-10.4598 128.091C9.02564 126.468 28.4132 124.853 47.7118 123.244C57.6752 114.202 67.5396 105.246 77.4311 96.2664C82.1799 91.9553 86.935 87.6384 91.7103 83.3035L92.5653 84.4645C105.845 102.496 118.994 120.348 132.196 138.269C134.289 138.71 136.381 139.152 138.475 139.595L138.476 139.595C147.584 141.52 156.712 143.45 165.99 145.329L165.99 144.088C165.923 144.074 165.855 144.062 165.789 144.05L165.789 144.05L165.789 144.05C165.711 144.037 165.634 144.023 165.561 144.007C161.826 143.23 158.09 142.456 154.354 141.683C150.618 140.91 146.882 140.136 143.148 139.359C140.857 138.882 138.571 138.385 136.309 137.893L136.308 137.893L136.307 137.893L136.307 137.893L136.307 137.893L136.306 137.893C135.17 137.645 134.04 137.4 132.918 137.158L130.85 134.348L130.812 134.297L130.778 134.25L130.744 134.204C117.78 116.583 104.886 99.0565 91.9424 81.4715C91.7704 81.612 91.6206 81.7327 91.4867 81.8406C91.1923 82.0778 90.9746 82.2532 90.7665 82.4405L86.8239 86.0161C81.2984 91.0272 75.7714 96.0395 70.251 101.058C63.0441 107.609 55.8372 114.16 48.6657 120.746C48.0398 121.321 46.9447 122.21 46.9447 122.21C46.9447 122.21 39.1422 122.719 36.3009 122.952C33.159 123.21 30.0188 123.475 26.8783 123.74L26.8761 123.74L26.874 123.74L26.8718 123.741L26.8697 123.741L26.8675 123.741C24.4928 123.941 22.1179 124.142 19.7421 124.339C17.9374 124.489 16.1327 124.635 14.328 124.781L14.3216 124.781L14.3207 124.781L14.3198 124.781L14.3189 124.781L14.318 124.782L14.3171 124.782C11.6085 125.001 8.89992 125.22 6.19135 125.45C2.04551 125.801 -2.09869 126.158 -6.24313 126.515C-9.37378 126.785 -12.5046 127.055 -15.6363 127.322L-18.3558 127.554L-18.3559 127.554L-18.356 127.554L-18.3562 127.554L-18.3563 127.554L-18.3564 127.554C-22.966 127.947 -27.5762 128.34 -32.19 128.715C-33.8361 128.849 -35.4824 128.96 -37.1606 129.073L-37.1609 129.073C-37.9419 129.126 -38.7299 129.179 -39.5281 129.235C-39.9441 128.596 -40.3551 127.966 -40.7625 127.342L-40.765 127.338L-40.7666 127.336L-40.7747 127.323L-40.7757 127.322L-40.7864 127.305L-40.7886 127.302C-41.5336 126.16 -42.2665 125.038 -42.9953 123.91C-46.0591 119.185 -49.1229 114.459 -52.1867 109.734C-59.9884 97.7004 -67.7894 85.6684 -75.5878 73.6338C-90.9151 49.964 -106.237 26.2943 -121.549 2.61448C-121.791 2.24013 -121.96 1.81486 -122.128 1.39077C-122.202 1.20307 -122.276 1.01562 -122.357 0.832922L-123.871 0.832921C-123.719 1.13164 -123.573 1.43477 -123.428 1.73789L-123.428 1.73858L-123.428 1.73926C-123.107 2.4087 -122.787 3.07801 -122.387 3.69953C-120.226 7.04404 -118.058 10.3886 -115.889 13.7342L-115.889 13.7348L-115.888 13.7354L-115.888 13.736L-115.888 13.7366L-115.887 13.7372L-115.829 13.8266C-114.412 16.0136 -112.993 18.2012 -111.577 20.3895C-107.533 26.6346 -103.489 32.8804 -99.4453 39.1264ZM-63.1117 88.1109C-67.9841 80.2604 -72.8568 72.4095 -77.7327 64.5596C-83.1339 55.8641 -88.5369 47.1686 -93.9402 38.4726C-101.028 27.066 -108.116 15.6587 -115.201 4.24975C-115.744 3.37824 -116.276 2.50083 -116.808 1.62427C-116.972 1.35366 -117.136 1.08312 -117.3 0.812857L-115.786 0.812857C-110.351 9.58428 -104.915 18.3557 -99.4746 27.1271C-89.3455 43.4587 -79.2115 59.7904 -69.0723 76.1169C-64.06 84.1883 -59.0437 92.2578 -54.0272 100.328L-53.9665 100.425L-53.9657 100.427L-53.9649 100.428L-53.9641 100.429C-50.8494 105.44 -47.7345 110.451 -44.6204 115.462C-43.8884 116.638 -43.1628 117.817 -42.4371 118.996C-41.7118 120.174 -40.9865 121.352 -40.2548 122.528C-39.9584 123.01 -39.6408 123.479 -39.3197 123.952L-39.3186 123.954C-39.1699 124.173 -39.0204 124.394 -38.872 124.617C-38.6917 124.631 -38.5193 124.65 -38.3525 124.668C-37.9822 124.707 -37.6399 124.744 -37.3024 124.723C-33.4929 124.485 -29.6851 124.24 -25.878 123.996C-23.0678 123.815 -20.2579 123.634 -17.4481 123.456C-14.1828 123.249 -10.9124 123.068 -7.64206 122.891C-5.03173 122.75 -2.42141 122.612 0.188679 122.474C4.78988 122.231 9.39034 121.988 13.9887 121.73C23.0428 121.221 43.5027 120.05 43.5027 120.05C43.5027 120.05 44.7846 118.975 45.4205 118.404C54.1178 110.569 62.8475 102.766 71.5758 94.9637L71.582 94.9582L71.5833 94.957L71.5862 94.9544L71.5951 94.9465C73.7498 93.0204 75.9045 91.0945 78.0585 89.1681C80.5735 86.9208 83.0089 84.7735 85.4515 82.6198L85.4535 82.618L85.4538 82.6177L85.4544 82.6172L85.4552 82.6165L85.4554 82.6163L85.4556 82.6161L85.4558 82.616L85.456 82.6158L85.4562 82.6156L85.4564 82.6154C87.5706 80.7513 89.6902 78.8824 91.8718 76.9396C92.2023 76.6418 92.5504 76.3633 92.9016 76.0824L92.9018 76.0822L92.902 76.0821L92.9022 76.0819L92.9024 76.0817L92.9025 76.0816C93.1462 75.8867 93.3914 75.6906 93.6331 75.4861C100.666 85.7807 107.677 96.0464 114.69 106.317C120.439 114.736 126.191 123.158 131.959 131.602C133.004 131.879 134.052 132.157 135.101 132.435L135.152 132.448L135.156 132.45C137.632 133.106 140.119 133.766 142.608 134.418C145.786 135.249 148.965 136.078 152.145 136.907L152.148 136.908L152.151 136.909L152.154 136.909L152.157 136.91C156.604 138.069 161.051 139.229 165.495 140.394C165.614 140.423 165.735 140.447 165.859 140.472L165.859 140.472C165.904 140.481 165.949 140.49 165.995 140.5L165.995 141.771C165.828 141.751 165.667 141.721 165.51 141.681C160.475 140.372 155.44 139.057 150.405 137.742C144.567 136.217 138.728 134.692 132.888 133.177C132.322 133.03 131.429 132.854 131.429 132.854C131.429 132.854 130.51 131.753 130.132 131.193C119.55 115.634 108.937 100.102 98.3216 84.5668L96.3584 81.6937C95.7235 80.7653 95.0725 79.8461 94.3694 78.8533C94.0329 78.3783 93.6845 77.8864 93.3202 77.3686C87.8097 82.1366 82.4419 86.9551 77.0938 91.7561L77.0933 91.7565C74.3352 94.2324 71.5823 96.7036 68.8177 99.1608C63.1043 104.241 57.4058 109.334 51.637 114.49L51.6366 114.49L51.6353 114.492L51.6201 114.505L51.5697 114.55L51.5667 114.553C49.124 116.736 46.6686 118.93 44.1941 121.14L37.6144 121.524C12.0591 123.018 -13.6427 124.52 -39.5028 126.03C-40.295 124.765 -41.0947 123.495 -41.8974 122.22C-43.2632 120.051 -44.6377 117.867 -45.9981 115.674C-51.6801 106.529 -57.3578 97.3815 -63.0358 88.2332L-63.0891 88.1472L-63.1036 88.1238L-63.1117 88.1109ZM-39.6693 120.236C-39.503 120.516 -39.3147 120.782 -39.1204 121.057L-39.1201 121.057C-39.0197 121.199 -38.9178 121.344 -38.8164 121.493C-24.542 121.054 -10.288 120.617 3.94414 120.18L4.14093 120.174C16.3511 119.799 28.5451 119.425 40.722 119.05L56.2931 105.309L56.8675 104.802L57.0265 104.662L57.3482 104.378L57.7406 104.032C69.752 93.4314 81.7293 82.8614 93.7089 72.2913C93.9562 72.0693 94.481 71.6706 94.481 71.6706L94.9201 71.292C94.9201 71.292 95.0765 71.5545 95.2431 71.7816C101.685 81.9773 108.157 92.2181 114.643 102.483L114.734 102.627L114.823 102.766C119.954 110.887 125.095 119.022 130.238 127.161C138.197 129.623 146.125 132.077 154.053 134.531L166 138.228L166 136.941C165.995 136.939 165.991 136.938 165.987 136.936L165.987 136.936C165.984 136.935 165.98 136.934 165.975 136.931C164.058 136.333 162.14 135.743 160.221 135.152L160.221 135.152C158.775 134.707 157.328 134.261 155.881 133.812C147.629 131.254 139.383 128.69 131.04 126.096C124.081 115.073 117.119 104.047 110.129 92.9768L110.087 92.9109L109.981 92.743C105.067 84.9597 100.138 77.1546 95.1876 69.3137C82.6155 80.3982 70.1256 91.4123 57.6266 102.434C51.8067 107.567 45.9848 112.701 40.1517 117.844C14.0998 118.647 -11.9873 119.449 -38.0997 120.252C-38.2761 119.973 -38.4434 119.715 -38.6031 119.468C-38.8866 119.029 -39.1464 118.628 -39.3917 118.218L-40.4255 116.487L-40.4434 116.456L-40.4468 116.451C-43.8809 110.7 -47.3173 104.946 -50.737 99.191C-56.6305 89.2735 -62.5228 79.3534 -68.4151 69.4333C-74.3097 59.5092 -80.2044 49.585 -86.1003 39.6634C-88.5033 35.6187 -90.9079 31.5751 -93.3125 27.5315C-98.1148 19.4559 -102.917 11.3803 -107.706 3.2958C-108.014 2.77352 -108.224 2.19201 -108.435 1.60972L-108.436 1.60761C-108.533 1.34093 -108.629 1.0741 -108.735 0.812751L-110.754 0.81275C-108.44 4.69869 -106.125 8.58463 -103.81 12.4708L-103.766 12.5459L-103.721 12.6207L-103.709 12.6406C-100.045 18.7922 -96.3798 24.9446 -92.7168 31.0989L-77.5185 56.6381L-77.4528 56.7485C-64.8585 77.9123 -52.2651 99.0744 -39.6693 120.236ZM-64.4746 70.9231C-67.3009 65.9502 -70.1271 60.9775 -72.9534 56.0052C-83.1127 38.1343 -93.272 20.2634 -103.426 2.3975C-103.627 2.04615 -103.797 1.67524 -103.968 1.30518L-103.969 1.30303L-103.969 1.30193C-104.043 1.14152 -104.117 0.981284 -104.193 0.822883L-102.679 0.822883C-101.954 2.1254 -101.231 3.42956 -100.507 4.73394L-100.504 4.73934L-100.504 4.73984L-100.504 4.74035L-100.503 4.74085L-100.503 4.74136L-100.503 4.74186L-100.503 4.74236L-100.502 4.74287L-100.502 4.74337C-98.7043 7.9846 -96.9056 11.2273 -95.0788 14.4494C-83.2388 35.3232 -71.3838 56.1919 -59.5287 77.0606C-52.5237 89.3901 -45.5137 101.714 -38.5036 114.039C-38.2978 114.4 -38.0713 114.751 -37.8206 115.139L-37.8202 115.14C-37.7205 115.294 -37.617 115.454 -37.5093 115.624L36.8056 115.624C56.5993 98.3533 76.5798 80.9215 96.7823 63.2979C97.0656 63.7724 97.3412 64.2289 97.6101 64.6745C98.0935 65.4752 98.5555 66.2406 99.003 67.0124C101.422 71.1788 103.841 75.3452 106.259 79.5114L106.36 79.6838L106.425 79.7957L106.425 79.7965L106.425 79.7973L106.426 79.7981L106.426 79.7989L106.427 79.7997L106.427 79.8005L106.428 79.8013L106.428 79.8021C112.813 90.7999 119.196 101.796 125.59 112.787L129.859 120.489C132.175 121.32 134.449 122.137 136.696 122.945L136.744 122.962L136.753 122.965L136.757 122.967L136.759 122.967L136.785 122.977C140.376 124.267 143.901 125.534 147.427 126.797C149.272 127.459 151.116 128.118 152.961 128.778C157.2 130.294 161.438 131.81 165.672 133.343C165.773 133.378 165.884 133.409 165.995 133.439L165.995 134.448C159.404 132.5 132.519 123.017 129.097 121.352C121.639 108.522 114.142 95.6181 106.578 82.601L106.518 82.4969L106.514 82.4899C103.213 76.8085 99.8989 71.1053 96.5704 65.3772C93.6934 67.5851 91.087 69.9082 88.5145 72.2012L88.5144 72.2013C87.2059 73.3676 85.9062 74.5261 84.5841 75.6576C81.9405 77.9193 79.3232 80.2137 76.7061 82.5078L76.7058 82.5081C75.346 83.7002 73.9863 84.8921 72.6231 86.0794C70.8064 87.6602 68.9865 89.2378 67.1668 90.8152L67.1645 90.8172L67.1622 90.8192L67.1598 90.8212L67.1575 90.8232L67.1552 90.8252L67.1528 90.8273L67.1505 90.8293L67.144 90.8349L67.142 90.8366L67.14 90.8384L67.138 90.8401L67.136 90.8418L67.134 90.8436L67.132 90.8453L67.13 90.8471C65.029 92.6683 62.9284 94.4891 60.8336 96.3144C58.6778 98.1918 56.5264 100.075 54.3747 101.959L54.3746 101.959L54.3745 101.959L54.3744 101.959L54.3743 101.959L54.3743 101.959L54.3742 101.959L54.3741 101.959L54.374 101.959L54.3689 101.964C52.5431 103.562 50.717 105.161 48.8877 106.756C45.9418 109.323 42.993 111.884 40.0606 114.431L40.0584 114.433C39.0882 115.276 38.1197 116.117 37.1538 116.956L-38.231 116.956C-38.5007 116.496 -38.7735 116.034 -39.0475 115.571L-39.0492 115.568L-39.0509 115.565L-39.0525 115.562C-39.6996 114.467 -40.3531 113.361 -40.9866 112.242C-48.818 98.4706 -56.6466 84.6962 -64.4746 70.9231ZM-33.8993 112.611L-33.8904 112.611L-33.8816 112.611L-33.8788 112.612C-30.1025 112.758 -26.3257 112.904 -22.5454 113.019C-18.8491 113.133 -15.1516 113.237 -11.4541 113.341L-11.4527 113.341L-11.4512 113.341L-11.4497 113.342L-11.4483 113.342L-11.4468 113.342L-11.4453 113.342L-11.4439 113.342L-11.4424 113.342L-11.4409 113.342L-11.4375 113.342L-11.4371 113.342L-11.4366 113.342L-11.4362 113.342L-11.4358 113.342L-11.4354 113.342L-11.435 113.342L-11.4346 113.342L-11.4342 113.342C-6.91452 113.469 -2.39471 113.597 2.12357 113.741C11.8539 114.049 21.5893 114.362 31.3196 114.766C32.1776 114.801 33.6714 114.831 33.6714 114.831C33.6714 114.831 34.9685 113.802 35.6195 113.241C47.6679 102.802 59.7372 92.3881 71.8067 81.9743L71.8097 81.9717L71.8636 81.9251C76.55 77.8817 81.2363 73.8382 85.9215 69.7931C87.7383 68.2248 89.5468 66.6448 91.3555 65.0646C92.7072 63.8838 94.0591 62.7028 95.4146 61.5264C95.9338 61.0769 96.4675 60.6418 97.0854 60.138L97.086 60.1375L97.0869 60.1368L97.0879 60.136L97.0926 60.1321C97.3675 59.908 97.659 59.6704 97.9734 59.4118C98.1365 59.6665 98.2939 59.9041 98.4444 60.1312L98.4446 60.1316L98.4447 60.1317L98.445 60.1323L98.4451 60.1324L98.4452 60.1325L98.4456 60.1331C98.7834 60.6431 99.0864 61.1004 99.3411 61.5819C103.449 69.3146 107.548 77.0504 111.647 84.7869L111.67 84.829C112.826 87.0104 113.982 89.192 115.138 91.3735C115.924 92.8559 116.711 94.338 117.498 95.8202C120.371 101.231 123.244 106.641 126.105 112.061L128.143 115.896C128.233 115.939 128.322 115.982 128.411 116.025L128.411 116.025C128.923 116.271 129.436 116.518 129.96 116.729C141.967 121.584 153.973 126.429 165.985 131.269L165.985 129.936C165.944 129.921 165.903 129.906 165.862 129.891L165.862 129.891L165.862 129.891L165.862 129.891C165.78 129.861 165.699 129.83 165.621 129.8C161.276 128.045 156.928 126.292 152.581 124.539L152.579 124.538L152.576 124.536L152.559 124.53C148.215 122.778 143.872 121.027 139.529 119.272C137.303 118.374 135.079 117.467 132.806 116.539L132.806 116.539C131.518 116.014 130.214 115.483 128.885 114.942L123.687 104.738L123.687 104.732C119.127 96.1603 114.579 87.5831 110.032 79.0062L110.031 79.0039L110.018 78.9805C108.123 75.4064 106.228 71.8324 104.332 68.2589C102.601 64.9986 100.855 61.7434 99.1089 58.4932C98.9832 58.2588 98.8277 58.0381 98.6364 57.7664L98.6363 57.7663L98.6362 57.7661L98.6358 57.7656C98.5431 57.6339 98.442 57.4903 98.3317 57.3274C79.2361 73.8263 60.2371 90.244 41.2772 106.628L41.1054 106.776L33.1567 113.645C19.209 113.167 5.31688 112.688 -8.57521 112.21C-17.982 111.886 -27.3888 111.562 -36.8129 111.238C-37.0009 110.912 -37.1889 110.594 -37.3748 110.279L-37.3773 110.275L-37.3792 110.272L-37.3802 110.27L-37.3809 110.269L-37.3815 110.268C-37.7524 109.64 -38.1149 109.026 -38.4531 108.396C-43.2306 99.5689 -48.0052 90.7393 -52.7798 81.9094L-52.7883 81.8937L-52.7968 81.8779L-52.8026 81.8672L-52.8084 81.8566L-52.8141 81.846L-52.8292 81.8181L-52.8442 81.7903L-52.8593 81.7625L-52.8743 81.7347C-58.8014 70.7736 -64.7287 59.8121 -70.6621 48.8537C-76.0558 38.8884 -81.4595 28.9271 -86.8631 18.966L-86.8658 18.961L-86.8685 18.956L-86.8712 18.9511L-86.8739 18.9461L-86.8766 18.9411L-86.8793 18.9361L-86.882 18.9311L-86.8847 18.9261L-86.8874 18.9211L-86.9297 18.8432L-86.9718 18.7656C-90.092 13.0136 -93.2122 7.26177 -96.3304 1.50922C-96.4147 1.35462 -96.4844 1.19514 -96.5547 1.03417L-96.555 1.03349L-96.5553 1.0328L-96.5555 1.03211L-96.5558 1.03143L-96.5561 1.03074L-96.5564 1.03005C-96.5865 0.961174 -96.6167 0.892006 -96.6484 0.822838L-98.1624 0.822838C-87.5083 20.4863 -76.8527 40.1483 -66.1987 59.8074L-66.0427 60.0954C-56.6121 77.4971 -47.1827 94.8965 -37.7566 112.293C-37.5411 112.326 -37.3488 112.364 -37.1706 112.399L-37.1701 112.399L-37.1698 112.399C-36.8853 112.456 -36.6371 112.505 -36.3889 112.515C-35.562 112.546 -34.7351 112.578 -33.9081 112.61L-33.8993 112.611ZM-37.9606 106.009C-38.8783 104.271 -39.7793 102.564 -40.6636 100.851L-40.7492 100.686C-55.2203 72.635 -69.6913 44.5843 -84.1574 16.5136C-86.0645 12.8175 -87.9335 9.09853 -89.8023 5.38015L-89.8024 5.37983C-90.5695 3.85349 -91.3366 2.32725 -92.1062 0.802712L-90.5921 0.802712C-90.4332 1.1417 -90.277 1.48205 -90.1209 1.8224C-89.7562 2.61709 -89.3915 3.41178 -88.9922 4.18916C-83.9512 13.9955 -78.9045 23.798 -73.8578 33.6003L-73.8513 33.613L-73.8447 33.6257L-73.8382 33.6384L-73.8317 33.6511L-73.8097 33.6938L-73.7635 33.7835L-73.7369 33.8351L-73.7301 33.8484C-70.599 39.93 -67.468 46.0116 -64.3384 52.0939C-60.5988 59.3638 -56.862 66.6338 -53.1252 73.9037L-53.1094 73.9345L-53.0936 73.9653C-48.0962 83.6877 -43.0988 93.4102 -38.0948 103.133C-37.6947 103.906 -37.262 104.663 -36.8125 105.449C-36.576 105.863 -36.3348 106.284 -36.0912 106.721C-14.1828 108.311 7.65493 109.895 29.6895 111.495C45.2519 98.1614 60.8413 84.8005 76.4723 71.4039L76.597 71.2971L76.9079 71.0306C84.602 64.4364 92.3062 57.8335 100.022 51.2208C100.156 51.4564 100.278 51.6669 100.391 51.8614C100.629 52.271 100.825 52.6095 100.996 52.9619C103.192 57.5332 105.385 62.1051 107.579 66.6769L107.585 66.6899C111.344 74.5256 115.103 82.3611 118.872 90.1926L119.226 90.9243C119.285 91.0475 119.343 91.1702 119.401 91.2924C119.512 91.5256 119.623 91.7574 119.735 91.9892C119.746 92.012 119.757 92.0347 119.768 92.0574L119.785 92.0905L119.795 92.1122L119.801 92.1255L126.735 106.474C127.012 107.169 127.328 107.781 127.64 108.384L127.64 108.384L127.64 108.384L127.64 108.384C127.835 108.761 128.029 109.134 128.209 109.522C130.042 110.345 131.884 111.172 133.732 112.002C136.756 113.36 139.796 114.725 142.835 116.088C145.051 117.082 147.268 118.076 149.485 119.069C154.85 121.473 160.214 123.876 165.571 126.298C165.702 126.358 165.848 126.409 165.995 126.459L165.995 126.459L165.995 126.459L165.995 126.459L165.995 126.459L165.995 126.459L165.995 126.459L165.995 126.459L165.995 126.459L165.995 126.459L165.995 127.776C165.616 127.635 165.258 127.494 164.91 127.337C158.898 124.644 152.888 121.949 146.877 119.254C140.869 116.559 134.86 113.864 128.85 111.172C128.517 111.025 128.165 110.926 127.808 110.827L127.745 110.809L124.005 103.723C116.268 87.6439 108.531 71.5697 100.779 55.4955C100.573 55.0698 100.314 54.6682 100.009 54.1939L100.009 54.1938C99.8507 53.9484 99.68 53.6836 99.4976 53.3859C87.8992 63.3187 76.4695 73.2125 65.0644 83.0848L65.0628 83.0863C53.6249 92.9871 42.2119 102.866 30.6787 112.742C28.167 112.573 25.6059 112.41 23.0422 112.246C18.8575 111.978 14.6663 111.711 10.6729 111.42C6.46685 111.113 2.26351 110.79 -1.93923 110.468L-1.94212 110.467C-5.77163 110.173 -9.60066 109.879 -13.4308 109.598C-16.5176 109.37 -19.6074 109.162 -22.6978 108.954C-25.3018 108.779 -27.9061 108.604 -30.5093 108.417C-31.9693 108.311 -33.4293 108.171 -34.8924 108.03C-35.594 107.963 -36.2962 107.895 -36.9996 107.831C-37.3194 107.224 -37.6373 106.622 -37.9532 106.023L-37.9606 106.009ZM35.7594 102.933L35.7841 102.912L35.826 102.876L35.9146 102.801C41.0869 98.4132 46.245 94.0374 51.4011 89.6575C54.7435 86.8164 58.0827 83.9703 61.4222 81.1239L61.4243 81.1222L61.4263 81.1204L61.4284 81.1187L61.4305 81.1169L61.4325 81.1151C66.3945 76.8859 71.3572 72.656 76.3325 68.4406C79.0996 66.0943 81.8587 63.7377 84.6245 61.3752L84.6388 61.3631L84.642 61.3603L84.6541 61.35L84.6552 61.349L84.6562 61.3481L84.6573 61.3472C90.1084 56.6911 95.5861 52.0124 101.203 47.3447C101.368 47.6837 101.517 47.9835 101.653 48.2585C101.915 48.7859 102.131 49.2217 102.324 49.6663C108.077 62.9647 126.629 105.121 126.629 105.121C130.941 107.236 135.256 109.356 139.562 111.472L139.563 111.472L139.574 111.477L139.575 111.478C148.451 115.839 157.292 120.182 165.995 124.425L165.995 123.032C165.798 122.962 165.606 122.891 165.44 122.81C157.557 118.898 149.659 115.018 141.762 111.139L141.761 111.138L141.75 111.133L141.73 111.123L141.719 111.118L141.68 111.099L141.623 111.071C139.778 110.164 137.932 109.258 136.087 108.351C134.228 107.436 132.368 106.518 130.523 105.608L130.511 105.602L130.486 105.59C129.434 105.071 128.386 104.554 127.346 104.041C126.907 103.057 118.388 83.5105 118.388 83.5105C118.382 83.4987 118.375 83.4869 118.369 83.4748L118.361 83.4607C118.352 83.4461 118.344 83.4309 118.337 83.4146L118.336 83.411C117.938 82.4936 117.54 81.5763 117.146 80.659L116.622 79.4629L116.627 79.4629C115.027 75.7754 113.464 72.072 111.901 68.3685L111.901 68.3683C108.902 61.2603 105.902 54.1524 102.647 47.158C102.438 46.7129 102.217 46.2707 101.952 45.7405L101.952 45.7393L101.951 45.7387L101.803 45.4405L101.678 45.1897L99.3819 47.1428C75.138 67.7675 51.0174 88.2873 26.8683 108.836L26.2122 109.436L17.567 108.407L17.2793 108.373L17.0482 108.346C-0.452982 106.302 -17.9547 104.258 -35.5108 102.209C-35.951 101.317 -36.3879 100.432 -36.8219 99.5536C-38.244 96.6747 -39.6353 93.858 -41.0118 91.0353C-44.9332 83.0108 -48.8508 74.9838 -52.7685 66.9568L-52.8128 66.866C-56.7156 58.8693 -60.6185 50.8725 -64.5251 42.8783C-68.2229 35.3099 -71.9289 27.7449 -75.6346 20.1803L-75.6486 20.1518L-75.6736 20.1008C-78.449 14.4354 -81.2243 8.77017 -83.9959 3.10404C-84.2683 2.54803 -84.5186 1.98098 -84.7693 1.41309L-84.7696 1.41241L-84.7699 1.41172L-84.7796 1.38979L-84.9101 1.0946L-84.9624 0.976693L-85.0355 0.812768L-86.5496 0.812768C-69.8546 34.9497 -53.1596 69.0866 -36.394 103.36C-26.5679 104.507 -16.7417 105.653 -6.90731 106.799C4.24567 108.1 15.4093 109.402 26.5958 110.708C29.657 108.11 32.7107 105.519 35.7594 102.933ZM-42.3139 84.641C-41.3807 86.6563 -40.4512 88.6729 -39.5217 90.6895C-38.5914 92.7079 -37.6611 94.7262 -36.7271 96.7433C-36.5086 97.2191 -36.2679 97.685 -36.0137 98.1771C-35.9039 98.3898 -35.7915 98.6074 -35.6773 98.8327C-21.6497 101.171 -7.63491 103.509 6.36439 105.844L6.46642 105.861L16.9462 107.609L23.4264 108.407C49.4176 86.4225 75.4089 64.4435 101.41 42.4746C101.732 42.2041 102.153 41.8644 102.628 41.48L102.884 41.2734C103.076 41.7187 103.257 42.2122 103.424 42.6662L103.424 42.6663C103.516 42.9172 103.604 43.1559 103.686 43.3679C108.254 55.2128 127.477 101.063 127.477 101.063C140.068 107.692 151.303 113.386 163.511 119.573L163.512 119.574L163.513 119.574L163.513 119.574L163.514 119.575L163.515 119.575L165.995 120.832L165.995 119.656C165.882 119.598 165.769 119.537 165.658 119.478L165.657 119.477L165.656 119.477L165.656 119.477L165.655 119.477L165.655 119.476C165.603 119.449 165.551 119.421 165.5 119.394C156.688 114.69 147.877 109.991 139.065 105.293C136.973 104.177 135.466 103.446 133.95 102.711L133.95 102.711L133.95 102.711C132.408 101.964 130.856 101.212 128.668 100.044C126.458 94.3021 119.541 77.8315 113.376 63.1531C109.013 52.7639 105.027 43.2724 103.353 39.1184L83.2883 56.0847C63.026 73.218 42.8797 90.2532 22.7248 107.291L9.86374 105.148C-5.11299 102.652 -20.0022 100.171 -34.8395 97.7022C-35.0444 97.2751 -35.2364 96.879 -35.4188 96.5027L-35.4209 96.4983L-35.4215 96.4971C-35.7641 95.7906 -36.0728 95.1538 -36.3687 94.5126C-38.5905 89.706 -40.8098 84.8993 -43.0289 80.093C-46.3296 72.9441 -49.63 65.796 -52.9376 58.6497C-56.0569 51.9066 -59.1793 45.1643 -62.3018 38.4219L-62.3026 38.4203L-62.3033 38.4187L-62.304 38.4171L-62.3048 38.4155L-62.3055 38.4139L-62.3062 38.4123L-62.307 38.4107L-62.3077 38.4091L-62.3084 38.4075L-62.3092 38.4059L-62.3099 38.4043C-67.1517 27.9495 -71.9936 17.4944 -76.8243 7.03555C-77.4657 5.643 -78.0582 4.22947 -78.6508 2.81556L-78.651 2.81497L-78.6521 2.81236L-78.6523 2.81185C-78.9312 2.14655 -79.21 1.48119 -79.4941 0.81785L-81.0082 0.817849C-80.2849 2.41058 -79.5646 4.00524 -78.8442 5.6002L-78.8368 5.61663C-77.2472 9.13586 -75.657 12.6564 -74.0334 16.1603C-66.9892 31.3829 -59.936 46.6056 -52.8828 61.8282L-52.7738 62.0634C-49.2868 69.5893 -45.7998 77.1151 -42.3139 84.641Z" fill="url(#paint0_linear_1345_1544)"/>
<defs>
<linearGradient id="paint0_linear_1345_1544" x1="156.075" y1="177.533" x2="-117.271" y2="27.1821" gradientUnits="userSpaceOnUse">
<stop stop-color="#0BBD25"/>
<stop offset="1" stop-color="#0BBD25" stop-opacity="0"/>
</linearGradient>
</defs>
</svg>
