<svg width="375" height="299" viewBox="0 0 375 299" fill="none" xmlns="http://www.w3.org/2000/svg">
<path fill-rule="evenodd" clip-rule="evenodd" d="M592.001 0.992708L468.544 15.984L352.016 239.328L351.073 239.097V60.7766L307.532 140.362L307.389 140.622H307.093H-5V139.622H306.797L351.134 58.581L352.073 58.8209V237.058L467.779 15.2881L467.9 15.0547L468.162 15.023L591.881 0L592.001 0.992708ZM594.063 4.52753L470.606 19.5188L349.954 251.111L349.011 250.88V72.5184L309.002 143.901L308.859 144.157H308.566H-5V143.157H308.273L349.075 70.3592L350.011 68.6889V70.6037V248.838L469.84 18.8232L469.962 18.5896L470.224 18.5578L593.943 3.53482L594.063 4.52753ZM473.256 23.0537L596.714 8.06236L596.594 7.06965L472.875 22.0926L472.614 22.1243L472.492 22.3574L347.949 260.626V82.3864V80.4675L347.012 82.1424L310.924 146.692H-5V147.692H311.217H311.51L311.653 147.436L346.949 84.3054V262.662L347.892 262.894L473.256 23.0537ZM598.776 11.5972L475.319 26.5885L345.83 274.677L344.887 274.445V96.0627L313.714 150.973L313.57 151.226H313.279H-5.5V150.226H312.988L344.952 93.9223L345.887 92.2757V94.1692V272.407L474.554 25.8925L474.676 25.6592L474.937 25.6275L598.656 10.6045L598.776 11.5972ZM477.381 30.1233L600.838 15.132L600.718 14.1393L476.999 29.1623L476.737 29.194L476.616 29.4275L343.825 284.187V105.952V104.091L342.892 105.701L315.053 153.761H-5.5V154.761H315.341H315.629L315.774 154.512L342.825 107.813V286.228L343.768 286.459L477.381 30.1233ZM603.489 18.6668L480.031 33.6581L341.706 298.242L340.763 298.011V119.551L317.832 158.052L317.687 158.296H317.403H-6V157.296H317.119L340.833 117.479L341.763 115.918V117.735V295.975L479.267 32.9618L479.389 32.7288L479.65 32.6971L603.369 17.6741L603.489 18.6668Z" fill="url(#paint0_linear_1345_1152)"/>
<defs>
<linearGradient id="paint0_linear_1345_1152" x1="-6" y1="148.983" x2="549.258" y2="-85.2241" gradientUnits="userSpaceOnUse">
<stop stop-color="#0BBD25"/>
<stop offset="1" stop-color="#0BBD25" stop-opacity="0"/>
</linearGradient>
</defs>
</svg>
