<svg width="181" height="234" viewBox="0 0 181 234" fill="none" xmlns="http://www.w3.org/2000/svg">
<path fill-rule="evenodd" clip-rule="evenodd" d="M155.979 164.148C163.319 173.555 170.665 182.962 178.026 192.355C178.449 192.9 178.943 193.389 179.437 193.877C179.69 194.128 179.943 194.378 180.186 194.635V197.47C179.946 197.228 179.695 196.993 179.445 196.758C178.933 196.277 178.42 195.795 177.99 195.246C162.796 175.791 147.61 156.328 132.423 136.864C122.314 123.909 112.205 110.953 102.094 97.9997C86.1645 77.5785 70.2203 57.1669 54.2775 36.757C50.8006 32.3058 47.3237 27.8548 43.8471 23.4038C43.455 22.9004 43.0333 22.4233 42.5593 21.8872C42.3376 21.6365 42.1045 21.3728 41.8577 21.0875C40.7303 21.2786 39.6017 21.4672 38.4726 21.6558C35.7804 22.1056 33.0853 22.5559 30.3973 23.0414C21.251 24.6862 12.1066 26.3385 2.96313 27.9905C-5.7856 29.5712 -14.5335 31.1518 -23.2814 32.7256C-44.1915 36.4913 -65.1088 40.2499 -86.0261 44.0013C-92.5616 45.173 -95.8822 45.712 -102.129 46.726L-103.071 46.8789C-103.917 47.0139 -108.997 47.8309 -108.997 47.8309C-108.997 47.8309 -110.567 49.4935 -111.341 50.3603C-116.949 56.627 -122.607 62.8428 -128.264 69.0568C-129.926 70.8815 -131.587 72.706 -133.246 74.5317C-133.791 75.1305 -134.351 75.7209 -134.982 76.3876C-135.355 76.781 -135.753 77.201 -136.188 77.665C-148.915 65.1054 -161.684 52.6096 -174.465 40.1015C-187.091 27.7449 -199.73 15.3765 -212.353 2.923C-218.202 2.95731 -224.702 2.95731 -231.445 2.95731C-238.188 2.95731 -245.175 2.95731 -252 2.99162V0.973163L-245.5 0.973145L-221.452 0.973156L-211.48 0.973151C-186.47 25.6135 -161.489 50.2253 -136.223 75.1143C-131.545 69.9904 -126.934 64.9387 -122.332 59.8963C-118.268 55.4435 -114.211 50.998 -110.119 46.5165C-87.2218 42.4113 -64.3012 38.3032 -41.3535 34.1903C-13.4244 29.1845 14.5448 24.1715 42.5611 19.1479C43.0373 19.7299 43.504 20.2948 43.9621 20.8495C44.9803 22.0822 45.9565 23.2641 46.9023 24.4695L46.9418 24.52C67.2277 50.4721 87.5136 76.4242 107.785 102.391C117.895 115.333 127.998 128.284 138.102 141.235C144.061 148.873 150.019 156.512 155.979 164.148ZM177.955 206.011C173.974 200.772 170.017 195.517 166.061 190.26L166 190.18C164.363 188.006 162.726 185.831 161.088 183.658C142.6 159.117 124.113 134.576 105.619 110.043C94.514 95.3118 83.4043 80.5835 72.2941 65.8547L72.2477 65.7932L72.1945 65.7228C65.1183 56.3418 58.0418 46.9606 50.9665 37.5782C49.0793 35.0741 47.1865 32.5756 45.2445 30.0123C44.123 28.5319 42.985 27.0299 41.8223 25.4926L-9.27768 33.8296L-9.89868 33.9309C-41.7265 39.1237 -73.5113 44.3095 -105.245 49.4863C-108.09 52.4132 -110.924 55.3289 -113.753 58.2403L-113.758 58.2448C-121.965 66.6893 -130.137 75.098 -138.447 83.6403C-150.594 70.9407 -162.632 58.2751 -174.62 45.6622L-174.622 45.66L-174.623 45.6587C-186.363 33.3068 -198.054 21.0055 -209.753 8.77247C-211.277 8.77247 -212.801 8.76686 -214.314 8.7613H-214.314H-214.314C-217.307 8.75029 -220.255 8.73944 -223.077 8.77247C-229.269 8.84781 -235.104 8.82329 -241.079 8.79818C-244.12 8.78541 -247.197 8.77248 -250.375 8.77248C-250.602 8.77753 -251.148 8.7754 -251.572 8.77374C-251.744 8.77307 -251.897 8.77247 -252 8.77247V10.3974C-251.776 10.4123 -251.381 10.4063 -251.057 10.4014C-250.919 10.3993 -250.794 10.3974 -250.7 10.3974C-242.42 10.3453 -234.203 10.3626 -225.987 10.38H-225.986C-221.878 10.3887 -217.769 10.3974 -213.653 10.3974C-212.431 10.376 -210.728 10.3974 -210.728 10.3974C-210.728 10.3974 -209.185 12.0427 -208.524 12.7745C-206.05 15.525 -203.485 18.1926 -200.921 20.8596C-200.127 21.6856 -199.333 22.5115 -198.542 23.3397C-179.187 43.5962 -160.75 62.8864 -141.381 83.1287C-141.08 83.444 -140.714 83.8685 -140.293 84.3566C-139.841 84.8803 -139.326 85.4773 -138.76 86.0915C-137.669 85.0904 -136.035 83.3849 -135.043 82.3505L-134.958 82.2619C-130.781 77.9172 -126.626 73.7234 -122.471 69.5297L-122.47 69.5281C-118.316 65.3349 -114.161 61.1416 -109.984 56.7974C-106.922 53.6143 -103.881 50.9357 -103.881 50.9357C-103.881 50.9357 -100.058 50.3531 -96.4491 49.7847C-86.8254 48.2831 -77.2104 46.7026 -67.5974 45.1223L-67.5868 45.1206C-64.9678 44.69 -62.349 44.2596 -59.7302 43.8307C-53.6094 42.8289 -47.4921 41.8165 -41.3748 40.804C-35.2572 39.7915 -29.1396 38.779 -23.0184 37.7772C-7.63597 35.262 7.74646 32.761 23.136 30.26C27.003 29.6341 30.8731 29.0172 34.7482 28.3995C36.8111 28.0707 38.8753 27.7417 40.9413 27.4109C41.1841 27.7067 41.4164 27.9829 41.6392 28.2479C42.0747 28.7658 42.4741 29.2407 42.8454 29.7343C44.3748 31.7605 45.9044 33.7866 47.4341 35.8129L47.4363 35.8157C53.169 43.4091 58.9023 51.0034 64.6224 58.6021C70.5585 66.4837 76.4924 74.3676 82.4267 82.2519L82.4476 82.2796L82.5047 82.3555C91.8228 94.7354 101.142 107.117 110.471 119.492C128.255 143.088 146.039 166.677 163.844 190.252C167.435 195.008 171.067 199.736 174.698 204.463L174.712 204.482C176.543 206.866 178.375 209.25 180.2 211.638V208.092C179.974 207.889 179.738 207.694 179.502 207.499L179.501 207.498C178.943 207.037 178.384 206.574 177.955 206.011ZM72.3846 75.0503C82.2144 88.573 92.0443 102.096 101.881 115.613C117.289 136.79 132.712 157.955 148.139 179.126C153.592 186.609 159.045 194.092 164.498 201.577C168.018 206.406 171.554 211.225 175.09 216.045C176.794 218.367 178.498 220.689 180.2 223.013V225.848C179.481 224.921 178.753 224 178.026 223.08L178.026 223.079L178.025 223.079C176.49 221.136 174.956 219.194 173.5 217.194C159.059 197.341 144.633 177.481 130.206 157.619C124.914 150.334 119.622 143.048 114.329 135.763C97.4619 112.537 80.5874 89.3101 63.7058 66.0908C56.2029 55.7672 48.6857 45.4578 41.1685 35.1483C41.0004 34.9198 40.8139 34.7069 40.5646 34.4224C40.4031 34.2382 40.2153 34.0239 39.9891 33.7558C-6.31451 40.4984 -52.7886 47.2696 -99.4333 54.0691C-113.118 67.5118 -126.837 80.9972 -140.721 94.646C-141.926 93.3205 -143.108 92.0267 -144.274 90.7512C-146.275 88.5604 -148.228 86.4236 -150.163 84.2727C-154.354 79.6172 -158.548 74.9649 -162.743 70.3128L-162.754 70.3L-162.766 70.2873C-177.159 54.3225 -191.552 38.3586 -205.796 22.2669C-206.989 20.924 -209.625 18.217 -209.625 18.217C-209.625 18.217 -213.214 17.9612 -215.537 17.9044C-224.108 17.4205 -232.801 17.0575 -241.426 16.6973L-241.426 16.6972L-241.427 16.6972C-244.967 16.5494 -248.496 16.402 -252 16.247L-251.986 14.6221C-249.67 14.8008 -247.645 14.8812 -245.372 14.9715L-245.372 14.9715L-245.372 14.9715L-245.371 14.9715L-245.371 14.9715C-243.512 15.0454 -241.487 15.1258 -239.001 15.272C-236.36 15.4274 -234.239 15.5084 -232.041 15.5925H-232.041C-229.641 15.6843 -227.148 15.7796 -223.786 15.9789C-219.492 16.2336 -216.42 16.3571 -213.349 16.4806C-211.813 16.5424 -210.277 16.6042 -208.588 16.6823C-190.045 37.281 -171.587 57.789 -152.997 78.4448L-140.685 92.1237C-127.69 79.3513 -114.945 66.8237 -102.219 54.3139L-100.3 52.4278C-55.9448 45.9727 -11.6904 39.5303 32.5998 33.0826L32.7427 33.0618L40.7138 31.9013C40.9987 32.2393 41.2704 32.5494 41.529 32.8444L41.5337 32.8498L41.5348 32.851C42.0351 33.4217 42.4861 33.9362 42.888 34.4876C52.72 47.9981 62.5449 61.514 72.3698 75.0298L72.3772 75.0401L72.3846 75.0503ZM122.223 155.387C114.649 144.586 107.075 133.784 99.5005 122.982L99.4986 122.979L99.4967 122.976L99.4948 122.973C81.1583 96.8222 62.8208 70.6694 44.4797 44.5203C43.4875 43.1055 42.473 41.7066 41.4639 40.315C40.9628 39.624 40.463 38.9349 39.968 38.2465C38.7503 38.4037 37.5396 38.5601 36.3345 38.7159L36.3298 38.7165C30.8351 39.4265 25.458 40.1214 20.0809 40.7972C16.1266 41.2931 12.1708 41.78 8.21481 42.2668L8.21454 42.2668L8.21426 42.2669L8.21399 42.2669C3.61218 42.8332 -0.989746 43.3996 -5.58961 43.9803C-9.53592 44.479 -13.479 44.9922 -17.422 45.5053L-17.4228 45.5054L-17.4236 45.5055L-17.4268 45.5059L-17.4276 45.506L-17.4283 45.5061C-21.7962 46.0746 -26.1638 46.643 -30.5354 47.1918C-35.3111 47.7908 -40.0867 48.3755 -44.8623 48.9602L-44.8654 48.9606C-50.1708 49.6102 -55.4762 50.2598 -60.7816 50.929C-64.8849 51.4457 -68.9861 51.9782 -73.0873 52.5106L-73.0885 52.5107L-73.0897 52.5109L-73.0909 52.511C-79.6475 53.3623 -86.204 54.2135 -92.7686 55.0002C-93.7064 55.1139 -95.4543 55.3057 -95.4543 55.3057C-95.4543 55.3057 -96.52 56.4781 -97.1097 57.0394C-111.39 70.656 -125.691 84.2375 -139.999 97.8258L-140.28 98.0923C-140.826 98.6104 -141.412 99.0825 -142.046 99.5932L-142.046 99.5933C-142.377 99.86 -142.721 100.137 -143.079 100.437C-164.544 75.0222 -185.802 49.849 -207.181 24.5267C-222.059 22.9209 -236.965 21.3862 -251.993 19.9297V21.5425C-249.991 21.7504 -247.989 21.9585 -245.987 22.1666L-245.986 22.1667C-234.37 23.3745 -222.756 24.582 -211.132 25.7274C-209.86 25.8553 -207.735 26.0898 -207.735 26.0898C-207.735 26.0898 -206.471 27.6102 -205.973 28.2C-204.929 29.4189 -203.974 30.6789 -203.014 31.9455C-202.1 33.1521 -201.181 34.3647 -200.176 35.5537L-153.09 91.3781C-150.933 93.9337 -148.761 96.477 -146.536 99.0814L-146.536 99.0819C-145.39 100.423 -144.23 101.781 -143.051 103.165C-126.681 87.6053 -110.51 72.2371 -94.5164 57.0394C-49.7759 51.3695 -5.39066 45.7423 38.9733 40.1151C39.2018 40.3912 39.4167 40.6418 39.6192 40.8778L39.6196 40.8784C40.0213 41.3467 40.3738 41.7577 40.6856 42.1969C62.5336 73.3525 84.3674 104.508 106.201 135.671L110.605 141.956L117.425 151.689C133.892 175.189 150.36 198.692 166.814 222.203C168.593 224.744 170.31 227.327 172.029 229.913L172.037 229.924C172.863 231.167 173.689 232.41 174.523 233.65H176.655C176.418 233.245 176.191 232.832 175.965 232.42C175.512 231.596 175.059 230.772 174.523 230.005C159.822 209.01 145.115 188.036 130.407 167.06L130.387 167.031L130.366 167.002L130.346 166.972L122.223 155.387ZM59.8979 75.3534C69.5822 89.7251 79.2665 104.097 88.9571 118.462C100.11 134.998 111.266 151.531 122.419 168.063L122.442 168.097L122.465 168.131C131.319 181.254 140.173 194.375 149.023 207.496C152.651 212.871 156.287 218.242 159.922 223.611L159.928 223.62L159.933 223.628L159.948 223.65L159.964 223.673C162.21 226.991 164.456 230.309 166.701 233.628H163.859C163.734 233.357 163.621 233.078 163.508 232.799L163.508 232.798C163.274 232.221 163.04 231.644 162.7 231.141C151.5 214.503 140.288 197.869 129.074 181.235L129.038 181.181L129.002 181.128L128.966 181.074L128.935 181.028L128.904 180.981L128.872 180.935C121.196 169.548 113.519 158.159 105.846 146.769C97.0913 133.769 88.3415 120.767 79.591 107.764L79.4889 107.612C72.969 97.9239 66.4487 88.2349 59.9258 78.546C53.2613 68.6416 46.5897 58.7513 39.9109 48.8611C39.5437 48.3178 39.1338 47.7995 38.6936 47.243C38.5121 47.0135 38.3255 46.7775 38.1347 46.5307C37.3556 46.5975 36.5832 46.6591 35.8156 46.7204L35.8153 46.7204L35.8144 46.7204L35.8135 46.7205C34.2159 46.848 32.6389 46.9738 31.0652 47.1417C25.3049 47.7622 19.5458 48.3918 13.7864 49.0213L13.7793 49.0221L13.7788 49.0222L13.777 49.0224L13.7738 49.0227C5.09506 49.9714 -3.58415 50.9202 -12.2686 51.8381C-20.1458 52.672 -28.0272 53.4788 -35.9083 54.2856L-35.9097 54.2857L-35.9144 54.2862L-35.9164 54.2864C-42.605 54.9711 -49.2934 55.6558 -55.9788 56.3569C-60.5818 56.8364 -64.312 57.2364 -67.93 57.6244L-67.9325 57.6247L-67.9332 57.6248L-67.9347 57.6249C-72.6251 58.1279 -77.1274 58.6107 -83.0988 59.2203C-83.7738 59.2913 -88.9107 59.675 -88.9107 59.675C-88.9107 59.675 -90.9641 61.2097 -91.6461 61.842C-100.3 69.885 -108.961 77.9279 -117.629 85.9637C-126.38 94.075 -135.145 102.172 -143.91 110.269L-143.917 110.276L-143.917 110.277L-143.918 110.277C-144.182 110.523 -144.469 110.745 -144.822 111.018C-145.02 111.172 -145.24 111.342 -145.488 111.542C-157.67 96.1178 -169.82 80.7313 -181.956 65.3616L-181.983 65.3284L-182.122 65.1522C-190.358 54.7215 -198.589 44.2985 -206.819 33.8766C-208.968 33.5399 -211.103 33.2046 -213.23 32.8707L-213.257 32.8663L-213.258 32.8661L-213.267 32.8649L-213.27 32.8643L-213.274 32.8637C-217.954 32.1289 -222.591 31.4008 -227.232 30.6793C-229.395 30.3432 -231.56 30.0107 -233.724 29.6782L-233.724 29.6781L-233.724 29.6781C-239.612 28.7735 -245.499 27.869 -251.375 26.8923C-251.506 26.8722 -251.655 26.8591 -251.809 26.8457L-251.809 26.8457H-251.809H-251.809H-251.809C-251.872 26.8402 -251.936 26.8346 -252 26.8284V25.0592C-245.152 26.1296 -238.334 27.1959 -231.547 28.2574L-231.539 28.2585C-222.921 29.6064 -214.352 30.9466 -205.831 32.2779C-185.561 57.9343 -165.503 83.3277 -145.261 108.956C-144.873 108.626 -144.506 108.32 -144.154 108.027C-143.428 107.423 -142.769 106.875 -142.142 106.291C-138.292 102.718 -134.438 99.1485 -130.585 95.5788C-119.006 84.8527 -107.426 74.1256 -95.9376 63.2986C-93.9766 61.4584 -90.1399 58.0906 -90.1399 58.0906C-90.1399 58.0906 -85.9124 57.6856 -83.5819 57.5364C-75.8582 57.045 -68.1602 56.1554 -60.4642 55.266L-60.4641 55.266L-60.4636 55.2659C-57.4768 54.9208 -54.4903 54.5757 -51.5026 54.2538C-46.8031 53.7488 -42.1051 53.2311 -37.4072 52.7134L-37.4057 52.7132L-37.4042 52.7131L-37.4027 52.7129L-37.4012 52.7128C-32.122 52.131 -26.843 51.5493 -21.562 50.9855C-17.5051 50.5542 -13.4444 50.1442 -9.38385 49.7343C-5.6857 49.361 -1.9877 48.9877 1.70708 48.5982C5.58276 48.1897 9.45847 47.767 13.3342 47.3442C17.2101 46.9215 21.086 46.4987 24.9619 46.0901C28.1031 45.757 31.2443 45.4493 34.4303 45.1373L34.4345 45.1369L34.4367 45.1367C36.0049 44.9831 37.5839 44.8284 39.1791 44.6691C39.988 45.8632 40.7926 47.0466 41.5934 48.2244L41.6039 48.2399L41.6061 48.2431L41.618 48.2606L41.6205 48.2642L41.6467 48.3027C42.8958 50.1398 44.1356 51.9633 45.3676 53.792C50.2116 60.9786 55.0548 68.166 59.8979 75.3534ZM121.91 180.03L121.568 179.501L121.535 179.452L121.503 179.402C112.3 165.187 103.097 150.971 93.8879 136.758L93.7502 136.545L93.6129 136.333L93.476 136.122C76.9733 110.656 60.4706 85.1905 43.9608 59.7248C42.737 57.8369 41.49 55.9635 40.2514 54.1029L40.2511 54.1025L40.2483 54.0982L40.2469 54.0961L40.2464 54.0953L40.2455 54.0941C39.5516 53.0517 38.8603 52.0132 38.1773 50.9785L-3.43172 54.445C-30.9126 56.7344 -58.2551 59.0123 -85.4719 61.2808C-99.5033 74.0156 -113.395 86.6271 -127.325 99.2732C-134.006 105.338 -140.696 111.412 -147.414 117.51L-148.62 115.873C-167.315 90.489 -185.825 65.3567 -204.41 40.129C-207.356 39.5078 -210.301 38.8854 -213.247 38.2626L-213.247 38.2625L-213.248 38.2624L-213.248 38.2624L-213.248 38.2623L-213.249 38.2622L-213.249 38.2621C-226.072 35.5516 -238.923 32.8351 -251.986 30.1891V31.9369C-251.891 31.9565 -251.796 31.9731 -251.703 31.9895C-251.593 32.0087 -251.486 32.0276 -251.382 32.0506C-246.124 33.1448 -240.865 34.2336 -235.605 35.3225C-230.346 36.4113 -225.086 37.5002 -219.828 38.5944C-216.603 39.266 -213.384 39.9659 -210.198 40.6585C-208.598 41.0064 -207.006 41.3525 -205.426 41.6922L-202.502 45.6673L-202.451 45.7369C-184.171 70.5834 -165.991 95.2948 -147.741 120.089C-147.498 119.892 -147.288 119.722 -147.099 119.57C-146.685 119.236 -146.378 118.989 -146.085 118.725L-142.952 115.883L-140.525 113.682L-140.514 113.672C-132.742 106.624 -124.968 99.5739 -117.203 92.5146C-107.057 83.2922 -96.911 74.0699 -86.8148 64.7978C-85.9337 63.9878 -84.3919 62.7373 -84.3919 62.7373C-84.3919 62.7373 -73.4075 62.0197 -69.4074 61.6929C-64.9784 61.3285 -60.5518 60.9549 -56.1248 60.5813C-52.7824 60.2992 -49.4397 60.0171 -46.0957 59.739C-43.5521 59.5287 -41.0084 59.3229 -38.4647 59.1171L-38.4638 59.117L-38.4629 59.117L-38.462 59.1169L-38.4611 59.1168L-38.4601 59.1167C-34.6463 58.8082 -30.8325 58.4997 -27.0187 58.1759C-21.1825 57.6821 -15.3486 57.1791 -9.51439 56.6761L-9.50372 56.6752L-9.49306 56.6743L-9.48239 56.6733L-9.47173 56.6724C-5.07816 56.2936 -0.684402 55.9148 3.71066 55.5399C4.94275 55.4351 6.1748 55.33 7.40692 55.225L7.43475 55.2226L7.53564 55.2141C14.0266 54.6608 20.5185 54.1074 27.0152 53.5789C29.3329 53.3898 31.6505 53.2338 34.0134 53.0747C35.1129 53.0007 36.2223 52.9261 37.346 52.8471C37.9269 53.7395 38.5009 54.6189 39.0699 55.4906L39.0878 55.518C40.1479 57.1423 41.1905 58.7396 42.2271 60.3429C46.3556 66.711 50.484 73.0786 54.6124 79.446L55.2252 80.3913C66.1892 97.3018 77.1522 114.211 88.1115 131.123C109.69 164.446 131.26 197.769 152.817 231.106C153.157 231.633 153.394 232.231 153.631 232.828C153.736 233.092 153.841 233.356 153.954 233.614H156.086C155.871 233.193 155.666 232.765 155.461 232.338C155.01 231.395 154.559 230.453 153.997 229.578C150.961 224.88 147.915 220.181 144.868 215.481L144.848 215.45L144.822 215.411C142.807 212.302 140.791 209.192 138.778 206.082C133.155 197.399 127.532 188.715 121.91 180.03ZM70.5545 110.753C77.4117 121.802 84.2693 132.851 91.1314 143.898C98.7316 156.134 106.334 168.37 113.938 180.606C123.919 196.671 133.902 212.736 143.879 228.804C144.645 230.031 145.394 231.266 146.142 232.501L146.57 233.206L146.835 233.642H144.704C137.051 221.294 129.399 208.945 121.74 196.596C107.48 173.604 93.2133 150.613 78.9392 127.628C71.8514 116.214 64.7582 104.804 57.6646 93.3925L57.6582 93.3821L57.6518 93.3718L57.6454 93.3615L57.6389 93.3511L57.6325 93.3408L57.6261 93.3305C53.2556 86.2998 48.8849 79.2688 44.5152 72.2367C43.485 70.5813 42.4637 68.9222 41.4423 67.2632L41.4417 67.2621L41.441 67.2611L41.4404 67.26L41.4397 67.259L41.4391 67.2579L41.4384 67.2569C40.4184 65.6 39.3983 63.943 38.3694 62.2897C37.9521 61.6104 37.505 60.951 37.053 60.2843L37.0522 60.2832L37.0519 60.2827C36.8423 59.9737 36.6317 59.6631 36.4226 59.3482C36.1688 59.3283 35.926 59.3023 35.6912 59.2771C35.17 59.2212 34.688 59.1696 34.2129 59.199C28.8492 59.5342 23.4877 59.8788 18.1273 60.2234C14.1717 60.4777 10.2167 60.7319 6.26163 60.9823C1.66466 61.2736 -2.93941 61.5294 -7.54349 61.7781C-11.2153 61.976 -14.8872 62.1701 -18.5587 62.3642L-18.5661 62.3646C-25.0443 62.7071 -31.5214 63.0496 -37.9957 63.4123C-50.7422 64.1299 -79.546 65.7782 -79.546 65.7782C-79.546 65.7782 -81.3507 67.2916 -82.246 68.0945C-94.4933 79.1285 -106.786 90.1168 -119.077 101.103L-119.077 101.103L-119.078 101.104L-119.078 101.104L-119.078 101.104L-119.078 101.104L-119.078 101.104C-122.117 103.821 -125.156 106.537 -128.194 109.254C-131.737 112.42 -135.167 115.444 -138.608 118.478C-141.585 121.103 -144.569 123.734 -147.641 126.47C-148.106 126.889 -148.596 127.281 -149.091 127.676C-149.434 127.951 -149.78 128.227 -150.12 128.516C-160.023 114.021 -169.893 99.5676 -179.768 85.1075L-179.818 85.0341L-179.926 84.8758L-179.942 84.8519L-180.229 84.4326L-180.279 84.3586C-188.202 72.7568 -196.128 61.1503 -204.076 49.5148C-205.546 49.1258 -207.019 48.7349 -208.496 48.3433L-208.531 48.3339L-208.565 48.325L-208.576 48.3219L-208.58 48.3209C-212.065 47.3966 -215.565 46.4682 -219.068 45.5502C-223.548 44.379 -228.03 43.2103 -232.513 42.0416C-238.773 40.4095 -245.034 38.7773 -251.289 37.1378C-251.456 37.0961 -251.627 37.0621 -251.801 37.0272L-251.802 37.0271C-251.865 37.0145 -251.929 37.0018 -251.993 36.9886V35.1981C-251.758 35.2265 -251.531 35.2692 -251.311 35.326C-244.221 37.1682 -237.134 39.0196 -230.046 40.8709L-230.045 40.8713L-230.042 40.872C-221.823 43.0188 -213.604 45.1656 -205.384 47.298C-204.588 47.5041 -203.33 47.7527 -203.33 47.7527C-203.33 47.7527 -202.037 49.3016 -201.504 50.0903C-186.608 71.9932 -171.667 93.8583 -156.724 115.727L-156.72 115.733L-153.957 119.777C-153.063 121.084 -152.147 122.378 -151.157 123.775L-151.156 123.777C-150.682 124.445 -150.192 125.137 -149.68 125.866C-141.922 119.153 -134.366 112.37 -126.836 105.611L-126.836 105.61C-122.953 102.125 -119.077 98.6455 -115.185 95.186C-107.143 88.0347 -99.1217 80.866 -91.0017 73.609L-90.9615 73.573L-90.8845 73.5042L-90.834 73.4591L-90.7587 73.3917L-90.6814 73.3227C-87.3141 70.3133 -83.9296 67.2886 -80.5194 64.2436L-71.9879 63.745C-35.7697 61.6285 0.657486 59.4997 37.3107 57.3588C38.4182 59.127 39.5362 60.903 40.6584 62.6856L40.6752 62.7122L40.6813 62.7219C42.6043 65.7764 44.5395 68.8503 46.4549 71.9383C54.4921 84.8737 62.523 97.8132 70.5545 110.753ZM37.5449 65.5151C37.3108 65.1216 37.0457 64.7467 36.7722 64.3599C36.6307 64.1598 36.4871 63.9566 36.3442 63.7459C16.233 64.3643 -3.84941 64.9807 -23.9009 65.5962L-24.3144 65.6089L-25.4525 65.6438L-25.4918 65.645L-25.6303 65.6493L-26.032 65.6616C-42.5867 66.1697 -59.1202 66.6772 -75.6314 67.1847C-83.5765 74.196 -91.5057 81.1936 -99.4244 88.1819L-99.5794 88.3187C-116.493 103.245 -133.358 118.129 -150.227 133.013C-150.575 133.326 -151.314 133.887 -151.314 133.887L-151.932 134.42C-151.932 134.42 -152.153 134.05 -152.387 133.731C-161.371 119.512 -170.395 105.232 -179.441 90.9183L-179.475 90.8632L-179.495 90.8316L-179.913 90.1712L-179.915 90.1682L-179.962 90.094C-187.183 78.6671 -194.417 67.2198 -201.654 55.7669C-212.847 52.3036 -223.996 48.8529 -235.145 45.4022L-235.198 45.3856L-252 40.1855V41.9973C-251.993 42.0009 -251.988 42.0026 -251.982 42.0044L-251.982 42.0044L-251.982 42.0044C-251.977 42.0062 -251.972 42.008 -251.964 42.0116C-249.266 42.8543 -246.566 43.6854 -243.864 44.5169L-243.862 44.5175C-241.826 45.144 -239.79 45.7706 -237.754 46.4025C-226.138 50.0047 -214.528 53.6141 -202.783 57.2661C-192.966 72.817 -183.143 88.3729 -173.281 103.991L-173.103 104.274C-166.195 115.214 -159.267 126.184 -152.309 137.205C-134.625 121.613 -117.056 106.12 -99.4743 90.6162L-99.4632 90.6064C-91.2588 83.3714 -83.0516 76.1339 -74.8285 68.8828C-38.1523 67.7531 -1.42627 66.6234 35.3353 65.4937C35.5802 65.8801 35.8126 66.2395 36.0346 66.5828L36.0409 66.5926L36.0439 66.5971L36.044 66.5974C36.4431 67.2145 36.8088 67.78 37.1541 68.3571L38.6063 70.7889C43.452 78.9034 48.3009 87.0233 53.1263 95.1431C61.3607 109 69.5935 122.86 77.8262 136.721L78.0188 137.045L78.2119 137.37C86.4445 151.23 94.6771 165.091 102.911 178.947C106.293 184.64 109.678 190.331 113.062 196.022C119.824 207.393 126.585 218.763 133.328 230.146C133.761 230.881 134.058 231.7 134.355 232.52C134.491 232.896 134.628 233.273 134.777 233.642H137.62C134.368 228.182 131.116 222.722 127.863 217.261C122.65 208.511 117.437 199.759 112.226 191.004C105.45 179.617 98.6737 168.231 91.898 156.845L91.0554 155.429L90.959 155.267L90.862 155.104L90.7646 154.941C73.0249 125.13 55.2867 95.3227 37.5449 65.5151ZM72.48 134.964C76.4544 141.957 80.4287 148.949 84.403 155.941C98.7054 181.1 113.008 206.259 127.303 231.411C127.585 231.906 127.826 232.428 128.066 232.949C128.171 233.176 128.275 233.404 128.383 233.628H126.252C125.231 231.795 124.213 229.959 123.195 228.123L123.19 228.115C120.658 223.55 118.125 218.983 115.551 214.444C98.8831 185.058 82.1933 155.679 65.5035 126.299C55.6417 108.942 45.7728 91.591 35.9039 74.2405C35.6145 73.7327 35.296 73.2394 34.9433 72.6932L34.9423 72.6916L34.9408 72.6894C34.8008 72.4725 34.6554 72.2473 34.5042 72.0095H-70.1176C-97.9836 96.323 -126.113 120.864 -154.554 145.675C-154.953 145.007 -155.34 144.365 -155.719 143.738L-155.719 143.737C-156.4 142.61 -157.05 141.532 -157.68 140.445C-161.16 134.453 -164.638 128.461 -168.116 122.47L-168.132 122.443C-177.12 106.959 -186.108 91.4769 -195.11 76.0026L-201.121 65.1603C-204.391 63.9865 -207.601 62.8326 -210.775 61.6919L-210.818 61.6765L-210.833 61.671L-210.834 61.6707C-215.901 59.8495 -220.876 58.0616 -225.853 56.2789C-228.448 55.3486 -231.044 54.4203 -233.64 53.4919L-233.643 53.4905L-233.643 53.4905L-233.643 53.4905L-233.644 53.4904L-233.644 53.4904L-233.644 53.4903L-233.644 53.4903L-233.644 53.4903L-233.644 53.4903C-239.611 51.3562 -245.578 49.222 -251.538 47.0637C-251.68 47.014 -251.836 46.9713 -251.993 46.9287V45.5077C-242.713 48.2502 -204.865 61.6006 -200.048 63.9453C-189.571 81.9681 -179.039 100.093 -168.416 118.378L-168.357 118.478L-168.291 118.593C-163.631 126.612 -158.954 134.662 -154.256 142.747C-150.205 139.639 -146.536 136.368 -142.914 133.14L-142.914 133.14L-142.914 133.14L-142.914 133.14L-142.914 133.14L-142.914 133.14L-142.914 133.14L-142.913 133.14L-142.913 133.14C-141.072 131.498 -139.242 129.867 -137.381 128.274C-133.66 125.091 -129.976 121.861 -126.292 118.632L-126.29 118.63C-124.376 116.952 -122.461 115.274 -120.542 113.602C-117.977 111.37 -115.407 109.143 -112.838 106.915L-112.834 106.912C-109.868 104.341 -106.902 101.77 -103.945 99.1934C-100.913 96.5529 -97.8871 93.9042 -94.8609 91.255L-94.8582 91.2526L-94.8505 91.2459C-92.2778 88.9937 -89.7047 86.7411 -87.1271 84.4931C-82.9807 80.8803 -78.8302 77.2755 -74.7028 73.6908L-74.6976 73.6862C-73.3315 72.4998 -71.968 71.3155 -70.6079 70.1338H35.5202C35.8996 70.7808 36.2833 71.4303 36.6686 72.0825L36.6721 72.0884C37.5847 73.633 38.5062 75.1927 39.3996 76.7699C50.3918 96.0999 61.3801 115.434 72.3675 134.766L72.48 134.964ZM29.4159 76.2509L29.3981 76.2502L29.3961 76.2501L29.3942 76.25L29.3923 76.25L29.3904 76.2499L29.3885 76.2498L29.3865 76.2498L29.3846 76.2497L29.3827 76.2496L29.3808 76.2496C24.0686 76.044 18.7555 75.8384 13.4377 75.6757C8.22751 75.5158 3.01587 75.3689 -2.19589 75.2219L-2.20074 75.2217C-8.565 75.0423 -14.9295 74.8628 -21.2918 74.6597C-34.9903 74.2263 -48.696 73.7858 -62.3945 73.2174C-63.6024 73.1677 -65.7055 73.125 -65.7055 73.125C-65.7055 73.125 -67.5314 74.5745 -68.448 75.3631C-85.3999 90.0517 -102.381 104.704 -119.363 119.356L-119.366 119.358L-119.392 119.381C-126.017 125.097 -132.641 130.813 -139.264 136.53C-141.822 138.739 -144.368 140.963 -146.915 143.188C-148.818 144.85 -150.72 146.513 -152.629 148.169C-153.36 148.802 -154.112 149.415 -154.983 150.125C-155.372 150.442 -155.785 150.779 -156.231 151.146C-156.461 150.787 -156.682 150.452 -156.894 150.132C-157.37 149.413 -157.797 148.769 -158.156 148.09C-163.935 137.214 -169.7 126.333 -175.466 115.451L-175.473 115.438L-175.48 115.426C-177.118 112.334 -178.756 109.241 -180.395 106.149C-181.489 104.088 -182.584 102.026 -183.679 99.9648L-183.719 99.8889L-183.719 99.8889C-187.763 92.2718 -191.808 84.6553 -195.834 77.0257L-198.705 71.6259C-198.831 71.5656 -198.956 71.505 -199.082 71.4444L-199.082 71.4444L-199.083 71.4443L-199.083 71.4443L-199.083 71.4442C-199.803 71.0975 -200.525 70.7498 -201.263 70.4535C-218.166 63.6185 -235.068 56.7976 -251.978 49.9839V51.8596C-251.922 51.8809 -251.864 51.9023 -251.806 51.9236L-251.806 51.9236L-251.805 51.924H-251.805C-251.69 51.9665 -251.576 52.009 -251.467 52.0514C-245.347 54.5237 -239.225 56.9924 -233.103 59.4611C-226.979 61.9304 -220.856 64.3997 -214.734 66.8726C-211.6 68.138 -208.469 69.4149 -205.268 70.7201L-205.254 70.726L-205.249 70.7281C-203.442 71.465 -201.613 72.2108 -199.749 72.9687L-192.431 87.3351V87.3422C-186.009 99.4141 -179.605 111.493 -173.201 123.572L-173.192 123.589C-170.523 128.623 -167.854 133.657 -165.183 138.69C-162.746 143.28 -160.288 147.863 -157.829 152.439C-157.652 152.769 -157.434 153.08 -157.164 153.462C-157.033 153.648 -156.891 153.85 -156.735 154.08C-129.83 130.833 -103.06 107.701 -76.3462 84.6161L-64.9807 74.7947C-45.4033 75.4663 -25.9037 76.1379 -6.40436 76.8095L-6.25064 76.8148L-6.22574 76.8156L-6.20088 76.8165L-6.10164 76.8199C7.09872 77.2745 20.2991 77.7292 33.5237 78.1838C33.7914 78.6477 34.0592 79.1011 34.3241 79.5494L34.3245 79.5503C34.8465 80.4339 35.3568 81.298 35.8328 82.184C42.5653 94.624 49.2937 107.067 56.0222 119.51L56.0485 119.559C64.4217 135.043 72.7951 150.529 81.1772 166.009C88.7741 180.045 96.385 194.076 103.996 208.106L104.019 208.148C108.452 216.319 112.884 224.49 117.314 232.662C117.432 232.879 117.53 233.104 117.629 233.331C117.65 233.378 117.671 233.425 117.692 233.473C117.714 233.525 117.738 233.576 117.761 233.628H119.893C104.899 205.956 89.9036 178.285 74.9103 150.619L74.6635 150.164L73.6233 148.245L72.7228 146.583C60.0968 123.285 47.4724 99.9897 34.8523 76.6989C34.5485 76.6523 34.2774 76.5984 34.0264 76.5485L34.0261 76.5485C33.6256 76.4688 33.2762 76.3993 32.9268 76.3862C31.7566 76.3414 30.5863 76.2961 29.4159 76.2509ZM35.1391 85.5438L35.1399 85.5452C36.4317 87.9924 37.7 90.3951 38.9449 92.8057L39.0305 92.9716L39.0499 93.0092C59.4277 132.509 79.8055 172.01 100.176 211.538C102.855 216.73 105.48 221.954 108.105 227.177L108.107 227.181L108.11 227.186L108.113 227.192L108.116 227.197L108.119 227.203L108.121 227.208L108.124 227.214L108.139 227.244C109.214 229.382 110.289 231.52 111.367 233.656H109.235C109.011 233.179 108.791 232.699 108.571 232.22C108.058 231.102 107.545 229.983 106.983 228.889C99.8875 215.086 92.7843 201.289 85.6812 187.493L85.6182 187.37C81.1696 178.73 76.7211 170.089 72.2747 161.448C66.9951 151.184 61.7195 140.92 56.4439 130.657L56.3838 130.54C49.3684 116.891 42.353 103.243 35.3284 89.5942C34.7651 88.5049 34.1561 87.44 33.5233 86.3335C33.1902 85.7512 32.8506 85.1574 32.5077 84.5425C1.66466 82.3044 -29.0789 80.0735 -60.0995 77.8212C-82.0617 96.6384 -104.062 115.494 -126.121 134.4L-126.401 134.639L-127.199 135.323L-128.307 136.273L-129.29 137.116L-129.562 137.349C-139.401 145.781 -149.251 154.223 -159.115 162.677C-159.303 162.345 -159.475 162.049 -159.634 161.775L-159.634 161.775C-159.969 161.198 -160.246 160.722 -160.487 160.226C-163.566 153.815 -166.641 147.404 -169.717 140.992L-169.732 140.961L-169.747 140.93L-169.762 140.898C-175.055 129.867 -180.347 118.837 -185.653 107.812L-186.15 106.781C-186.233 106.608 -186.316 106.435 -186.398 106.263L-186.399 106.26L-186.401 106.256L-186.402 106.253L-186.404 106.25L-186.406 106.245C-186.56 105.923 -186.712 105.602 -186.868 105.282C-186.874 105.268 -186.881 105.254 -186.887 105.24C-186.896 105.222 -186.905 105.204 -186.914 105.186C-186.93 105.154 -186.946 105.122 -186.96 105.09L-196.722 84.8907C-197.112 83.9112 -197.557 83.0501 -197.997 82.2014C-198.271 81.6711 -198.543 81.1457 -198.797 80.5992C-201.296 79.4776 -203.806 78.3502 -206.324 77.2196L-206.536 77.1246L-206.575 77.1067C-210.833 75.1948 -215.11 73.2738 -219.388 71.3556C-222.504 69.9571 -225.621 68.5604 -228.738 67.1638L-228.74 67.163L-228.742 67.1623L-228.743 67.1615L-228.745 67.1608L-228.747 67.16C-236.3 63.7755 -243.853 60.3912 -251.396 56.982C-251.581 56.8968 -251.786 56.8258 -251.992 56.7548H-251.992L-251.992 56.7548L-251.993 56.7547L-251.993 56.7547L-251.993 56.7547V54.9003C-251.46 55.0992 -250.955 55.2981 -250.465 55.5184C-242.007 59.3072 -233.551 63.0995 -225.094 66.8918L-225.077 66.8996C-216.618 70.6929 -208.16 74.4861 -199.699 78.2759C-199.23 78.4837 -198.735 78.622 -198.233 78.7623L-198.233 78.7624L-198.144 78.7874L-192.879 88.7629C-181.987 111.4 -171.095 134.029 -160.181 156.659C-159.891 157.258 -159.527 157.823 -159.096 158.491L-159.096 158.492L-159.096 158.492C-158.873 158.837 -158.633 159.21 -158.377 159.629C-142.048 145.645 -125.958 131.717 -109.902 117.819L-109.898 117.816C-93.7961 103.877 -77.7287 89.9691 -61.4921 76.0662C-57.9561 76.3037 -54.3504 76.5341 -50.7411 76.7647L-50.741 76.7647L-50.7408 76.7647L-50.7406 76.7647H-50.7404C-44.8495 77.1411 -38.9492 77.518 -33.3277 77.9277C-27.4073 78.3588 -21.4908 78.8133 -15.5751 79.2677L-15.572 79.2679L-15.5715 79.268C-10.1791 79.6822 -4.78732 80.0963 0.606033 80.4927C4.94711 80.8124 9.29236 81.1049 13.6384 81.3975L13.6394 81.3976L13.6404 81.3976L13.6414 81.3977L13.6424 81.3978L13.6434 81.3978L13.6444 81.3979L13.6454 81.398L13.6464 81.398L13.6474 81.3981L13.652 81.3984L13.6563 81.3987C17.3208 81.6454 20.9859 81.8922 24.6495 82.1552C26.7031 82.304 28.7567 82.5014 30.8147 82.6992L30.818 82.6995L30.8183 82.6995L30.8187 82.6996L30.8191 82.6996L30.8194 82.6996L30.8198 82.6996L30.8211 82.6998C31.8084 82.7947 32.7968 82.8896 33.7866 82.9794C34.2403 83.841 34.6911 84.6951 35.1391 85.5438ZM-68.6239 89.858L-68.6819 89.9072C-76.0244 96.1362 -83.3463 102.348 -90.6654 108.565C-95.3689 112.563 -100.068 116.568 -104.767 120.573L-104.773 120.578L-104.778 120.583L-104.783 120.587L-104.789 120.592C-111.774 126.546 -118.76 132.5 -125.764 138.435C-129.675 141.751 -133.575 145.081 -137.484 148.42L-137.484 148.421C-145.159 154.976 -152.87 161.563 -160.778 168.134C-161.009 167.656 -161.219 167.234 -161.411 166.847L-161.411 166.847L-161.411 166.847L-161.412 166.847C-161.78 166.104 -162.085 165.491 -162.355 164.865C-170.455 146.144 -196.573 86.7951 -196.573 86.7951C-202.638 83.8206 -208.707 80.8386 -214.765 77.8624L-214.796 77.8473L-214.801 77.8448L-214.808 77.8414L-214.814 77.8383C-227.305 71.7014 -239.745 65.5891 -251.993 59.6183V61.5793C-251.716 61.6787 -251.446 61.7782 -251.211 61.8919C-240.113 67.4007 -228.992 72.8633 -217.874 78.3244C-215.212 79.6321 -212.55 80.9397 -209.888 82.2479C-207.264 83.5398 -204.639 84.8346 -202.035 86.1195L-202.004 86.1348C-200.522 86.8657 -199.047 87.5934 -197.582 88.3156C-196.964 89.7011 -184.971 117.219 -184.971 117.219C-184.966 117.229 -184.961 117.238 -184.955 117.248L-184.943 117.269L-184.943 117.269C-184.928 117.296 -184.913 117.324 -184.9 117.354C-184.338 118.647 -183.777 119.94 -183.223 121.233L-182.484 122.917H-182.491C-180.24 128.109 -178.039 133.322 -175.839 138.536L-175.839 138.537C-171.616 148.543 -167.392 158.55 -162.81 168.397C-162.516 169.023 -162.205 169.645 -161.833 170.39L-161.833 170.391L-161.833 170.391L-161.833 170.391L-161.833 170.391L-161.833 170.391L-161.833 170.392L-161.832 170.392L-161.832 170.392L-161.832 170.392L-161.832 170.393L-161.831 170.394C-161.71 170.637 -161.582 170.894 -161.446 171.168L-158.119 168.337C-124.02 139.328 -90.0937 110.467 -56.1278 81.5658L-55.2041 80.7203L-43.0332 82.1697L-42.8844 82.1871C-18.0521 85.0872 6.7804 87.9874 31.6906 90.8947L32.3228 92.1755L32.763 93.0669L33.5331 94.6262L33.5403 94.6409C35.541 98.6911 37.4985 102.654 39.4351 106.625C44.9595 117.93 50.4785 129.238 55.9975 140.546C61.5091 151.839 67.0207 163.132 72.5376 174.422C77.7412 185.072 82.9563 195.718 88.1712 206.363L88.1873 206.396L88.1948 206.411L88.2023 206.426L88.2098 206.442L88.2173 206.457L88.2248 206.472L88.2323 206.488L88.2398 206.503L88.2473 206.518L88.2549 206.534L88.2624 206.549L88.2699 206.564C92.1647 214.515 96.0594 222.465 99.9489 230.417C100.332 231.199 100.685 231.997 101.038 232.797C101.162 233.079 101.287 233.361 101.413 233.642H103.544C80.0405 185.584 56.537 137.525 32.9341 89.2747C19.0962 87.6595 5.25839 86.0458 -8.59117 84.4308C-24.2881 82.6003 -40 80.7681 -55.7441 78.9298C-60.0468 82.5816 -64.3388 86.2228 -68.6239 89.858ZM41.2682 115.627C39.9538 112.789 38.6447 109.948 37.3356 107.108C36.0265 104.268 34.7174 101.428 33.403 98.5891C33.0953 97.9192 32.7564 97.2631 32.3984 96.5701L32.3966 96.5665C32.2426 96.2684 32.0851 95.9635 31.9251 95.6477C12.1527 92.3523 -7.6015 89.0569 -27.3339 85.7651L-27.4172 85.7512L-42.1592 83.292L-51.2821 82.1694C-87.8731 113.119 -124.464 144.061 -161.069 174.99C-161.522 175.37 -162.112 175.847 -162.78 176.387L-162.783 176.389L-162.785 176.391L-163.144 176.681C-163.414 176.054 -163.669 175.36 -163.904 174.721L-163.904 174.721L-163.904 174.721L-163.904 174.721L-163.904 174.72L-163.904 174.72L-163.904 174.72L-163.904 174.72C-164.034 174.367 -164.157 174.031 -164.274 173.732C-170.704 157.057 -197.767 92.5072 -197.767 92.5072C-215.493 83.1748 -231.311 75.1582 -248.499 66.4476L-248.501 66.4466L-248.501 66.4464L-251.993 64.6768V66.3322C-251.833 66.4146 -251.673 66.5002 -251.515 66.5847L-251.515 66.5849L-251.513 66.5858C-251.44 66.6249 -251.368 66.6636 -251.296 66.7017C-238.91 73.3137 -226.523 79.9186 -214.136 86.5234L-214.107 86.539L-214.093 86.5461L-214.08 86.5532C-211.135 88.1246 -209.014 89.1526 -206.879 90.1874C-204.709 91.2394 -202.524 92.2984 -199.444 93.9425C-196.332 102.026 -186.594 125.214 -177.915 145.878L-177.915 145.879L-177.914 145.879L-177.914 145.88L-177.912 145.884L-177.912 145.886L-177.91 145.889L-177.908 145.895C-171.768 160.514 -166.16 173.869 -163.805 179.715C-155.036 172.3 -146.288 164.903 -137.556 157.52L-135.572 155.842L-135.551 155.824L-134.958 155.323L-134.894 155.269C-106.592 131.337 -78.4492 107.54 -50.2945 83.7396L-32.2819 86.7412L-32.2238 86.7508L-32.0069 86.787C-10.9836 90.2904 9.91736 93.7733 30.7457 97.2392C31.035 97.8427 31.3063 98.4023 31.5641 98.9338L31.5648 98.9353L31.5662 98.9382C32.0479 99.9319 32.4822 100.828 32.8985 101.73C36.0257 108.495 39.1494 115.261 42.273 122.026C46.9204 132.092 51.5673 142.156 56.2244 152.218C60.5743 161.621 64.9286 171.024 69.283 180.426L69.3468 180.564L69.4109 180.702C76.2299 195.427 83.0491 210.151 89.8526 224.881C90.7539 226.838 91.5863 228.825 92.4189 230.811L92.4194 230.812L92.4199 230.813L92.4203 230.814L92.4208 230.815L92.4212 230.816L92.4217 230.817L92.4221 230.818L92.4226 230.819L92.4231 230.82L92.4235 230.821L92.4242 230.823L92.427 230.83C92.8193 231.766 93.2116 232.702 93.6112 233.635H95.7427C94.7261 231.396 93.7137 229.155 92.701 226.913L92.6989 226.908L92.6967 226.903L92.6945 226.898L92.6923 226.893L92.6862 226.88C90.4482 221.925 88.2094 216.969 85.9235 212.035C76.0123 190.617 66.0885 169.199 56.1647 147.781L56.1316 147.71L56.0662 147.568L56.001 147.427L55.9683 147.357L55.9035 147.217C51.0245 136.687 46.1456 126.157 41.2682 115.627Z" fill="url(#paint0_linear_1345_1346)"/>
<defs>
<linearGradient id="paint0_linear_1345_1346" x1="-252" y1="10.7224" x2="101.472" y2="227.089" gradientUnits="userSpaceOnUse">
<stop stop-color="#0BBD25"/>
<stop offset="1" stop-color="#0BBD25" stop-opacity="0"/>
</linearGradient>
</defs>
</svg>
