<svg width="470" height="403" viewBox="0 0 470 403" fill="none" xmlns="http://www.w3.org/2000/svg">
<path fill-rule="evenodd" clip-rule="evenodd" d="M428.081 282.403C440.783 298.683 453.498 314.964 466.237 331.22C466.969 332.164 467.825 333.01 468.679 333.856C469.117 334.289 469.555 334.722 469.975 335.167V340.074C469.559 339.654 469.126 339.247 468.693 338.84C467.806 338.008 466.919 337.175 466.176 336.225C439.902 302.583 413.642 268.927 387.382 235.272C369.864 212.821 352.346 190.369 334.824 167.922C307.274 132.605 279.7 97.304 252.128 62.0063C246.09 54.2776 240.053 46.5489 234.016 38.8203C233.338 37.9491 232.608 37.1236 231.788 36.1961C231.404 35.762 231.001 35.3055 230.573 34.8116C228.622 35.1422 226.669 35.4686 224.715 35.7951C220.055 36.5735 215.391 37.3528 210.739 38.1931C194.909 41.0398 179.083 43.8994 163.258 46.7587C148.117 49.4943 132.978 52.2297 117.839 54.9533C81.6498 61.4705 45.4488 67.9754 9.24768 74.468C-2.06287 76.4957 -7.80981 77.4285 -18.6206 79.1833L-20.2518 79.4481C-21.7151 79.6817 -30.5071 81.0958 -30.5071 81.0958C-30.5071 81.0958 -33.2246 83.9732 -34.565 85.4734C-44.2702 96.3193 -54.0636 107.077 -63.8543 117.832C-66.7289 120.989 -69.6034 124.147 -72.4753 127.306C-73.4187 128.343 -74.3865 129.364 -75.4796 130.518C-76.1245 131.199 -76.8131 131.926 -77.566 132.729C-99.5935 110.992 -121.692 89.3659 -143.812 67.7184C-165.664 46.3332 -187.537 24.9274 -209.383 3.37458C-219.507 3.43396 -230.756 3.43396 -242.426 3.43396C-254.097 3.43396 -266.189 3.43396 -278 3.49333V3.19215e-05L-266.751 0L-225.132 1.90485e-05L-207.873 1.15392e-05C-164.589 42.6445 -121.354 85.2398 -77.6275 128.315C-69.5255 119.442 -61.5415 110.694 -53.5722 101.962C-46.5437 94.2604 -39.5265 86.5717 -32.45 78.821C7.16779 71.718 46.8255 64.6101 86.53 57.4938C134.877 48.8286 183.293 40.1509 231.791 31.4546C232.615 32.4622 233.423 33.4401 234.216 34.4003C235.978 36.5335 237.667 38.5787 239.304 40.6647C274.435 85.6087 309.567 130.553 344.673 175.521C362.179 197.933 379.674 220.36 397.17 242.786C407.473 255.993 417.776 269.199 428.081 282.403ZM445.53 327.597L445.528 327.594C442.66 323.785 439.793 319.976 436.922 316.169C404.927 273.697 372.931 231.225 340.923 188.765C321.678 163.235 302.424 137.71 283.169 112.184L283.168 112.182C270.891 95.906 258.613 79.63 246.338 63.352C243.079 59.0278 239.811 54.7135 236.458 50.2876L236.435 50.2576C234.494 47.6956 232.524 45.0961 230.512 42.4356C201.389 47.1869 172.285 51.9353 143.202 56.6803L141.998 56.8767L140.304 57.1531C85.453 66.1023 30.6757 75.0394 -24.0144 83.9611C-28.8181 88.9031 -33.6032 93.8267 -38.3813 98.7429L-38.746 99.1181L-38.759 99.1315C-52.9589 113.742 -67.0987 128.291 -81.4763 143.071C-102.498 121.093 -123.331 99.1734 -144.077 77.3454L-144.082 77.3397C-164.401 55.9615 -184.636 34.6709 -204.884 13.4985C-207.522 13.4985 -210.16 13.4888 -212.778 13.4791H-212.778C-217.957 13.4601 -223.059 13.4413 -227.944 13.4985C-238.66 13.6288 -248.759 13.5864 -259.099 13.543H-259.1C-264.362 13.5208 -269.687 13.4985 -275.188 13.4985C-275.581 13.5072 -276.525 13.5035 -277.259 13.5007C-277.558 13.4995 -277.822 13.4985 -278 13.4985V16.3106C-277.612 16.3365 -276.928 16.3261 -276.368 16.3175H-276.367C-276.129 16.3139 -275.912 16.3106 -275.75 16.3106C-261.421 16.2204 -247.2 16.2505 -232.978 16.2806L-232.976 16.2806C-225.866 16.2956 -218.756 16.3106 -211.633 16.3106C-209.518 16.2737 -206.571 16.3106 -206.571 16.3106C-206.571 16.3106 -203.901 19.1582 -202.757 20.4247C-198.476 25.185 -194.037 29.8018 -189.599 34.4176L-189.599 34.4178C-188.224 35.8471 -186.85 37.2764 -185.481 38.7097C-151.985 73.7672 -120.075 107.152 -86.5548 142.185C-86.0329 142.731 -85.3994 143.465 -84.6709 144.31L-84.6705 144.31L-84.6704 144.31C-83.8886 145.217 -82.9974 146.25 -82.0173 147.313C-80.1295 145.58 -77.3014 142.629 -75.5859 140.839L-75.5851 140.838L-75.4387 140.685C-68.2086 133.166 -61.0186 125.908 -53.8285 118.651L-53.8277 118.65L-53.827 118.649C-46.6367 111.391 -39.4464 104.133 -32.2162 96.6142C-26.9164 91.1054 -21.6534 86.4696 -21.6534 86.4696C-21.6534 86.4696 -15.0379 85.4613 -8.79126 84.4775C7.86435 81.8787 24.5048 79.1433 41.1419 76.4084L41.1515 76.4068C45.6869 75.6612 50.2221 74.9157 54.7574 74.173C65.3464 72.4399 75.9294 70.6884 86.5123 68.9369L86.5248 68.9348C97.1124 67.1825 107.7 65.4302 118.294 63.6963C144.916 59.3433 171.538 55.015 198.172 50.6866C204.865 49.6032 211.562 48.5356 218.269 47.4666L218.269 47.4666C221.839 46.8975 225.412 46.3281 228.987 45.7556C229.407 46.267 229.809 46.7447 230.194 47.2029L230.195 47.2033C230.949 48.1 231.64 48.9222 232.283 49.7766C234.93 53.2835 237.577 56.7903 240.225 60.2973C250.147 73.4404 260.071 86.5851 269.972 99.7375C280.177 113.287 290.378 126.841 300.58 140.395L300.82 140.714C316.98 162.184 333.142 183.656 349.322 205.119C380.1 245.956 410.878 286.781 441.693 327.581C447.906 335.81 454.189 343.99 460.471 352.168L460.475 352.174C463.654 356.312 466.832 360.45 470 364.593V358.457C469.609 358.106 469.2 357.768 468.791 357.43L468.791 357.43C467.825 356.631 466.857 355.831 466.114 354.854C459.224 345.789 452.377 336.693 445.53 327.597ZM283.394 128.189C300.411 151.597 317.427 175.006 334.455 198.405C361.115 235.048 387.802 271.671 414.496 308.303L415.217 309.293C424.419 321.921 433.622 334.55 442.824 347.181C448.915 355.537 455.034 363.876 461.154 372.217C464.103 376.237 467.053 380.257 470 384.28V389.186C468.754 387.581 467.495 385.987 466.236 384.393L466.234 384.391C463.578 381.03 460.923 377.67 458.404 374.209C433.425 339.869 408.472 305.516 383.517 271.16L383.109 270.599C374.073 258.159 365.037 245.719 355.998 233.278C326.806 193.081 297.602 152.883 268.385 112.698C255.4 94.8311 242.391 76.9888 229.381 59.1465C229.09 58.7511 228.767 58.3828 228.336 57.8906L228.335 57.8901L228.334 57.8887L228.333 57.8875C228.054 57.5692 227.73 57.1991 227.34 56.7363C147.203 68.4058 66.771 80.1244 -13.9559 91.8922C-37.6391 115.157 -61.3837 138.496 -85.4112 162.118C-87.4971 159.824 -89.5431 157.585 -91.5602 155.377C-95.0246 151.586 -98.4037 147.888 -101.753 144.165C-109.02 136.093 -116.292 128.027 -123.564 119.96C-148.475 92.3306 -173.384 64.7022 -198.035 36.8528C-200.101 34.5288 -204.663 29.8438 -204.663 29.8438C-204.663 29.8438 -210.873 29.4011 -214.894 29.3027C-229.729 28.4653 -244.772 27.837 -259.7 27.2136L-259.7 27.2136C-265.827 26.9577 -271.935 26.7026 -278 26.4342L-277.975 23.6221C-273.967 23.9314 -270.462 24.0706 -266.528 24.2269H-266.528H-266.528H-266.528C-263.31 24.3547 -259.805 24.4939 -255.503 24.7469C-250.933 25.0158 -247.262 25.1561 -243.458 25.3015C-239.303 25.4604 -234.989 25.6253 -229.17 25.9704C-221.739 26.411 -216.423 26.6248 -211.107 26.8386L-211.106 26.8387L-211.106 26.8387C-208.448 26.9456 -205.79 27.0525 -202.868 27.1877C-170.801 62.8086 -138.883 98.2728 -106.735 133.992L-85.3497 157.753C-63.1208 135.906 -41.3165 114.472 -19.5476 93.0736L-19.1361 92.6692L-15.4561 89.0517C61.34 77.8755 137.961 66.7211 214.645 55.5576L228.594 53.5269C229.09 54.1159 229.564 54.6559 230.014 55.1696L230.015 55.1707C230.881 56.1582 231.661 57.0487 232.357 58.0029C249.367 81.3783 266.366 104.763 283.365 128.148L283.38 128.168L283.394 128.189ZM369.66 267.241C356.519 248.501 343.378 229.759 330.237 211.017L330.085 210.801L329.982 210.654L329.927 210.576C298.325 165.506 266.721 120.433 235.111 75.3655C233.395 72.9194 231.641 70.5007 229.897 68.0948L229.894 68.0915L229.893 68.0903L229.892 68.0883C229.025 66.8922 228.159 65.6993 227.302 64.5077C225.257 64.7716 223.224 65.0344 221.199 65.2961L221.101 65.3087L221.022 65.3189C211.507 66.5486 202.196 67.7519 192.884 68.9221C186.041 69.7804 179.195 70.6229 172.348 71.4655C164.383 72.4457 156.418 73.4259 148.457 74.431C141.628 75.2941 134.805 76.1821 127.981 77.07L127.979 77.0703L127.978 77.0705L127.976 77.0708C120.414 78.0549 112.852 79.0389 105.284 79.989C97.0186 81.0258 88.7534 82.0378 80.4883 83.0497L80.4822 83.0505C71.3005 84.1746 62.1189 85.2988 52.9373 86.457C45.8338 87.3515 38.7339 88.2732 31.6342 89.195L31.6337 89.195L31.6331 89.1951L31.6326 89.1952C20.2855 90.6684 8.93881 92.1415 -2.42188 93.503C-4.04501 93.6997 -7.06998 94.0317 -7.06998 94.0317C-7.06998 94.0317 -8.91443 96.0606 -9.93506 97.0321C-34.6418 120.591 -59.3851 144.089 -84.1405 167.599L-84.1448 167.603L-84.649 168.082C-85.594 168.978 -86.608 169.795 -87.7049 170.679L-87.7053 170.679L-87.7064 170.68L-87.7068 170.68L-87.7114 170.684C-88.2824 171.144 -88.8759 171.622 -89.4938 172.139C-126.642 128.155 -163.433 84.588 -200.433 40.763C-226.182 37.984 -251.981 35.3279 -277.988 32.8071V35.5985C-274.522 35.9582 -271.056 36.3185 -267.591 36.6788C-247.487 38.7691 -227.387 40.8588 -207.27 42.8411C-205.069 43.0625 -201.393 43.4682 -201.393 43.4682C-201.393 43.4682 -199.204 46.0997 -198.343 47.1203C-196.536 49.2299 -194.883 51.4104 -193.222 53.6025L-193.222 53.6026C-191.639 55.6909 -190.049 57.7896 -188.309 59.8473L-106.82 156.461C-103.087 160.884 -99.3278 165.284 -95.4781 169.791L-95.4756 169.794L-95.4702 169.8C-93.4885 172.12 -91.4829 174.468 -89.4446 176.861C-61.1133 149.932 -33.1264 123.334 -5.44681 97.0321C71.9846 87.2194 148.801 77.4805 225.581 67.7417C225.977 68.2198 226.349 68.6537 226.699 69.0624C227.395 69.8729 228.005 70.5843 228.544 71.3445C266.356 125.265 304.144 179.185 341.931 233.118L347.668 241.306L354.851 251.557L361.311 260.777L361.357 260.842L361.403 260.907L361.449 260.972C389.917 301.6 418.387 342.231 446.833 382.878C449.911 387.276 452.883 391.746 455.858 396.221L455.863 396.228L455.867 396.235C457.298 398.387 458.73 400.541 460.175 402.688H463.864C463.454 401.987 463.062 401.273 462.669 400.56L462.669 400.559C461.885 399.133 461.101 397.707 460.175 396.38C434.689 359.985 409.195 323.626 383.7 287.265C379.02 280.591 374.34 273.916 369.66 267.241ZM261.767 128.686L261.795 128.728L261.823 128.77L261.851 128.812L261.88 128.853C278.612 153.684 295.344 178.516 312.087 203.336C331.414 231.99 350.745 260.64 370.073 289.287L370.627 290.108C385.768 312.549 400.908 334.988 416.043 357.424C422.334 366.748 428.64 376.062 434.946 385.376L434.977 385.422C438.865 391.164 442.752 396.907 446.636 402.651H441.718C441.501 402.182 441.306 401.699 441.11 401.216C440.706 400.216 440.302 399.218 439.713 398.347C420.305 369.515 400.876 340.692 381.445 311.868L381.334 311.702L381.084 311.332L380.926 311.098L380.769 310.865C367.617 291.354 354.464 271.842 341.316 252.325C326.161 229.822 311.014 207.314 295.866 184.804C284.527 167.955 273.188 151.104 261.844 134.254C250.309 117.112 238.763 99.9957 227.204 82.8788C226.569 81.9395 225.861 81.0433 225.1 80.0813L225.098 80.0794L225.098 80.0787L225.097 80.0779L225.095 80.0751C224.782 79.679 224.46 79.2717 224.13 78.8456C222.782 78.9613 221.445 79.0679 220.116 79.1739L220.116 79.1739C217.35 79.3946 214.62 79.6123 211.895 79.9031C201.922 80.9774 191.952 82.0673 181.98 83.1573C166.957 84.7996 151.932 86.442 136.898 88.0311C123.263 89.4744 109.621 90.8709 95.98 92.2674L95.9787 92.2675L95.9774 92.2676L95.9762 92.2678L95.9749 92.2679C84.3979 93.453 72.8212 94.6381 61.2498 95.8517C53.2816 96.6817 46.8245 97.3742 40.5613 98.0458C32.4426 98.9164 24.6498 99.7521 14.3139 100.807C13.1457 100.93 4.25528 101.594 4.25528 101.594C4.25528 101.594 0.701569 104.25 -0.478882 105.345C-15.4561 119.264 -30.4456 133.184 -45.4474 147.091C-60.5874 161.125 -75.7519 175.135 -90.9165 189.144L-90.9447 189.17C-91.401 189.595 -91.8975 189.98 -92.5084 190.453L-92.5085 190.453C-92.8524 190.719 -93.2326 191.014 -93.6622 191.359C-114.735 164.678 -135.752 138.062 -156.746 111.475L-156.783 111.428L-156.823 111.378L-157.215 110.881C-171.419 92.8933 -185.613 74.9183 -199.806 56.9454C-203.541 56.3601 -207.254 55.7771 -210.951 55.1966L-210.959 55.1953C-219.065 53.9226 -227.097 52.6615 -235.134 51.4119C-238.878 50.8305 -242.622 50.2552 -246.366 49.6799L-246.37 49.6793L-246.371 49.6791C-256.56 48.1136 -266.749 46.5482 -276.918 44.8579C-277.145 44.823 -277.402 44.8005 -277.669 44.7772C-277.778 44.7676 -277.889 44.7579 -278 44.7472V41.6854C-266.315 43.5118 -254.681 45.3313 -243.099 47.1427L-242.948 47.1664L-242.715 47.2028L-242.708 47.2039L-242.593 47.2218L-242.547 47.229C-227.646 49.5595 -212.829 51.8768 -198.097 54.1787C-163.015 98.5816 -128.302 142.529 -93.2687 186.883C-92.5989 186.314 -91.9631 185.785 -91.3545 185.278L-91.3525 185.277L-91.3523 185.276C-90.0959 184.231 -88.9554 183.282 -87.8706 182.272C-81.2076 176.088 -74.5386 169.91 -67.8693 163.732C-47.8297 145.169 -27.7883 126.604 -7.90604 107.865C-4.51218 104.681 2.12796 98.8521 2.12796 98.8521C2.12796 98.8521 9.44443 98.1512 13.4777 97.8929C26.8451 97.0425 40.1678 95.5029 53.4872 93.9637C58.6567 93.3663 63.8257 92.7689 68.9967 92.2119C77.1334 91.3375 85.2673 90.4412 93.4011 89.5449L93.4016 89.5448L93.4022 89.5447L93.4027 89.5447L93.4033 89.5446C102.539 88.5379 111.675 87.5312 120.814 86.5555C127.836 85.809 134.864 85.0995 141.891 84.39L141.893 84.3899C148.293 83.7438 154.692 83.0978 161.086 82.4239C167.791 81.7171 174.496 80.9857 181.202 80.2543L181.208 80.2536C187.916 79.5219 194.624 78.7903 201.332 78.0832C206.768 77.5066 212.205 76.9742 217.719 76.4341C220.436 76.168 223.173 75.8999 225.938 75.6239C227.351 77.7104 228.757 79.7782 230.156 81.8359L230.162 81.8438C232.339 85.0465 234.5 88.225 236.648 91.4127C245.022 103.836 253.394 116.261 261.767 128.686ZM368.798 309.395L368.516 308.96C352.555 284.306 336.593 259.65 320.621 235C291.823 190.56 263.024 146.12 234.213 101.68C232.094 98.4115 229.935 95.168 227.791 91.9464L227.788 91.9428L227.785 91.9383L227.784 91.9364L227.777 91.9263C226.578 90.1253 225.384 88.3311 224.204 86.5432C200.105 88.5511 176.07 90.5535 152.095 92.5508L151.846 92.5716C104.402 96.5241 57.196 100.457 10.2067 104.373C-13.9883 126.333 -37.9437 148.08 -61.9634 169.886L-62.2192 170.118L-62.7244 170.577C-74.1218 180.924 -85.5344 191.285 -96.9947 201.688L-99.1616 198.746C-131.49 154.852 -163.499 111.392 -195.638 67.7664C-200.692 66.7004 -205.745 65.6324 -210.8 64.5638L-210.924 64.5376L-210.935 64.5351L-210.936 64.5351C-233.128 59.8441 -255.369 55.1428 -277.975 50.5635V53.5884C-277.812 53.6223 -277.648 53.6511 -277.486 53.6794L-277.486 53.6794L-277.486 53.6794L-277.486 53.6794L-277.486 53.6795L-277.485 53.6795C-277.296 53.7127 -277.109 53.7454 -276.93 53.7852C-267.831 55.6789 -258.728 57.5633 -249.626 59.4478C-240.523 61.3322 -231.421 63.2167 -222.321 65.1103C-216.739 66.2726 -211.167 67.484 -205.654 68.6827L-205.652 68.6832C-202.883 69.2851 -200.129 69.8839 -197.396 70.4716L-192.347 77.3342L-192.31 77.3843C-160.653 120.415 -129.167 163.211 -97.5603 206.152C-97.1413 205.81 -96.7764 205.516 -96.4501 205.253C-95.7328 204.675 -95.2024 204.247 -94.6953 203.791C-91.4918 200.885 -88.288 197.98 -85.0839 195.074L-85.0792 195.07L-85.0745 195.066C-71.6165 182.861 -58.155 170.653 -44.7097 158.429C-27.1502 142.468 -9.59076 126.507 7.88266 110.46C9.40744 109.058 12.0758 106.894 12.0758 106.894C12.0758 106.894 31.0863 105.652 38.0092 105.086C45.6718 104.456 53.3303 103.81 60.9893 103.163L60.9901 103.163L60.991 103.163L60.9918 103.163L60.9926 103.163L60.9934 103.163C66.7794 102.675 72.5657 102.186 78.3542 101.705C82.7566 101.341 87.1589 100.985 91.5613 100.629C98.1644 100.094 104.767 99.5603 111.371 98.9996C121.466 98.1455 131.557 97.2755 141.648 96.4054L141.651 96.4051L141.654 96.4049L141.657 96.4046L141.66 96.4044L141.668 96.4037C149.295 95.7461 156.923 95.0884 164.553 94.4376C166.76 94.2498 168.967 94.0617 171.173 93.8736L171.175 93.8735L171.177 93.8733L171.179 93.8732L171.181 93.873L171.183 93.8728C182.413 92.9156 193.645 91.9582 204.886 91.0438C208.897 90.7165 212.908 90.4465 216.997 90.1712C218.9 90.0431 220.82 89.9139 222.765 89.7772C223.781 91.3377 224.785 92.8755 225.779 94.3995C227.614 97.2107 229.419 99.9752 231.213 102.75C238.666 114.247 246.119 125.742 253.572 137.237C272.593 166.574 291.612 195.908 310.624 225.248C347.969 282.919 385.301 340.59 422.609 398.286C423.197 399.197 423.608 400.233 424.017 401.267L424.018 401.267C424.199 401.724 424.38 402.181 424.576 402.626H428.265C427.893 401.898 427.54 401.159 427.186 400.42L427.185 400.418C426.404 398.787 425.623 397.156 424.65 395.642C419.389 387.499 414.11 379.356 408.829 371.21L408.801 371.166C405.303 365.771 401.805 360.375 398.311 354.977C388.565 339.928 378.821 324.877 369.076 309.826L368.798 309.395ZM280.241 189.999L280.26 190.03L280.28 190.062L280.3 190.094L280.32 190.126C292.16 209.203 304.001 228.282 315.85 247.357C329.017 268.556 342.189 289.754 355.362 310.954C372.623 338.734 389.885 366.516 407.14 394.301C408.465 396.425 409.761 398.564 411.057 400.7C411.294 401.091 411.531 401.482 411.768 401.872C411.93 402.14 412.093 402.408 412.255 402.675H408.566C395.323 381.304 382.079 359.933 368.824 338.561C344.144 298.769 319.453 258.978 294.749 219.198C282.495 199.466 270.232 179.739 257.968 160.01L257.934 159.955C250.346 147.749 242.758 135.542 235.172 123.334C233.389 120.469 231.622 117.598 229.854 114.727C228.086 111.855 226.319 108.984 224.536 106.119C223.814 104.944 223.04 103.803 222.258 102.65L222.258 102.649L222.255 102.644L222.252 102.64L222.248 102.635L222.242 102.626C221.884 102.098 221.524 101.567 221.167 101.028C220.727 100.994 220.307 100.949 219.901 100.905C218.999 100.809 218.165 100.719 217.342 100.77C208.06 101.35 198.782 101.947 189.506 102.543L189.483 102.545C182.644 102.984 175.806 103.424 168.968 103.857C161.012 104.361 153.044 104.803 145.075 105.234C138.716 105.576 132.357 105.913 125.999 106.249L125.998 106.249L125.994 106.249L125.991 106.249L125.987 106.25L125.983 106.25L125.979 106.25L125.976 106.25C114.772 106.842 103.57 107.435 92.3724 108.062C70.3123 109.304 20.4621 112.157 20.4621 112.157C20.4621 112.157 17.3387 114.776 15.7894 116.165C-5.40787 135.263 -26.6841 154.281 -47.957 173.296C-53.2161 177.997 -58.475 182.698 -63.7325 187.399C-69.8618 192.876 -75.7968 198.109 -81.7496 203.358L-81.7539 203.362C-86.9061 207.905 -92.0717 212.459 -97.3882 217.194C-98.1936 217.92 -99.0418 218.598 -99.8975 219.283L-99.8983 219.283L-99.899 219.284L-99.8998 219.284L-99.9006 219.285L-99.9014 219.286C-100.494 219.76 -101.091 220.237 -101.68 220.735C-118.792 195.688 -135.848 170.712 -152.912 145.724L-152.945 145.675L-153.001 145.593L-153.04 145.537C-167.03 125.05 -181.025 104.556 -195.06 84.01C-197.646 83.3254 -200.24 82.6375 -202.838 81.9482L-202.849 81.9454L-202.85 81.9451L-202.857 81.9431L-202.862 81.9418L-202.865 81.941C-208.892 80.3423 -214.946 78.7364 -221.006 77.1485C-228.758 75.1218 -236.515 73.0994 -244.273 71.0769L-244.278 71.0756C-255.11 68.2513 -265.945 65.4266 -276.77 62.5894C-277.059 62.5172 -277.354 62.4583 -277.656 62.3981C-277.766 62.3762 -277.876 62.3541 -277.988 62.3311V59.2324C-277.582 59.2816 -277.189 59.3554 -276.807 59.4538C-264.538 62.6421 -252.271 65.8463 -240.004 69.0504C-225.778 72.7664 -211.552 76.4823 -197.322 80.1735C-195.945 80.5301 -193.769 80.9604 -193.769 80.9604C-193.769 80.9604 -191.531 83.6411 -190.608 85.006C-164.825 122.916 -138.966 160.761 -113.102 198.613L-108.32 205.611C-106.773 207.872 -105.188 210.111 -103.475 212.529L-103.474 212.531L-103.471 212.535C-102.652 213.691 -101.804 214.888 -100.917 216.149C-87.4914 204.532 -74.4134 192.792 -61.3831 181.095L-61.3816 181.094C-54.6612 175.061 -47.9536 169.039 -41.2175 163.052C-27.2981 150.675 -13.4148 138.267 0.639282 125.706L0.720123 125.634C6.70285 120.287 12.7166 114.913 18.7775 109.501L33.7538 108.626C96.3663 104.967 159.34 101.287 222.704 97.5854C224.631 100.663 226.577 103.754 228.531 106.857L228.537 106.868C231.865 112.154 235.214 117.474 238.529 122.818C252.394 145.132 266.247 167.452 280.101 189.774L280.107 189.784L280.113 189.793L280.145 189.845L280.177 189.896L280.209 189.947L280.241 189.999ZM223.109 111.702C222.704 111.021 222.245 110.372 221.772 109.703C221.527 109.357 221.279 109.005 221.031 108.64C186.221 109.711 151.46 110.778 116.753 111.843L116.61 111.847L116.015 111.866C86.3828 112.775 56.7895 113.683 27.2375 114.592C13.4048 126.799 -0.400085 138.982 -14.1866 151.148L-14.5667 151.484L-15.0368 151.899C-44.0312 177.486 -72.9448 203.003 -101.864 228.519C-102.467 229.06 -103.745 230.032 -103.745 230.032L-104.815 230.954C-104.815 230.954 -105.196 230.315 -105.602 229.761C-121.45 204.679 -137.372 179.485 -153.33 154.232L-153.483 153.99C-165.927 134.297 -178.395 114.569 -190.867 94.8312C-210.224 88.8416 -229.506 82.8738 -248.787 76.9061L-248.913 76.8671L-249.655 76.6375L-249.99 76.5338L-250.306 76.436C-259.534 73.5798 -268.763 70.7236 -278 67.8648V71.0004C-277.988 71.0066 -277.978 71.0097 -277.969 71.0127C-277.96 71.0158 -277.951 71.0189 -277.938 71.025C-273.268 72.4836 -268.594 73.9221 -263.919 75.3611C-260.395 76.4456 -256.87 77.5304 -253.345 78.6243C-233.24 84.8587 -213.148 91.1053 -192.822 97.4258C-175.868 124.28 -158.906 151.142 -141.877 178.111L-141.752 178.309C-129.698 197.399 -117.61 216.542 -105.467 235.774C-74.875 208.802 -44.4828 182.001 -14.0688 155.181L-14.0299 155.147C0.176727 142.619 14.3882 130.087 28.627 117.531C92.1019 115.575 155.663 113.62 219.285 111.665C219.714 112.342 220.121 112.971 220.509 113.571L220.511 113.575L220.512 113.576L220.513 113.577L220.515 113.579C221.204 114.646 221.836 115.623 222.433 116.621L224.95 120.835C233.335 134.877 241.726 148.928 250.076 162.979C264.438 187.147 278.796 211.321 293.155 235.495L293.213 235.592L293.272 235.691L293.505 236.084L293.622 236.281C307.826 260.195 322.031 284.109 336.238 308.017C342.023 317.755 347.813 327.491 353.602 337.227L353.786 337.536L353.8 337.559C365.504 357.241 377.208 376.922 388.879 396.626C389.629 397.898 390.143 399.315 390.656 400.733L390.657 400.734C390.893 401.385 391.129 402.037 391.388 402.676H396.307C390.67 393.21 385.031 383.744 379.392 374.277C370.38 359.149 361.367 344.019 352.359 328.884C339.96 308.05 327.563 287.218 315.167 266.386L314.529 265.314C284.056 214.107 253.586 162.905 223.109 111.702ZM283.655 232.043C290.505 244.096 297.355 256.149 304.205 268.2L304.445 268.622C329.118 312.023 353.791 355.425 378.452 398.814C378.94 399.67 379.356 400.574 379.772 401.476C379.85 401.645 379.927 401.813 380.006 401.982C380.109 402.206 380.214 402.429 380.321 402.651H376.632C374.863 399.473 373.098 396.292 371.333 393.11L371.333 393.109L371.333 393.108C366.95 385.208 362.566 377.304 358.113 369.45C329.277 318.611 300.404 267.785 271.531 216.959L271.496 216.899C254.429 186.858 237.349 156.83 220.269 126.802C219.768 125.923 219.216 125.068 218.605 124.123L218.604 124.121C218.361 123.745 218.109 123.354 217.846 122.941L36.7796 122.941C-11.4475 165.02 -60.1296 207.492 -109.353 250.432C-110.043 249.276 -110.714 248.164 -111.369 247.078C-112.547 245.127 -113.673 243.262 -114.763 241.381C-120.765 231.045 -126.765 220.709 -132.765 210.374L-132.81 210.296L-132.856 210.217L-132.872 210.19C-148.421 183.404 -163.969 156.621 -179.542 129.852L-189.944 111.087C-195.609 109.054 -201.171 107.055 -206.669 105.079L-206.745 105.051L-206.754 105.048L-206.754 105.048L-206.754 105.048L-206.755 105.048C-215.524 101.896 -224.134 98.8015 -232.749 95.7163C-237.238 94.1067 -241.729 92.5005 -246.22 90.8943L-246.225 90.8926L-246.229 90.891L-246.231 90.8903L-246.233 90.8897L-246.235 90.8891C-256.56 87.196 -266.887 83.5027 -277.201 79.7677C-277.447 79.6816 -277.717 79.6078 -277.988 79.534V77.0747C-261.928 81.8212 -196.425 104.926 -188.088 108.984C-169.88 140.306 -151.577 171.807 -133.113 203.585C-125.053 217.456 -116.963 231.38 -108.836 245.365C-101.827 239.986 -95.4762 234.326 -89.2083 228.739L-89.2072 228.738L-89.2061 228.737L-89.205 228.736L-89.2039 228.735L-89.199 228.73L-89.194 228.726L-89.1934 228.725C-86.0102 225.888 -82.8483 223.07 -79.632 220.317C-73.1907 214.807 -66.8134 209.216 -60.437 203.626C-57.1237 200.722 -53.8107 197.818 -50.4891 194.925C-46.0551 191.067 -41.6131 187.216 -37.1718 183.366L-37.1544 183.351C-32.019 178.9 -26.8846 174.449 -21.7643 169.988C-16.51 165.412 -11.2666 160.821 -6.02222 156.23C-1.57062 152.333 2.88162 148.436 7.34161 144.546C14.5014 138.308 21.6681 132.083 28.7951 125.893L28.8094 125.881L28.8389 125.855L28.8555 125.841C31.219 123.788 33.5781 121.739 35.9311 119.695L219.605 119.695C220.263 120.818 220.93 121.945 221.598 123.077L221.599 123.078L221.6 123.081C223.179 125.753 224.773 128.451 226.319 131.18C245.359 164.662 264.393 198.152 283.425 231.638L283.516 231.799L283.655 232.043ZM209.025 130.281L209.007 130.28L209.007 130.28C199.804 129.924 190.6 129.568 181.387 129.286C172.373 129.009 163.357 128.755 154.34 128.501L154.33 128.501L154.329 128.501L154.327 128.501L154.326 128.501L154.324 128.5L154.323 128.5L154.321 128.5L154.32 128.5L154.318 128.5L154.317 128.5C143.304 128.19 132.291 127.879 121.282 127.528C97.5741 126.778 73.854 126.015 50.1463 125.032C48.0558 124.945 44.416 124.872 44.416 124.872C44.416 124.872 41.2559 127.38 39.6696 128.745C10.3125 154.183 -19.0956 179.557 -48.5042 204.931L-48.5187 204.943C-59.9768 214.83 -71.435 224.716 -82.8902 234.606C-87.3172 238.428 -91.724 242.278 -96.1314 246.128C-99.4244 249.005 -102.718 251.882 -106.02 254.748C-107.286 255.844 -108.588 256.905 -110.095 258.134L-110.096 258.135L-110.106 258.143C-110.776 258.689 -111.487 259.269 -112.254 259.9C-112.649 259.284 -113.03 258.709 -113.394 258.159L-113.401 258.149L-113.401 258.148L-113.403 258.146L-113.403 258.146C-114.227 256.902 -114.966 255.787 -115.587 254.613C-125.586 235.79 -135.564 216.961 -145.542 198.13L-145.564 198.087C-148.401 192.733 -151.238 187.38 -154.075 182.026C-155.98 178.436 -157.887 174.846 -159.793 171.257L-159.827 171.192L-159.829 171.189L-159.83 171.186L-159.832 171.183L-159.833 171.18L-159.835 171.178L-159.836 171.175L-159.838 171.172L-159.839 171.169L-159.841 171.166C-166.836 157.992 -173.831 144.819 -180.795 131.622L-185.763 122.277C-185.981 122.173 -186.198 122.068 -186.416 121.963C-187.663 121.363 -188.913 120.761 -190.19 120.248C-219.444 108.419 -248.697 96.6142 -277.963 84.8218V88.0681C-277.865 88.105 -277.765 88.1419 -277.665 88.1787L-277.665 88.1789L-277.664 88.1792C-277.465 88.2528 -277.266 88.3264 -277.078 88.4001C-266.485 92.6787 -255.89 96.9513 -245.295 101.224C-234.697 105.497 -224.099 109.771 -213.504 114.051C-208.085 116.239 -202.67 118.447 -197.136 120.704L-197.135 120.705L-197.13 120.707L-197.125 120.709L-197.123 120.709C-193.985 121.989 -190.809 123.285 -187.571 124.601L-174.905 149.465V149.477C-163.8 170.354 -152.724 191.242 -141.65 212.13L-141.637 212.154C-137.008 220.885 -132.379 229.615 -127.748 238.344C-123.53 246.288 -119.276 254.219 -115.021 262.138C-114.715 262.71 -114.336 263.248 -113.869 263.91L-113.868 263.911L-113.867 263.913C-113.642 264.233 -113.396 264.583 -113.127 264.979C-66.5817 224.762 -20.2715 184.744 25.9433 144.808L45.6703 127.761C79.6412 128.927 113.477 130.092 147.312 131.257L147.335 131.258C170.259 132.048 193.184 132.837 216.15 133.627C216.613 134.43 217.077 135.214 217.535 135.99C218.439 137.52 219.322 139.016 220.146 140.55C231.752 161.995 243.351 183.444 254.95 204.895L255.085 205.144C269.592 231.973 284.1 258.803 298.623 285.625C311.778 309.929 324.957 334.224 338.136 358.518C345.813 372.671 353.491 386.824 361.163 400.979C361.369 401.355 361.538 401.744 361.71 402.136L361.759 402.25L361.815 402.377C361.856 402.468 361.896 402.56 361.938 402.651H365.627C339.708 354.815 313.785 306.982 287.867 259.156C264.723 216.449 241.582 173.749 218.449 131.057C217.924 130.976 217.454 130.883 217.02 130.797L217.019 130.797C216.326 130.659 215.722 130.538 215.117 130.516C213.122 130.439 211.126 130.362 209.131 130.285L209.113 130.284L209.096 130.284L209.078 130.283L209.061 130.282L209.043 130.282L209.025 130.281ZM218.944 146.363C221.181 150.6 223.377 154.76 225.532 158.933C260.86 227.413 296.188 295.892 331.504 364.421C336.151 373.429 340.707 382.492 345.261 391.555C347.129 395.271 348.997 398.988 350.871 402.7H347.182C346.794 401.874 346.414 401.044 346.033 400.215L346.033 400.214C345.145 398.278 344.256 396.343 343.284 394.449C330.976 370.506 318.654 346.572 306.332 322.639L306.291 322.561L305.895 321.792C298.334 307.105 290.773 292.418 283.215 277.73C274.069 259.95 264.93 242.171 255.792 224.391C243.624 200.719 231.457 177.047 219.273 153.375C218.299 151.491 217.246 149.65 216.152 147.736L216.149 147.733L216.149 147.732C215.573 146.724 214.985 145.696 214.391 144.632C161.012 140.759 107.805 136.898 54.1178 133C16.2013 165.487 -21.7807 198.039 -59.8644 230.679L-60.1206 230.898L-60.7583 231.445C-79.5616 247.56 -98.3897 263.697 -117.247 279.857C-117.572 279.283 -117.87 278.77 -118.145 278.296C-118.724 277.299 -119.204 276.474 -119.62 275.615C-124.953 264.511 -130.281 253.406 -135.609 242.3L-135.641 242.234L-135.673 242.168C-144.832 223.076 -153.991 203.985 -163.175 184.903L-164.036 183.12C-164.179 182.82 -164.321 182.522 -164.463 182.224L-164.463 182.224L-164.464 182.223L-164.464 182.223C-164.734 181.655 -165.003 181.09 -165.277 180.526C-165.296 180.484 -165.316 180.442 -165.337 180.4C-165.355 180.365 -165.372 180.331 -165.389 180.296C-165.406 180.262 -165.422 180.228 -165.437 180.194L-182.333 145.235C-183.006 143.54 -183.777 142.05 -184.538 140.581L-184.538 140.581L-184.538 140.58C-185.013 139.663 -185.484 138.753 -185.923 137.807C-190.205 135.886 -194.507 133.954 -198.821 132.016L-198.935 131.965L-199.149 131.869L-199.313 131.795L-199.379 131.766C-206.749 128.456 -214.154 125.131 -221.559 121.81C-226.953 119.389 -232.347 116.972 -237.742 114.555L-237.76 114.547C-250.832 108.69 -263.903 102.833 -276.955 96.9337C-277.274 96.7862 -277.631 96.6633 -277.987 96.5404H-277.987H-277.987H-277.987H-277.987L-277.987 96.5404L-277.987 96.5404L-277.988 96.5403L-277.988 96.5403L-277.988 96.5402V93.3308C-277.066 93.6751 -276.192 94.0194 -275.344 94.4006C-260.717 100.952 -246.094 107.511 -231.47 114.069L-231.421 114.091C-216.777 120.658 -202.132 127.225 -187.485 133.786C-186.673 134.146 -185.817 134.385 -184.949 134.628L-184.948 134.628L-184.948 134.628L-184.948 134.628L-184.948 134.628L-184.948 134.628L-184.948 134.628L-184.948 134.628L-184.947 134.628L-184.947 134.628L-184.947 134.629L-184.792 134.672L-175.68 151.936C-156.83 191.113 -137.979 230.278 -119.092 269.442C-118.589 270.479 -117.959 271.458 -117.214 272.614L-117.213 272.614C-116.828 273.212 -116.413 273.857 -115.968 274.582C-87.7079 250.38 -59.8582 226.273 -32.0688 202.218L-32.0676 202.217C-4.1998 178.094 23.6075 154.023 51.7076 129.962C57.827 130.373 64.0671 130.772 70.3132 131.171C80.5092 131.822 90.7214 132.475 100.451 133.184C110.7 133.93 120.942 134.717 131.183 135.504L131.185 135.504L131.187 135.504L131.189 135.504L131.191 135.504L131.193 135.504L131.195 135.504L131.197 135.505L131.199 135.505L131.201 135.505L131.203 135.505C140.528 136.221 149.853 136.938 159.18 137.623C166.699 138.177 174.225 138.683 181.753 139.19L181.754 139.19L181.754 139.19L181.755 139.19L181.755 139.19L181.756 139.19L181.756 139.19L181.757 139.19L181.757 139.191L181.758 139.191L181.758 139.191L181.762 139.191L181.765 139.191L181.768 139.191L181.771 139.192L181.774 139.192L181.777 139.192L181.78 139.192L181.783 139.192L181.786 139.193L181.79 139.193C188.124 139.619 194.459 140.046 200.791 140.5C204.347 140.758 207.904 141.1 211.468 141.442L211.47 141.443L211.47 141.443L211.47 141.443L211.471 141.443L211.471 141.443L211.472 141.443L211.472 141.443L211.472 141.443L211.473 141.443C213.181 141.607 214.892 141.771 216.604 141.927C217.389 143.416 218.168 144.893 218.943 146.36L218.944 146.363ZM39.2752 153.907L39.2662 153.915C26.558 164.696 13.8855 175.446 1.21796 186.207C-6.93399 193.136 -15.078 200.078 -23.2228 207.02C-35.3127 217.324 -47.4045 227.63 -59.5271 237.902C-66.2958 243.641 -73.045 249.406 -79.8109 255.185C-93.0923 266.529 -106.438 277.929 -120.125 289.301C-120.525 288.475 -120.888 287.745 -121.22 287.075C-121.858 285.79 -122.386 284.728 -122.854 283.645C-136.872 251.243 -182.075 148.53 -182.075 148.53C-192.519 143.408 -202.971 138.273 -213.403 133.147L-213.478 133.11L-213.545 133.077L-213.602 133.049L-213.609 133.046L-213.616 133.042L-213.62 133.04L-213.631 133.035L-213.637 133.032L-213.644 133.028L-213.654 133.024C-235.268 122.404 -256.795 111.828 -277.988 101.496V104.89C-277.508 105.062 -277.041 105.234 -276.635 105.431C-257.429 114.964 -238.183 124.418 -218.942 133.869L-218.878 133.901L-218.775 133.951L-218.637 134.019C-214.13 136.233 -209.624 138.446 -205.118 140.66C-200.581 142.894 -196.043 145.133 -191.54 147.354C-188.953 148.63 -186.378 149.901 -183.821 151.162C-182.751 153.559 -161.994 201.184 -161.994 201.184C-161.985 201.202 -161.975 201.221 -161.965 201.239L-161.947 201.271C-161.921 201.317 -161.894 201.365 -161.871 201.418L-161.87 201.422C-160.899 203.658 -159.928 205.895 -158.969 208.132L-157.691 211.046H-157.703C-153.807 220.031 -149.998 229.054 -146.19 238.078L-146.19 238.078C-138.881 255.397 -131.572 272.715 -123.641 289.756C-123.131 290.841 -122.593 291.92 -121.948 293.212L-121.947 293.215C-121.737 293.635 -121.516 294.078 -121.28 294.552L-115.766 289.86C-56.6693 239.586 2.1264 189.568 60.9915 139.48L62.5901 138.017L83.6541 140.525L84.0827 140.575C127.002 145.588 169.923 150.6 212.977 155.625C214.049 157.798 215.113 159.952 216.17 162.091L216.174 162.1C219.638 169.113 223.027 175.974 226.38 182.85C235.938 202.408 245.486 221.971 255.034 241.535L255.051 241.571L255.069 241.607L255.086 241.642C264.611 261.158 274.136 280.674 283.67 300.184C292.686 318.637 301.722 337.083 310.758 355.528C317.545 369.382 324.332 383.236 331.11 397.093C331.772 398.444 332.381 399.823 332.99 401.203L332.991 401.204L332.991 401.205L332.991 401.206L332.992 401.206L332.992 401.207L332.992 401.208L332.993 401.209L332.993 401.21L332.994 401.211L332.994 401.211L332.994 401.212C333.21 401.7 333.425 402.188 333.643 402.676H337.332L336.761 401.507C296.274 318.722 255.787 235.936 215.129 152.822C191.179 150.026 167.228 147.233 143.258 144.438C116.093 141.27 88.902 138.099 61.6556 134.918C54.179 141.263 46.721 147.59 39.2752 153.907ZM222.753 183.7L222.744 183.681C220.479 178.767 218.215 173.853 215.941 168.942C215.408 167.783 214.822 166.648 214.203 165.449L214.199 165.442L214.196 165.437C213.931 164.923 213.659 164.397 213.383 163.852C179.137 158.144 144.922 152.436 110.746 146.735L85.1666 142.468L69.3778 140.525C6.05048 194.089 -57.2768 247.64 -120.629 301.167C-121.413 301.826 -122.437 302.654 -123.595 303.59L-124.219 304.094C-124.687 303.009 -125.128 301.807 -125.535 300.7L-125.535 300.7L-125.536 300.698L-125.538 300.693L-125.539 300.689C-125.762 300.082 -125.974 299.504 -126.174 298.991C-137.303 270.131 -184.14 158.417 -184.14 158.417C-214.82 142.265 -242.197 128.39 -271.944 113.314L-271.945 113.314C-273.948 112.299 -275.962 111.278 -277.988 110.251V113.116C-277.712 113.258 -277.436 113.406 -277.164 113.552L-277.162 113.553L-277.161 113.554L-277.159 113.555L-277.145 113.562C-277.023 113.627 -276.902 113.692 -276.783 113.756C-255.324 125.21 -233.864 136.653 -212.405 148.095L-212.373 148.112C-207.276 150.832 -203.605 152.611 -199.911 154.402L-199.911 154.402L-199.91 154.402C-196.154 156.222 -192.373 158.055 -187.042 160.901C-181.657 174.891 -164.803 215.021 -149.783 250.785C-139.152 276.098 -129.44 299.223 -125.363 309.345C-109.109 295.601 -92.8965 281.892 -76.7143 268.209L-76.4126 267.954L-76.063 267.658L-75.6015 267.268C-26.5272 225.772 22.2696 184.511 71.087 143.243C81.5511 144.986 91.9958 146.727 102.423 148.464C138.914 154.545 175.191 160.591 211.342 166.606C211.842 167.65 212.312 168.618 212.758 169.538L212.759 169.54L212.761 169.544C213.595 171.265 214.347 172.816 215.067 174.378C220.479 186.085 225.885 197.793 231.29 209.5L231.29 209.501L231.291 209.501L231.291 209.502L231.291 209.503L231.292 209.504L231.292 209.505L231.292 209.505L231.293 209.506L231.293 209.507L231.294 209.508L231.294 209.509L231.339 209.608C239.367 226.993 247.393 244.377 255.437 261.757C263.021 278.152 270.613 294.545 278.205 310.938L278.257 311.05L278.324 311.195C290.104 336.631 301.884 362.068 313.637 387.514C315.199 390.907 316.643 394.351 318.087 397.796L318.089 397.801L318.089 397.802C318.769 399.424 319.449 401.046 320.142 402.663H323.831C322.062 398.769 320.301 394.87 318.539 390.97L318.531 390.951C314.661 382.383 310.79 373.812 306.837 365.282C289.807 328.48 272.756 291.679 255.704 254.877L255.588 254.627L255.522 254.483L255.362 254.139L255.295 253.995L255.229 253.851L255.162 253.707L255.096 253.564L255.03 253.421L254.964 253.279L254.898 253.137L254.833 252.995L254.767 252.854C246.361 234.712 237.956 216.571 229.553 198.43C227.288 193.538 225.032 188.643 222.776 183.749L222.771 183.739L222.767 183.729L222.762 183.72L222.753 183.7Z" fill="url(#paint0_linear_1901_1568)"/>
<defs>
<linearGradient id="paint0_linear_1901_1568" x1="-255.5" y1="293" x2="412.185" y2="338.427" gradientUnits="userSpaceOnUse">
<stop stop-color="#0BBD25" stop-opacity="0"/>
<stop offset="0.0364583" stop-color="#0BBD25" stop-opacity="0"/>
<stop offset="0.427083" stop-color="#0BBD25" stop-opacity="0"/>
<stop offset="0.494792" stop-color="#0BBD25" stop-opacity="0.14"/>
<stop offset="0.494892" stop-color="#0BBD25" stop-opacity="0.12"/>
<stop offset="0.583333" stop-color="#0BBD25" stop-opacity="0.37"/>
<stop offset="0.625" stop-color="#0BBD25"/>
<stop offset="0.703025" stop-color="#0BBD25" stop-opacity="0.568769"/>
<stop offset="0.703125" stop-color="#0BBD25" stop-opacity="0.35"/>
<stop offset="0.833333" stop-color="#0BBD25" stop-opacity="0"/>
</linearGradient>
</defs>
</svg>
