<svg width="375" height="299" viewBox="0 0 375 299" fill="none" xmlns="http://www.w3.org/2000/svg">
<path fill-rule="evenodd" clip-rule="evenodd" d="M597.001 0.992708L473.544 15.984L357.016 239.328L356.073 239.097V60.7766L312.532 140.362L312.389 140.622H312.093H0V139.622H311.797L356.134 58.581L357.073 58.8209V237.058L472.779 15.2881L472.9 15.0547L473.162 15.023L596.881 0L597.001 0.992708ZM599.063 4.52753L475.606 19.5188L354.954 251.111L354.011 250.88V72.5184L314.002 143.901L313.859 144.157H313.566H0V143.157H313.273L354.075 70.3592L355.011 68.6889V70.6037V248.838L474.84 18.8232L474.962 18.5896L475.224 18.5578L598.943 3.53482L599.063 4.52753ZM478.256 23.0537L601.714 8.06236L601.594 7.06965L477.875 22.0926L477.614 22.1243L477.492 22.3574L352.949 260.626V82.3864V80.4675L352.012 82.1424L315.924 146.692H0V147.692H316.217H316.51L316.653 147.436L351.949 84.3054V262.662L352.892 262.894L478.256 23.0537ZM603.776 11.5972L480.319 26.5885L350.83 274.677L349.887 274.445V96.0627L318.714 150.973L318.57 151.226H318.279H-0.5V150.226H317.988L349.952 93.9223L350.887 92.2757V94.1692V272.407L479.554 25.8925L479.676 25.6592L479.937 25.6275L603.656 10.6045L603.776 11.5972ZM482.381 30.1233L605.838 15.132L605.718 14.1393L481.999 29.1623L481.737 29.194L481.616 29.4275L348.825 284.187V105.952V104.091L347.892 105.701L320.053 153.761H-0.5V154.761H320.341H320.629L320.774 154.512L347.825 107.813V286.228L348.768 286.459L482.381 30.1233ZM608.489 18.6668L485.031 33.6581L346.706 298.242L345.763 298.011V119.551L322.832 158.052L322.687 158.296H322.403H-1V157.296H322.119L345.833 117.479L346.763 115.918V117.735V295.975L484.267 32.9618L484.389 32.7288L484.65 32.6971L608.369 17.6741L608.489 18.6668Z" fill="url(#paint0_linear_1345_1699)"/>
<defs>
<linearGradient id="paint0_linear_1345_1699" x1="-0.999995" y1="148.983" x2="554.258" y2="-85.2241" gradientUnits="userSpaceOnUse">
<stop stop-color="#0BBD25"/>
<stop offset="1" stop-color="#0BBD25" stop-opacity="0"/>
</linearGradient>
</defs>
</svg>
