<svg width="123" height="123" fill="none" xmlns="http://www.w3.org/2000/svg"><g clip-path="url(#clip0_1105_2124)" fill="#1F1F1F"><path d="M69.23 86.495h4.308a6.33 6.33 0 006.323-6.323 6.33 6.33 0 00-6.323-6.323H69.23a6.33 6.33 0 00-6.323 6.323 6.33 6.33 0 006.323 6.323zm0-9.043h4.308c1.5 0 2.72 1.22 2.72 2.72 0 1.5-1.22 2.72-2.72 2.72H69.23c-1.5 0-2.72-1.22-2.72-2.72 0-1.5 1.22-2.72 2.72-2.72zM43.013 52.21h1.697a1.802 1.802 0 000-3.604h-1.697a1.802 1.802 0 100 3.603zm-5.557 3.074H35.76a1.802 1.802 0 100 3.604h1.697a1.802 1.802 0 000-3.604zm3.859 19.609h1.698a1.802 1.802 0 000-3.603h-1.698a1.802 1.802 0 000 3.603zm44.859-35.16a18.987 18.987 0 0011.863 4.176c10.448 0 18.948-8.5 18.948-18.948s-8.5-18.948-18.948-18.948c-8.522 0-16.038 5.738-18.278 13.954a1.801 1.801 0 103.476.948c1.814-6.653 7.9-11.299 14.802-11.299 8.461 0 15.344 6.883 15.344 15.345 0 8.46-6.883 15.344-15.344 15.344-7.174 0-13.317-4.875-14.94-11.854a1.802 1.802 0 00-3.51.816 19.035 19.035 0 006.587 10.466z"/><path d="M98.038 30.789c-2.054 0-3.79-1.172-3.79-2.558a1.802 1.802 0 10-3.604 0c0 2.88 2.384 5.303 5.593 5.975v1.039a1.802 1.802 0 103.603 0v-1.039c3.209-.672 5.592-3.096 5.592-5.975 0-4.375-4.062-5.438-6.75-6.142-2.352-.615-3.335-.99-3.335-1.72 0-.804 1.105-1.7 2.691-1.7 1.586 0 2.692.896 2.692 1.7a1.802 1.802 0 003.603 0c0-2.397-1.897-4.426-4.493-5.081v-1.076a1.802 1.802 0 00-3.603 0v1.076c-2.596.655-4.494 2.684-4.494 5.082 0 3.628 3.483 4.54 6.026 5.205 3.046.797 4.059 1.293 4.059 2.656.001 1.386-1.735 2.558-3.79 2.558zM24.96 79.09c-10.448 0-18.948 8.5-18.948 18.949 0 10.448 8.5 18.948 18.948 18.948s18.948-8.5 18.948-18.948-8.5-18.948-18.948-18.948zm0 34.293c-8.461 0-15.345-6.883-15.345-15.344 0-8.462 6.884-15.345 15.345-15.345 8.46 0 15.344 6.883 15.344 15.345 0 8.461-6.883 15.344-15.344 15.344z"/><path d="M109.409 54.85a6.09 6.09 0 00-8.602 0l-4.503 4.502a34.494 34.494 0 00-2.002-9.71c1.219.184 2.466.28 3.736.28C111.802 49.922 123 38.724 123 24.96 122.999 11.197 111.801 0 98.039 0 84.274 0 73.076 11.197 73.076 24.96c0 1.27.096 2.517.28 3.736A34.644 34.644 0 0061.5 26.628H19.375a7.673 7.673 0 00-5.462 2.262 7.674 7.674 0 00-2.262 5.462v15.525a6.09 6.09 0 00-6.283 1.448 6.09 6.09 0 000 8.602l.953.953a1.802 1.802 0 102.548-2.548l-.953-.953a2.482 2.482 0 010-3.505 2.482 2.482 0 013.506 0l5.196 5.196a1.801 1.801 0 002.548 0l5.196-5.197a2.482 2.482 0 013.506 0c.967.967.967 2.54 0 3.507l-8.223 8.223a2.482 2.482 0 01-3.506 0l-1.318-1.318a1.802 1.802 0 00-2.548 2.548l1.318 1.318a6.064 6.064 0 004.301 1.779 6.064 6.064 0 004.301-1.779l4.503-4.502c.2 3.337.868 6.587 2 9.709a25.073 25.073 0 00-3.735-.28C11.197 73.078 0 84.276 0 98.04 0 111.803 11.197 123 24.96 123c13.764 0 24.962-11.197 24.962-24.96 0-1.27-.096-2.518-.28-3.738a34.65 34.65 0 0011.858 2.07h21.8a1.802 1.802 0 100-3.604h-6.334a35.033 35.033 0 005.41-3.334 34.449 34.449 0 001.855-1.497h16.882c.995 0 1.802-.807 1.802-1.802V70.097c0-.049-.003-.096-.007-.144l2.2-2.2 2.638 2.638v18.257c0 1.1-.428 2.136-1.207 2.914a4.092 4.092 0 01-2.913 1.207H91.717a1.802 1.802 0 000 3.603h11.909a7.67 7.67 0 005.461-2.262 7.674 7.674 0 002.263-5.462V73.127a6.09 6.09 0 001.981.33 6.042 6.042 0 004.301-1.782 6.089 6.089 0 000-8.603l-8.223-8.223zM98.039 3.603c11.776 0 21.357 9.58 21.357 21.357 0 11.776-9.581 21.357-21.358 21.357-11.776 0-21.357-9.58-21.357-21.357S86.26 3.604 98.038 3.604zM31.44 52.69c4.046-13.225 16.217-22.458 30.06-22.458l.288.003c.155.668.236 1.356.236 2.05a6.663 6.663 0 01-1.965 4.744 6.66 6.66 0 01-4.74 1.962 4.853 4.853 0 00-3.455 1.43 4.854 4.854 0 00-1.43 3.455 4.89 4.89 0 004.885 4.883h10.64c1.254 0 2.435.489 3.323 1.375a4.679 4.679 0 011.377 3.326 4.706 4.706 0 01-4.7 4.701h-17.14a5.397 5.397 0 00-3.843 1.593 5.404 5.404 0 00-1.588 3.838 5.436 5.436 0 005.43 5.429h1.783c1.249 0 2.423.486 3.306 1.369a4.645 4.645 0 011.369 3.305A4.68 4.68 0 0150.6 78.37H40.31a24.934 24.934 0 00-7.296-3.958 31.017 31.017 0 01-2.748-14.334c1.956-1.957 2.447-5.077 1.174-7.388zM20.085 36.865v16.19l-2.193 2.192-2.638-2.638V34.352c0-1.1.428-2.136 1.207-2.914a4.094 4.094 0 012.913-1.207l26.659.001a35.054 35.054 0 00-5.462 3.373c-.619.464-1.216.954-1.801 1.458H21.887c-.995 0-1.802.807-1.802 1.802zm8.468 13.19a6.115 6.115 0 00-4.865-.005V38.667h11.475a35.122 35.122 0 00-6.61 11.388zm-3.592 69.341c-11.777 0-21.358-9.581-21.358-21.357 0-11.777 9.581-21.358 21.358-21.358 11.776 0 21.357 9.581 21.357 21.358 0 11.776-9.581 21.357-21.357 21.357zm49.448-86.387a25.082 25.082 0 0015.593 15.585c1.572 3.524 2.532 7.438 2.725 11.296H80.35a5.781 5.781 0 00-5.774 5.774 5.78 5.78 0 005.774 5.775h10.8C86.876 84.224 75.052 92.768 61.5 92.768a31.57 31.57 0 01-12.909-2.774 24.96 24.96 0 00-4.543-8.02h6.553c4.565 0 8.278-3.714 8.278-8.279 0-2.211-.86-4.29-2.424-5.854a8.225 8.225 0 00-5.854-2.424h-1.782a1.828 1.828 0 01-1.293-3.117 1.816 1.816 0 011.293-.535h17.14c4.579 0 8.304-3.726 8.304-8.305a8.262 8.262 0 00-2.433-5.874 8.26 8.26 0 00-5.871-2.43h-10.64a1.282 1.282 0 01-.906-2.186c.242-.242.564-.376.906-.376a10.24 10.24 0 007.288-3.017 10.243 10.243 0 003.02-7.291c0-.605-.047-1.207-.132-1.802a31.278 31.278 0 018.914 2.525zm16.412 34.826H80.349a2.173 2.173 0 01-2.17-2.17c0-1.198.973-2.172 2.17-2.172H92.2a6.037 6.037 0 00-1.38 4.342zm8.49 16.498H87.836a35.112 35.112 0 006.608-11.386c.76.333 1.586.51 2.44.51.85 0 1.672-.175 2.427-.504v11.38zm15.773-15.206a2.463 2.463 0 01-1.753.726 2.465 2.465 0 01-1.753-.726l-5.196-5.196a1.795 1.795 0 00-1.274-.528c-.461 0-.922.176-1.274.528l-5.196 5.196a2.482 2.482 0 01-3.506 0 2.463 2.463 0 01-.726-1.753c0-.662.258-1.285.726-1.753l8.223-8.223a2.483 2.483 0 013.507 0l8.223 8.223a2.482 2.482 0 01-.001 3.506z"/><path d="M30.212 104.676h-6.666a13.11 13.11 0 001.324-2.968h3.558a1.802 1.802 0 000-3.604h-4.17a4.085 4.085 0 01-.964-2.624 4.082 4.082 0 015.34-3.879 1.802 1.802 0 101.114-3.427 7.68 7.68 0 00-2.376-.375c-4.236 0-7.681 3.445-7.681 7.68 0 .904.16 1.791.464 2.625h-.447a1.802 1.802 0 000 3.604h1.324c-.427.963-1.161 2.196-2.43 3.526a1.803 1.803 0 001.304 3.046h10.306a1.802 1.802 0 000-3.604z"/></g><defs><clipPath id="clip0_1105_2124"><path fill="#fff" d="M0 0h123v123H0z"/></clipPath></defs></svg>