<svg width="123" height="123" fill="none" xmlns="http://www.w3.org/2000/svg"><g clip-path="url(#clip0_1105_2151)" fill="#1F1F1F"><path d="M47.15 26.65a2.05 2.05 0 00-2.05 2.05v10.25h-6.15A2.05 2.05 0 0036.9 41v53.3a2.05 2.05 0 002.05 2.05h6.15v8.2a2.05 2.05 0 004.1 0v-8.2h6.15a2.05 2.05 0 002.05-2.05V41a2.05 2.05 0 00-2.05-2.05H49.2V28.7a2.05 2.05 0 00-2.05-2.05zm6.15 16.4v49.2H41v-49.2h12.3zm22.55-24.6a2.05 2.05 0 00-2.05 2.05v10.25h-6.15a2.05 2.05 0 00-2.05 2.05v53.3a2.05 2.05 0 002.05 2.05h6.15v8.2a2.05 2.05 0 004.1 0v-8.2h6.15a2.05 2.05 0 002.05-2.05V32.8a2.05 2.05 0 00-2.05-2.05H77.9V20.5a2.05 2.05 0 00-2.05-2.05zM82 34.85v49.2H69.7v-49.2H82zm22.549 8.2a2.05 2.05 0 00-2.05 2.05v10.25h-6.15a2.05 2.05 0 00-2.05 2.05v53.3a2.05 2.05 0 002.05 2.05h6.15v8.2a2.05 2.05 0 004.1 0v-8.2h6.15a2.05 2.05 0 002.05-2.05V57.4a2.05 2.05 0 00-2.05-2.05h-6.15V45.1a2.05 2.05 0 00-2.05-2.05zm6.15 16.4v49.2h-12.3v-49.2h12.3zM18.451 0a2.05 2.05 0 00-2.05 2.05V12.3h-6.15a2.05 2.05 0 00-2.05 2.05v53.3a2.05 2.05 0 002.05 2.05h6.15v8.2a2.05 2.05 0 004.1 0v-8.2h6.15a2.05 2.05 0 002.05-2.05v-53.3a2.05 2.05 0 00-2.05-2.05h-6.15V2.05A2.05 2.05 0 0018.451 0zm6.15 16.4v49.2h-12.3V16.4h12.3z"/></g><defs><clipPath id="clip0_1105_2151"><path fill="#fff" d="M0 0h123v123H0z"/></clipPath></defs></svg>