<svg width="123" height="123" fill="none" xmlns="http://www.w3.org/2000/svg"><g clip-path="url(#clip0_1105_2140)" fill="#1F1F1F"><path d="M111.331 17.177H89.313V9.95a1.8 1.8 0 10-3.602 0v7.227h-7.46a1.8 1.8 0 100 3.602h7.46v7.625h-1.352a3.427 3.427 0 00-3.422 3.423v21.2a3.426 3.426 0 003.422 3.422h1.352v14.286a1.8 1.8 0 103.602 0V56.45h1.351a3.426 3.426 0 003.422-3.422v-21.2a3.426 3.426 0 00-3.422-3.423h-1.351V20.78h22.018c4.327 0 7.848 3.52 7.848 7.848V90.26H3.822V28.627c0-4.327 3.52-7.848 7.848-7.848h31.567v3.515h-1.352a3.426 3.426 0 00-3.422 3.422v21.2a3.426 3.426 0 003.422 3.422h1.352v15.913a1.8 1.8 0 003.601 0V52.338h1.352a3.426 3.426 0 003.422-3.422v-21.2a3.426 3.426 0 00-3.422-3.422h-1.352v-3.515h7.46a1.8 1.8 0 000-3.602h-7.46v-.889a1.8 1.8 0 10-3.601 0v.89H11.67C5.357 17.177.22 22.313.22 28.627V92.06c0 6.313 5.137 11.449 11.45 11.449h27.412v9.156l-5.804 6.733h-2.304a1.8 1.8 0 100 3.601H91.86a1.8 1.8 0 100-3.601h-2.137l-5.804-6.733v-9.156h27.412c6.313 0 11.449-5.136 11.449-11.45V28.628c0-6.313-5.136-11.45-11.449-11.45zm-20.846 35.67h-5.946v-20.84h5.946v20.84zm-42.474-4.11h-5.947V27.895h5.947v20.842zm63.32 51.171H74.886a1.801 1.801 0 000 3.602h5.431v8.024h-4.485a1.801 1.801 0 000 3.602h5.46l3.675 4.263H38.033l3.675-4.263h5.461a1.8 1.8 0 100-3.602h-4.485v-8.024H67.21a1.8 1.8 0 100-3.602H11.67c-3.708 0-6.82-2.585-7.637-6.046h114.935c-.816 3.461-3.929 6.046-7.637 6.046z"/><path d="M19.025 52.574a1.8 1.8 0 00-1.8 1.8v4.348a3.426 3.426 0 003.422 3.422h1.352v9.59a1.8 1.8 0 003.601 0v-9.59h1.352a3.426 3.426 0 003.422-3.422v-21.2a3.427 3.427 0 00-3.422-3.422H25.6v-2.88a1.8 1.8 0 10-3.601 0v2.88h-1.352a3.426 3.426 0 00-3.422 3.422V46.7a1.8 1.8 0 003.601 0v-8.999h5.947v20.842h-5.947v-4.168a1.8 1.8 0 00-1.8-1.801zm44.097-3.799h1.351v9.59a1.8 1.8 0 103.602 0v-9.59h1.352a3.427 3.427 0 003.422-3.423V31.228a1.8 1.8 0 10-3.602 0v13.945h-5.946V12.566h5.946v10.987a1.8 1.8 0 103.602 0V12.387a3.427 3.427 0 00-3.422-3.422h-1.352V1.801a1.8 1.8 0 10-3.602 0v7.164h-1.351a3.426 3.426 0 00-3.423 3.422v32.965a3.426 3.426 0 003.423 3.423zm34.782.595a1.8 1.8 0 002.439.73l8.295-4.473-.597 1.566a1.801 1.801 0 003.366 1.282l2.028-5.322a1.801 1.801 0 00-1.042-2.324l-5.649-2.152a1.801 1.801 0 00-1.282 3.366l1.31.499-8.138 4.388a1.8 1.8 0 00-.73 2.44zM10.868 84.555a1.8 1.8 0 002.364.947l23.237-9.945 2.112 5.533a1.8 1.8 0 002.537.942l38.388-20.698a1.8 1.8 0 10-1.709-3.17L41.214 77.89l-2.048-5.367a1.8 1.8 0 00-2.391-1.014l-24.96 10.683a1.801 1.801 0 00-.947 2.364z"/></g><defs><clipPath id="clip0_1105_2140"><path fill="#fff" d="M0 0h123v123H0z"/></clipPath></defs></svg>