<svg width="30" height="30" fill="none" xmlns="http://www.w3.org/2000/svg"><path d="M27.5 6.875H11.25a2.507 2.507 0 00-2.5 2.5v11.25a2.5 2.5 0 002.5 2.5H27.5c1.387 0 2.5-1.113 2.5-2.5V9.375a2.5 2.5 0 00-2.5-2.5zm0 13.75H11.25v-9.162l8.125 4.162 8.125-4.162v9.162zm-8.125-7.113L11.25 9.375H27.5l-8.125 4.137zM6.25 20.625c0 .212.037.413.063.625H1.25C.56 21.25 0 20.687 0 20c0-.688.56-1.25 1.25-1.25h5v1.875zM3.75 8.75h2.563c-.026.213-.063.412-.063.625v1.875h-2.5c-.688 0-1.25-.563-1.25-1.25 0-.688.563-1.25 1.25-1.25zM1.25 15c0-.688.563-1.25 1.25-1.25h3.75v2.5H2.5c-.688 0-1.25-.563-1.25-1.25z" fill="#1F1F1F"/></svg>