<svg width="30" height="30" fill="none" xmlns="http://www.w3.org/2000/svg"><path d="M14.795 9.955a4.851 4.851 0 00-4.84 4.84 4.85 4.85 0 004.84 4.841 4.85 4.85 0 004.84-4.84 4.851 4.851 0 00-4.84-4.841zm14.518 4.84c0-2.004.018-3.99-.094-5.991-.113-2.324-.643-4.387-2.342-6.086C25.174 1.014 23.115.488 20.79.375 18.786.263 16.8.281 14.8.281c-2.005 0-3.991-.018-5.992.094-2.324.113-4.387.643-6.087 2.343C1.017 4.42.49 6.48.378 8.804c-.112 2.004-.094 3.99-.094 5.992 0 2-.018 3.99.094 5.992.113 2.324.643 4.386 2.342 6.086 1.704 1.703 3.763 2.23 6.087 2.342 2.004.113 3.99.094 5.992.094 2.004 0 3.99.019 5.991-.094 2.325-.113 4.387-.643 6.087-2.342 1.703-1.703 2.23-3.762 2.342-6.086.116-2.002.094-3.988.094-5.992zm-14.518 7.449a7.438 7.438 0 01-7.448-7.448 7.438 7.438 0 017.448-7.448 7.438 7.438 0 017.448 7.448 7.438 7.438 0 01-7.448 7.448zm7.753-13.462c-.962 0-1.74-.777-1.74-1.74 0-.962.778-1.739 1.74-1.739a1.737 1.737 0 011.608 2.406 1.737 1.737 0 01-1.608 1.073z" fill="#fff"/></svg>