<svg width="30" height="30" fill="none" xmlns="http://www.w3.org/2000/svg"><g clip-path="url(#clip0)"><path d="M30 15.092C30 6.756 23.284-.002 15-.002 6.712 0-.004 6.756-.004 15.094c0 7.531 5.486 13.775 12.656 14.908V19.455H8.846v-4.361h3.81v-3.329c0-3.781 2.24-5.87 5.666-5.87 1.643 0 3.358.294 3.358.294v3.713h-1.89c-1.862 0-2.444 1.164-2.444 2.359v2.83h4.16l-.665 4.362h-3.496V30C24.514 28.867 30 22.624 30 15.092z" fill="#fff"/></g><defs><clipPath id="clip0"><path fill="#fff" d="M0 0h30v30H0z"/></clipPath></defs></svg>