<svg width="34" height="24" fill="none" xmlns="http://www.w3.org/2000/svg"><g clip-path="url(#clip0)"><path d="M33.308 3.742a4.257 4.257 0 00-2.993-3C27.655.012 17.012 0 17.012 0S6.37-.012 3.708.686a4.349 4.349 0 00-3 3.02C.007 6.368 0 11.886 0 11.886s-.007 5.545.69 8.178a4.257 4.257 0 002.995 2.998c2.687.73 13.301.743 13.301.743s10.643.012 13.304-.685a4.272 4.272 0 003.001-2.995c.704-2.659.709-8.175.709-8.175s.034-5.546-.692-8.207zm-19.7 13.255l.008-10.193 8.846 5.105-8.855 5.088z" fill="#fff"/></g><defs><clipPath id="clip0"><path fill="#fff" d="M0 0h34v24H0z"/></clipPath></defs></svg>