<svg width="50" height="50" fill="none" xmlns="http://www.w3.org/2000/svg"><path d="M35.417 29.167h4.166v6.25h6.25v4.166h-6.25v6.25h-4.166v-6.25h-6.25v-4.166h6.25v-6.25zm-25-22.917h29.166a4.152 4.152 0 014.167 4.167v16.25a12.467 12.467 0 00-4.167-1.5v-14.75H10.417v29.166h14.75c.25 1.5.77 2.896 1.5 4.167h-16.25a4.152 4.152 0 01-4.167-4.167V10.417a4.152 4.152 0 014.167-4.167zm4.166 8.333h20.834v4.167H14.583v-4.167zm0 8.334h20.834v2.25a12.272 12.272 0 00-4.834 1.916h-16v-4.166zm0 8.333H25v4.167H14.583V31.25z" fill="#F3F3F3"/></svg>