<svg width="50" height="50" fill="none" xmlns="http://www.w3.org/2000/svg"><path d="M43.75 6.25H6.25v12.5h37.5V6.25zm-4.167 8.333H10.417v-4.166h29.166v4.166zm-9.375 8.334c.584 0 1.042.458 1.042 1.041v3.125h-12.5v-3.125c0-.583.458-1.041 1.042-1.041h10.416zM37.5 27.27v-6.438h4.167v6.438c-.688-.104-1.375-.188-2.084-.188-.708 0-1.395.084-2.083.188zM27.083 39.583c0 1.459.271 2.855.73 4.167H8.332V20.833H12.5v18.75h14.583zm19.792-3.645l-9.896 9.895-5.729-6.25 2.417-2.416 3.312 3.312L44.46 33l2.416 2.938z" fill="#F3F3F3"/></svg>