<svg width="1118" height="582" fill="none" xmlns="http://www.w3.org/2000/svg"><path d="M315.612 310.803l99.834-59.088 8.147-4.821 8.147 4.821 91.691 54.266L714.96 192.624l16.295 29.063-199.677 118.179-8.147 4.822-8.147-4.822-91.691-54.265-91.691 54.265-16.29-29.063z" fill="#166267"/><path d="M802.218 70.972l-23.202 41.314-23.197 41.309-23.197-41.309-.234-.422 8.571 15.338-204.338 121.294-8.338 4.954-8.337-4.954-93.832-55.698-93.832 55.698-16.67-29.831 102.165-60.647 8.337-4.949 8.338 4.949 93.831 55.698L724.258 97.384l-14.834-26.407 46.395-.005h46.399z" fill="#166267"/><path d="M315.612 118.167l99.821-59.081 8.211-4.861 8.211 4.86L523.5 113.33 714.963.009l16.292 29.058-199.643 118.159-8.181 4.847-8.176-4.847-91.611-54.22-91.611 54.22-16.421-29.059zM31.351 492.699c0-12.165 2.677-22.708 8.03-31.629 5.514-9.084 12.651-16.058 21.41-20.924 8.921-5.029 18.572-7.543 28.953-7.543 8.11 0 15.409 1.054 21.897 3.163 6.488 2.109 12.328 5.028 17.518 8.759 5.353 3.568 9.976 7.624 13.868 12.165v-34.062c-7.136-5.84-14.841-10.3-23.113-13.382-8.273-3.082-18.654-4.623-31.143-4.623-12.49 0-24.168 2.109-35.036 6.326-10.705 4.217-20.032 10.3-27.98 18.248S11.563 446.553 7.021 457.42c-4.38 10.705-6.57 22.465-6.57 35.279 0 12.814 2.19 24.655 6.57 35.522 4.542 10.706 10.786 20.032 18.734 27.98 7.948 7.948 17.275 14.031 27.98 18.248 10.868 4.217 22.546 6.326 35.036 6.326 12.489 0 22.87-1.541 31.143-4.623 8.272-3.082 15.977-7.542 23.113-13.382v-34.062c-3.892 4.542-8.515 8.678-13.868 12.408-5.19 3.569-11.03 6.407-17.518 8.516-6.488 2.109-13.787 3.163-21.897 3.163-10.38 0-20.032-2.433-28.953-7.299-8.759-5.028-15.896-12.084-21.41-21.168-5.353-9.083-8.03-19.626-8.03-31.629zm152.407 0c0-12.165 2.676-22.708 8.029-31.629 5.515-9.084 12.652-16.058 21.411-20.924 8.921-5.029 18.572-7.543 28.953-7.543 8.11 0 15.409 1.054 21.897 3.163 6.488 2.109 12.327 5.028 17.518 8.759 5.353 3.568 9.975 7.624 13.868 12.165v-34.062c-7.137-5.84-14.841-10.3-23.114-13.382-8.272-3.082-18.653-4.623-31.142-4.623-12.49 0-24.169 2.109-35.036 6.326-10.705 4.217-20.032 10.3-27.98 18.248s-14.193 17.356-18.734 28.223c-4.38 10.705-6.57 22.465-6.57 35.279 0 12.814 2.19 24.655 6.57 35.522 4.541 10.706 10.786 20.032 18.734 27.98 7.948 7.948 17.275 14.031 27.98 18.248 10.867 4.217 22.546 6.326 35.036 6.326 12.489 0 22.87-1.541 31.142-4.623 8.273-3.082 15.977-7.542 23.114-13.382v-34.062c-3.893 4.542-8.515 8.678-13.868 12.408-5.191 3.569-11.03 6.407-17.518 8.516-6.488 2.109-13.787 3.163-21.897 3.163-10.381 0-20.032-2.433-28.953-7.299-8.759-5.028-15.896-12.084-21.411-21.168-5.353-9.083-8.029-19.626-8.029-31.629zm131.239-85.156v170.312h96.348v-25.79h-67.638V407.543h-28.71zm114.638 85.156c0-11.679 2.433-22.059 7.299-31.143 5.028-9.245 11.922-16.463 20.681-21.654 8.759-5.19 18.734-7.785 29.926-7.785 11.516 0 21.573 2.595 30.17 7.785 8.759 5.191 15.571 12.409 20.437 21.654 4.866 9.084 7.299 19.464 7.299 31.143 0 11.679-2.514 22.141-7.542 31.386-4.866 9.084-11.679 16.22-20.438 21.411-8.596 5.19-18.572 7.786-29.926 7.786-11.192 0-21.167-2.596-29.926-7.786-8.759-5.191-15.653-12.327-20.681-21.411-4.866-9.245-7.299-19.707-7.299-31.386zm-30.413 0c0 12.652 2.19 24.411 6.569 35.279 4.38 10.868 10.462 20.275 18.248 28.223 7.948 7.948 17.356 14.193 28.223 18.735 10.868 4.379 22.627 6.569 35.279 6.569 12.814 0 24.574-2.19 35.279-6.569 10.868-4.542 20.275-10.787 28.223-18.735 7.948-7.948 14.112-17.355 18.491-28.223 4.38-10.868 6.569-22.627 6.569-35.279 0-12.814-2.189-24.574-6.569-35.279-4.379-10.705-10.624-19.951-18.734-27.736-7.948-7.948-17.275-14.112-27.98-18.492-10.705-4.379-22.465-6.569-35.279-6.569-12.489 0-24.168 2.19-35.036 6.569-10.705 4.38-20.113 10.544-28.223 18.492-7.948 7.785-14.111 17.031-18.491 27.736-4.379 10.705-6.569 22.465-6.569 35.279zm187.771-85.156v114.352c0 9.408 1.46 17.843 4.38 25.304 2.919 7.299 7.137 13.544 12.651 18.734 5.678 5.191 12.328 9.165 19.951 11.922 7.624 2.758 15.977 4.136 25.061 4.136 9.083 0 17.436-1.378 25.06-4.136 7.623-2.757 14.192-6.731 19.707-11.922 5.515-5.19 9.732-11.435 12.652-18.734 3.082-7.461 4.623-15.896 4.623-25.304V407.543h-28.71v113.136c0 10.543-2.838 19.059-8.516 25.547-5.677 6.326-13.949 9.489-24.816 9.489-11.03 0-19.384-3.163-25.061-9.489-5.515-6.488-8.272-15.004-8.272-25.547V407.543h-28.71zm145.07 0v170.312h29.196V407.543h-29.196zm54.986 170.312c17.356 0 32.603-3.487 45.741-10.462 13.139-7.137 23.357-17.031 30.656-29.683 7.462-12.814 11.192-27.818 11.192-45.011s-3.73-32.116-11.192-44.768c-7.299-12.814-17.517-22.708-30.656-29.683-13.138-7.137-28.385-10.705-45.741-10.705h-37.225v27.007h36.495c8.435 0 16.221 1.216 23.357 3.649 7.137 2.433 13.301 6.083 18.491 10.949 5.353 4.866 9.489 10.948 12.409 18.248 3.082 7.299 4.623 15.733 4.623 25.303s-1.541 18.005-4.623 25.304c-2.92 7.299-7.056 13.381-12.409 18.247-5.19 4.866-11.354 8.516-18.491 10.949-7.136 2.433-14.922 3.65-23.357 3.65h-36.495v27.006h37.225zm117.558-144.522h76.153v-25.79h-76.153v25.79zm0 67.638h73.72v-25.06h-73.72v25.06zm-17.762-93.428v170.312h28.224V407.543h-28.224z" fill="#166267"/><path d="M1078.86 407.543l-32.6 57.663-31.87-57.663h-34.795l50.365 81.75-56.447 88.562h34.797l37.71-65.448 36.49 65.448h35.04l-55.23-88.562 51.58-81.75h-35.04z" fill="#166267"/></svg>