<svg width="100" height="100" fill="none" xmlns="http://www.w3.org/2000/svg"><path d="M66.083 27.02a1.562 1.562 0 011.105-.457H79.04l15.168-15.168a1.564 1.564 0 112.21 2.21L80.791 29.23a1.562 1.562 0 01-1.105.457H67.835l-22.98 22.98a1.56 1.56 0 01-1.105.458H30.305L5.756 76.14a1.563 1.563 0 01-2.137-2.28l25-23.437c.29-.272.672-.423 1.069-.423h13.415l22.98-22.98zm19.855 4.23h9.374a1.563 1.563 0 011.563 1.563v59.374a1.563 1.563 0 01-1.563 1.563h-9.374a1.563 1.563 0 01-1.563-1.563V32.813a1.563 1.563 0 011.563-1.563zM87.5 90.625h6.25v-56.25H87.5v56.25zm-7.812 3.125h-9.376a1.563 1.563 0 01-1.562-1.563V45.313a1.563 1.563 0 011.563-1.563h9.374a1.563 1.563 0 011.563 1.563v46.874a1.563 1.563 0 01-1.563 1.563zm-1.563-46.875h-6.25v43.75h6.25v-43.75zm-25 45.313V56.25a1.563 1.563 0 011.563-1.563h9.374a1.563 1.563 0 011.563 1.563v35.938a1.563 1.563 0 01-1.563 1.562h-9.374a1.563 1.563 0 01-1.563-1.563zm3.125-1.563h6.25V57.812h-6.25v32.813zM37.5 92.188V68.75a1.563 1.563 0 011.563-1.563h9.374A1.563 1.563 0 0150 68.75v23.438a1.563 1.563 0 01-1.563 1.562h-9.374a1.563 1.563 0 01-1.563-1.563zm3.125-1.563h6.25V70.312h-6.25v20.313zM23.438 93.75a1.563 1.563 0 01-1.563-1.563V75a1.563 1.563 0 011.563-1.563h9.375A1.563 1.563 0 0134.374 75v17.188a1.563 1.563 0 01-1.563 1.562h-9.374zm7.812-17.188H25v14.063h6.25V76.562zM7.813 93.75a1.563 1.563 0 01-1.563-1.563v-9.374a1.563 1.563 0 011.563-1.563h9.375a1.563 1.563 0 011.562 1.563v9.374a1.563 1.563 0 01-1.563 1.563H7.813zm7.812-9.375h-6.25v6.25h6.25v-6.25zM10.937 6.25h12.5A1.563 1.563 0 0125 7.813v26.562h4.687a1.562 1.562 0 011.105 2.667l-12.5 12.5a1.562 1.562 0 01-2.21 0l-12.5-12.5a1.563 1.563 0 011.105-2.667h4.688V7.812a1.562 1.562 0 011.562-1.562zM8.46 37.5l8.727 8.728 8.728-8.728h-2.478a1.562 1.562 0 01-1.562-1.563V9.375H12.5v26.563a1.563 1.563 0 01-1.563 1.562H8.46z" fill="#000"/></svg>