<svg width="100" height="100" fill="none" xmlns="http://www.w3.org/2000/svg"><path d="M87.5 38.722V23.437a1.563 1.563 0 00-1.563-1.562H70.052l-10.283-9.929a14.063 14.063 0 00-19.536 0L29.95 21.875H14.062a1.563 1.563 0 00-1.562 1.563v15.284l-8.898 8.591a1.564 1.564 0 00-.477 1.124v43.75a1.562 1.562 0 001.563 1.563h90.624a1.562 1.562 0 001.563-1.563v-43.75a1.562 1.562 0 00-.477-1.124l-8.898-8.59zm0 4.344l5.065 4.89-5.065 2.271v-7.16zM84.375 25v6.25h-6.086A10.981 10.981 0 0175.116 25h9.259zm0 9.375v9.264a10.962 10.962 0 01-9.264-9.264h9.264zm-41.973-20.18a10.897 10.897 0 0115.194 0l7.956 7.68H34.448l7.954-7.68zM28.036 25h43.93a14.126 14.126 0 002.288 6.25H63.258a17.185 17.185 0 00-26.515 0H25.76A13.913 13.913 0 0028.036 25zm30.814 6.25H41.152a14.09 14.09 0 0117.698 0zM15.625 25h9.264a10.857 10.857 0 01-3.092 6.172l.078.078h-6.25V25zm0 9.375h9.264a10.964 10.964 0 01-9.264 9.264v-9.264zm0 12.411a14.086 14.086 0 0012.411-12.411h43.928a14.086 14.086 0 0012.411 12.411v4.842l-19.667 8.816a17.186 17.186 0 10-29.42-.002l-19.663-8.814v-4.842zM50 50a1.563 1.563 0 010-3.125h3.125a1.563 1.563 0 000-3.125h-1.563v-1.563a1.563 1.563 0 10-3.124 0v1.832A4.688 4.688 0 0050 53.125a1.563 1.563 0 010 3.125h-3.125a1.563 1.563 0 000 3.125h1.144a14.008 14.008 0 00-6.558 2.74l-.398.304a14.063 14.063 0 1117.873 0l-.397-.304a14.016 14.016 0 00-6.977-2.794v-.215A4.687 4.687 0 0050 50zm-37.5-6.934v7.161l-5.065-2.27 5.065-4.89zM6.25 50.85l31.484 14.114L6.25 89.027V50.85zm3.055 39.775l34.053-26.027a10.96 10.96 0 0113.284 0l34.053 26.027H9.305zm84.445-1.598L62.266 64.964 93.75 50.85v38.177z" fill="#000"/></svg>