<svg width="100" height="100" fill="none" xmlns="http://www.w3.org/2000/svg"><path d="M96.723 52.453L82.997 23.63a4.683 4.683 0 00-1.747-7.735v-1.832a1.563 1.563 0 00-1.563-1.562H56.246a7.88 7.88 0 00-1.299-1.354l-.26-6.52a1.562 1.562 0 00-1.562-1.501h-6.25a1.562 1.562 0 00-1.561 1.5l-.261 6.52a7.88 7.88 0 00-1.299 1.355H20.313a1.563 1.563 0 00-1.563 1.563v1.83a4.684 4.684 0 00-1.747 7.735L3.277 52.453h.001c-.1.21-.153.44-.153.672a17.188 17.188 0 0034.375 0c0-.232-.053-.462-.153-.671h.001L23.622 23.629a4.7 4.7 0 001.11-1.754h19.023c.252.334.53.648.832.938L42.249 81.25H23.437a1.563 1.563 0 00-1.562 1.563V87.5H12.5a1.563 1.563 0 00-1.563 1.563v6.25a1.563 1.563 0 001.563 1.562h75a1.563 1.563 0 001.563-1.563v-6.25A1.563 1.563 0 0087.5 87.5h-9.375v-4.688a1.563 1.563 0 00-1.563-1.562h-18.81l-2.338-58.438c.301-.29.58-.603.832-.937h19.023c.234.66.613 1.26 1.11 1.754L62.651 52.453h.001c-.1.21-.153.44-.153.672a17.187 17.187 0 1034.375 0c0-.232-.053-.462-.153-.671h.001zM20.313 18.75a1.563 1.563 0 110 3.125 1.563 1.563 0 010-3.125zm0 48.438a14.083 14.083 0 01-13.977-12.5H34.29a14.084 14.084 0 01-13.977 12.5zm13.15-15.626h-26.3l12.661-26.588c.325.035.653.035.979 0l12.66 26.588zm8.882-32.812H24.73a4.712 4.712 0 00-2.856-2.856v-.269h20.47a7.844 7.844 0 000 3.125zm6.031-12.5h3.248l.134 3.327a7.758 7.758 0 00-3.514 0l.132-3.327zM50 12.5a4.687 4.687 0 110 9.374 4.687 4.687 0 010-9.374zm4.624 68.75h-9.248l2.266-56.615a7.811 7.811 0 004.718 0l2.264 56.615zm31.313 9.375v3.125H14.064v-3.125h71.874zM75 84.375V87.5H25v-3.125h50zm4.688-65.625a1.563 1.563 0 110 3.125 1.563 1.563 0 010-3.125zm-4.42 0H57.657a7.844 7.844 0 000-3.125h20.469v.269a4.71 4.71 0 00-2.856 2.856zm3.931 6.224c.326.035.654.035.979 0l12.66 26.588h-26.3l12.661-26.588zm.489 42.213a14.083 14.083 0 01-13.977-12.5h27.953a14.084 14.084 0 01-13.977 12.5z" fill="#000"/></svg>