<svg width="232" height="206" fill="none" xmlns="http://www.w3.org/2000/svg"><g clip-path="url(#clip0_1111_1019)"><path d="M136.589 195.836a15.734 15.734 0 00-6.856-3.662 9.898 9.898 0 00-1.637-.193 7.7 7.7 0 001.585-.439 11.107 11.107 0 005.555-5.014 27.828 27.828 0 002.448-6.137c.542-1.934.812-3.416.812-3.416s-.489.245-1.288.722-1.843 1.289-3.029 2.088a29.011 29.011 0 00-3.75 3.197 17.629 17.629 0 00-3.299 4.28 5.467 5.467 0 00-.761 3.52 3 3 0 00.503 1.289c-.219.398-.35.837-.387 1.289a4.965 4.965 0 001.237 3.455 15.035 15.035 0 004.46 3.687 25.388 25.388 0 005.374 2.089c1.479.391 2.987.662 4.51.812 1.16.129 1.882.155 1.882.155s-1.031-1.289-2.462-2.836a54.023 54.023 0 00-4.897-4.886z" fill="url(#paint0_linear_1111_1019)" stroke="url(#paint1_linear_1111_1019)" stroke-miterlimit="10"/><path d="M162.029 194.7a52.828 52.828 0 00-5.748-3.867 15.574 15.574 0 00-7.462-2.192 8.465 8.465 0 00-1.636.129c.513-.2 1.005-.45 1.469-.748a11.124 11.124 0 004.42-6.033 28.36 28.36 0 001.16-6.446 42.91 42.91 0 00.103-2.501v-1.019l-1.082.967a33.31 33.31 0 00-2.578 2.656 27.728 27.728 0 00-3.028 3.868 18.232 18.232 0 00-2.372 4.847 5.477 5.477 0 000 3.61c.161.44.421.837.761 1.16-.147.44-.187.908-.116 1.367a4.81 4.81 0 001.83 3.107 15.03 15.03 0 005.155 2.733 26.37 26.37 0 005.683.954c1.53.06 3.063.021 4.588-.116.58 0 1.057-.116 1.379-.155l.49-.09-.838-.645-2.178-1.586z" fill="url(#paint2_linear_1111_1019)" stroke="url(#paint3_linear_1111_1019)" stroke-miterlimit="10"/><path d="M174.569 182.053a19.629 19.629 0 00-4.524-.863 15.6 15.6 0 00-3.222.219c-.545.105-1.08.26-1.598.464.46-.3.891-.641 1.289-1.019a8.627 8.627 0 001.856-2.578 12.915 12.915 0 001.289-4.241 28.143 28.143 0 00-.168-6.588 37.546 37.546 0 00-.618-3.494l-.851 1.199a30.273 30.273 0 00-1.972 3.107 29.313 29.313 0 00-2.178 4.409 18.544 18.544 0 00-1.289 5.234 5.498 5.498 0 00.709 3.545c.237.398.569.731.967.967-.051.467.006.939.167 1.38a4.874 4.874 0 002.423 2.668 14.696 14.696 0 005.555 1.638c1.921.151 3.853.086 5.76-.194a37.382 37.382 0 004.472-1.031c1.122-.348 1.779-.632 1.779-.632s-1.418-.696-3.364-1.598a51.338 51.338 0 00-6.482-2.592z" fill="url(#paint4_linear_1111_1019)" stroke="url(#paint5_linear_1111_1019)" stroke-miterlimit="10"/><path d="M190.678 169.742a21.137 21.137 0 00-4.588.077c-1.069.149-2.113.44-3.106.864a8.55 8.55 0 00-1.469.76 8.687 8.687 0 001.07-1.289 9.96 9.96 0 001.289-2.914c.392-1.434.519-2.928.373-4.409a26.926 26.926 0 00-1.482-6.446c-.67-1.92-1.288-3.313-1.288-3.313s-.245.49-.593 1.289c-.348.8-.877 1.999-1.289 3.43a25.128 25.128 0 00-1.521 10.159 5.499 5.499 0 001.392 3.326 2.89 2.89 0 001.147.76c.054.456.203.895.438 1.289a4.965 4.965 0 002.913 2.141c3.634 1.186 7.977.386 11.367-.864a31.389 31.389 0 004.188-1.895c1.005-.58 1.611-.98 1.611-.98s-1.547-.413-3.609-.89a57.534 57.534 0 00-6.843-1.095z" fill="url(#paint6_linear_1111_1019)" stroke="url(#paint7_linear_1111_1019)" stroke-miterlimit="10"/><path d="M204.028 154.44a15.609 15.609 0 00-7.358 2.411c-.452.32-.883.668-1.289 1.044.325-.444.59-.929.786-1.444.915-2.407.978-5.055.18-7.503a26.239 26.239 0 00-2.732-5.995 41.042 41.042 0 00-1.933-2.965s-.154.516-.335 1.418c-.18.903-.399 2.166-.593 3.636-.09.735-.167 1.534-.206 2.359-.039.825-.09 1.676-.077 2.579.032 1.812.31 3.612.825 5.35a5.377 5.377 0 002.023 2.978c.384.269.825.446 1.289.515.135.449.373.859.696 1.199a4.921 4.921 0 003.286 1.509 13.65 13.65 0 005.735-.671 25.77 25.77 0 002.771-1.07 31.099 31.099 0 002.448-1.366 25.424 25.424 0 003.712-2.695c.889-.773 1.405-1.289 1.405-1.289s-1.611-.103-3.725-.167a61.962 61.962 0 00-6.908.167z" fill="url(#paint8_linear_1111_1019)" stroke="url(#paint9_linear_1111_1019)" stroke-miterlimit="10"/><path d="M214.069 136.791a17.474 17.474 0 00-4.176 1.882 11.594 11.594 0 00-2.577 1.998 10.19 10.19 0 00-1.018 1.289c.21-.511.365-1.042.464-1.585.184-1.048.215-2.116.09-3.172a13.576 13.576 0 00-1.418-4.203 26.214 26.214 0 00-3.866-5.324c-1.366-1.495-2.474-2.578-2.474-2.578v1.456c0 .916 0 2.218.142 3.675a24.927 24.927 0 002.577 9.952 5.398 5.398 0 002.577 2.501c.406.181.846.269 1.289.258.226.403.538.751.915 1.019a4.926 4.926 0 003.531.838c3.764-.349 7.501-2.759 10.104-5.26a26.018 26.018 0 003.093-3.391c.722-.928 1.121-1.534 1.121-1.534s-1.598.219-3.685.593c-2.257.406-4.49.935-6.689 1.586z" fill="url(#paint10_linear_1111_1019)" stroke="url(#paint11_linear_1111_1019)" stroke-miterlimit="10"/><path d="M220.306 117.466a17.537 17.537 0 00-3.66 2.694 13.31 13.31 0 00-2.087 2.462c-.295.47-.546.967-.748 1.483.097-.544.14-1.097.129-1.65a9.174 9.174 0 00-.554-3.12 13.836 13.836 0 00-2.217-3.868 26.95 26.95 0 00-4.884-4.421c-1.624-1.199-2.926-1.96-2.926-1.96s.065.541.245 1.431c.181.889.516 2.153.889 3.571a32.915 32.915 0 001.689 4.628 17.865 17.865 0 002.809 4.616 5.396 5.396 0 003.016 1.933c.458.106.934.106 1.392 0 .296.356.671.639 1.095.825a4.945 4.945 0 003.634.104 14.595 14.595 0 004.962-2.862 24.375 24.375 0 003.866-4.306 27.84 27.84 0 002.333-3.945c.528-1.045.799-1.715.799-1.715s-1.521.542-3.505 1.289a60.78 60.78 0 00-6.277 2.811z" fill="url(#paint12_linear_1111_1019)" stroke="url(#paint13_linear_1111_1019)" stroke-miterlimit="10"/><path d="M228.09 93.255a64.087 64.087 0 00-5.554 4.035 18.018 18.018 0 00-3.106 3.378 13.605 13.605 0 00-1.495 2.849 8.53 8.53 0 00-.438 1.586 7.718 7.718 0 00-.194-1.638 8.808 8.808 0 00-1.172-2.939 13.541 13.541 0 00-2.939-3.326 26.395 26.395 0 00-5.696-3.365c-1.843-.838-3.273-1.29-3.273-1.29s.167.516.541 1.367.979 2.011 1.611 3.326a31.965 31.965 0 002.539 4.177 17.772 17.772 0 003.724 3.868 5.448 5.448 0 003.364 1.289 3.03 3.03 0 001.289-.296c.376.294.818.493 1.288.58a4.945 4.945 0 003.57-.632 15.029 15.029 0 004.317-3.867 24.752 24.752 0 002.887-4.977 25.522 25.522 0 001.469-4.267c.297-1.134.426-1.844.426-1.844s-1.379.826-3.158 1.986z" fill="url(#paint14_linear_1111_1019)" stroke="url(#paint15_linear_1111_1019)" stroke-miterlimit="10"/><path d="M217.368 84.1a9.315 9.315 0 00-.142 1.65 8.485 8.485 0 00-.49-1.572 11.072 11.072 0 00-5.284-5.311 21.376 21.376 0 00-3.015-1.29 33.502 33.502 0 00-3.196-.876c-1.985-.451-3.493-.658-3.493-.658s.284.477.812 1.29c.283.36.619.812.979 1.289.361.477.761 1.057 1.225 1.637a27.23 27.23 0 003.415 3.584 16.837 16.837 0 004.369 3.107 5.423 5.423 0 003.557.593 2.98 2.98 0 001.288-.555 3.25 3.25 0 001.289.323 4.923 4.923 0 003.364-1.29 15.077 15.077 0 003.531-4.628 26.509 26.509 0 001.804-5.453c.194-.89.348-1.74.464-2.578.116-.838.129-1.457.155-2.037V69.43s-1.173 1.095-2.668 2.578c-.747.748-1.559 1.586-2.384 2.45a54.988 54.988 0 00-2.307 2.578 16.235 16.235 0 00-3.273 7.065z" fill="url(#paint16_linear_1111_1019)" stroke="url(#paint17_linear_1111_1019)" stroke-miterlimit="10"/><path d="M206.143 61.257a26.195 26.195 0 00-6.443-.864c-2.037 0-3.557.077-3.557.077s.373.4 1.056 1.019c.683.619 1.573 1.508 2.732 2.45a36.954 36.954 0 004.047 2.823 17.544 17.544 0 004.936 2.153 5.474 5.474 0 003.621-.142c.428-.175.808-.45 1.109-.8.458.104.933.104 1.392 0a4.795 4.795 0 002.899-1.933 14.916 14.916 0 002.578-5.235c.464-1.867.689-3.786.67-5.71a25.447 25.447 0 00-.284-4.59 32.415 32.415 0 00-.36-1.857s-.941 1.29-2.088 3.069a61.976 61.976 0 00-3.583 5.93 17.545 17.545 0 00-1.508 4.319 13.536 13.536 0 00-.322 3.223 7.84 7.84 0 00.206 1.65 8.535 8.535 0 00-.812-1.444 9.275 9.275 0 00-2.229-2.256 14.003 14.003 0 00-4.06-1.882z" fill="url(#paint18_linear_1111_1019)" stroke="url(#paint19_linear_1111_1019)" stroke-miterlimit="10"/><path d="M190.87 45.542c-2.01.36-3.479.773-3.479.773s1.83 1.29 4.407 2.643a27.68 27.68 0 003.338 1.496l1.186.477a17.757 17.757 0 005.296 1.095 5.555 5.555 0 003.519-.863 2.98 2.98 0 00.915-1.019c.467.03.935-.049 1.366-.232a4.845 4.845 0 002.577-2.578 14.836 14.836 0 001.379-5.621v-1.508c0-.503 0-.967-.116-1.444a30.87 30.87 0 00-.412-2.785 25.181 25.181 0 00-1.933-6.175s-.658 1.47-1.431 3.416a59.756 59.756 0 00-2.32 6.536 16.99 16.99 0 00-.592 4.525 12.192 12.192 0 00.322 3.236c.126.536.303 1.058.528 1.56a8.507 8.507 0 00-1.082-1.289 9.518 9.518 0 00-2.578-1.766 13.785 13.785 0 00-4.343-1.032 25.844 25.844 0 00-6.547.555z" fill="url(#paint20_linear_1111_1019)" stroke="url(#paint21_linear_1111_1019)" stroke-miterlimit="10"/><path d="M176.012 34.197s.502.219 1.379.528c.876.31 2.023.787 3.466 1.173a25.19 25.19 0 0010.233 1.045 5.512 5.512 0 003.273-1.56c.325-.33.568-.733.709-1.174a3.187 3.187 0 001.289-.502 4.821 4.821 0 001.985-2.991c.768-3.82.28-7.787-1.392-11.306a27.465 27.465 0 00-2.062-4.113c-.632-.98-1.057-1.547-1.057-1.547s-.348 1.56-.722 3.623a58.058 58.058 0 00-.966 6.871 17.292 17.292 0 00.322 4.55 12.15 12.15 0 00.954 3.108c.236.5.521.974.85 1.418a9.791 9.791 0 00-1.289-.993 10.096 10.096 0 00-2.912-1.212 13.873 13.873 0 00-4.459-.141c-2.178.321-4.307.91-6.341 1.753-1.907.76-3.26 1.47-3.26 1.47z" fill="url(#paint22_linear_1111_1019)" stroke="url(#paint23_linear_1111_1019)" stroke-miterlimit="10"/><path d="M162.518 24.58s.541.115 1.456.244c.915.13 2.139.361 3.634.464 3.446.365 6.929.014 10.233-1.031a5.49 5.49 0 002.899-2.179c.254-.386.409-.829.452-1.289a3.159 3.159 0 001.172-.76 4.782 4.782 0 001.289-3.327A18.055 18.055 0 00180.032 5.9a30.755 30.755 0 00-2.836-3.61A46.861 46.861 0 00175.908 1v3.7c.002 2.318.14 4.634.412 6.936.244 1.513.677 2.99 1.289 4.396a12.191 12.191 0 001.443 2.875c.332.444.708.855 1.121 1.225a8.168 8.168 0 00-1.495-.71 9.954 9.954 0 00-3.093-.605 13.443 13.443 0 00-4.394.76 26.46 26.46 0 00-5.838 2.965c-1.714 1.083-2.835 2.037-2.835 2.037z" fill="url(#paint24_linear_1111_1019)" stroke="url(#paint25_linear_1111_1019)" stroke-miterlimit="10"/><path d="M159.399 9.483c5.336 4.59 9.563 3.146 9.563 3.146s1.005-2.089-1.289-4.641c-4.988-5.505-14.937-6.356-14.937-6.356a49.845 49.845 0 006.663 7.851z" fill="url(#paint26_linear_1111_1019)" stroke="url(#paint27_linear_1111_1019)" stroke-miterlimit="10"/><path d="M109.189 205.389a30.204 30.204 0 012.204-6.369 12.65 12.65 0 0110.555-6.82 95.884 95.884 0 0058.606-19.988 95.94 95.94 0 0034.183-51.646 95.976 95.976 0 00-4.487-61.777 95.934 95.934 0 00-41.289-46.16" stroke="url(#paint28_linear_1111_1019)" stroke-miterlimit="10"/><path d="M95.685 195.836a15.789 15.789 0 016.856-3.661 9.9 9.9 0 011.637-.194 7.697 7.697 0 01-1.585-.438 11.218 11.218 0 01-5.555-5.041 27.208 27.208 0 01-2.436-6.136 39.6 39.6 0 01-.824-3.417s.49.245 1.288.722c.8.477 1.843 1.289 3.042 2.089a29.836 29.836 0 013.737 3.197 18.026 18.026 0 013.312 4.28 5.44 5.44 0 01.748 3.519 3.004 3.004 0 01-.503 1.29c.219.397.35.837.387 1.289a4.965 4.965 0 01-1.173 3.429 14.73 14.73 0 01-4.459 3.687 25.295 25.295 0 01-5.361 2.089 29.16 29.16 0 01-4.524.812c-1.16.129-1.881.155-1.881.155s1.03-1.29 2.461-2.837a56.154 56.154 0 014.833-4.834z" fill="url(#paint29_linear_1111_1019)" stroke="url(#paint30_linear_1111_1019)" stroke-miterlimit="10"/><path d="M70.245 194.7a52.904 52.904 0 015.748-3.867 15.576 15.576 0 017.462-2.192 8.444 8.444 0 011.65.129 7.507 7.507 0 01-1.47-.748 11.203 11.203 0 01-4.433-6.033 27.646 27.646 0 01-1.147-6.446 44.332 44.332 0 01-.116-2.501v-1.019l1.095.967a33.479 33.479 0 012.578 2.656 27.792 27.792 0 013.028 3.868 17.488 17.488 0 012.372 4.847 5.469 5.469 0 010 3.61 2.94 2.94 0 01-.748 1.16c.139.441.178.908.116 1.367a4.897 4.897 0 01-1.843 3.106 14.915 14.915 0 01-5.155 2.734 26.39 26.39 0 01-5.683.954c-1.526.06-3.054.021-4.575-.116-.593 0-1.057-.116-1.392-.155l-.49-.09.838-.645 2.165-1.586z" fill="url(#paint31_linear_1111_1019)" stroke="url(#paint32_linear_1111_1019)" stroke-miterlimit="10"/><path d="M57.718 182.053a19.628 19.628 0 014.523-.863 15.735 15.735 0 013.222.219c.542.105 1.073.26 1.585.464a8.87 8.87 0 01-3.157-3.597 12.897 12.897 0 01-1.289-4.241 28.814 28.814 0 01.168-6.588c.258-1.986.618-3.494.618-3.494l.851 1.199a28.017 28.017 0 011.972 3.107 30.537 30.537 0 012.19 4.409 18.494 18.494 0 011.29 5.234 5.402 5.402 0 01-.71 3.545 2.768 2.768 0 01-.966.967c.051.467-.006.939-.168 1.38a4.872 4.872 0 01-2.332 2.707 14.557 14.557 0 01-5.555 1.637 25.702 25.702 0 01-5.76-.193 38.245 38.245 0 01-4.472-1.031c-1.122-.348-1.779-.632-1.779-.632s1.418-.696 3.364-1.599a51.736 51.736 0 016.405-2.63z" fill="url(#paint33_linear_1111_1019)" stroke="url(#paint34_linear_1111_1019)" stroke-miterlimit="10"/><path d="M41.595 169.742a21.135 21.135 0 014.588.077 12.06 12.06 0 013.106.864c.513.205 1.005.46 1.47.76a8.685 8.685 0 01-1.07-1.289 9.929 9.929 0 01-1.29-2.914 12.16 12.16 0 01-.386-4.409c.234-2.2.731-4.364 1.482-6.446.67-1.92 1.289-3.313 1.289-3.313s.245.49.606 1.289c.36.8.863 1.999 1.288 3.43a24.913 24.913 0 011.586 10.287 5.354 5.354 0 01-1.392 3.327 2.884 2.884 0 01-1.147.76 3.022 3.022 0 01-.439 1.289 4.956 4.956 0 01-2.912 2.14c-3.622 1.187-7.977.387-11.367-.863a31.155 31.155 0 01-4.175-1.895c-1.018-.581-1.611-.98-1.611-.98s1.546-.413 3.595-.89a57.489 57.489 0 016.78-1.224z" fill="url(#paint35_linear_1111_1019)" stroke="url(#paint36_linear_1111_1019)" stroke-miterlimit="10"/><path d="M28.258 154.439a15.596 15.596 0 017.346 2.463c.449.323.879.672 1.288 1.044a5.708 5.708 0 01-.786-1.444 11.129 11.129 0 01-.18-7.503 25.708 25.708 0 012.732-5.995c1.031-1.753 1.92-2.965 1.92-2.965s.155.516.335 1.418c.18.903.4 2.166.606 3.636.09.735.155 1.534.193 2.359.073.857.099 1.718.078 2.578a20.103 20.103 0 01-.825 5.35 5.374 5.374 0 01-2.023 2.978c-.384.27-.825.446-1.29.516a3.05 3.05 0 01-.682 1.199 4.988 4.988 0 01-3.325 1.483 13.692 13.692 0 01-5.748-.671 25.43 25.43 0 01-2.758-1.07 33.909 33.909 0 01-2.461-1.366 26.188 26.188 0 01-3.712-2.695 25.34 25.34 0 01-1.392-1.289s1.598-.103 3.725-.167a61.914 61.914 0 016.959.141z" fill="url(#paint37_linear_1111_1019)" stroke="url(#paint38_linear_1111_1019)" stroke-miterlimit="10"/><path d="M18.18 136.791a17.445 17.445 0 014.175 1.882c.95.538 1.819 1.211 2.577 1.998.373.405.718.836 1.031 1.289a6.44 6.44 0 01-.464-1.585 10.073 10.073 0 01-.09-3.172c.228-1.47.703-2.891 1.405-4.203a26.767 26.767 0 013.866-5.324 64.756 64.756 0 012.461-2.578v1.456c0 .916-.064 2.218-.141 3.675a24.928 24.928 0 01-2.578 9.952 5.398 5.398 0 01-2.577 2.501 2.978 2.978 0 01-1.29.258c-.22.407-.533.756-.914 1.019a4.925 4.925 0 01-3.531.838c-3.763-.349-7.5-2.759-10.104-5.26a28.015 28.015 0 01-3.08-3.314c-.722-.928-1.121-1.534-1.121-1.534s1.598.219 3.698.593c2.251.382 4.48.885 6.676 1.509z" fill="url(#paint39_linear_1111_1019)" stroke="url(#paint40_linear_1111_1019)" stroke-miterlimit="10"/><path d="M11.967 117.466a17.493 17.493 0 013.725 2.694c.8.726 1.503 1.554 2.088 2.462.3.467.55.964.747 1.483a8.468 8.468 0 01-.129-1.65 9.17 9.17 0 01.555-3.12 13.823 13.823 0 012.216-3.868 27.834 27.834 0 014.884-4.421c1.637-1.199 2.926-1.96 2.926-1.96s-.064.541-.232 1.431c-.168.889-.528 2.153-.902 3.571a31.4 31.4 0 01-1.688 4.628 17.875 17.875 0 01-2.823 4.616 5.358 5.358 0 01-3.015 1.933 3.086 3.086 0 01-1.392 0 2.991 2.991 0 01-1.096.825 4.945 4.945 0 01-3.634.104 14.653 14.653 0 01-5.039-2.862 23.959 23.959 0 01-3.866-4.306 27.834 27.834 0 01-2.333-3.945c-.528-1.045-.799-1.715-.799-1.715s1.52.542 3.506 1.289a60.737 60.737 0 016.301 2.811z" fill="url(#paint41_linear_1111_1019)" stroke="url(#paint42_linear_1111_1019)" stroke-miterlimit="10"/><path d="M4.183 93.255a62.11 62.11 0 015.555 4.035 17.592 17.592 0 013.106 3.378c.636.881 1.16 1.838 1.559 2.849.196.513.343 1.044.438 1.586.006-.552.07-1.1.193-1.638a8.824 8.824 0 011.173-2.939 13.818 13.818 0 012.938-3.326 26.176 26.176 0 015.71-3.365c1.843-.838 3.26-1.29 3.26-1.29s-.167.516-.528 1.367-.992 1.96-1.675 3.275a31.892 31.892 0 01-2.578 4.228 17.86 17.86 0 01-3.737 3.868 5.423 5.423 0 01-3.351 1.289 3.042 3.042 0 01-1.289-.296 2.976 2.976 0 01-1.289.58 4.934 4.934 0 01-3.57-.632 14.919 14.919 0 01-4.33-3.867 24.782 24.782 0 01-2.886-4.977 26.757 26.757 0 01-1.457-4.267C1.13 91.98 1 91.27 1 91.27s1.405.826 3.183 1.986z" fill="url(#paint43_linear_1111_1019)" stroke="url(#paint44_linear_1111_1019)" stroke-miterlimit="10"/><path d="M14.906 84.1c.102.545.15 1.097.141 1.65a8.45 8.45 0 01.554-1.572 11.06 11.06 0 015.297-5.311c.967-.507 1.97-.938 3.003-1.29a33.43 33.43 0 013.196-.876c1.998-.451 3.493-.658 3.493-.658s-.271.477-.812 1.29c-.284.36-.606.812-.98 1.289-.373.477-.76 1.057-1.211 1.637a29.103 29.103 0 01-3.415 3.584 17.063 17.063 0 01-4.37 3.107 5.462 5.462 0 01-3.569.593 3.078 3.078 0 01-1.289-.555 3.248 3.248 0 01-1.289.323 4.948 4.948 0 01-3.363-1.29 15.276 15.276 0 01-3.531-4.628 25.7 25.7 0 01-1.792-5.453 28.89 28.89 0 01-.476-2.578c-.116-.838-.116-1.457-.155-2.037V69.43s1.173 1.095 2.668 2.578c.76.748 1.559 1.586 2.384 2.45.811.82 1.581 1.68 2.307 2.578a15.924 15.924 0 013.209 7.065z" fill="url(#paint45_linear_1111_1019)" stroke="url(#paint46_linear_1111_1019)" stroke-miterlimit="10"/><path d="M26.131 61.257a26.37 26.37 0 016.444-.864c2.036 0 3.557.077 3.557.077s-.374.4-1.057 1.019c-.683.619-1.508 1.508-2.719 2.45a36.843 36.843 0 01-4.047 2.823 17.383 17.383 0 01-4.935 2.153 5.488 5.488 0 01-3.622-.142 2.926 2.926 0 01-1.108-.8 3.13 3.13 0 01-1.38 0 4.793 4.793 0 01-2.95-1.933 15.15 15.15 0 01-2.513-5.235 22.774 22.774 0 01-.67-5.71 24.216 24.216 0 01.296-4.59c.193-1.148.36-1.857.36-1.857s.929 1.29 2.088 3.069a64.532 64.532 0 013.57 5.93 17.561 17.561 0 011.508 4.319c.234 1.058.346 2.14.335 3.223a8.698 8.698 0 01-.219 1.65c.224-.506.496-.99.812-1.444a9.279 9.279 0 012.165-2.256 14.003 14.003 0 014.085-1.882z" fill="url(#paint47_linear_1111_1019)" stroke="url(#paint48_linear_1111_1019)" stroke-miterlimit="10"/><path d="M41.376 45.542c2.023.361 3.48.774 3.48.774s-1.83 1.289-4.408 2.643c-.657.348-1.366.696-2.14 1.018-.386.168-.785.322-1.198.477l-1.186.477a17.766 17.766 0 01-5.283 1.096 5.501 5.501 0 01-3.441-.89 2.939 2.939 0 01-.928-1.018c-.467.03-.935-.05-1.366-.232a4.846 4.846 0 01-2.578-2.579 15.088 15.088 0 01-1.379-5.62v-1.509c0-.477 0-.967.103-1.444.103-.954.245-1.895.426-2.784a24.81 24.81 0 011.855-6.111s.658 1.47 1.43 3.416a59.517 59.517 0 012.32 6.536c.401 1.475.6 2.997.594 4.526a12.279 12.279 0 01-.31 3.235 8.614 8.614 0 01-.541 1.56c.317-.464.68-.896 1.082-1.289a9.524 9.524 0 012.578-1.766c1.418-.57 2.92-.9 4.446-.98a25.8 25.8 0 016.444.464z" fill="url(#paint49_linear_1111_1019)" stroke="url(#paint50_linear_1111_1019)" stroke-miterlimit="10"/><path d="M56.261 34.197s-.502.219-1.379.528c-.876.31-2.023.787-3.466 1.173a25.187 25.187 0 01-10.233 1.045 5.515 5.515 0 01-3.273-1.56 2.836 2.836 0 01-.696-1.174 3.196 3.196 0 01-1.289-.502 4.873 4.873 0 01-1.985-2.991 18.054 18.054 0 011.392-11.306 28.76 28.76 0 012.062-4.113c.632-.98 1.057-1.547 1.057-1.547s.348 1.56.722 3.623c.441 2.27.747 4.564.915 6.871a17.28 17.28 0 01-.322 4.55 11.683 11.683 0 01-.967 3.108c-.236.5-.521.974-.85 1.418.4-.368.83-.7 1.288-.993a10.013 10.013 0 012.9-1.212 13.942 13.942 0 014.472-.141 26.53 26.53 0 016.366 1.753c1.933.76 3.286 1.47 3.286 1.47z" fill="url(#paint51_linear_1111_1019)" stroke="url(#paint52_linear_1111_1019)" stroke-miterlimit="10"/><path d="M69.818 24.58s-.541.115-1.456.244c-.915.13-2.14.361-3.634.464a25.16 25.16 0 01-10.233-1.031 5.542 5.542 0 01-2.9-2.179 2.823 2.823 0 01-.45-1.289 3.067 3.067 0 01-1.16-.76 4.784 4.784 0 01-1.29-3.327A18.052 18.052 0 0152.318 5.9a30.705 30.705 0 012.848-3.61A19.289 19.289 0 0156.518 1v3.7a56.914 56.914 0 01-.412 6.936 17.76 17.76 0 01-1.289 4.396 12.21 12.21 0 01-1.598 2.875c-.332.44-.703.85-1.108 1.225.467-.29.964-.527 1.482-.71a9.958 9.958 0 013.093-.605c1.501.006 2.99.263 4.407.76a26.644 26.644 0 015.825 2.965 34.486 34.486 0 012.9 2.037z" fill="url(#paint53_linear_1111_1019)" stroke="url(#paint54_linear_1111_1019)" stroke-miterlimit="10"/><path d="M72.874 9.483c-5.335 4.59-9.588 3.146-9.588 3.146s-1.005-2.089 1.288-4.641c5.04-5.505 14.989-6.356 14.989-6.356a49.848 49.848 0 01-6.689 7.851z" fill="url(#paint55_linear_1111_1019)" stroke="url(#paint56_linear_1111_1019)" stroke-miterlimit="10"/><path d="M123.082 205.415a29.028 29.028 0 00-2.204-6.446 12.652 12.652 0 00-10.554-6.82 95.888 95.888 0 01-58.56-20.002 95.947 95.947 0 01-34.16-51.613 95.973 95.973 0 014.46-61.74 95.93 95.93 0 0141.22-46.165" stroke="url(#paint57_linear_1111_1019)" stroke-miterlimit="10"/><path d="M116.716 62.9l-9.292 5.827 2.681-10.636-8.416-7.039 10.942-.748 4.085-10.171 4.086 10.171 10.954.748-8.429 7.04 2.681 10.635-9.292-5.827z" fill="url(#paint58_linear_1111_1019)" stroke="url(#paint59_linear_1111_1019)" stroke-miterlimit="10"/><path d="M149.657 64.563l-6.379 4.009 1.842-7.31-5.786-4.821 7.513-.516 2.81-6.987 2.809 6.987 7.514.516-5.774 4.821 1.83 7.31-6.379-4.01z" fill="url(#paint60_linear_1111_1019)" stroke="url(#paint61_linear_1111_1019)" stroke-miterlimit="10"/><path d="M83.776 64.563l-6.38 4.009 1.844-7.31-5.787-4.821 7.513-.516 2.81-6.987 2.81 6.987 7.513.516-5.774 4.821 1.83 7.31-6.379-4.01z" fill="url(#paint62_linear_1111_1019)" stroke="url(#paint63_linear_1111_1019)" stroke-miterlimit="10"/><path d="M42.61 102.979h7.03l-.322-2.147h-6.384l-.323 2.147zm3.478-5.966l1.995 4.617-.038.684 1.71 3.686h3.078l-6.745-14.079L39.343 106h3.059l1.748-3.8-.057-.608 1.995-4.579zm18.493 3.952l-3.743-8.93-3.705 8.93-2.888-8.265h-3.192l5.586 14.041 4.199-8.74 4.18 8.74L70.623 92.7h-3.192l-2.85 8.265zm7.532 2.014h7.03l-.323-2.147h-6.384l-.323 2.147zm3.477-5.966l1.995 4.617-.038.684 1.71 3.686h3.078L75.59 91.921 68.845 106h3.059l1.748-3.8-.057-.608 1.995-4.579zm11.209 2.793l3.99 6.194h3.21l-4.331-6.194h-2.87zM83.776 92.7V106h2.718V92.7h-2.718zm1.653 2.318h2.641c.482 0 .894.082 1.236.247.354.152.626.38.817.684.19.291.285.646.285 1.064 0 .418-.096.779-.285 1.083-.19.291-.463.52-.817.684-.343.152-.754.228-1.236.228h-2.64v2.166h2.812c1.05 0 1.944-.177 2.678-.532.735-.355 1.299-.849 1.691-1.482.393-.646.59-1.387.59-2.223 0-.849-.197-1.59-.59-2.223-.392-.633-.956-1.127-1.69-1.482-.735-.355-1.628-.532-2.68-.532H85.43v2.318zM95.56 92.7V106h2.774V92.7H95.56zm4.522 13.3c1.393 0 2.609-.272 3.648-.817a5.972 5.972 0 002.451-2.299c.582-1.001.874-2.179.874-3.534s-.292-2.527-.874-3.515c-.583-1-1.4-1.773-2.451-2.318-1.039-.545-2.255-.817-3.648-.817h-2.774v2.47h2.679c.582 0 1.133.082 1.653.247.519.152.975.399 1.368.741.392.342.696.779.912 1.311.228.52.342 1.146.342 1.881 0 .735-.114 1.368-.342 1.9-.216.519-.52.95-.912 1.292a3.82 3.82 0 01-1.368.76 5.864 5.864 0 01-1.653.228h-2.68V106h2.775zm26.973-5.035l-3.743-8.93-3.705 8.93-2.888-8.265h-3.192l5.586 14.041 4.199-8.74 4.18 8.74 5.605-14.041h-3.192l-2.85 8.265zm7.581-8.265V106h2.755V92.7h-2.755zm15.084 0v8.246l-9.462-8.911V106h2.622v-8.246l9.462 8.911V92.7h-2.622zm14.974 0v8.246l-9.462-8.911V106h2.622v-8.246l9.462 8.911V92.7h-2.622zm7.259 13.3h6.707v-2.299h-6.707V106zm0-11.001h6.707V92.7h-6.707v2.299zm0 5.073h6.327v-2.261h-6.327v2.261zm-1.748-7.372V106h2.622V92.7h-2.622zm14.154 7.106l3.99 6.194h3.211l-4.332-6.194h-2.869zm-3.021-7.106V106h2.717V92.7h-2.717zm1.653 2.318h2.641c.481 0 .893.082 1.235.247.355.152.627.38.817.684.19.291.285.646.285 1.064 0 .418-.095.779-.285 1.083a1.9 1.9 0 01-.817.684c-.342.152-.754.228-1.235.228h-2.641v2.166h2.812c1.051 0 1.944-.177 2.679-.532.735-.355 1.298-.849 1.691-1.482.393-.646.589-1.387.589-2.223 0-.849-.196-1.59-.589-2.223-.393-.633-.956-1.127-1.691-1.482-.735-.355-1.628-.532-2.679-.532h-2.812v2.318zM93.16 133h10.697v-2.489H98.29l3.458-3.268a6.565 6.565 0 001.349-1.691 4.071 4.071 0 00.513-1.995c0-.481-.102-.963-.304-1.444a3.732 3.732 0 00-.893-1.311c-.393-.405-.893-.728-1.501-.969-.596-.253-1.292-.38-2.09-.38-1.077 0-1.989.228-2.736.684a4.332 4.332 0 00-1.672 1.805c-.38.76-.57 1.615-.57 2.565h2.66c0-.532.088-1.001.266-1.406.19-.405.45-.716.779-.931.342-.228.747-.342 1.216-.342.33 0 .62.057.874.171.253.101.468.241.646.418.177.177.31.38.399.608.088.228.133.462.133.703 0 .342-.064.671-.19.988a4.125 4.125 0 01-.551.95c-.24.317-.532.659-.874 1.026L93.16 133zm14.97-6.65c0-.671.063-1.279.19-1.824.127-.557.31-1.032.551-1.425.241-.405.526-.716.855-.931a1.973 1.973 0 011.102-.323c.418 0 .792.108 1.121.323.329.215.614.526.855.931.241.393.424.868.551 1.425.127.545.19 1.153.19 1.824s-.063 1.286-.19 1.843a4.982 4.982 0 01-.551 1.425 2.832 2.832 0 01-.855.912 2.005 2.005 0 01-1.121.323c-.405 0-.773-.108-1.102-.323a2.832 2.832 0 01-.855-.912 4.982 4.982 0 01-.551-1.425 8.303 8.303 0 01-.19-1.843zm-2.641 0c0 1.406.222 2.622.665 3.648.456 1.026 1.083 1.824 1.881 2.394.811.557 1.742.836 2.793.836 1.089 0 2.033-.279 2.831-.836.798-.57 1.419-1.368 1.862-2.394.443-1.026.665-2.242.665-3.648 0-1.406-.222-2.622-.665-3.648-.443-1.026-1.064-1.818-1.862-2.375-.798-.57-1.742-.855-2.831-.855-1.051 0-1.982.285-2.793.855-.798.557-1.425 1.349-1.881 2.375-.443 1.026-.665 2.242-.665 3.648zm11.829 6.65h10.697v-2.489h-5.567l3.458-3.268a6.565 6.565 0 001.349-1.691 4.071 4.071 0 00.513-1.995 3.69 3.69 0 00-.304-1.444 3.732 3.732 0 00-.893-1.311c-.393-.405-.893-.728-1.501-.969-.595-.253-1.292-.38-2.09-.38-1.077 0-1.989.228-2.736.684a4.33 4.33 0 00-1.672 1.805c-.38.76-.57 1.615-.57 2.565h2.66c0-.532.089-1.001.266-1.406.19-.405.45-.716.779-.931.342-.228.747-.342 1.216-.342.329 0 .621.057.874.171.253.101.469.241.646.418.177.177.31.38.399.608.089.228.133.462.133.703 0 .342-.063.671-.19.988a4.09 4.09 0 01-.551.95c-.241.317-.532.659-.874 1.026L117.318 133zm12.918-9.842l3.192-.836V133h2.641v-13.528l-5.833 1.235v2.451z" fill="url(#paint64_linear_1111_1019)"/></g><defs><linearGradient id="paint0_linear_1111_1019" x1="73.66" y1="266.47" x2="259.867" y2="51.884" gradientUnits="userSpaceOnUse"><stop offset=".01" stop-color="#FBC93D"/><stop offset=".15" stop-color="#C58D43"/><stop offset=".29" stop-color="#A36D36"/><stop offset=".39" stop-color="#905C2F"/><stop offset=".54" stop-color="#B79056"/><stop offset=".71" stop-color="#E4CD83"/><stop offset="1" stop-color="#BD891A"/></linearGradient><linearGradient id="paint1_linear_1111_1019" x1="125.699" y1="190.034" x2="145.34" y2="190.034" gradientUnits="userSpaceOnUse"><stop offset=".01" stop-color="#FBC93D"/><stop offset=".15" stop-color="#C58D43"/><stop offset=".29" stop-color="#A36D36"/><stop offset=".39" stop-color="#905C2F"/><stop offset=".54" stop-color="#B79056"/><stop offset=".71" stop-color="#E4CD83"/><stop offset="1" stop-color="#BD891A"/></linearGradient><linearGradient id="paint2_linear_1111_1019" x1="82.037" y1="273.728" x2="268.244" y2="59.141" gradientUnits="userSpaceOnUse"><stop offset=".01" stop-color="#FBC93D"/><stop offset=".15" stop-color="#C58D43"/><stop offset=".29" stop-color="#A36D36"/><stop offset=".39" stop-color="#905C2F"/><stop offset=".54" stop-color="#B79056"/><stop offset=".71" stop-color="#E4CD83"/><stop offset="1" stop-color="#BD891A"/></linearGradient><linearGradient id="paint3_linear_1111_1019" x1="144.347" y1="184.297" x2="166.552" y2="184.297" gradientUnits="userSpaceOnUse"><stop offset=".01" stop-color="#FBC93D"/><stop offset=".15" stop-color="#C58D43"/><stop offset=".29" stop-color="#A36D36"/><stop offset=".39" stop-color="#905C2F"/><stop offset=".54" stop-color="#B79056"/><stop offset=".71" stop-color="#E4CD83"/><stop offset="1" stop-color="#BD891A"/></linearGradient><linearGradient id="paint4_linear_1111_1019" x1="87.179" y1="278.201" x2="273.386" y2="63.615" gradientUnits="userSpaceOnUse"><stop offset=".01" stop-color="#FBC93D"/><stop offset=".15" stop-color="#C58D43"/><stop offset=".29" stop-color="#A36D36"/><stop offset=".39" stop-color="#905C2F"/><stop offset=".54" stop-color="#B79056"/><stop offset=".71" stop-color="#E4CD83"/><stop offset="1" stop-color="#BD891A"/></linearGradient><linearGradient id="paint5_linear_1111_1019" x1="161.823" y1="175.633" x2="185.832" y2="175.633" gradientUnits="userSpaceOnUse"><stop offset=".01" stop-color="#FBC93D"/><stop offset=".15" stop-color="#C58D43"/><stop offset=".29" stop-color="#A36D36"/><stop offset=".39" stop-color="#905C2F"/><stop offset=".54" stop-color="#B79056"/><stop offset=".71" stop-color="#E4CD83"/><stop offset="1" stop-color="#BD891A"/></linearGradient><linearGradient id="paint6_linear_1111_1019" x1="89.344" y1="280.071" x2="275.551" y2="65.484" gradientUnits="userSpaceOnUse"><stop offset=".01" stop-color="#FBC93D"/><stop offset=".15" stop-color="#C58D43"/><stop offset=".29" stop-color="#A36D36"/><stop offset=".39" stop-color="#905C2F"/><stop offset=".54" stop-color="#B79056"/><stop offset=".71" stop-color="#E4CD83"/><stop offset="1" stop-color="#BD891A"/></linearGradient><linearGradient id="paint7_linear_1111_1019" x1="177.314" y1="164.25" x2="202.625" y2="164.25" gradientUnits="userSpaceOnUse"><stop offset=".01" stop-color="#FBC93D"/><stop offset=".15" stop-color="#C58D43"/><stop offset=".29" stop-color="#A36D36"/><stop offset=".39" stop-color="#905C2F"/><stop offset=".54" stop-color="#B79056"/><stop offset=".71" stop-color="#E4CD83"/><stop offset="1" stop-color="#BD891A"/></linearGradient><linearGradient id="paint8_linear_1111_1019" x1="88.582" y1="279.414" x2="274.79" y2="64.828" gradientUnits="userSpaceOnUse"><stop offset=".01" stop-color="#FBC93D"/><stop offset=".15" stop-color="#C58D43"/><stop offset=".29" stop-color="#A36D36"/><stop offset=".39" stop-color="#905C2F"/><stop offset=".54" stop-color="#B79056"/><stop offset=".71" stop-color="#E4CD83"/><stop offset="1" stop-color="#BD891A"/></linearGradient><linearGradient id="paint9_linear_1111_1019" x1="189.839" y1="150.431" x2="216.117" y2="150.431" gradientUnits="userSpaceOnUse"><stop offset=".01" stop-color="#FBC93D"/><stop offset=".15" stop-color="#C58D43"/><stop offset=".29" stop-color="#A36D36"/><stop offset=".39" stop-color="#905C2F"/><stop offset=".54" stop-color="#B79056"/><stop offset=".71" stop-color="#E4CD83"/><stop offset="1" stop-color="#BD891A"/></linearGradient><linearGradient id="paint10_linear_1111_1019" x1="84.988" y1="276.294" x2="271.195" y2="61.708" gradientUnits="userSpaceOnUse"><stop offset=".01" stop-color="#FBC93D"/><stop offset=".15" stop-color="#C58D43"/><stop offset=".29" stop-color="#A36D36"/><stop offset=".39" stop-color="#905C2F"/><stop offset=".54" stop-color="#B79056"/><stop offset=".71" stop-color="#E4CD83"/><stop offset="1" stop-color="#BD891A"/></linearGradient><linearGradient id="paint11_linear_1111_1019" x1="198.385" y1="134.676" x2="225.809" y2="134.676" gradientUnits="userSpaceOnUse"><stop offset=".01" stop-color="#FBC93D"/><stop offset=".15" stop-color="#C58D43"/><stop offset=".29" stop-color="#A36D36"/><stop offset=".39" stop-color="#905C2F"/><stop offset=".54" stop-color="#B79056"/><stop offset=".71" stop-color="#E4CD83"/><stop offset="1" stop-color="#BD891A"/></linearGradient><linearGradient id="paint12_linear_1111_1019" x1="79.008" y1="271.112" x2="265.216" y2="56.525" gradientUnits="userSpaceOnUse"><stop offset=".01" stop-color="#FBC93D"/><stop offset=".15" stop-color="#C58D43"/><stop offset=".29" stop-color="#A36D36"/><stop offset=".39" stop-color="#905C2F"/><stop offset=".54" stop-color="#B79056"/><stop offset=".71" stop-color="#E4CD83"/><stop offset="1" stop-color="#BD891A"/></linearGradient><linearGradient id="paint13_linear_1111_1019" x1="202.509" y1="117.491" x2="231.235" y2="117.491" gradientUnits="userSpaceOnUse"><stop offset=".01" stop-color="#FBC93D"/><stop offset=".15" stop-color="#C58D43"/><stop offset=".29" stop-color="#A36D36"/><stop offset=".39" stop-color="#905C2F"/><stop offset=".54" stop-color="#B79056"/><stop offset=".71" stop-color="#E4CD83"/><stop offset="1" stop-color="#BD891A"/></linearGradient><linearGradient id="paint14_linear_1111_1019" x1="70.863" y1="264.034" x2="257.07" y2="49.461" gradientUnits="userSpaceOnUse"><stop offset=".01" stop-color="#FBC93D"/><stop offset=".15" stop-color="#C58D43"/><stop offset=".29" stop-color="#A36D36"/><stop offset=".39" stop-color="#905C2F"/><stop offset=".54" stop-color="#B79056"/><stop offset=".71" stop-color="#E4CD83"/><stop offset="1" stop-color="#BD891A"/></linearGradient><linearGradient id="paint15_linear_1111_1019" x1="203.127" y1="98.811" x2="232.137" y2="98.811" gradientUnits="userSpaceOnUse"><stop offset=".01" stop-color="#FBC93D"/><stop offset=".15" stop-color="#C58D43"/><stop offset=".29" stop-color="#A36D36"/><stop offset=".39" stop-color="#905C2F"/><stop offset=".54" stop-color="#B79056"/><stop offset=".71" stop-color="#E4CD83"/><stop offset="1" stop-color="#BD891A"/></linearGradient><linearGradient id="paint16_linear_1111_1019" x1="60.824" y1="255.318" x2="247.031" y2="40.745" gradientUnits="userSpaceOnUse"><stop offset=".01" stop-color="#FBC93D"/><stop offset=".15" stop-color="#C58D43"/><stop offset=".29" stop-color="#A36D36"/><stop offset=".39" stop-color="#905C2F"/><stop offset=".54" stop-color="#B79056"/><stop offset=".71" stop-color="#E4CD83"/><stop offset="1" stop-color="#BD891A"/></linearGradient><linearGradient id="paint17_linear_1111_1019" x1="200.511" y1="78.119" x2="228.696" y2="78.119" gradientUnits="userSpaceOnUse"><stop offset=".01" stop-color="#FBC93D"/><stop offset=".15" stop-color="#C58D43"/><stop offset=".29" stop-color="#A36D36"/><stop offset=".39" stop-color="#905C2F"/><stop offset=".54" stop-color="#B79056"/><stop offset=".71" stop-color="#E4CD83"/><stop offset="1" stop-color="#BD891A"/></linearGradient><linearGradient id="paint18_linear_1111_1019" x1="49.213" y1="245.25" x2="235.42" y2="30.663" gradientUnits="userSpaceOnUse"><stop offset=".01" stop-color="#FBC93D"/><stop offset=".15" stop-color="#C58D43"/><stop offset=".29" stop-color="#A36D36"/><stop offset=".39" stop-color="#905C2F"/><stop offset=".54" stop-color="#B79056"/><stop offset=".71" stop-color="#E4CD83"/><stop offset="1" stop-color="#BD891A"/></linearGradient><linearGradient id="paint19_linear_1111_1019" x1="194.699" y1="58.459" x2="221.789" y2="58.459" gradientUnits="userSpaceOnUse"><stop offset=".01" stop-color="#FBC93D"/><stop offset=".15" stop-color="#C58D43"/><stop offset=".29" stop-color="#A36D36"/><stop offset=".39" stop-color="#905C2F"/><stop offset=".54" stop-color="#B79056"/><stop offset=".71" stop-color="#E4CD83"/><stop offset="1" stop-color="#BD891A"/></linearGradient><linearGradient id="paint20_linear_1111_1019" x1="36.401" y1="234.138" x2="222.608" y2="19.551" gradientUnits="userSpaceOnUse"><stop offset=".01" stop-color="#FBC93D"/><stop offset=".15" stop-color="#C58D43"/><stop offset=".29" stop-color="#A36D36"/><stop offset=".39" stop-color="#905C2F"/><stop offset=".54" stop-color="#B79056"/><stop offset=".71" stop-color="#E4CD83"/><stop offset="1" stop-color="#BD891A"/></linearGradient><linearGradient id="paint21_linear_1111_1019" x1="185.857" y1="40.501" x2="212.031" y2="40.501" gradientUnits="userSpaceOnUse"><stop offset=".01" stop-color="#FBC93D"/><stop offset=".15" stop-color="#C58D43"/><stop offset=".29" stop-color="#A36D36"/><stop offset=".39" stop-color="#905C2F"/><stop offset=".54" stop-color="#B79056"/><stop offset=".71" stop-color="#E4CD83"/><stop offset="1" stop-color="#BD891A"/></linearGradient><linearGradient id="paint22_linear_1111_1019" x1="22.87" y1="222.393" x2="209.09" y2="7.819" gradientUnits="userSpaceOnUse"><stop offset=".01" stop-color="#FBC93D"/><stop offset=".15" stop-color="#C58D43"/><stop offset=".29" stop-color="#A36D36"/><stop offset=".39" stop-color="#905C2F"/><stop offset=".54" stop-color="#B79056"/><stop offset=".71" stop-color="#E4CD83"/><stop offset="1" stop-color="#BD891A"/></linearGradient><linearGradient id="paint23_linear_1111_1019" x1="174.517" y1="25.005" x2="199.39" y2="25.005" gradientUnits="userSpaceOnUse"><stop offset=".01" stop-color="#FBC93D"/><stop offset=".15" stop-color="#C58D43"/><stop offset=".29" stop-color="#A36D36"/><stop offset=".39" stop-color="#905C2F"/><stop offset=".54" stop-color="#B79056"/><stop offset=".71" stop-color="#E4CD83"/><stop offset="1" stop-color="#BD891A"/></linearGradient><linearGradient id="paint24_linear_1111_1019" x1="7.211" y1="208.805" x2="193.418" y2="-5.769" gradientUnits="userSpaceOnUse"><stop offset=".01" stop-color="#FBC93D"/><stop offset=".15" stop-color="#C58D43"/><stop offset=".29" stop-color="#A36D36"/><stop offset=".39" stop-color="#905C2F"/><stop offset=".54" stop-color="#B79056"/><stop offset=".71" stop-color="#E4CD83"/><stop offset="1" stop-color="#BD891A"/></linearGradient><linearGradient id="paint25_linear_1111_1019" x1="160.997" y1="12.796" x2="184.31" y2="12.796" gradientUnits="userSpaceOnUse"><stop offset=".01" stop-color="#FBC93D"/><stop offset=".15" stop-color="#C58D43"/><stop offset=".29" stop-color="#A36D36"/><stop offset=".39" stop-color="#905C2F"/><stop offset=".54" stop-color="#B79056"/><stop offset=".71" stop-color="#E4CD83"/><stop offset="1" stop-color="#BD891A"/></linearGradient><linearGradient id="paint26_linear_1111_1019" x1="-4.929" y1="198.272" x2="181.291" y2="-16.314" gradientUnits="userSpaceOnUse"><stop offset=".01" stop-color="#FBC93D"/><stop offset=".15" stop-color="#C58D43"/><stop offset=".29" stop-color="#A36D36"/><stop offset=".39" stop-color="#905C2F"/><stop offset=".54" stop-color="#B79056"/><stop offset=".71" stop-color="#E4CD83"/><stop offset="1" stop-color="#BD891A"/></linearGradient><linearGradient id="paint27_linear_1111_1019" x1="151.409" y1="7.175" x2="169.825" y2="7.175" gradientUnits="userSpaceOnUse"><stop offset=".01" stop-color="#FBC93D"/><stop offset=".15" stop-color="#C58D43"/><stop offset=".29" stop-color="#A36D36"/><stop offset=".39" stop-color="#905C2F"/><stop offset=".54" stop-color="#B79056"/><stop offset=".71" stop-color="#E4CD83"/><stop offset="1" stop-color="#BD891A"/></linearGradient><linearGradient id="paint28_linear_1111_1019" x1="218.501" y1="108.803" x2="108.571" y2="108.803" gradientUnits="userSpaceOnUse"><stop offset=".01" stop-color="#FBC93D"/><stop offset=".15" stop-color="#C58D43"/><stop offset=".29" stop-color="#A36D36"/><stop offset=".39" stop-color="#905C2F"/><stop offset=".54" stop-color="#B79056"/><stop offset=".71" stop-color="#E4CD83"/><stop offset="1" stop-color="#BD891A"/></linearGradient><linearGradient id="paint29_linear_1111_1019" x1="158.614" y1="266.471" x2="-27.593" y2="51.884" gradientUnits="userSpaceOnUse"><stop offset=".01" stop-color="#FBC93D"/><stop offset=".15" stop-color="#C58D43"/><stop offset=".29" stop-color="#A36D36"/><stop offset=".39" stop-color="#905C2F"/><stop offset=".54" stop-color="#B79056"/><stop offset=".71" stop-color="#E4CD83"/><stop offset="1" stop-color="#BD891A"/></linearGradient><linearGradient id="paint30_linear_1111_1019" x1="86.947" y1="190.035" x2="106.588" y2="190.035" gradientUnits="userSpaceOnUse"><stop offset=".01" stop-color="#FBC93D"/><stop offset=".15" stop-color="#C58D43"/><stop offset=".29" stop-color="#A36D36"/><stop offset=".39" stop-color="#905C2F"/><stop offset=".54" stop-color="#B79056"/><stop offset=".71" stop-color="#E4CD83"/><stop offset="1" stop-color="#BD891A"/></linearGradient><linearGradient id="paint31_linear_1111_1019" x1="150.25" y1="273.728" x2="-35.957" y2="59.141" gradientUnits="userSpaceOnUse"><stop offset=".01" stop-color="#FBC93D"/><stop offset=".15" stop-color="#C58D43"/><stop offset=".29" stop-color="#A36D36"/><stop offset=".39" stop-color="#905C2F"/><stop offset=".54" stop-color="#B79056"/><stop offset=".71" stop-color="#E4CD83"/><stop offset="1" stop-color="#BD891A"/></linearGradient><linearGradient id="paint32_linear_1111_1019" x1="65.722" y1="184.297" x2="87.927" y2="184.297" gradientUnits="userSpaceOnUse"><stop offset=".01" stop-color="#FBC93D"/><stop offset=".15" stop-color="#C58D43"/><stop offset=".29" stop-color="#A36D36"/><stop offset=".39" stop-color="#905C2F"/><stop offset=".54" stop-color="#B79056"/><stop offset=".71" stop-color="#E4CD83"/><stop offset="1" stop-color="#BD891A"/></linearGradient><linearGradient id="paint33_linear_1111_1019" x1="145.095" y1="278.201" x2="-41.112" y2="63.615" gradientUnits="userSpaceOnUse"><stop offset=".01" stop-color="#FBC93D"/><stop offset=".15" stop-color="#C58D43"/><stop offset=".29" stop-color="#A36D36"/><stop offset=".39" stop-color="#905C2F"/><stop offset=".54" stop-color="#B79056"/><stop offset=".71" stop-color="#E4CD83"/><stop offset="1" stop-color="#BD891A"/></linearGradient><linearGradient id="paint34_linear_1111_1019" x1="46.441" y1="175.633" x2="70.451" y2="175.633" gradientUnits="userSpaceOnUse"><stop offset=".01" stop-color="#FBC93D"/><stop offset=".15" stop-color="#C58D43"/><stop offset=".29" stop-color="#A36D36"/><stop offset=".39" stop-color="#905C2F"/><stop offset=".54" stop-color="#B79056"/><stop offset=".71" stop-color="#E4CD83"/><stop offset="1" stop-color="#BD891A"/></linearGradient><linearGradient id="paint35_linear_1111_1019" x1="142.942" y1="280.071" x2="-43.278" y2="65.484" gradientUnits="userSpaceOnUse"><stop offset=".01" stop-color="#FBC93D"/><stop offset=".15" stop-color="#C58D43"/><stop offset=".29" stop-color="#A36D36"/><stop offset=".39" stop-color="#905C2F"/><stop offset=".54" stop-color="#B79056"/><stop offset=".71" stop-color="#E4CD83"/><stop offset="1" stop-color="#BD891A"/></linearGradient><linearGradient id="paint36_linear_1111_1019" x1="29.661" y1="164.25" x2="54.972" y2="164.25" gradientUnits="userSpaceOnUse"><stop offset=".01" stop-color="#FBC93D"/><stop offset=".15" stop-color="#C58D43"/><stop offset=".29" stop-color="#A36D36"/><stop offset=".39" stop-color="#905C2F"/><stop offset=".54" stop-color="#B79056"/><stop offset=".71" stop-color="#E4CD83"/><stop offset="1" stop-color="#BD891A"/></linearGradient><linearGradient id="paint37_linear_1111_1019" x1="143.704" y1="279.414" x2="-42.504" y2="64.827" gradientUnits="userSpaceOnUse"><stop offset=".01" stop-color="#FBC93D"/><stop offset=".15" stop-color="#C58D43"/><stop offset=".29" stop-color="#A36D36"/><stop offset=".39" stop-color="#905C2F"/><stop offset=".54" stop-color="#B79056"/><stop offset=".71" stop-color="#E4CD83"/><stop offset="1" stop-color="#BD891A"/></linearGradient><linearGradient id="paint38_linear_1111_1019" x1="16.157" y1="150.43" x2="42.434" y2="150.43" gradientUnits="userSpaceOnUse"><stop offset=".01" stop-color="#FBC93D"/><stop offset=".15" stop-color="#C58D43"/><stop offset=".29" stop-color="#A36D36"/><stop offset=".39" stop-color="#905C2F"/><stop offset=".54" stop-color="#B79056"/><stop offset=".71" stop-color="#E4CD83"/><stop offset="1" stop-color="#BD891A"/></linearGradient><linearGradient id="paint39_linear_1111_1019" x1="147.299" y1="276.294" x2="-38.909" y2="61.707" gradientUnits="userSpaceOnUse"><stop offset=".01" stop-color="#FBC93D"/><stop offset=".15" stop-color="#C58D43"/><stop offset=".29" stop-color="#A36D36"/><stop offset=".39" stop-color="#905C2F"/><stop offset=".54" stop-color="#B79056"/><stop offset=".71" stop-color="#E4CD83"/><stop offset="1" stop-color="#BD891A"/></linearGradient><linearGradient id="paint40_linear_1111_1019" x1="6.464" y1="134.676" x2="33.889" y2="134.676" gradientUnits="userSpaceOnUse"><stop offset=".01" stop-color="#FBC93D"/><stop offset=".15" stop-color="#C58D43"/><stop offset=".29" stop-color="#A36D36"/><stop offset=".39" stop-color="#905C2F"/><stop offset=".54" stop-color="#B79056"/><stop offset=".71" stop-color="#E4CD83"/><stop offset="1" stop-color="#BD891A"/></linearGradient><linearGradient id="paint41_linear_1111_1019" x1="153.266" y1="271.112" x2="-32.942" y2="56.525" gradientUnits="userSpaceOnUse"><stop offset=".01" stop-color="#FBC93D"/><stop offset=".15" stop-color="#C58D43"/><stop offset=".29" stop-color="#A36D36"/><stop offset=".39" stop-color="#905C2F"/><stop offset=".54" stop-color="#B79056"/><stop offset=".71" stop-color="#E4CD83"/><stop offset="1" stop-color="#BD891A"/></linearGradient><linearGradient id="paint42_linear_1111_1019" x1="1.039" y1="117.491" x2="29.765" y2="117.491" gradientUnits="userSpaceOnUse"><stop offset=".01" stop-color="#FBC93D"/><stop offset=".15" stop-color="#C58D43"/><stop offset=".29" stop-color="#A36D36"/><stop offset=".39" stop-color="#905C2F"/><stop offset=".54" stop-color="#B79056"/><stop offset=".71" stop-color="#E4CD83"/><stop offset="1" stop-color="#BD891A"/></linearGradient><linearGradient id="paint43_linear_1111_1019" x1="161.41" y1="264.034" x2="-24.797" y2="49.461" gradientUnits="userSpaceOnUse"><stop offset=".01" stop-color="#FBC93D"/><stop offset=".15" stop-color="#C58D43"/><stop offset=".29" stop-color="#A36D36"/><stop offset=".39" stop-color="#905C2F"/><stop offset=".54" stop-color="#B79056"/><stop offset=".71" stop-color="#E4CD83"/><stop offset="1" stop-color="#BD891A"/></linearGradient><linearGradient id="paint44_linear_1111_1019" x1=".137" y1="98.811" x2="29.146" y2="98.811" gradientUnits="userSpaceOnUse"><stop offset=".01" stop-color="#FBC93D"/><stop offset=".15" stop-color="#C58D43"/><stop offset=".29" stop-color="#A36D36"/><stop offset=".39" stop-color="#905C2F"/><stop offset=".54" stop-color="#B79056"/><stop offset=".71" stop-color="#E4CD83"/><stop offset="1" stop-color="#BD891A"/></linearGradient><linearGradient id="paint45_linear_1111_1019" x1="171.45" y1="255.331" x2="-14.758" y2="40.745" gradientUnits="userSpaceOnUse"><stop offset=".01" stop-color="#FBC93D"/><stop offset=".15" stop-color="#C58D43"/><stop offset=".29" stop-color="#A36D36"/><stop offset=".39" stop-color="#905C2F"/><stop offset=".54" stop-color="#B79056"/><stop offset=".71" stop-color="#E4CD83"/><stop offset="1" stop-color="#BD891A"/></linearGradient><linearGradient id="paint46_linear_1111_1019" x1="3.59" y1="78.119" x2="31.762" y2="78.119" gradientUnits="userSpaceOnUse"><stop offset=".01" stop-color="#FBC93D"/><stop offset=".15" stop-color="#C58D43"/><stop offset=".29" stop-color="#A36D36"/><stop offset=".39" stop-color="#905C2F"/><stop offset=".54" stop-color="#B79056"/><stop offset=".71" stop-color="#E4CD83"/><stop offset="1" stop-color="#BD891A"/></linearGradient><linearGradient id="paint47_linear_1111_1019" x1="183.062" y1="245.25" x2="-3.145" y2="30.664" gradientUnits="userSpaceOnUse"><stop offset=".01" stop-color="#FBC93D"/><stop offset=".15" stop-color="#C58D43"/><stop offset=".29" stop-color="#A36D36"/><stop offset=".39" stop-color="#905C2F"/><stop offset=".54" stop-color="#B79056"/><stop offset=".71" stop-color="#E4CD83"/><stop offset="1" stop-color="#BD891A"/></linearGradient><linearGradient id="paint48_linear_1111_1019" x1="10.486" y1="58.459" x2="37.575" y2="58.459" gradientUnits="userSpaceOnUse"><stop offset=".01" stop-color="#FBC93D"/><stop offset=".15" stop-color="#C58D43"/><stop offset=".29" stop-color="#A36D36"/><stop offset=".39" stop-color="#905C2F"/><stop offset=".54" stop-color="#B79056"/><stop offset=".71" stop-color="#E4CD83"/><stop offset="1" stop-color="#BD891A"/></linearGradient><linearGradient id="paint49_linear_1111_1019" x1="195.871" y1="234.138" x2="9.664" y2="19.552" gradientUnits="userSpaceOnUse"><stop offset=".01" stop-color="#FBC93D"/><stop offset=".15" stop-color="#C58D43"/><stop offset=".29" stop-color="#A36D36"/><stop offset=".39" stop-color="#905C2F"/><stop offset=".54" stop-color="#B79056"/><stop offset=".71" stop-color="#E4CD83"/><stop offset="1" stop-color="#BD891A"/></linearGradient><linearGradient id="paint50_linear_1111_1019" x1="20.253" y1="40.502" x2="46.415" y2="40.502" gradientUnits="userSpaceOnUse"><stop offset=".01" stop-color="#FBC93D"/><stop offset=".15" stop-color="#C58D43"/><stop offset=".29" stop-color="#A36D36"/><stop offset=".39" stop-color="#905C2F"/><stop offset=".54" stop-color="#B79056"/><stop offset=".71" stop-color="#E4CD83"/><stop offset="1" stop-color="#BD891A"/></linearGradient><linearGradient id="paint51_linear_1111_1019" x1="209.403" y1="222.393" x2="23.196" y2="7.819" gradientUnits="userSpaceOnUse"><stop offset=".01" stop-color="#FBC93D"/><stop offset=".15" stop-color="#C58D43"/><stop offset=".29" stop-color="#A36D36"/><stop offset=".39" stop-color="#905C2F"/><stop offset=".54" stop-color="#B79056"/><stop offset=".71" stop-color="#E4CD83"/><stop offset="1" stop-color="#BD891A"/></linearGradient><linearGradient id="paint52_linear_1111_1019" x1="32.884" y1="25.005" x2="57.756" y2="25.005" gradientUnits="userSpaceOnUse"><stop offset=".01" stop-color="#FBC93D"/><stop offset=".15" stop-color="#C58D43"/><stop offset=".29" stop-color="#A36D36"/><stop offset=".39" stop-color="#905C2F"/><stop offset=".54" stop-color="#B79056"/><stop offset=".71" stop-color="#E4CD83"/><stop offset="1" stop-color="#BD891A"/></linearGradient><linearGradient id="paint53_linear_1111_1019" x1="225.06" y1="208.805" x2="38.853" y2="-5.769" gradientUnits="userSpaceOnUse"><stop offset=".01" stop-color="#FBC93D"/><stop offset=".15" stop-color="#C58D43"/><stop offset=".29" stop-color="#A36D36"/><stop offset=".39" stop-color="#905C2F"/><stop offset=".54" stop-color="#B79056"/><stop offset=".71" stop-color="#E4CD83"/><stop offset="1" stop-color="#BD891A"/></linearGradient><linearGradient id="paint54_linear_1111_1019" x1="47.974" y1="12.796" x2="71.275" y2="12.796" gradientUnits="userSpaceOnUse"><stop offset=".01" stop-color="#FBC93D"/><stop offset=".15" stop-color="#C58D43"/><stop offset=".29" stop-color="#A36D36"/><stop offset=".39" stop-color="#905C2F"/><stop offset=".54" stop-color="#B79056"/><stop offset=".71" stop-color="#E4CD83"/><stop offset="1" stop-color="#BD891A"/></linearGradient><linearGradient id="paint55_linear_1111_1019" x1="237.202" y1="198.272" x2="50.995" y2="-16.314" gradientUnits="userSpaceOnUse"><stop offset=".01" stop-color="#FBC93D"/><stop offset=".15" stop-color="#C58D43"/><stop offset=".29" stop-color="#A36D36"/><stop offset=".39" stop-color="#905C2F"/><stop offset=".54" stop-color="#B79056"/><stop offset=".71" stop-color="#E4CD83"/><stop offset="1" stop-color="#BD891A"/></linearGradient><linearGradient id="paint56_linear_1111_1019" x1="62.461" y1="7.175" x2="80.864" y2="7.175" gradientUnits="userSpaceOnUse"><stop offset=".01" stop-color="#FBC93D"/><stop offset=".15" stop-color="#C58D43"/><stop offset=".29" stop-color="#A36D36"/><stop offset=".39" stop-color="#905C2F"/><stop offset=".54" stop-color="#B79056"/><stop offset=".71" stop-color="#E4CD83"/><stop offset="1" stop-color="#BD891A"/></linearGradient><linearGradient id="paint57_linear_1111_1019" x1="13.771" y1="108.816" x2="123.714" y2="108.816" gradientUnits="userSpaceOnUse"><stop offset=".01" stop-color="#FBC93D"/><stop offset=".15" stop-color="#C58D43"/><stop offset=".29" stop-color="#A36D36"/><stop offset=".39" stop-color="#905C2F"/><stop offset=".54" stop-color="#B79056"/><stop offset=".71" stop-color="#E4CD83"/><stop offset="1" stop-color="#BD891A"/></linearGradient><linearGradient id="paint58_linear_1111_1019" x1="158.665" y1="39.166" x2="75.3" y2="73.258" gradientUnits="userSpaceOnUse"><stop offset=".01" stop-color="#FBC93D"/><stop offset=".15" stop-color="#C58D43"/><stop offset=".29" stop-color="#A36D36"/><stop offset=".39" stop-color="#905C2F"/><stop offset=".54" stop-color="#B79056"/><stop offset=".71" stop-color="#E4CD83"/><stop offset="1" stop-color="#BD891A"/></linearGradient><linearGradient id="paint59_linear_1111_1019" x1="100.04" y1="54.262" x2="133.393" y2="54.262" gradientUnits="userSpaceOnUse"><stop offset=".01" stop-color="#FBC93D"/><stop offset=".15" stop-color="#C58D43"/><stop offset=".29" stop-color="#A36D36"/><stop offset=".39" stop-color="#905C2F"/><stop offset=".54" stop-color="#B79056"/><stop offset=".71" stop-color="#E4CD83"/><stop offset="1" stop-color="#BD891A"/></linearGradient><linearGradient id="paint60_linear_1111_1019" x1="164.529" y1="53.978" x2="81.152" y2="88.07" gradientUnits="userSpaceOnUse"><stop offset=".01" stop-color="#FBC93D"/><stop offset=".15" stop-color="#C58D43"/><stop offset=".29" stop-color="#A36D36"/><stop offset=".39" stop-color="#905C2F"/><stop offset=".54" stop-color="#B79056"/><stop offset=".71" stop-color="#E4CD83"/><stop offset="1" stop-color="#BD891A"/></linearGradient><linearGradient id="paint61_linear_1111_1019" x1="137.697" y1="58.593" x2="161.629" y2="58.593" gradientUnits="userSpaceOnUse"><stop offset=".01" stop-color="#FBC93D"/><stop offset=".15" stop-color="#C58D43"/><stop offset=".29" stop-color="#A36D36"/><stop offset=".39" stop-color="#905C2F"/><stop offset=".54" stop-color="#B79056"/><stop offset=".71" stop-color="#E4CD83"/><stop offset="1" stop-color="#BD891A"/></linearGradient><linearGradient id="paint62_linear_1111_1019" x1="155.082" y1="30.876" x2="71.705" y2="64.981" gradientUnits="userSpaceOnUse"><stop offset=".01" stop-color="#FBC93D"/><stop offset=".15" stop-color="#C58D43"/><stop offset=".29" stop-color="#A36D36"/><stop offset=".39" stop-color="#905C2F"/><stop offset=".54" stop-color="#B79056"/><stop offset=".71" stop-color="#E4CD83"/><stop offset="1" stop-color="#BD891A"/></linearGradient><linearGradient id="paint63_linear_1111_1019" x1="71.816" y1="58.593" x2="95.748" y2="58.593" gradientUnits="userSpaceOnUse"><stop offset=".01" stop-color="#FBC93D"/><stop offset=".15" stop-color="#C58D43"/><stop offset=".29" stop-color="#A36D36"/><stop offset=".39" stop-color="#905C2F"/><stop offset=".54" stop-color="#B79056"/><stop offset=".71" stop-color="#E4CD83"/><stop offset="1" stop-color="#BD891A"/></linearGradient><linearGradient id="paint64_linear_1111_1019" x1="165.563" y1="77.65" x2="143.333" y2="172.343" gradientUnits="userSpaceOnUse"><stop stop-color="#925E31"/><stop offset="1" stop-color="#F5B049"/></linearGradient><clipPath id="clip0_1111_1019"><path fill="#fff" d="M0 0h232v206H0z"/></clipPath></defs></svg>