<svg width="100" height="100" fill="none" xmlns="http://www.w3.org/2000/svg"><path d="M15.625 26.563a1.562 1.562 0 00.864 1.397 8.977 8.977 0 013.988 3.989 1.562 1.562 0 002.796 0 8.977 8.977 0 013.988-3.989 1.563 1.563 0 000-2.795 8.977 8.977 0 01-3.988-3.989 1.562 1.562 0 00-2.796 0 8.977 8.977 0 01-3.988 3.99 1.562 1.562 0 00-.864 1.397zm6.25-1.82a12.2 12.2 0 001.82 1.82c-.67.54-1.28 1.15-1.82 1.819a12.201 12.201 0 00-1.82-1.82 12.2 12.2 0 001.82-1.818zm57.813 9.632a1.562 1.562 0 00.863 1.398 8.977 8.977 0 013.989 3.988 1.562 1.562 0 002.795 0 8.977 8.977 0 013.989-3.988 1.563 1.563 0 000-2.795 8.977 8.977 0 01-3.989-3.99 1.562 1.562 0 00-2.795 0 8.977 8.977 0 01-3.989 3.99 1.562 1.562 0 00-.864 1.397zm6.25-1.819a12.2 12.2 0 001.819 1.82c-.67.54-1.279 1.15-1.82 1.818a12.197 12.197 0 00-1.819-1.819 12.2 12.2 0 001.82-1.819zM53.125 17.188v4.687a1.563 1.563 0 003.125 0v-4.688a1.563 1.563 0 00-3.125 0zm-11.395.457a1.562 1.562 0 10-2.21 2.21l3.125 3.125a1.562 1.562 0 102.21-2.21l-3.125-3.125zm22.79 5.335a1.564 1.564 0 002.21 0l3.125-3.125a1.562 1.562 0 10-2.21-2.21L64.52 20.77a1.564 1.564 0 000 2.21z" fill="#000"/><path d="M96.638 75.857l-6.25-15.625a1.563 1.563 0 00-1.45-.982h-3.63L80.9 48.232a12.37 12.37 0 012.485-1.647 1.563 1.563 0 000-2.795 12.491 12.491 0 01-5.551-5.551 1.561 1.561 0 00-2.795 0c-.222.444-.472.875-.746 1.289l-4.219-10.546a1.563 1.563 0 00-1.45-.982h-37.5a1.563 1.563 0 00-1.532 1.256l-2.874 14.369h-6.987a15.81 15.81 0 012.717-1.727 1.563 1.563 0 000-2.796 16.007 16.007 0 01-7.114-7.113 1.562 1.562 0 00-2.795 0 16.007 16.007 0 01-7.114 7.113 1.563 1.563 0 000 2.796 16.007 16.007 0 017.114 7.113 1.563 1.563 0 002.795 0c.397-.792.86-1.549 1.384-2.263l-2.5 12.502h-6.53a1.563 1.563 0 00-1.533 1.256L3.03 76.131A1.562 1.562 0 004.563 78h90.625a1.563 1.563 0 001.45-2.143zm-20.2-33.946a15.719 15.719 0 003.276 3.276 15.719 15.719 0 00-3.276 3.277 15.72 15.72 0 00-3.277-3.276 15.72 15.72 0 003.277-3.277zM75.04 52.136a1.563 1.563 0 002.795 0c.222-.444.472-.875.746-1.289l3.361 8.403h-21.41l-2.5-12.5h11.77a12.495 12.495 0 015.238 5.386zm-7.473-21.011l4.407 11.018a12.362 12.362 0 01-2.172 1.482H51.156l-2.5-12.5h18.911zM41.781 46.75h13.063l2.5 12.5H39.281l2.5-12.5zm-9.375-15.625H45.47l2.5 12.5H29.906l2.5-12.5zm6.188 15.625l-1.219 6.095-1.219-6.095h2.438zm-18.688 0H32.97l2.5 12.5H17.406l2.5-12.5zm-5.968-1.486A19.243 19.243 0 009.173 40.5a19.243 19.243 0 004.765-4.764 19.24 19.24 0 004.764 4.764 19.24 19.24 0 00-4.764 4.764zm-7.47 29.611l2.5-12.5h13.063l2.5 12.5H6.468zm19.97-6.405l-1.22-6.095h2.439l-1.22 6.095zm1.905 6.405l2.5-12.5h13.063l2.5 12.5H28.343zm19.97-6.405l-1.22-6.095h2.438l-1.218 6.095zm1.905 6.405l2.5-12.5h13.063l2.5 12.5H50.218zm21.25 0l-2.5-12.5H87.88l5 12.5H71.468z" fill="#000"/></svg>