<svg width="100" height="100" fill="none" xmlns="http://www.w3.org/2000/svg"><path d="M4.174 62.278l9.375 3.261a1.564 1.564 0 002.01-1.027l.345-1.148 30.648 29.254a4.92 4.92 0 008.083-2.076 4.876 4.876 0 006.26-3.122 4.878 4.878 0 006.21-6.21 4.876 4.876 0 003.389-4.862l13.602-12.984.344 1.148a1.563 1.563 0 002.01 1.027l9.375-3.262a1.563 1.563 0 001.05-1.476V26.563a1.563 1.563 0 00-2.057-1.483l-18.75 6.25a1.562 1.562 0 00-1.002 1.932l.803 2.675H65.22a18.75 18.75 0 10-30.44 0H24.13l.803-2.675a1.562 1.562 0 00-1.002-1.932l-18.75-6.25a1.562 1.562 0 00-2.057 1.483V60.8a1.562 1.562 0 001.05 1.477zM93.75 28.73v30.96l-6.785 2.36-8.47-28.236L93.75 28.73zM76.562 39.063c.08 0 .16-.007.238-.02l6.29 20.963-13.882 13.25a4.692 4.692 0 00-.134-.142l-19.04-19.04 8.478-4.238a1.562 1.562 0 10-1.398-2.795L41.12 55.038a1.928 1.928 0 01-2.368-2.93l7.064-8.829a18.734 18.734 0 0016.571-4.216h14.175zM34.376 25A15.625 15.625 0 1150 40.625 15.643 15.643 0 0134.375 25zm3.238 14.063a18.797 18.797 0 005.028 3.182l-6.33 7.911a5.054 5.054 0 006.206 7.676l4.605-2.302c.06.095.131.183.21.262l19.532 19.532a1.752 1.752 0 11-2.478 2.478L51.105 64.52a1.563 1.563 0 00-2.21 2.21L63.74 81.574a1.752 1.752 0 01-2.478 2.478L46.417 69.208a1.563 1.563 0 00-2.21 2.21l13.282 13.28a1.754 1.754 0 01-1.239 2.992 1.753 1.753 0 01-1.239-.513L40.167 72.333a1.563 1.563 0 00-2.21 2.21l1.563 1.562 11.693 11.693a1.79 1.79 0 010 2.53 1.802 1.802 0 01-2.503.03l-31.8-30.353 6.284-20.942h14.419zM6.25 28.73l15.255 5.084-8.47 28.236-6.785-2.36V28.73z" fill="#000"/><path d="M50 29.688h-3.125a1.563 1.563 0 000 3.125h1.563v1.562a1.563 1.563 0 003.124 0v-1.831A4.687 4.687 0 0050 23.438a1.563 1.563 0 010-3.125h3.125a1.563 1.563 0 000-3.125h-1.563v-1.563a1.563 1.563 0 00-3.124 0v1.831A4.688 4.688 0 0050 26.563a1.563 1.563 0 010 3.125z" fill="#000"/></svg>