<svg width="9" height="18" fill="none" xmlns="http://www.w3.org/2000/svg"><path d="M1.827 17.537c-.259 0-.51-.102-.71-.288a1.233 1.233 0 01-.272-.38 1.402 1.402 0 01-.078-.954c.043-.156.113-.302.207-.428l4.966-6.7-4.79-6.713a1.31 1.31 0 01-.202-.433 1.403 1.403 0 01.09-.954c.07-.145.164-.272.278-.375.115-.114.25-.2.395-.253a.99.99 0 01.883.103c.133.084.249.2.34.337l5.355 7.5c.163.224.252.504.252.794 0 .29-.09.57-.252.794l-5.543 7.5c-.11.15-.252.27-.412.349a.997.997 0 01-.508.1z" fill="#fff"/></svg>