<svg width="9" height="18" fill="none" xmlns="http://www.w3.org/2000/svg"><path d="M7.62 17.537c.259 0 .51-.102.71-.288.112-.105.204-.234.272-.38a1.402 1.402 0 00.078-.954 1.307 1.307 0 00-.206-.428l-4.966-6.7 4.788-6.713a1.31 1.31 0 00.203-.433 1.403 1.403 0 00-.09-.954 1.227 1.227 0 00-.28-.375 1.083 1.083 0 00-.394-.253.99.99 0 00-.883.103c-.133.084-.249.2-.34.337l-5.354 7.5a1.351 1.351 0 00-.253.794c0 .29.09.57.253.794l5.542 7.5c.111.15.252.27.412.349.16.078.334.112.508.1z" fill="#fff"/></svg>